<svg id="Layer_1" data-name="Layer 1" xmlns="http://www.w3.org/2000/svg" viewBox="0 0 414.71 489.65">
  <defs>
    <style>
      .cls-1 {
        fill: #ec008c;
      }
    </style>
  </defs>
  <title>0</title>
  <path class="cls-1" d="M215.45.38c20.92,0,43.36,4.36,66.69,13a257.12,257.12,0,0,1,64.7,35A199,199,0,0,1,395.35,100c12.59,19.58,19,40.62,19,62.52a388.86,388.86,0,0,1-7.28,73.24,403.38,403.38,0,0,1-21.84,74,377.52,377.52,0,0,1-36.41,68.91,281.39,281.39,0,0,1-50.14,57.08,233.66,233.66,0,0,1-63.48,39c-23.31,9.66-49.29,14.56-77.21,14.56-24.13,0-46.15-4.76-65.45-14.16a156.27,156.27,0,0,1-49.71-37.76,167.47,167.47,0,0,1-31.52-54.3A189.83,189.83,0,0,1,.38,319.3c0-13.61,3-31.22,8.89-52.34a525.7,525.7,0,0,1,24.27-67.35A632,632,0,0,1,70,128.71a500.48,500.48,0,0,1,44.9-64.2c15.83-19.07,32.56-34.7,49.73-46.45S198.84.38,215.45.38m-27.52,363.3c15.09,0,28.48-4,39.8-11.87a97.61,97.61,0,0,0,28-30A142.72,142.72,0,0,0,272,282.32a168.79,168.79,0,0,0,5.27-40.25c0-6.78-1.5-16.48-4.46-28.83a202.2,202.2,0,0,0-12.56-36.3,127.59,127.59,0,0,0-19.47-30.79c-7.58-8.69-16.08-13.09-25.28-13.09-6,0-12.17,3.48-18.4,10.33a177.66,177.66,0,0,0-19.05,26,315.14,315.14,0,0,0-18.63,35.49C153.46,218,148.28,231,144,243.56s-7.83,24.29-10.53,35.09-4.06,19.08-4.06,24.89c0,20.45,4.11,35.75,12.2,45.47s23.69,14.67,46.34,14.67M215.45.13q-25.11,0-51,17.73T114.67,64.35a499.07,499.07,0,0,0-44.93,64.23,629.12,629.12,0,0,0-36.43,70.93A523.67,523.67,0,0,0,9,266.89Q.11,298.81.12,319.3a189.27,189.27,0,0,0,10.93,63.83,166.84,166.84,0,0,0,31.57,54.38,155.88,155.88,0,0,0,49.79,37.83q29.13,14.18,65.56,14.18,42.09,0,77.31-14.58a232.87,232.87,0,0,0,63.54-39A280.8,280.8,0,0,0,349,378.8a376.19,376.19,0,0,0,36.43-69,402.52,402.52,0,0,0,21.86-74.08,387.88,387.88,0,0,0,7.28-73.29q0-33.1-19-62.65A198.17,198.17,0,0,0,347,48.2a256,256,0,0,0-64.76-35.07Q247,.12,215.45.13Zm-27.52,363.3q-34,0-46.14-14.58t-12.15-45.31q0-8.67,4.05-24.83t10.52-35.07q6.48-18.91,15.38-38.61a317.81,317.81,0,0,1,18.62-35.47,176.92,176.92,0,0,1,19-26q9.3-10.25,18.22-10.25,13.76,0,25.09,13A126.47,126.47,0,0,1,260,177.05a200.87,200.87,0,0,1,12.55,36.25Q277,231.83,277,242.07a168.15,168.15,0,0,1-5.26,40.19,142.24,142.24,0,0,1-16.19,39.4,97,97,0,0,1-27.93,29.95q-17,11.82-39.66,11.82Z"/>
</svg>
