<svg id="Layer_1" data-name="Layer 1" xmlns="http://www.w3.org/2000/svg" viewBox="0 0 268.35 560.57">
  <defs>
    <style>
      .cls-1 {
        fill: #ec008c;
      }
    </style>
  </defs>
  <title>1</title>
  <path class="cls-1" d="M267.18,2.22c.05,3.08.18,7.78.39,13.8.28,8.19.41,13.2.41,15.75a137.08,137.08,0,0,1-6.47,42.09c-4.32,13.41-9.09,26.66-14.16,39.39s-9.85,25.89-14.17,39a131.22,131.22,0,0,0-6.49,41.06v3.94a.25.25,0,0,0,.08.18l8,7.81v3.83a50.64,50.64,0,0,1-4,19.21,184.58,184.58,0,0,1-9.3,19.29c-3.76,6.74-7.2,12.79-10.52,18.51a117.35,117.35,0,0,0-8.52,17.78c-9.18,26.79-18.57,53.3-27.92,78.8-9.21,25.09-18.88,51.6-28.74,78.8-6.46,16.78-12.18,32.56-17,46.91a147.4,147.4,0,0,1-18.59,37.76,77.82,77.82,0,0,1-29.45,25.14c-12,6-28.48,9-48.86,9-3.17,0-7.67-.12-13.75-.39-5.85-.27-9-.39-9.69-.39a17.49,17.49,0,0,1-5.54-3.49c-2-1.74-2.85-3.1-2.36-4L24.8,496.85c.7-1.38,4.79-13.42,8.1-23.28,5-14.79,11.38-33.48,19-55.56,7.77-22.46,16.35-47.91,25.5-75.66,9.24-28.07,18.64-56.44,27.92-84.32,8.9-26.73,17.77-53.28,27.12-81.17,8.58-25.59,15.93-47.87,21.86-66.21,1.61-5.22,3.66-13.58,6.08-24.84a286,286,0,0,1,9.7-34.25,137.21,137.21,0,0,1,14.95-30.68c5.86-8.82,13.41-13.29,22.46-13.29a13.61,13.61,0,0,1,3.08.75c1.05,1.59,2.66,5.39,4.78,11.3s3.22,10.1,3.22,12.13a.26.26,0,0,0,.14.23.22.22,0,0,0,.11,0A.3.3,0,0,0,219,32c3.79-3.17,7.08-8.11,9.78-14.68s6.11-9.7,10.3-9.7a25.5,25.5,0,0,1,3.92.77l8,7.83.12.06a23.93,23.93,0,0,0,4.11.8,13.8,13.8,0,0,0,4.12-.8.21.21,0,0,0,.1-.06c1.09-1.06,2.74-3.74,4.9-8a56.41,56.41,0,0,0,2.78-6m.24-2c0,1.06-1.09,3.68-3.24,7.88S260.4,15,259.32,16a13.52,13.52,0,0,1-4,.79,24.13,24.13,0,0,1-4.05-.79l-8.1-7.88a25.9,25.9,0,0,0-4-.79q-6.5,0-10.53,9.85t-9.71,14.58c0-2.09-1.09-6.17-3.24-12.21s-3.78-9.85-4.86-11.43a13.85,13.85,0,0,0-3.23-.79q-13.78,0-22.67,13.4a137,137,0,0,0-15,30.73,285.36,285.36,0,0,0-9.72,34.29q-3.65,17-6.07,24.82-8.91,27.6-21.86,66.2T105.12,258q-14.18,42.56-27.93,84.33t-25.5,75.65q-11.74,33.9-19,55.56t-8.1,23.25L.29,551.91c-.54,1.05.26,2.5,2.43,4.33a17.47,17.47,0,0,0,5.66,3.55c.54,0,3.77.12,9.72.39s10.52.39,13.76.39q30.75,0,49-9.06a77.69,77.69,0,0,0,29.55-25.22A147,147,0,0,0,129,488.46q7.27-21.66,17-46.89,14.56-40.18,28.73-78.8T202.66,284a114.85,114.85,0,0,1,8.5-17.73q5.25-9.06,10.52-18.52A182,182,0,0,0,231,228.4a50.52,50.52,0,0,0,4-19.31v-3.94l-8.1-7.88v-3.94a130,130,0,0,1,6.48-41q6.47-19.69,14.17-39t14.16-39.4a136.55,136.55,0,0,0,6.48-42.17q0-3.93-.41-15.76c-.28-7.88-.4-13.13-.4-15.76Z"/>
</svg>
