<svg id="Layer_1" data-name="Layer 1" xmlns="http://www.w3.org/2000/svg" viewBox="0 0 504.49 550.52">
  <defs>
    <style>
      .cls-1 {
        fill: #ec008c;
      }
    </style>
  </defs>
  <title>2</title>
  <path class="cls-1" d="M196,.5c15.52,0,32.92,3.44,51.72,10.23a339.38,339.38,0,0,1,57.43,27.56A404,404,0,0,1,361,78.46a446.71,446.71,0,0,1,47.74,47.26,242.56,242.56,0,0,1,33.55,49.6c8.31,16.71,12.52,32.58,12.52,47.17s-.81,30.8-2.42,48.05-6.5,32.57-14.53,45.59c-6.42,9.37-15.26,19.3-26.27,29.51a284.1,284.1,0,0,1-40,30.31,402.79,402.79,0,0,1-53.79,28.36,490.79,490.79,0,0,1-67.56,23.63.24.24,0,0,0-.18.26.26.26,0,0,0,.22.23l252.37,25.2c4.25,29.24-.56,52.13-14.29,68-16.4,19-46.06,28.61-88.13,28.61-28.15,0-62.5-4.3-102.11-12.79C149.8,506.1,67.26,490.19,52.74,490.19c-6.09,0-12.07-.14-17.8-.4A60.28,60.28,0,0,1,18,486.65a29.38,29.38,0,0,1-12.84-8.2C2,474.84.38,469.33.38,462.06c0-6.72,9.77-18.85,29.05-36.06,20.38-17.75,47.86-32.84,81.68-44.87,30.68-11.67,47.88-17.58,51.13-17.58a1.08,1.08,0,0,1,.34,0,.26.26,0,0,0,.25.21c.5,0,1.65.13,3.61.4a33.4,33.4,0,0,0,4.49.39c13.47,0,28.5-5.18,44.65-15.4A234.53,234.53,0,0,0,261,311.32a230.1,230.1,0,0,0,34.85-48.13c9.15-17,13.79-32.84,13.79-47,0-5.75-1.37-13.73-4.06-23.7a194.31,194.31,0,0,0-10.94-30A99.76,99.76,0,0,0,278,136.81c-6.49-7.11-13.91-10.72-22-10.72a25,25,0,0,0-4.1.8.23.23,0,0,0-.12.06,12.16,12.16,0,0,1-2,1.55,20.56,20.56,0,0,0-2.87,2.39s0,0-.22,0c-4,0-34.84-15.91-91.63-47.29a24.3,24.3,0,0,0-4.09-13.79c-2.7-3.92-5.56-7.9-8.51-11.83s-5.82-7.89-8.49-11.81a23.6,23.6,0,0,1-4-13.65c0-7.24,2.43-13.15,7.21-17.55a45,45,0,0,1,17.71-9.79,100.8,100.8,0,0,1,21.8-3.93C184.36.76,190.7.5,196,.5m0-.25q-8.1,0-19.43.79A100.82,100.82,0,0,0,154.74,5a45,45,0,0,0-17.81,9.85q-7.29,6.71-7.29,17.73a23.71,23.71,0,0,0,4.05,13.79q4,5.91,8.5,11.82T150.69,70a23.88,23.88,0,0,1,4.05,13.79q85.77,47.38,91.88,47.39a.6.6,0,0,0,.4-.11,19.91,19.91,0,0,1,2.83-2.36,12.57,12.57,0,0,0,2-1.58,25.51,25.51,0,0,1,4-.79q12.15,0,21.86,10.64a99.37,99.37,0,0,1,16.59,25.61,193.91,193.91,0,0,1,10.93,29.95q4,15,4.05,23.64,0,21.28-13.76,46.9a229.09,229.09,0,0,1-34.81,48.07A233.2,233.2,0,0,1,215.45,349q-24.28,15.36-44.52,15.36a32.93,32.93,0,0,1-4.46-.39c-1.89-.26-3.11-.4-3.64-.4,0-.16-.2-.25-.59-.25q-5,0-51.22,17.59Q60,399,29.27,425.81.13,451.82.13,462.06q0,11.06,4.85,16.55a29.4,29.4,0,0,0,13,8.28,60.2,60.2,0,0,0,17,3.15q8.9.4,17.81.4,21.85,0,245.28,47.28,59.73,12.81,102.16,12.8,116.86,0,102.63-97.12L250.26,428.18a486.88,486.88,0,0,0,67.59-23.65,400.87,400.87,0,0,0,53.83-28.37,282.18,282.18,0,0,0,40.07-30.34q16.58-15.36,26.31-29.55,12.13-19.69,14.57-45.71t2.42-48.07q0-22.05-12.54-47.29t-33.6-49.65a444.34,444.34,0,0,0-47.76-47.28A402.17,402.17,0,0,0,305.3,38.08,337.61,337.61,0,0,0,247.83,10.5Q219.48.25,196,.25Z"/>
</svg>
