<svg id="Layer_1" data-name="Layer 1" xmlns="http://www.w3.org/2000/svg" viewBox="0 0 420.37 529.54">
  <defs>
    <style>
      .cls-1 {
        fill: #ec008c;
      }
    </style>
  </defs>
  <title>3</title>
  <path class="cls-1" d="M63.92.25V.5h0A18.83,18.83,0,0,1,68.07,1c11.8,2.62,24.46,5.8,37.63,9.45S133.26,18.37,148.19,23c15.17,4.23,30.55,9.13,45.72,14.58,14.76,5.29,30,10.83,46.55,16.94C263.65,63,286.38,72,308,81.35a478.33,478.33,0,0,1,57.45,29.14c16.36,9.93,29.69,19.73,39.62,29.13S420,157.68,420,165.44a181.39,181.39,0,0,1-4.85,40.14,144.44,144.44,0,0,1-15.76,40.12,122.29,122.29,0,0,1-28.68,33.43c-11.78,9.65-26.46,16.66-43.61,20.83a.26.26,0,0,0-.19.24V402.65c0,9.89-3.8,19.91-11.29,29.8s-17.57,19.72-29.9,29.11a282.55,282.55,0,0,1-42.46,26.38,457.17,457.17,0,0,1-49.35,21.66,348.21,348.21,0,0,1-50.15,14.57,223.69,223.69,0,0,1-44.88,5.12c-6.54,0-15.38-.53-26.28-1.58a229.65,229.65,0,0,1-32.75-5.51A98.94,98.94,0,0,1,12,511.2C4.28,506.54.37,500.51.37,493.28a15.9,15.9,0,0,1,3.19-9.7,70.57,70.57,0,0,1,7.26-8.24,97,97,0,0,0,7.31-7.9,14.81,14.81,0,0,0,3.29-9.62,9,9,0,0,0-.81-4c.25-2.75,18.44-22,54.07-57.21a307,307,0,0,1,54.88,14.15l.08,0h23.48c2.2,0,5.78-1.47,10.65-4.37a123.31,123.31,0,0,0,15-10.66c5.14-4.21,10.18-8.59,15-13a72,72,0,0,0,10.56-11.47.24.24,0,0,0,.05-.14c0-.44.1-2.22.4-5.89.27-3.5.4-6.21.4-8.29,0-9.48-4.11-18-12.22-25.41a98.63,98.63,0,0,0-30-18.17c-11.25-4.69-24.3-14.22-38.78-28.32s-17.13-29.84-8.05-47c8.58-16.7,25-25.17,48.9-25.17,1.39,0,2.84,0,4.3.09,13.32.52,25.85.79,37.24.79h33.19c6,0,12.37-.27,19-.79a98.6,98.6,0,0,0,18.67-3.16,37.82,37.82,0,0,0,14.26-7.15,15.91,15.91,0,0,0,5.76-12.8,33.63,33.63,0,0,0-.41-4.37,30.49,30.49,0,0,1-.4-3.51.26.26,0,0,0-.14-.22c-39.24-19.35-132.06-42.68-275.87-69.33,4-37.15,9.71-65.41,16.92-84S53.61.5,63.91.5V.25m0,0Q32.52.25,20.36,112.64q216.93,40.2,276,69.35a29.83,29.83,0,0,0,.4,3.55,32.13,32.13,0,0,1,.41,4.33,15.61,15.61,0,0,1-5.67,12.61,37.41,37.41,0,0,1-14.17,7.1,97.8,97.8,0,0,1-18.61,3.15q-10.14.79-19,.79H206.54q-17,0-37.23-.79c-1.47-.06-2.9-.09-4.31-.09q-36.13,0-49.12,25.31-13.77,26,8.1,47.28t38.85,28.37q17.8,7.09,29.95,18.13T204.92,357q0,3.15-.4,8.27c-.28,3.43-.4,5.39-.4,5.91a72.68,72.68,0,0,1-10.53,11.43q-7.29,6.7-15,13a122,122,0,0,1-15,10.64q-7.29,4.35-10.52,4.34H129.64a306.46,306.46,0,0,0-55-14.19Q20.36,450,20.36,453.88a8.71,8.71,0,0,1,.81,3.94,14.48,14.48,0,0,1-3.24,9.46,96.88,96.88,0,0,1-7.28,7.88,69.3,69.3,0,0,0-7.29,8.27,16.06,16.06,0,0,0-3.24,9.85q0,11.06,11.74,18.13a98.65,98.65,0,0,0,27.93,11A228.69,228.69,0,0,0,72.57,528q16.59,1.59,26.31,1.58a222,222,0,0,0,44.93-5.13A346.39,346.39,0,0,0,194,509.83a455.73,455.73,0,0,0,49.37-21.67,281.35,281.35,0,0,0,42.5-26.4q18.61-14.19,29.95-29.16t11.34-30V300.2q25.89-6.29,43.71-20.88a122.18,122.18,0,0,0,28.74-33.49,144.18,144.18,0,0,0,15.78-40.19,180.89,180.89,0,0,0,4.86-40.2q0-11.82-15-26t-39.66-29.16a476.32,476.32,0,0,0-57.48-29.16q-32.78-14.19-67.59-26.8Q217.05,45.66,194,37.38T148.26,22.8q-22.66-7.1-42.5-12.61T68.12.74A18.65,18.65,0,0,0,63.91.25Z"/>
</svg>
