<svg id="Layer_1" data-name="Layer 1" xmlns="http://www.w3.org/2000/svg" viewBox="0 0 529.65 513.74">
  <defs>
    <style>
      .cls-1 {
        fill: #ec008c;
      }
    </style>
  </defs>
  <title>4</title>
  <path class="cls-1" d="M301.81.5a367.73,367.73,0,0,1-6.47,67.87,339.9,339.9,0,0,1-19.41,65.76l-40.48,94.58c-.54,1.56-1.35,3.54-2.42,5.89a61,61,0,0,0-2.85,7.52c-.83,2.72-1.79,6.17-2.83,10.25a.13.13,0,0,0,0,.06c0,1.15,1.08,2.75,3.31,4.91s3.86,3.23,5,3.23H357.11a.23.23,0,0,0,.17-.08l8.1-7.88.06-.08c2.77-7,7.8-19.55,14.57-36.25,7.11-17.62,14.47-36.05,21.85-54.78,7.51-19.06,14.86-37.36,21.86-54.37,6.92-16.86,11.82-28.93,14.56-35.84.58-1.14,1.73-3.66,3.24-7.11,1.64-3.7,3.54-7.67,5.66-11.8a111.34,111.34,0,0,1,7.27-12.19,27.47,27.47,0,0,1,7.77-8.06c1.23,2.65,4.8,5.83,10.91,9.7,6.3,4,10.71,6,13.49,6s6.22-2,10.3-6c3.21-3.12,5.14-5.79,5.84-8.11a68.07,68.07,0,0,0,3.06,10.38c2.14,6,3.79,9.89,4.88,11.49a.31.31,0,0,0,.15.1,23.67,23.67,0,0,0,4.11.79,24,24,0,0,0,4.1-.79.19.19,0,0,0,.12-.07c1.1-1.07,2.58-3.67,4.51-8,1.42-3.18,2.5-5.54,3.17-6.93,0,2.37.17,6,.39,10.78q.38,8.09.76,16.85l0,1.27c.29,6.88.56,12.68.81,17.73.28,5.66.41,9.39.41,11.42,0,3.61-.13,8.5-.41,15q-.4,9.41-.8,18.82v.1c-.3,6.94-.56,12.32-.81,16.94-.29,5.37-.4,7.82-.4,8.25-.54,3.68-3.26,12.95-8.08,27.54S508.61,216,503,232.65,492,265.28,487.2,279.94c-4.93,14.93-7.85,24-8.9,27.57a163.17,163.17,0,0,0-4.87,15.79q-2.73,9.94-6.31,23l-1.38,5c-3,10.83-6,22.5-8.9,34.69-3,12.36-5.84,24-8.5,34.67-2.64,10.49-4.95,20-6.88,28.37s-3.12,13.56-3.65,16.15c-4.3,15.7-8.92,27.74-13.73,35.8S408.2,513,391.11,513c-6.41,0-13.83.13-22.68.39-1.24,0-2.49.06-3.72.06a106.32,106.32,0,0,1-20.91-2,49.84,49.84,0,0,1-19.73-8.23c-5.31-3.87-8-10-8-18.32a174.76,174.76,0,0,1,3.64-35c2.43-11.84,5.16-23.77,8.09-35.45,3-12,5.73-24,8.1-35.87a188.64,188.64,0,0,0,3.65-37.09.25.25,0,0,0-.25-.25H299.63a364.16,364.16,0,0,0-42.11,2.36c-7,.53-13.8,1.33-20.26,2.37s-13.42,2.41-20.24,3.94a32.45,32.45,0,0,1-5.91.45c-18.35,0-60.72-9.17-126-27.25-18.27-1.57-31.33-3.68-38.78-6.29-2.68-1-5.68-2.09-8.92-3.15s-6.57-2-10.55-3.16a73.3,73.3,0,0,1-18.55-6.68c-5.29-2.82-8-8.18-8-15.93,0-6.14,3.61-10,10.73-11.58s15.59-2.87,25.06-3.93a231.28,231.28,0,0,0,27.56-4.74c8.94-2.1,15.12-7.19,18.38-15.11,5.8-12.34,12.2-26.26,19-41.38,6.58-14.6,13.66-29.85,21.05-45.31,7.25-15.15,15-30.26,23.06-44.9a464.94,464.94,0,0,1,25.9-41.76c3.68-5.64,8.58-12.86,15-22.06,6.09-8.77,12.35-17.52,18.61-26s13.9-18.66,23-30.63h74.1m.25-.25H227.59Q213.82,18.38,204.52,31T185.9,57q-9.32,13.41-15,22.07A459.46,459.46,0,0,0,145,120.83Q132.89,142.89,122,165.75t-21,45.31q-10.14,22.45-19,41.37-4.84,11.83-18.21,15a231.3,231.3,0,0,1-27.52,4.73,252.78,252.78,0,0,0-25.1,3.94Q.13,278.43.12,287.9q0,11.82,8.1,16.15a72.6,72.6,0,0,0,18.62,6.7q5.65,1.59,10.52,3.16c3.24,1,6.2,2.1,8.91,3.15q11.32,3.94,38.85,6.3,98.26,27.24,126,27.25a33.12,33.12,0,0,0,6-.45c7-1.58,13.76-2.88,20.23-3.94s13.22-1.84,20.24-2.37a363.93,363.93,0,0,1,42.09-2.36H339.3a188.14,188.14,0,0,1-3.64,37q-3.65,18.14-8.1,35.86t-8.09,35.46a173.89,173.89,0,0,0-3.65,35.07q0,12.61,8.1,18.52a49.7,49.7,0,0,0,19.83,8.27,105.77,105.77,0,0,0,21,2c1.24,0,2.48,0,3.73-.06q12.94-.39,22.67-.39,25.89,0,33.18-12.22t13.77-35.85q.79-3.95,3.64-16.16t6.88-28.37q4-16.14,8.5-34.68t8.9-34.67q4.44-16.14,7.69-28a160.8,160.8,0,0,1,4.86-15.76q1.62-5.5,8.9-27.58t15.79-47.29q8.5-25.22,15.78-47.28t8.1-27.58q0-.78.4-8.28t.81-16.94q.41-9.47.81-18.92t.41-15c0-2.09-.14-5.91-.41-11.43s-.54-11.42-.81-17.73-.54-12.34-.81-18.13-.4-9.71-.4-11.82c-.54,1.06-1.76,3.68-3.64,7.88s-3.38,6.84-4.46,7.88a24.67,24.67,0,0,1-4,.79,24.13,24.13,0,0,1-4.05-.79q-1.64-2.35-4.86-11.42t-3.24-12.22c0,2.64-2,5.91-6.07,9.85s-7.42,5.91-10.12,5.91-7.15-2-13.35-5.91-9.85-7.21-10.93-9.85q-4.06,2.37-8.09,8.28A109.88,109.88,0,0,0,447,52.26q-3.24,6.32-5.67,11.82c-1.61,3.69-2.7,6-3.23,7.1Q434,81.43,423.49,107t-21.86,54.38q-11.34,28.78-21.86,54.77T365.2,252.43l-8.09,7.89H235.69q-1.63,0-4.86-3.16t-3.24-4.73q1.62-6.28,2.83-10.24a61.09,61.09,0,0,1,2.84-7.49q1.61-3.54,2.43-5.91l40.47-94.57a338.44,338.44,0,0,0,19.43-65.8A367.15,367.15,0,0,0,302.06.25Z"/>
</svg>
