<svg id="Layer_1" data-name="Layer 1" xmlns="http://www.w3.org/2000/svg" viewBox="0 0 515.89 529.84">
  <defs>
    <style>
      .cls-1 {
        fill: #ec008c;
      }
    </style>
  </defs>
  <title>5</title>
  <path class="cls-1" d="M354.68.5c19.83,0,73.92.79,160.78,2.36L492.9,112.68c-81.52-6.27-127.21-9.44-135.79-9.44-5.31,0-10.76.13-16.2.39s-10.86.67-16.21,1.19c-3.58.35-8.39.52-14.31.52-3,0-6.35,0-9.94-.13-10.84-.26-24.45-.92-40.46-2h0a.25.25,0,0,0-.2.09.27.27,0,0,0,0,.23c15,48.65,24.85,77.3,29.16,85.16a.27.27,0,0,0,.18.13c87.48,16.2,139.73,32.62,155.28,48.79,15,15.15,25.89,34.21,32.32,56.63,6.43,21.9,5.34,42-3.22,59.72-9.14,18.31-18.95,39-29.12,61.43a252.45,252.45,0,0,1-21,26,164.65,164.65,0,0,1-17.78,16.53,128.52,128.52,0,0,1-14.94,10.22c-4.46,2.56-8.68,5-12.55,7.09a119.35,119.35,0,0,1-21,9.44c-6.49,2.11-15.22,6.36-25.95,12.63-11.28,6.27-25.83,11.7-43.25,16.13a440.51,440.51,0,0,1-55.41,10.24c-19.39,2.36-39,4.08-58.27,5.12-9.66.52-18.92.79-27.51.79s-16.76-.27-24.28-.79c-18.78,0-35.9-3.83-50.89-11.4A119.81,119.81,0,0,1,33.1,487.12,138.66,138.66,0,0,1,8.86,444.25,147.11,147.11,0,0,1,.38,395.08c0-16.17,2.71-29,8.06-38.1a76.28,76.28,0,0,1,21-23.17,25.82,25.82,0,0,1,14-5.08q1.26-.06,2.52-.06a52.16,52.16,0,0,1,12.79,1.63,58.88,58.88,0,0,1,14.51,5.89c4.68,2.69,8.5,5,11.69,7.06,3.25,4.22,6.15,6.63,8.62,7.15a68.62,68.62,0,0,1,8.06,2.36c2.92,1,5.88,3.27,8.8,6.62s6.32,10.4,10.07,20.81c3.74,9.89,8,19.71,12.56,29.18a221,221,0,0,0,14.18,25.25,80.54,80.54,0,0,0,15.43,17.79c5.41,4.48,10.91,6.75,16.35,6.75a57.06,57.06,0,0,0,23.59-5.54,128.11,128.11,0,0,1,18.17-6.68c7.75-2.35,17.15-5.13,27.93-8.28,23.14-7.33,41.7-18.76,55.16-34,14-15.73,21.64-30.62,22.73-44.28s-4.94-28.57-17.87-44.31c-13.48-16.26-34.23-26.36-61.68-30-13.5-2-27.12-4.14-40.47-6.31-12.64-2-25.12-4.16-37.11-6.28a93.69,93.69,0,0,1-4.38-11.68c-1.85-5.65-3.76-12.14-5.66-19.29s-3.52-14.48-4.85-22.05a85,85,0,0,1-1.21-21.62V165a.24.24,0,0,0,0-.08c-4.5-13.68-8.21-24.64-11.33-33.5-3.18-9-5.9-16.31-8.09-21.64l-9.72-41L101.67,2.88C204.4,7.62,264.63,10,280.7,10c1.63,0,2.83,0,3.58-.08,4.09-.49,8.18-1,12.15-1.57L307.78,6.8c7.42-1.55,15.18-3,23.06-4.33a144.53,144.53,0,0,1,23.84-2m0-.25a144.29,144.29,0,0,0-23.88,2q-11.74,2-23.07,4.33L296.4,8.13c-3.79.53-7.83,1.06-12.15,1.58-.74,0-1.92.07-3.55.07q-24.24,0-179.39-7.17L124,68.81l9.71,41q3.23,7.89,8.09,21.67T153.12,165v33.89a85,85,0,0,0,1.21,21.67q2,11.43,4.86,22.06t5.66,19.31a90.79,90.79,0,0,0,4.46,11.82q17.79,3.17,37.23,6.31t40.48,6.3q41.28,5.52,61.52,29.95Q328,339.91,326.35,360.4t-22.67,44.13q-20.24,22.88-55,33.89-16.21,4.72-27.93,8.28a127.15,127.15,0,0,0-18.21,6.7A56.63,56.63,0,0,1,179,458.91q-8.1,0-16.19-6.7a79.49,79.49,0,0,1-15.38-17.73,216.68,216.68,0,0,1-14.16-25.22q-6.9-14.17-12.55-29.16-5.67-15.75-10.12-20.88c-3-3.41-6-5.64-8.9-6.7a68.51,68.51,0,0,0-8.1-2.36q-3.65-.78-8.5-7.1-4.86-3.13-11.74-7.09a58.8,58.8,0,0,0-14.57-5.91A52,52,0,0,0,46,328.42c-.85,0-1.69,0-2.53.06a25.87,25.87,0,0,0-14.16,5.13,76.21,76.21,0,0,0-21,23.25Q.12,370.65.13,395.08a146.78,146.78,0,0,0,8.49,49.25,138.42,138.42,0,0,0,24.29,42.95,119.4,119.4,0,0,0,38.45,30.34q22.65,11.45,51,11.43,11.33.78,24.28.79t27.52-.79q29.15-1.57,58.29-5.12a441,441,0,0,0,55.45-10.25q26.3-6.67,43.3-16.15,16.19-9.46,25.91-12.61a119.17,119.17,0,0,0,21-9.46q5.66-3.13,12.55-7.09a128.94,128.94,0,0,0,15-10.25,165.41,165.41,0,0,0,17.81-16.55,251.67,251.67,0,0,0,21-26q15.38-33.88,29.14-61.47,12.94-26.79,3.24-59.9-9.71-33.87-32.38-56.74Q421,213,289.11,188.6q-6.48-11.82-29.14-85.11,24.28,1.59,40.47,2c3.62.09,6.93.13,9.95.13q9,0,14.34-.53,8.08-.77,16.19-1.18t16.19-.39q12.93,0,136,9.46L515.77,2.61Q384.63.26,354.68.25Z"/>
</svg>
