<svg id="Layer_1" data-name="Layer 1" xmlns="http://www.w3.org/2000/svg" viewBox="0 0 466.51 513.29">
  <defs>
    <style>
      .cls-1 {
        fill: #ec008c;
      }
    </style>
  </defs>
  <title>6</title>
  <path class="cls-1" d="M351.44.5C364.81.5,378.37,5.39,391.77,15a182.31,182.31,0,0,1,36.78,35.81,216.88,216.88,0,0,1,27.09,44.87c6.91,15.56,10.45,29.23,10.5,40.63A28.94,28.94,0,0,1,456,134.78a24.34,24.34,0,0,1-6.81-3.9,58.42,58.42,0,0,0-5.28-4c-1.66-1.07-4.16-1.62-7.42-1.62a14.38,14.38,0,0,0-4.13.8l-.09.06c-1.11,1.08-2.76,3.75-4.91,8-2,3.9-3.07,6.42-3.24,7.67a59,59,0,0,1-19.85-10.9c-6.25-5.06-12.79-10.5-19.43-16.15a168.77,168.77,0,0,0-19.86-14.61,39.18,39.18,0,0,0-20.77-6.34,80.31,80.31,0,0,0-28.42,5.54A109.5,109.5,0,0,0,289,113.93a77.32,77.32,0,0,0-19.89,21.74,51,51,0,0,0-7.73,26.92,65.31,65.31,0,0,0,9.75,34.81,192,192,0,0,0,24.32,31.17c9.7,10.23,20.32,20.71,31.58,31.14A301.15,301.15,0,0,1,358.53,294a184.58,184.58,0,0,1,24.25,40.93c6.43,14.87,9.7,32.21,9.7,51.52,0,28.7-5.57,51.72-16.56,68.42A107.36,107.36,0,0,1,332.71,493c-17.69,8.61-38.23,14.17-61,16.53A678.12,678.12,0,0,1,202.5,513,220,220,0,0,1,52.91,455.58C33.6,437.82,19.72,421.14,11.68,406,4.19,390.39.38,367.92.38,339.23A123.46,123.46,0,0,0,14.5,323.51a96.62,96.62,0,0,0,6.89-11.07,25.19,25.19,0,0,0,2.86-8.36,28,28,0,0,1,2-7.44,55.32,55.32,0,0,1,6.44-14.91c2.64-4.11,7.74-6.19,15.17-6.19a.26.26,0,0,0,.23-.14c24.16-51.75,47.29-88.58,68.76-109.47a.41.41,0,0,0,0-.09c12.88-32.9,28.1-55.4,45.24-66.87C178.81,87.47,197.61,73.14,218,56.4a263.48,263.48,0,0,1,65.5-40.55C307.14,5.66,330,.5,351.44.5m-106,434.23a86.73,86.73,0,0,0,15.83-1.58,59,59,0,0,0,16.26-5.54,44.47,44.47,0,0,0,13-9.91A21.44,21.44,0,0,0,295.84,403a73.1,73.1,0,0,0-6.5-31.24,115,115,0,0,0-16.63-25.67,172.91,172.91,0,0,0-23.51-22.49c-8.84-7-18-13.8-27.12-20.09-6.32-5-12-9.54-17.41-13.8-5.63-4.43-10.93-8.8-15.76-13-3.22-3.13-7.51-4.72-12.75-4.72-9.78,0-23.3,5.55-40.18,16.51a.27.27,0,0,0-.11.16c-8.73,46.75-10.57,72.33-5.59,78.25,2.72,2.66,6.25,6.36,10.51,11s9.76,10,16.21,15.78a212.45,212.45,0,0,0,41.74,29.19,98.62,98.62,0,0,0,46.66,11.85M351.44.25q-32.38,0-68,15.37A263.1,263.1,0,0,0,217.88,56.2Q187.1,81.43,162,98.76q-25.92,17.34-45.33,67Q84.31,197.28,47.88,275.29q-11.34,0-15.38,6.3a55.31,55.31,0,0,0-6.47,15,27.86,27.86,0,0,0-2,7.48,24.84,24.84,0,0,1-2.83,8.28,96.2,96.2,0,0,1-6.88,11Q9.84,329.67.13,339.12q0,43.35,11.33,67Q23.6,429,52.74,455.76a218.64,218.64,0,0,0,67.59,42.16q38.45,15.38,82.17,15.37a673.31,673.31,0,0,0,69.21-3.55q34.4-3.54,61.11-16.55A107.12,107.12,0,0,0,376.13,455q16.59-25.22,16.6-68.56,0-29.15-9.72-51.62a184.19,184.19,0,0,0-24.28-41,299.1,299.1,0,0,0-31.57-34.28q-17-15.76-31.57-31.13a191.32,191.32,0,0,1-24.29-31.13,64.86,64.86,0,0,1-9.71-34.68,50.51,50.51,0,0,1,7.69-26.79,76.71,76.71,0,0,1,19.83-21.67,109.1,109.1,0,0,1,26.71-14.58A80,80,0,0,1,344.16,94a38.72,38.72,0,0,1,20.64,6.31,167.14,167.14,0,0,1,19.83,14.58q9.72,8.27,19.43,16.15a58.55,58.55,0,0,0,20.24,11c0-1,1.07-3.66,3.23-7.88s3.77-6.82,4.86-7.88a14.12,14.12,0,0,1,4.05-.79c3.23,0,5.66.54,7.28,1.58a58.29,58.29,0,0,1,5.26,3.94,24.41,24.41,0,0,0,6.88,3.94,29.23,29.23,0,0,0,10.53,1.58q0-17.32-10.53-41a215.4,215.4,0,0,0-27.11-44.92,181.45,181.45,0,0,0-36.83-35.86Q371.67.25,351.44.25Zm-106,434.23a98,98,0,0,1-46.55-11.82,210.89,210.89,0,0,1-41.68-29.16A220.33,220.33,0,0,1,141,377.74q-6.49-7.1-10.53-11-7.27-8.67,5.67-78,25.38-16.47,40-16.47,7.8,0,12.57,4.65,7.29,6.31,15.79,13t17.4,13.79q13.76,9.46,27.12,20.1a171.38,171.38,0,0,1,23.48,22.46,113.65,113.65,0,0,1,16.59,25.61A72.53,72.53,0,0,1,295.59,403a21.15,21.15,0,0,1-5.26,14.58,44,44,0,0,1-13,9.85,58.72,58.72,0,0,1-16.19,5.52,86.83,86.83,0,0,1-15.78,1.57Z"/>
</svg>
