<svg id="Layer_1" data-name="Layer 1" xmlns="http://www.w3.org/2000/svg" viewBox="0 0 400.14 515.81">
  <defs>
    <style>
      .cls-1 {
        fill: #ec008c;
      }
    </style>
  </defs>
  <title>7</title>
  <path class="cls-1" d="M399.76.5a220.41,220.41,0,0,1-6.47,53.67,298.09,298.09,0,0,1-17.79,50.4A447.49,447.49,0,0,1,349.61,153c-9.66,15.68-20.28,31.58-31.56,47.27a.22.22,0,0,0,0,.22c.52,1.55.38,4.15-.42,7.75A49.8,49.8,0,0,1,314,218.84a17.46,17.46,0,0,1-6,7.38,4.13,4.13,0,0,1-2.25.75c-1.47,0-2.91-1-4.29-3.05a.31.31,0,0,0-.2-.11h0a.28.28,0,0,0-.2.1c-3.25,4.23-8.56,11.66-15.79,22.08-6.86,9.9-14.53,20.86-23.47,33.49S245,303.1,237.91,313c-7.67,10.66-13,17.62-16.16,21.25-2.66,2.59-9.15,9.55-19.84,21.29-10.91,12-22.22,24.58-33.6,37.43-12.42,14-23.4,26.25-33.59,37.43-10.68,11.73-16.91,19-19,22.06-1.11,1.08-2.85,3.94-5.31,8.73-2.39,4.64-5.11,9.68-8.09,15s-5.66,10.23-8.1,15-4.16,7.58-5.22,8.6a.16.16,0,0,0,0,.07c-1.07,2.06-3.91,5.08-8.44,9s-7.36,6.12-8.43,6.65a6.1,6.1,0,0,1-1.33.14c-2,0-4.8-.84-8.19-2.49-4.16-2-6.83-3.82-7.93-5.34,6.95-25.53,14.84-50.14,23.44-73.16s18.09-45.86,28.32-68.15,21.34-44.43,33.19-66.19,24.62-44.65,38-68.16c3.74-6.78,9.45-14.72,17-23.61,7-8.89,13.92-18.44,20.65-28.39S233,158,248,143.86c10.33-10.06,14.69-16.71,13.33-20.32-.67-1.79-2.76-2.79-6.21-3-12.54-.64-15.38-2.16-15.55-3.34a33.05,33.05,0,0,1-.4-3.51.23.23,0,0,0-.08-.18.28.28,0,0,0-.17-.07h0c-16.1,2.09-32.31,5-48.19,8.67S158.88,129.38,143,132.8c-15.78,3.39-32,6.44-48.16,9.06a308.13,308.13,0,0,1-49.33,3.93H22c-7.44,0-14.18-2.87-20-8.54-.53-2.1-.93-6.7-1.19-13.67C.52,116.93.37,112,.37,109.79.37,96.22,1.6,84.31,4,74.39S14.39,54,27.73,43.06c15,1,30.48,1.57,46,1.57,7.76,0,15.69-.13,23.57-.39,23.62-.78,47.73-2,71.65-3.55,23.48-1.54,47.58-3,71.64-4.33,16.91-.93,33.65-1.4,49.76-1.4,6.37,0,12.77.07,19.05.21,14.82-1.6,22.83-4.49,24.5-8.82a33.42,33.42,0,0,0,2.44-11.91,7.25,7.25,0,0,1,2.35-5.34c1.58-1.54,4.68-3,9.21-4.27a113.15,113.15,0,0,1,19.38-3.15C375.51.9,386.45.5,399.76.5M277,248c4.46,0,6.72-2.74,6.72-8.13s-2.26-8.13-6.72-8.13-6.73,2.73-6.73,8.13S272.51,248,277,248m-8.1,15.76c4.47,0,6.73-2.74,6.73-8.13s-2.26-8.13-6.73-8.13-6.72,2.73-6.72,8.13,2.26,8.13,6.72,8.13M400,.25q-20.25,0-32.78,1.18A114.13,114.13,0,0,0,347.8,4.58q-6.89,2-9.31,4.34a7.48,7.48,0,0,0-2.43,5.52,32.94,32.94,0,0,1-2.43,11.82q-2.43,6.31-24.28,8.67-9.42-.23-19-.22-24.27,0-49.78,1.4-35.62,2-71.64,4.33T97.26,44q-11.87.39-23.56.39-23.39,0-46.05-1.57Q7.4,59.36,3.77,74.33T.12,109.79q0,3.17.41,13.79t1.21,13.8Q10.65,146.05,22,146H45.46a306.29,306.29,0,0,0,49.37-3.94Q119.12,138.17,143,133t47.76-10.64q23.87-5.5,48.16-8.67a30.48,30.48,0,0,0,.41,3.55q.39,2.77,15.78,3.55t-7.28,22.85Q225.15,165,215,179.93T194.4,208.3q-11.34,13.41-17,23.65-20.24,35.46-38,68.16t-33.19,66.2q-15.39,33.51-28.33,68.17T54.36,507.77c1.08,1.58,3.77,3.43,8.1,5.52,3.45,1.69,6.21,2.52,8.29,2.52a5.77,5.77,0,0,0,1.42-.16c1.07-.51,3.91-2.75,8.5-6.69s7.41-7,8.5-9.07c1.07-1,2.83-3.94,5.26-8.67s5.12-9.71,8.09-15,5.67-10.24,8.1-15,4.17-7.61,5.26-8.67q3.23-4.73,19-22.07t33.6-37.43q17.79-20.1,33.59-37.44t19.83-21.27q4.86-5.5,16.19-21.28T262,279.62q12.54-17.73,23.48-33.49t15.78-22.07q2.16,3.16,4.5,3.16a4.41,4.41,0,0,0,2.38-.79,17.45,17.45,0,0,0,6.07-7.49,49.37,49.37,0,0,0,3.65-10.64c.81-3.67.93-6.3.4-7.88q17-23.64,31.57-47.28a444.27,444.27,0,0,0,25.91-48.47,296.55,296.55,0,0,0,17.8-50.44A219.25,219.25,0,0,0,400,.25ZM277,247.71c-4.33,0-6.48-2.63-6.48-7.88S272.64,232,277,232s6.47,2.63,6.47,7.88-2.16,7.88-6.47,7.88Zm-8.1,15.76q-6.48,0-6.47-7.88t6.47-7.88q6.48,0,6.48,7.88t-6.48,7.88Z"/>
</svg>
