<svg id="Layer_1" data-name="Layer 1" xmlns="http://www.w3.org/2000/svg" viewBox="0 0 496.46 537.72">
  <defs>
    <style>
      .cls-1 {
        fill: #ec008c;
      }
    </style>
  </defs>
  <title>8</title>
  <path class="cls-1" d="M254.3.5a192.08,192.08,0,0,1,20.62,1.57,144,144,0,0,1,25.85,5.51,76.11,76.11,0,0,1,22.19,11c6.38,4.65,9.61,10.68,9.61,17.92a.26.26,0,0,0,.13.22l22.63,13.37a570.21,570.21,0,0,0,52.23,38.63c16.83,10.93,32.08,21.26,45.33,30.73s23.75,18.54,31.53,27.16,11.67,17.68,11.67,27a240.14,240.14,0,0,1-3.64,40.15,156.25,156.25,0,0,1-12.53,40.13,109.71,109.71,0,0,1-22.21,33.42c-9.36,9.64-26.35,17.7-50.48,24a.25.25,0,0,0-.18.28l15.38,99.26c0,14.57-6.38,29.5-19,44.36s-28.41,28.69-46.9,40.94a283.25,283.25,0,0,1-59,29.92c-20.64,7.57-39.27,11.41-55.36,11.41a186.06,186.06,0,0,1-20.61-1.58,149.59,149.59,0,0,1-26.27-5.5,65.59,65.59,0,0,1-21.77-11,132.31,132.31,0,0,0-15.82-10.27c-7.16-4.13-16.83-9.17-28.73-15-24.16-14.63-45.12-30.92-62.28-48.43S33.9,412.91,20.54,400.41C7.16,387.4.37,375.27.37,364.34A240,240,0,0,1,4,324.19a178.71,178.71,0,0,1,11.72-40.13,130.46,130.46,0,0,1,22.62-33c9.64-9.9,30.3-18.09,61.39-24.36a.21.21,0,0,0,.16-.11.22.22,0,0,0,0-.19L74,127.1c0-14.58,6.39-29.49,19-44.33s28.36-28.64,46.9-40.94a284.24,284.24,0,0,1,59-29.92C219.61,4.34,238.23.5,254.3.5m-15.5,99.62L211.34,112.7c-1.69,0-4.37,1.46-8.19,4.38A138.41,138.41,0,0,0,191,127.74c-4.31,4.2-8.4,8.58-12.16,13a65.84,65.84,0,0,0-8.13,11.47.5.5,0,0,0,0,.12c0,.49-.13,2.25-.41,5.89-.27,3.31-.4,6.1-.4,8.29a37.52,37.52,0,0,0,9.77,25.39,79.89,79.89,0,0,0,23.53,18.17A137.09,137.09,0,0,0,221,218.78c7.71,3.22,17,6.93,27.57,11.05a151.83,151.83,0,0,0,25.69,2.41c12.72,0,23.73-2.15,32.75-6.37a109.44,109.44,0,0,1,46.84-10.22c4.34,0,9.25-.27,14.59-.79a65.83,65.83,0,0,0,15-3.17,27.86,27.86,0,0,0,11.43-7.16c3-3.19,4.52-7.49,4.52-12.78a31.93,31.93,0,0,0-.41-4.37,30.49,30.49,0,0,1-.4-3.51.26.26,0,0,0-.1-.2c-74.87-57.42-125-86.53-148.93-86.53-4.46,0-8.09,1-10.81,3M260,425.27h18.62c1.69,0,4.39-1.56,8.25-4.78s7.91-6.92,12.16-11.05,8.39-8.57,12.16-13A64.63,64.63,0,0,0,319.28,385a.27.27,0,0,0,0-.12c0-.45.11-2.34.41-6.28.27-3.77.4-6.61.4-8.69a36.33,36.33,0,0,0-5.7-19.44,59.11,59.11,0,0,0-14.64-15.83,114.06,114.06,0,0,0-19.87-11.85c-7.21-3.37-14.15-6.42-20.66-9.07a110,110,0,0,0-17.86-4.35c-7.53-1.3-16.53-2.49-26.73-3.54a141.87,141.87,0,0,0-14.77-.84c-12.44,0-22,2.15-28.31,6.4-7.47,5.72-19.4,8.62-35.46,8.62-4.23,0-9.14.27-14.6.79a66.09,66.09,0,0,0-15,3.16,26.2,26.2,0,0,0-11.44,7.56,19.47,19.47,0,0,0-4.51,13.17,30.38,30.38,0,0,0,.4,4.37,33.3,33.3,0,0,1,.41,3.51.24.24,0,0,0,.11.21c31.17,19.37,66.59,34.49,105.33,45,41.76,6.25,62.93,15.45,62.93,27.33a.25.25,0,0,0,.25.25M254.3.25Q230,.25,198.85,11.68a283.46,283.46,0,0,0-59.09,29.94q-27.93,18.52-46.95,41t-19,44.53l25.9,99.3q-46.95,9.45-61.52,24.43A130.06,130.06,0,0,0,15.5,284,178,178,0,0,0,3.77,324.15,238.56,238.56,0,0,0,.12,364.34q0,16.55,20.24,36.25,20.22,18.92,46.14,45.32t62.33,48.46q17.8,8.69,28.74,15a131.71,131.71,0,0,1,15.78,10.24,65.67,65.67,0,0,0,21.86,11,149.57,149.57,0,0,0,26.31,5.51,186.73,186.73,0,0,0,20.64,1.58q24.29,0,55.45-11.43a282.26,282.26,0,0,0,59.09-29.94q27.93-18.51,46.95-41t19-44.53l-15.38-99.3q36.42-9.45,50.59-24A109.57,109.57,0,0,0,480.15,254a155.85,155.85,0,0,0,12.55-40.19,239.54,239.54,0,0,0,3.64-40.19q0-14.19-11.74-27.19T453,119.25q-19.84-14.19-45.33-30.74A567.24,567.24,0,0,1,355.49,49.9L332.82,36.5q0-11-9.71-18.12a76.47,76.47,0,0,0-22.26-11,142.23,142.23,0,0,0-25.91-5.51A189.25,189.25,0,0,0,254.3.25Zm20,231.74a150.26,150.26,0,0,1-25.64-2.41q-16.21-6.3-27.53-11a135,135,0,0,1-17.8-8.67,79,79,0,0,1-23.48-18.13,37,37,0,0,1-9.71-25.22c0-2.09.12-4.85.4-8.27s.41-5.38.41-5.91A64,64,0,0,1,179,140.92q5.65-6.69,12.14-13a136.28,136.28,0,0,1,12.15-10.64c3.76-2.88,6.47-4.33,8.09-4.33l27.52-12.61q4-3,10.69-3,36,0,148.78,86.48a30.72,30.72,0,0,0,.41,3.55,33.52,33.52,0,0,1,.4,4.33q0,7.89-4.45,12.61a27.72,27.72,0,0,1-11.33,7.1,65.81,65.81,0,0,1-15,3.15q-8.1.79-14.57.79a109.38,109.38,0,0,0-46.95,10.24Q293.39,232,274.28,232ZM260,425q0-18.12-63.14-27.58Q138.54,381.69,91.6,352.52a33.88,33.88,0,0,0-.41-3.55,29.78,29.78,0,0,1-.4-4.33q0-7.87,4.45-13a25.8,25.8,0,0,1,11.33-7.49,65.46,65.46,0,0,1,15-3.15q8.08-.78,14.57-.79,24.28,0,35.62-8.67,9.48-6.36,28.15-6.35a144.29,144.29,0,0,1,14.75.83q15.36,1.59,26.71,3.55a108.82,108.82,0,0,1,17.81,4.34q9.72,3.94,20.64,9.06a112.36,112.36,0,0,1,19.83,11.82,58.54,58.54,0,0,1,14.57,15.76,35.93,35.93,0,0,1,5.67,19.31c0,2.1-.14,5-.4,8.67s-.41,5.79-.41,6.3A64.68,64.68,0,0,1,311,396.26q-5.67,6.71-12.15,13t-12.14,11Q281,425,278.59,425Z"/>
</svg>
