<svg id="Layer_1" data-name="Layer 1" xmlns="http://www.w3.org/2000/svg" viewBox="0 0 459.83 513.29">
  <defs>
    <style>
      .cls-1 {
        fill: #ec008c;
      }
    </style>
  </defs>
  <title>9</title>
  <path class="cls-1" d="M345,.5C358.33.5,371.9,5.39,385.29,15a173.59,173.59,0,0,1,36.38,35.81c11.26,14.09,22.68,40.85,33.95,79.51,5.63,19.06,5,50.51-1.82,93.48s-20.12,98.72-39.45,165.62c-9.24,13.75-17.67,26.07-25.07,36.61-6.78,9.66-13.93,19.84-20.24,28.78a100.39,100.39,0,0,1-42.8,38.52c-17.69,8.36-38.22,13.78-61,16.14A678.46,678.46,0,0,1,196,513,220,220,0,0,1,46.43,455.58c-19.28-17.72-34.76-48.4-46-91.18C17,344.13,33.23,332.52,48.73,329.91a119.52,119.52,0,0,1,17.39-1.39,69.68,69.68,0,0,1,18.13,2.18c8,2.08,18,10.27,29.82,24.34a379.62,379.62,0,0,0,26.32,29.18,247.23,247.23,0,0,0,30,25.64A149.72,149.72,0,0,0,203.21,428a97.05,97.05,0,0,0,35.71,6.71,86.73,86.73,0,0,0,15.83-1.58A58.78,58.78,0,0,0,271,427.61a44.65,44.65,0,0,0,13-9.91A21.48,21.48,0,0,0,289.36,403c0-15.73-3.69-29.43-11-40.72a149.06,149.06,0,0,0-27.16-31.18c-10.73-9.4-22.58-18.82-35.23-28a273.49,273.49,0,0,1-35.18-30.31,149.93,149.93,0,0,1-27.07-38.55c-7.24-14.6-10.91-32.33-10.91-52.69,0-23,6.53-45.59,19.4-67.25A227.51,227.51,0,0,1,211.56,56.4a263.72,263.72,0,0,1,65.51-40.55C300.67,5.66,323.51.5,345,.5M338,285.55c3.29,0,6.24-2.08,8.76-6.18,6.47-10,16.28-51.35,29.17-123,8.1-22.07,8.89-36,2.35-41.26l-9.71-7.89a76,76,0,0,0-10.55-7.11c-7-4.2-13.89-6.34-20.37-6.34a80.39,80.39,0,0,0-28.42,5.54,109.43,109.43,0,0,0-26.77,14.61,77.35,77.35,0,0,0-19.9,21.74,51,51,0,0,0-7.73,26.92c0,10.52,1.92,19.7,5.69,27.3a122.41,122.41,0,0,0,15,22.91c6.19,7.61,13.14,16,20.65,24.82a309,309,0,0,1,23.45,32.29c7,10.38,13.17,15.64,18.37,15.64M345,.25q-32.4,0-68,15.37A263.16,263.16,0,0,0,211.4,56.2,226.89,226.89,0,0,0,162,114.13q-19.43,32.72-19.43,67.38,0,30.74,10.93,52.8a149.91,149.91,0,0,0,27.12,38.62,274.53,274.53,0,0,0,35.21,30.34q19,13.78,35.21,28a148.32,148.32,0,0,1,27.12,31.13q10.94,17,10.93,40.59a21.15,21.15,0,0,1-5.26,14.58,44.06,44.06,0,0,1-13,9.85,59,59,0,0,1-16.19,5.52,87,87,0,0,1-15.79,1.57,96.12,96.12,0,0,1-35.61-6.7,148.09,148.09,0,0,1-32.79-18.12,246,246,0,0,1-30-25.62,378.9,378.9,0,0,1-26.31-29.15q-17.81-21.28-29.95-24.43a69.66,69.66,0,0,0-18.19-2.19,118.74,118.74,0,0,0-17.43,1.4Q25.22,333.62.12,364.34q17,64.64,46.15,91.42a218.41,218.41,0,0,0,67.59,42.16Q152.29,513.3,196,513.29a673,673,0,0,0,69.21-3.55q34.39-3.54,61.12-16.15T369.25,455q8.89-12.6,20.24-28.76t25.09-36.65q58.29-201.73,41.28-259.28-17-58.31-34-79.59a173.32,173.32,0,0,0-36.43-35.86Q365.19.25,345,.25ZM338,285.3q-7.69,0-18.16-15.53a308.21,308.21,0,0,0-23.47-32.31Q285,224.08,275.75,212.64a121.51,121.51,0,0,1-15-22.86q-5.67-11.42-5.67-27.19a50.6,50.6,0,0,1,7.69-26.79,76.85,76.85,0,0,1,19.83-21.67,109,109,0,0,1,26.72-14.58A79.9,79.9,0,0,1,337.68,94q9.72,0,20.24,6.31a73.88,73.88,0,0,1,10.52,7.09l9.71,7.88q9.72,7.89-2.42,41-19.44,108-29.15,122.94-3.74,6.07-8.55,6.07Z"/>
</svg>
