<svg id="Layer_1" data-name="Layer 1" xmlns="http://www.w3.org/2000/svg" viewBox="0 0 437.6 435.27">
  <defs>
    <style>
      .cls-1 {
        fill: #ec008c;
      }
    </style>
  </defs>
  <title>_a</title>
  <path class="cls-1" d="M333.05.38c11.73,0,21.33,5.53,28.53,16.43a128.17,128.17,0,0,1,16.56,37.76,263.89,263.89,0,0,1,7.68,42.12c1.42,14.69,2.32,24.33,2.83,30.34.53,5.76,1.35,15.7,2.43,29.55s2,29.12,2.84,44.91c.79,15.64,1.47,30.88,2,45.31s.81,24.34.81,29.94a.3.3,0,0,0,.05.16,58.79,58.79,0,0,0,9.35,8.71c4.07,3.16,8.16,6.08,12.16,8.68s7.86,4.88,11.36,6.71c2.66,1.4,4.8,2.43,6.39,3.07h-31a.26.26,0,0,0-.25.23c-1.72,18.49-3.18,34.73-4.45,49.65-1.34,15.68-4.47,29.57-9.29,41.3a61,61,0,0,1-23.38,28.26c-10.71,7-26.73,10.6-47.62,10.6h-4c-4.51-1.09-10.36-2.55-17.37-4.33-9.31-2.34-10.62-3.12-10.74-3.3V334.27a.25.25,0,0,0-.25-.25H221.34c-14,0-26,1.2-35.68,3.55a65.43,65.43,0,0,0-26.81,13.85c-8.1,6.83-15.74,16.4-22.72,28.43s-14.6,27.65-22.65,46.45c-8.54,5.19-17.19,7.95-25.71,8.2-8.33.26-17.31.4-26.71.4-2.3,0-7.33-.14-14.15-.4-7.36-.26-12-.39-14-.39h-.09c-5.85-1-8.69-4-8.69-9.21V411.5a123,123,0,0,1,4.84-34.6,123.38,123.38,0,0,0,4.87-34.75c0-1.53-.26-4.79-.81-10.27a.28.28,0,0,0,0-.12,73.69,73.69,0,0,0-6.1-7.12c-3-3.19-6.14-6.37-9.32-9.46S11.07,309,7.8,306.11a73.39,73.39,0,0,0-7.22-5.87c-1-8.19,1.8-14.17,8.39-17.76a94,94,0,0,1,23.82-8.65c9.13-2.08,18.53-4.47,27.93-7.09s16.44-7.17,20.78-13.5q6.19-8.69,20.24-28.45l5.26-7.4c11.65-16.38,24.36-34.29,38.86-54.78,14.32-20.22,27.16-38.13,39.26-54.77C197.7,90.53,206.18,78.8,211,72c8.6-11.51,17.17-22,25.48-31.11a128.73,128.73,0,0,1,26.26-22.42A115.59,115.59,0,0,1,293.45,5.09C304.71,2,318,.38,333.05.38M275.58,271.47a.25.25,0,0,0,.25-.25V150.65a.27.27,0,0,0,0-.12l-8.1-15.76a.23.23,0,0,0-.21-.13h0a.25.25,0,0,0-.22.12c-11.3,19.93-22.06,40.62-32,61.49a439.27,439.27,0,0,0-24.7,64.66.24.24,0,0,0,.11.29c9.16,5.24,19.95,8.3,32.09,9.09s23.12,1.18,32.8,1.18M333.05.12q-22.68,0-39.67,4.73a115.83,115.83,0,0,0-30.76,13.4,128.31,128.31,0,0,0-26.3,22.46q-12.57,13.8-25.5,31.13-7.29,10.25-25.91,35.86t-39.26,54.77Q125,191.63,106.8,217.24T81.3,253.1q-6.49,9.45-20.64,13.4t-27.93,7.09a93.38,93.38,0,0,0-23.88,8.67q-10.12,5.52-8.5,18.12a71.92,71.92,0,0,1,7.29,5.91q4.85,4.35,9.71,9.07t9.31,9.45a71,71,0,0,1,6.07,7.1c.53,5.26.81,8.67.81,10.24a122.47,122.47,0,0,1-4.86,34.68,122.4,122.4,0,0,0-4.85,34.67v13.4q0,7.89,8.9,9.46,3.23,0,14.17.39t14.16.4q13.75,0,26.72-.4t25.9-8.27q12.13-28.38,22.66-46.5T159,351.61a64.93,64.93,0,0,1,26.71-13.79q14.58-3.56,35.62-3.55h66.38v92.21q0,.79,10.93,3.54t17.4,4.34h4.05q31.56,0,47.76-10.64a61,61,0,0,0,23.47-28.37q7.29-17.73,9.31-41.38t4.45-49.65h32.38a54.94,54.94,0,0,1-7.69-3.54q-5.26-2.76-11.33-6.7t-12.14-8.67a58.1,58.1,0,0,1-9.31-8.67q0-8.65-.81-30t-2-45.31q-1.21-24-2.84-44.92T388.9,127q-.81-9.47-2.83-30.35a263.09,263.09,0,0,0-7.69-42.16,128.09,128.09,0,0,0-16.59-37.83Q350.86.13,333.05.12Zm-57.47,271.1q-14.58,0-32.79-1.18t-32-9.06a435.05,435.05,0,0,1,24.69-64.62q15-31.52,32-61.47l8.1,15.76V271.22Z"/>
</svg>
