<svg id="Layer_1" data-name="Layer 1" xmlns="http://www.w3.org/2000/svg" viewBox="0 0 511.84 513.29">
  <defs>
    <style>
      .cls-1 {
        fill: #ec008c;
      }
    </style>
  </defs>
  <title>_b</title>
  <path class="cls-1" d="M268.06.38c12.88,0,28.13.79,45.31,2.36a494.83,494.83,0,0,1,53,7.87,372.21,372.21,0,0,1,53,15,207.6,207.6,0,0,1,46.49,23.61A118.31,118.31,0,0,1,499,83c8.3,13,12.51,28.37,12.51,45.57,0,22.44-3.94,40-11.7,52.27s-16.34,21.94-25.44,28.7a177.7,177.7,0,0,1-25.46,16.14c-7.88,4-11.87,9.21-11.87,15.59,0,3.23,1.8,6.08,5.37,8.48s7.24,4.66,10.94,6.71a42.69,42.69,0,0,1,8.86,6.26,3.66,3.66,0,0,1,0,5.95.24.24,0,0,0,0,.34l40.44,47.25a12.62,12.62,0,0,1,.78,3.82c0,6.2-3.92,13-11.65,20.3a226.58,226.58,0,0,1-29.52,22.83c-11.83,7.85-25.17,15.8-39.64,23.63s-29,15.15-42.89,21.67-26.81,12.13-38,16.54-19.65,7.47-25.08,9.06c-10.19,3.13-23.39,5.91-39.22,8.26-15.16,2.25-31.31,4.7-49.38,7.49-17,2.63-33.57,5.81-49.4,9.46s-29.37,8.45-40.13,14.21a74.3,74.3,0,0,0-14.62,10.68c-4.8,4.41-9.83,8.78-15,13a110,110,0,0,1-16.15,11,36.86,36.86,0,0,1-18.09,4.7c-16.06,0-28.3-1.06-36.37-3.15s-14-5.5-17.67-10.16-6.17-11.13-7.24-19.18L12,470.09c-.79-5.92-1.68-12.59-2.67-20,0-1.1-1.2-3.72-3.68-8C3,437.65,1.69,435.3,1.18,434.3c0-.55-.14-1.8-.4-3.92a37.81,37.81,0,0,1-.41-4.69c0-4.69,1.69-8.23,5.17-10.83a85.36,85.36,0,0,1,12.1-7.47c4.75-2.45,9.38-5,13.77-7.49,4.62-2.65,8.06-6.93,10.23-12.74,10-27,21.86-58.72,33.19-89.05,10.76-28.81,22.2-57.31,34-84.71s24.86-55.13,38.84-82.34,30-55,47.75-82.73a.2.2,0,0,0,0-.13V40.32a.26.26,0,0,0-.1-.2.21.21,0,0,0-.15,0h-.07a51.34,51.34,0,0,1-13.44,2.09,21.77,21.77,0,0,1-12.25-3.24c-5.84-3.87-8.8-10-8.8-18.32a38.26,38.26,0,0,1,.81-5.86A25.28,25.28,0,0,1,163,9,158.11,158.11,0,0,1,214.64.38h53.42m-1.61,199.38c10.75,0,23.85-2,38.91-5.92a198.42,198.42,0,0,0,43.37-17A133.14,133.14,0,0,0,384,150c9.72-10.5,14.64-22.23,14.64-34.85,0-1-.13-3-.4-5.93-.27-2.74-.41-4.77-.41-5.89a.3.3,0,0,0-.05-.15,274.78,274.78,0,0,0-34.43-37.86C350.66,53.8,335,48,316.63,48c-3.37,0-7.82,6.88-13.58,21-5.67,13.93-11.26,30-16.61,47.7s-10.11,34.93-14.17,51.24-6.07,26.86-6.07,31.58a.25.25,0,0,0,.25.25M199.26,364.47a229.45,229.45,0,0,0,76.58-13c24.47-8.64,49.12-17.79,73.28-27.2a28.59,28.59,0,0,0,8.21-8s0,0,0-.05a22.75,22.75,0,0,0,.82-4,6.75,6.75,0,0,0-.42-2.06,5.83,5.83,0,0,1-.39-1.89.24.24,0,0,0-.18-.23c-1.69-.54-4-1.34-6.87-2.37A96.76,96.76,0,0,0,341,302.9c-3.14-.77-6.28-1.43-9.33-2a42.77,42.77,0,0,0-6.92-.8c-11.24,0-25,.53-40.9,1.58a231.64,231.64,0,0,0-46.59,7.89c-15.08,4.2-28.32,10.58-39.35,18.95s-17.5,20.14-19.12,34.85a.3.3,0,0,0,.06.2.27.27,0,0,0,.19.08c1.56,0,4.77.12,10.11.39,4.81.26,8.41.4,10.13.4M268.06.12H214.64a157.78,157.78,0,0,0-51.81,8.67,24.43,24.43,0,0,0-1.62,5.91,39.62,39.62,0,0,0-.81,5.91q0,12.62,8.91,18.52a21.9,21.9,0,0,0,12.39,3.29,51.1,51.1,0,0,0,13.51-2.1V48.2Q168.5,90,147.45,131T108.6,213.3Q90.78,254.67,74.6,298T41.41,387.07q-3.24,8.69-10.12,12.61c-4.59,2.64-9.18,5.12-13.76,7.49a84.57,84.57,0,0,0-12.14,7.49,13,13,0,0,0-5.27,11,38.65,38.65,0,0,0,.41,4.73c.27,2.1.4,3.42.4,3.94q.81,1.59,4.46,7.88C7.81,446.45,9,449.07,9,450.12q2.43,18.13,4.05,30.34t7.28,19.31Q26,506.87,38.17,510t36.43,3.16a36.92,36.92,0,0,0,18.21-4.73,110.23,110.23,0,0,0,16.19-11q7.68-6.3,15-13a73.66,73.66,0,0,1,14.57-10.64q16.19-8.65,40.07-14.18T228,450.12q25.5-3.93,49.38-7.49t39.26-8.27q8.08-2.37,25.1-9.07t38-16.55q21-9.84,42.91-21.67t39.66-23.64a225.72,225.72,0,0,0,29.55-22.85q11.72-11,11.73-20.49a12.63,12.63,0,0,0-.81-3.94l-40.47-47.29c2.15-2.09,2.15-4.2,0-6.3a42.81,42.81,0,0,0-8.9-6.31q-5.69-3.13-10.93-6.7c-3.52-2.36-5.26-5.12-5.26-8.27q0-9.47,11.73-15.37a176,176,0,0,0,25.5-16.16Q488.23,199.52,500,181t11.74-52.41q0-26-12.55-45.71A118,118,0,0,0,466,49a207.45,207.45,0,0,0-46.54-23.65,370.29,370.29,0,0,0-53-15,490.09,490.09,0,0,0-53-7.88Q287.48.12,268.06.12Zm-1.61,199.39q0-7.09,6.07-31.52t14.16-51.23q8.08-26.78,16.6-47.68T316.63,48.2q27.51,0,46.55,17.34a273.79,273.79,0,0,1,34.4,37.82c0,1.06.13,3,.41,5.91s.4,4.87.4,5.91q0,18.91-14.57,34.68a132,132,0,0,1-35.21,26.79A196.49,196.49,0,0,1,305.3,193.6q-22.67,5.91-38.85,5.91ZM199.26,364.22c-1.62,0-5-.13-10.12-.4s-8.5-.39-10.12-.39q2.43-22.05,19-34.68t39.26-18.91A230.55,230.55,0,0,1,283.85,302q23.86-1.57,40.88-1.58a43.14,43.14,0,0,1,6.88.79c3,.53,6.07,1.18,9.31,2s6.33,1.71,9.31,2.76,5.26,1.85,6.88,2.36a6,6,0,0,0,.4,2,6.45,6.45,0,0,1,.41,2,24.33,24.33,0,0,1-.81,3.94,20.06,20.06,0,0,1-3.65,4.33A19.56,19.56,0,0,1,349,324q-36.42,14.18-73.26,27.18a228.12,228.12,0,0,1-76.49,13Z"/>
</svg>
