<svg id="Layer_1" data-name="Layer 1" xmlns="http://www.w3.org/2000/svg" viewBox="0 0 381.52 426.6">
  <defs>
    <style>
      .cls-1 {
        fill: #ec008c;
      }
    </style>
  </defs>
  <title>_c</title>
  <path class="cls-1" d="M344.16.38c10.68,0,19.62,2.37,26.57,7s10.41,13.08,10.41,25c0,5.66-2.69,10.5-8,14.37a98.81,98.81,0,0,1-19,10.62c-7.12,3.08-14.47,6.39-21.86,9.85-7.16,3.36-12.69,7.4-16.45,12a23.11,23.11,0,0,0-3.5-4.07,20.39,20.39,0,0,0-4.52-3.59.2.2,0,0,0-.11,0h-4.05c-8.1,0-18.36,3.59-30.48,10.67a286.08,286.08,0,0,0-38.49,27.61,460.27,460.27,0,0,0-40.49,38.64,487.12,487.12,0,0,0-36.45,43.76,301.78,301.78,0,0,0-26.33,42.2c-6.73,13.35-10.14,24.92-10.14,34.39A57.23,57.23,0,0,0,126.58,293a68.79,68.79,0,0,0,14.63,20.57,79.13,79.13,0,0,0,20.7,14.62,53.41,53.41,0,0,0,23.59,5.54,86.3,86.3,0,0,0,40.18-9.48c12.11-6.29,24.1-13.19,35.64-20.5s23.31-14.25,34.79-20.48a79.26,79.26,0,0,1,38.08-9.43c-.07,7.73-3.18,16.89-9.27,27.21a233.27,233.27,0,0,1-24.26,33.06,389,389,0,0,1-32.76,33.47c-11.78,10.68-23.35,20.62-34.4,29.54a221,221,0,0,1-30.72,21.26c-9.36,5.21-16.26,7.85-20.52,7.85a270.15,270.15,0,0,1-63.89-7.88,203.41,203.41,0,0,1-58.62-24,135.66,135.66,0,0,1-42.82-41.3C5.94,336.37.38,316,.38,292.5.38,270.05,6,246.88,17,223.65a322.91,322.91,0,0,1,43.67-67.72,427,427,0,0,1,62.7-61A520.83,520.83,0,0,1,197,45.66,431.9,431.9,0,0,1,273.4,12.58C298.9,4.48,322.7.38,344.16.38m0-.26q-32.39,0-70.83,12.22a429.94,429.94,0,0,0-76.5,33.1,519.54,519.54,0,0,0-73.66,49.25,425.63,425.63,0,0,0-62.74,61.08,321.49,321.49,0,0,0-43.71,67.78Q.12,258.62.13,292.5q0,35.47,16.59,60.69a135.18,135.18,0,0,0,42.9,41.37,202.89,202.89,0,0,0,58.69,24,269.85,269.85,0,0,0,63.95,7.88q6.47,0,20.64-7.88a220.65,220.65,0,0,0,30.76-21.28q16.59-13.4,34.4-29.55a386.6,386.6,0,0,0,32.79-33.5,230.83,230.83,0,0,0,24.28-33.1q9.3-15.75,9.31-27.58A79.12,79.12,0,0,0,296,283.05q-17.42,9.45-34.81,20.49T225.57,324a85.72,85.72,0,0,1-40.07,9.45A53,53,0,0,1,162,328a78.75,78.75,0,0,1-20.64-14.58,68,68,0,0,1-14.57-20.49,56.6,56.6,0,0,1-5.26-24q0-14.19,10.12-34.28A298.94,298.94,0,0,1,158,192.42a482.19,482.19,0,0,1,36.43-43.74,456.53,456.53,0,0,1,40.48-38.62,282.58,282.58,0,0,1,38.45-27.58q18.21-10.64,30.35-10.64h4.05a20.63,20.63,0,0,1,4.45,3.55,19.65,19.65,0,0,1,3.64,4.33q5.65-7.09,16.6-12.21t21.85-9.85A99,99,0,0,0,373.3,47q8.08-5.91,8.09-14.58,0-18.12-10.52-25.22T344.16.12Z"/>
</svg>
