<svg id="Layer_1" data-name="Layer 1" xmlns="http://www.w3.org/2000/svg" viewBox="0 0 455.18 490.44">
  <defs>
    <style>
      .cls-1 {
        fill: #ec008c;
      }
    </style>
  </defs>
  <title>_d</title>
  <path class="cls-1" d="M196,.38c15.52,0,32.92,3.44,51.72,10.23a337.89,337.89,0,0,1,57.43,27.56A403.94,403.94,0,0,1,361,78.33a446.71,446.71,0,0,1,47.74,47.26,242.83,242.83,0,0,1,33.55,49.6c8.31,16.71,12.53,32.59,12.53,47.17s-.82,30.8-2.43,48.05S445.88,303,437.84,316c-7.52,12.53-20.43,25.77-38.39,39.33a498.42,498.42,0,0,1-62.7,39.78c-23.65,12.82-49.24,25.15-76.07,36.63s-53.53,21.71-79.31,30.34a718.69,718.69,0,0,1-72.83,20.48c-22.5,5-41.28,7.48-55.8,7.48-6.09,0-12.07-.13-17.8-.39A60.64,60.64,0,0,1,18,486.53a29.31,29.31,0,0,1-12.84-8.21C2,474.72.38,469.21.38,461.94a62.89,62.89,0,0,1,4.43-22c2.92-7.77,6.19-15.85,9.71-24s7.16-16.05,10.92-23.63a109.81,109.81,0,0,0,8.11-20.93c7.52-25.1,15.28-50.15,23.07-74.47s16.48-48.51,25.9-72.09,20-47,31.56-69.72a535.49,535.49,0,0,1,40.86-67.35.3.3,0,0,0,.05-.15V83.66a24.23,24.23,0,0,0-4.09-13.93c-2.7-3.92-5.56-7.9-8.51-11.83s-5.82-7.9-8.49-11.81a23.6,23.6,0,0,1-4-13.65c0-7.25,2.43-13.15,7.21-17.55a44.9,44.9,0,0,1,17.71-9.8,101.41,101.41,0,0,1,21.8-3.93C184.35.63,190.7.38,196,.38M170.93,364.47c13.47,0,28.5-5.19,44.65-15.41A233.81,233.81,0,0,0,261,311.19a229.78,229.78,0,0,0,34.85-48.12c9.15-17,13.79-32.85,13.79-47,0-5.76-1.37-13.73-4.06-23.71a194.69,194.69,0,0,0-10.94-30A99.7,99.7,0,0,0,278,136.69c-6.49-7.12-13.91-10.72-22-10.72a24.5,24.5,0,0,0-4.1.79l0,0a19.8,19.8,0,0,0-4.52,3.59,19.34,19.34,0,0,0-3.71,4.44c-1.58,4.63-4.23,11.84-8.09,22.05s-8.27,21.61-12.95,33.49c-4.93,12.53-10,25.65-15,39-5.38,14.33-10.28,27.22-15,39.4-4.86,12.61-9.35,23.88-13.36,33.49-4.1,9.87-6.88,17-8.5,21.68-.54,1.56-1.33,4.14-2.43,7.9-1.06,3.58-2,7.57-2.84,11.84-.85,4.44-1.52,8.31-2,11.83a61.69,61.69,0,0,0-.81,7.92.25.25,0,0,0,.25.25,35.71,35.71,0,0,1,3.61.39,33.67,33.67,0,0,0,4.49.4M196,.12c-5.4,0-11.88.28-19.43.79a100.82,100.82,0,0,0-21.85,3.94,45.12,45.12,0,0,0-17.81,9.85q-7.29,6.71-7.29,17.74a23.73,23.73,0,0,0,4.05,13.79q4,5.91,8.5,11.82t8.5,11.82a23.9,23.9,0,0,1,4.05,13.79V87.6A534.83,534.83,0,0,0,113.86,155q-17.42,34.29-31.57,69.75T56.38,296.84q-11.75,36.65-23.07,74.47a109,109,0,0,1-8.09,20.89q-5.67,11.43-10.93,23.64t-9.71,24A62.66,62.66,0,0,0,.12,461.94q0,11,4.86,16.55a29.38,29.38,0,0,0,13,8.27,60.21,60.21,0,0,0,17,3.16q8.9.4,17.81.39,21.85,0,55.86-7.49a713,713,0,0,0,72.85-20.49q38.85-13,79.33-30.34t76.09-36.64a496.79,496.79,0,0,0,62.74-39.8q27.11-20.49,38.45-39.4,12.13-19.69,14.57-45.71t2.43-48.08q0-22.05-12.55-47.28a241.67,241.67,0,0,0-33.6-49.65,443.42,443.42,0,0,0-47.76-47.28A402.25,402.25,0,0,0,305.3,38a337.61,337.61,0,0,0-57.47-27.58Q219.48.14,196,.12Zm-25.09,364.1a33.25,33.25,0,0,1-4.46-.4c-1.89-.25-3.11-.39-3.64-.39a62.26,62.26,0,0,1,.81-7.88q.8-5.51,2-11.82t2.84-11.82c1.07-3.67,1.88-6.31,2.43-7.88q2.41-7.09,8.5-21.68t13.35-33.49q7.29-18.92,15-39.4t15-39q7.29-18.51,13-33.5t8.1-22.06a19.3,19.3,0,0,1,3.64-4.34,20.35,20.35,0,0,1,4.45-3.54,25.51,25.51,0,0,1,4-.79q12.15,0,21.86,10.64a99.2,99.2,0,0,1,16.59,25.61,193.54,193.54,0,0,1,10.93,29.95q4,15,4.05,23.64,0,21.27-13.76,46.89A228.57,228.57,0,0,1,260.78,311a232.49,232.49,0,0,1-45.33,37.83q-24.28,15.38-44.52,15.37Z"/>
</svg>
