<svg id="Layer_1" data-name="Layer 1" xmlns="http://www.w3.org/2000/svg" viewBox="0 0 551.51 466.01">
  <defs>
    <style>
      .cls-1 {
        fill: #ec008c;
      }
    </style>
  </defs>
  <title>_e</title>
  <path class="cls-1" d="M476.1.38c5.27,0,10.58.13,15.77.39,4.95.26,9.45.39,13.37.39h5.57l24,23.35c-25.56,15-48.48,27.44-68.1,36.86a414.93,414.93,0,0,1-57.84,22.84,559,559,0,0,1-59.47,14.57c-20.75,3.94-45.4,8-73.25,12.22l-.06,0c-7,3.14-11.66,5.81-13.84,7.93s-3.19,4.22-2.9,6.12a22.36,22.36,0,0,0,2.45,6.78c1.32,2.6,2,6.28,2,10.92a.25.25,0,0,0,.25.25h11.37l-31.76,23.19a.26.26,0,0,0-.1.2v7.88a.25.25,0,0,0,.22.25c4.31.53,12.34,1.32,23.89,2.36,11.27,1,23.66,2,36.84,2.76,13.6.83,25.65,1.47,36.83,2,11.4.52,19.42.79,23.78.79h.07c24.11,3.65,43.44,7.36,57.45,11a335.48,335.48,0,0,1,38.83,12.6c11.71,4.66,17.65,9.89,17.65,15.53,0,11.41-4,20-12,25.4a85.92,85.92,0,0,1-28.25,12.18c-10.75,2.62-21.78,5-32.78,7.09s-19.33,5.54-24.72,10.23c-15.31-1.23-30.83-1.86-46.15-1.86-16.89,0-34,.76-50.93,2.27a736.17,736.17,0,0,0-97.17,15.37.21.21,0,0,0-.15.11A139.18,139.18,0,0,0,176,313.29a59.12,59.12,0,0,0-5.28,23.35v3.15a.26.26,0,0,0,.07.18c1.09,1.07,3.84,2.68,8.16,4.77s7.07,3.18,8.21,3.18a56.29,56.29,0,0,0,7.73-1.19c4.16-.81,8.39-1.74,12.56-2.76,4.35-1.05,8.57-2,12.54-2.75a55.13,55.13,0,0,1,7.64-1.18H259a25.86,25.86,0,0,0-3.69,3.12,19.29,19.29,0,0,0-3.69,4.4.14.14,0,0,0,0,.06,38.39,38.39,0,0,0-.82,4.78,12.17,12.17,0,0,0,.83,3.23.22.22,0,0,0,.19.16l40.47,7.89h.07L519,347.92c.26,0,1,.4,3.46,3.07,1.92,2.14,3.38,3.69,4.45,4.72,1.22,1.8,4.17,6,8.08,11.41a132.32,132.32,0,0,1,8.08,12.19c1,2.06,2.64,5,4.86,9.06,2.79,5.12,3.2,6.32,3.2,6.58,0,3.55-3.61,6.38-10.74,8.43a218.43,218.43,0,0,1-25.47,5.51c-9.92,1.61-19.86,3.07-29.54,4.34-9.95,1.31-17.73,3-23.13,5.13l-40.47,15.76c-2.6,1-7.1,2.65-14.16,5.12s-14.39,5-21.86,7.49c-7.76,2.61-15.24,5-22.25,7.09s-11.87,3.42-14.5,3.93c-6.32,0-15.86.13-29.14.39s-28,.81-44.13,1.58c-16.83.81-34.26,1.47-51.8,2-18.2.53-35.77,1.2-52.22,2-16.79.79-31.77,1.32-44.51,1.58-12.33.25-22.4.39-29.14.39H69.74c-4.83,0-11.34-1.06-19.36-3.14a102.51,102.51,0,0,1-23-9,85.05,85.05,0,0,1-19-13.76c-5.32-5.16-8-10.94-8-17.15a5.88,5.88,0,0,1,.4-1.89,6.88,6.88,0,0,0,.41-2,700.93,700.93,0,0,0,38-84.3c10.84-29,21.6-58.18,32-86.69,10.53-28.9,21.83-57.8,33.59-85.89a592.64,592.64,0,0,1,42.07-81.93.25.25,0,0,0-.21-.38,21.69,21.69,0,0,1-7.19-2A37.07,37.07,0,0,1,130.2,72a26.89,26.89,0,0,1-6.82-7.81,9,9,0,0,1-.78-8.09c2.12-8.81,10.92-16.44,26.16-22.68s34.31-11.56,56.62-15.75A699.31,699.31,0,0,1,279,8.26c26.76-2.1,52.63-3.83,76.9-5.13,24.43-1.3,46.62-2.09,66-2.36C441.81.5,455.32.38,463.15.38h13m0-.26h-13q-12.13,0-41.28.4t-66,2.36Q319,4.86,279,8a697.64,697.64,0,0,0-73.66,9.45q-33.6,6.32-56.67,15.76t-26.3,22.86a9.1,9.1,0,0,0,.81,8.27,26.67,26.67,0,0,0,6.88,7.88,36.91,36.91,0,0,0,9.31,5.52c3.23,1.32,5.66,2,7.28,2a589.61,589.61,0,0,0-42.09,82Q86.73,204.24,71,247.58T39,334.27a699,699,0,0,1-38,84.33,6.59,6.59,0,0,1-.4,2,6.06,6.06,0,0,0-.41,2q0,9.45,8.1,17.33a84.86,84.86,0,0,0,19,13.8,102,102,0,0,0,23.07,9.06q12.15,3.15,19.43,3.15H98.07q9.72,0,29.14-.39t44.53-1.58q25.08-1.19,52.21-2t51.8-2q24.69-1.19,44.12-1.58T349,458q4-.78,14.57-3.94T385.84,447q11.73-3.95,21.86-7.49t14.17-5.12l40.47-15.76q8.09-3.15,23.07-5.13T515,409.14a219.57,219.57,0,0,0,25.5-5.52q10.92-3.14,10.92-8.67c0-.51-1.08-2.76-3.23-6.7s-3.79-6.95-4.86-9.06a131.47,131.47,0,0,0-8.1-12.21q-6.48-9.06-8.09-11.43c-1.09-1.05-2.57-2.62-4.45-4.73s-3.11-3.15-3.65-3.15L292.35,363.43l-40.48-7.88a12.59,12.59,0,0,1-.81-3.15,38.61,38.61,0,0,1,.81-4.73,28.5,28.5,0,0,1,8.1-7.88H227.59A55.62,55.62,0,0,0,219.9,341q-6.08,1.18-12.55,2.76c-4.32,1.06-8.5,2-12.54,2.76a57.8,57.8,0,0,1-7.69,1.18q-1.63,0-8.1-3.15t-8.09-4.73v-3.15a58.6,58.6,0,0,1,5.26-23.25,137.34,137.34,0,0,1,10.93-20.89,732.52,732.52,0,0,1,97.13-15.36q25.46-2.26,50.91-2.27,23.11,0,46.23,1.87,8.08-7.1,24.69-10.24t32.79-7.1a85.8,85.8,0,0,0,28.33-12.21q12.14-8.28,12.14-25.61,0-8.67-17.81-15.77a337.07,337.07,0,0,0-38.85-12.6q-21.06-5.51-57.48-11-6.48,0-23.88-.79t-36.83-2q-19.42-1.18-36.83-2.75t-23.88-2.37v-7.88l32.38-23.64H264c0-4.73-.69-8.4-2-11a22.39,22.39,0,0,1-2.43-6.69c-.27-1.84.67-3.81,2.84-5.92s6.74-4.72,13.76-7.88q42.07-6.3,73.26-12.21a557.46,557.46,0,0,0,59.49-14.58A414.52,414.52,0,0,0,466.79,61.6q29.55-14.19,68.4-37L510.91.91h-5.67c-3.78,0-8.23-.12-13.35-.39s-10.4-.4-15.79-.4Z"/>
</svg>
