<svg id="Layer_1" data-name="Layer 1" xmlns="http://www.w3.org/2000/svg" viewBox="0 0 495.65 445.52">
  <defs>
    <style>
      .cls-1 {
        fill: #ec008c;
      }
    </style>
  </defs>
  <title>_f</title>
  <path class="cls-1" d="M340.11.5c6.84,0,14.33.13,22.25.39,7.54.27,14.76.4,21.46.4h14.54a86.05,86.05,0,0,1,22.19,6.28c7.15,3.1,10.78,8.85,10.78,17.11a32,32,0,0,1-.4,4.3c-.24,1.58-.38,2.77-.41,3.41a146.21,146.21,0,0,0-29.43,14.54c-8.28,5.46-16.46,11.16-24.3,17s-15.72,11.39-23.87,16.94a149.55,149.55,0,0,1-27.48,14.56c-11.29,4.71-24.75,8.15-40,10.22a379.7,379.7,0,0,0-44.14,8.68c-14,3.67-26.14,8.85-36.1,15.4S190.1,146.81,190.1,161a.25.25,0,0,0,.25.25c5.09,0,13.07-.14,23.08-.4,9.36-.23,20.09-.47,34.81-.78l24.31-.49,14.95-.3c13.6-.26,25.85-.4,36.42-.4h34c9.13,0,21.11.4,35.6,1.19s28.79,1.57,42.5,2.36,25.64,1.58,35.61,2.36c13.42,1.06,15.4,1.69,15.63,1.9l7.76,7.56a487.94,487.94,0,0,0-85.8,27.89C382.33,213.83,355,225.89,327.86,238c-26.76,12-54.53,23.26-82.55,33.49a393.94,393.94,0,0,1-89.79,20.87.29.29,0,0,0-.1,0A80.41,80.41,0,0,0,129,316.92a286.87,286.87,0,0,0-18.63,31.94c-5.77,11.5-11.35,23-16.6,34.29a130.34,130.34,0,0,1-20.2,31.07,95.67,95.67,0,0,1-29.47,22.4C32.68,442.33,18,445.24.38,445.26a168.59,168.59,0,0,1,6.87-47c4.55-15.69,9.46-31.6,14.56-47.28s10-31.53,14.58-46.89A163.16,163.16,0,0,0,43.28,258c0-1.55-.14-3.88-.41-7.11-.25-2.87-.4-4.92-.4-5.5a20.68,20.68,0,0,0-1.23-4.41c-.77-2.26-1.7-4.72-2.84-7.5-1-2.48-2-5-2.83-7.48a21.8,21.8,0,0,1-1.2-4.25c0-2,1.87-4.32,5.56-6.89s8.1-5.52,13-8.66,9.36-6,13.75-8.67,7.08-5,8.19-7.19c2.28-4.46,5.28-10.42,8.91-17.73,3.73-7.54,7.41-15.77,10.93-24.45a249.53,249.53,0,0,0,8.91-26,87.72,87.72,0,0,0,3.66-23.32,10.3,10.3,0,0,0-2.91-7.67c-1.9-1.83-3.78-3.67-5.67-5.51s-3.76-3.79-5.65-5.9A11.08,11.08,0,0,1,90.23,72a29.79,29.79,0,0,1,.4-4.3,34,34,0,0,0,.4-3.45A423.87,423.87,0,0,1,146.74,34a374.52,374.52,0,0,1,55.82-19.69A388,388,0,0,1,261.21,3.65,629.11,629.11,0,0,1,325.54.5h14.57m0-.25H325.54A627.27,627.27,0,0,0,261.18,3.4,386.11,386.11,0,0,0,202.5,14a372.13,372.13,0,0,0-55.86,19.7A422.2,422.2,0,0,0,90.79,64.08a33,33,0,0,1-.41,3.55A30.25,30.25,0,0,0,90,72a11.3,11.3,0,0,0,2.83,7.88c1.89,2.1,3.77,4.07,5.67,5.91l5.66,5.51A10,10,0,0,1,107,98.76,87.26,87.26,0,0,1,103.33,122a245.76,245.76,0,0,1-8.9,26q-5.28,13-10.93,24.44t-8.9,17.73c-1.09,2.1-3.78,4.47-8.1,7.09s-8.9,5.52-13.76,8.67-9.18,6.05-13,8.67-5.67,5-5.67,7.09A21.47,21.47,0,0,0,35.34,226c.81,2.36,1.74,4.86,2.83,7.48s2,5.13,2.83,7.49a21.64,21.64,0,0,1,1.22,4.33c0,.53.12,2.37.4,5.52S43,256.38,43,258a162.06,162.06,0,0,1-6.88,46.11Q29.27,327.31,21.58,351T7,398.23A168,168,0,0,0,.13,445.52q26.7,0,44.11-8.67a95.91,95.91,0,0,0,29.55-22.46A130.18,130.18,0,0,0,94,383.26q8.08-17.33,16.6-34.28a284.48,284.48,0,0,1,18.62-31.92,79.63,79.63,0,0,1,26.31-24.43,391.91,391.91,0,0,0,89.85-20.89q42.07-15.36,82.57-33.49t81.35-35.86a484,484,0,0,1,86.21-28l-8.1-7.88c-.54-.52-5.8-1.19-15.78-2S449.79,163,436,162.2s-27.93-1.58-42.5-2.36-26.44-1.19-35.61-1.19h-34q-16.2,0-36.43.4l-39.26.79q-19,.41-34.81.78c-10.52.28-18.21.4-23.07.4q0-21.28,15-31.13t36-15.37a376.5,376.5,0,0,1,44.12-8.67q23.07-3.13,40.07-10.24A150,150,0,0,0,353.06,81q12.13-8.28,23.88-17t24.28-16.94a145.56,145.56,0,0,1,29.55-14.58,32.44,32.44,0,0,1,.4-3.54,31.83,31.83,0,0,0,.41-4.34q0-12.6-10.93-17.34A86,86,0,0,0,398.39,1H383.82c-6.48,0-13.63-.12-21.45-.4S347.12.25,340.11.25Z"/>
</svg>
