<svg id="Layer_1" data-name="Layer 1" xmlns="http://www.w3.org/2000/svg" viewBox="0 0 496.46 481.77">
  <defs>
    <style>
      .cls-1 {
        fill: #ec008c;
      }
    </style>
  </defs>
  <title>_g</title>
  <path class="cls-1" d="M349,.39a69,69,0,0,1,22.11,13.32C378.3,19.94,382,27.56,382,36.38a12.51,12.51,0,0,1-.77,3,30.7,30.7,0,0,1-10.76,4.25,105.68,105.68,0,0,0-12.18,3.16,39,39,0,0,0-11,5.55c-3.28,2.39-5.48,6-6.57,10.76-.56,1.17.51,3.82,3.27,8.1S348.22,78,348.77,79c.55,4.34.8,6.82.8,7.8a31.85,31.85,0,0,1-.4,4.3c-.23,1.53-.37,2.7-.4,3.34a474.5,474.5,0,0,0-66.59,7.49,236.67,236.67,0,0,0-58.34,18.93,225.43,225.43,0,0,0-50.65,33.53c-15.59,13.61-30,30.59-42.95,50.49-5,8.06-8.94,14.38-12.14,19.31a122.63,122.63,0,0,0-7.71,13.42,49.5,49.5,0,0,0-4.06,12.68,98.13,98.13,0,0,0-1.22,17A58.53,58.53,0,0,0,112,294.19a57.23,57.23,0,0,0,18.29,21.37.24.24,0,0,0,.14.05h8.1c3.68,0,7.76.13,12.12.39,4.17.26,8.26.4,12.16.4h8.1c8.15,0,18.78-.54,31.59-1.58a410,410,0,0,0,40.9-5.52c14.2-2.61,28.64-5.92,42.92-9.86a203.93,203.93,0,0,0,38.5-14.6c11.3-5.75,20.72-12.66,28-20.54s11-17,11-27a.24.24,0,0,0-.25-.25c-1.15,0-3.73-.14-7.27-.4-3.93-.27-6.25-.39-7.3-.39a97.39,97.39,0,0,0-10.56,1.18c-5.17.76-11,1.66-17.81,2.76-5.89,1-11.88,1.89-17.8,2.76a97.31,97.31,0,0,1-10.49,1.18c-2.31,0-6.64-.14-12.54-.39a162.58,162.58,0,0,1-20.61-2.36c-7.47-1.29-15.08-3-22.64-5.12-7.38-2-13-4.64-16.76-7.71a169.08,169.08,0,0,1,14.47-27A143.54,143.54,0,0,1,250,182.35a132.74,132.74,0,0,1,18.58-15.74c6.92-4.85,14.94-10.4,23.82-16.5h178c12.27,0,19.69,1.43,22.06,4.24s3.59,8.75,3.59,17.58c0,18.79-5.85,41.69-17.38,68.07s-25.33,54-40.87,81.93c-15.84,28.45-31.5,56-46.55,82C376,430.24,364.47,453.38,357,472.68c-7.66-1.64-13.28-2.47-16.71-2.48a13.6,13.6,0,0,0-2.2.16c-3,.54-5,1.65-5.84,3.29s-1.62,3.28-2.44,5.13-4.08,2.61-9.89,2.61a12.1,12.1,0,0,1-3.08-.75c-1.07-1.6-2.68-5.4-4.78-11.3s-3.22-10-3.22-12.13c0-1.56.41-5.93,1.21-13,.85-7.42,1.8-15,2.83-22.46,1.1-8,2.05-15.58,2.84-22.46.82-7.18,1.21-11.44,1.21-13v-39.4a.26.26,0,0,0-.11-.21.23.23,0,0,0-.14,0l-.09,0a462.33,462.33,0,0,0-49.81,24.84c-15.89,9.17-32.09,17.92-48.16,26A345.1,345.1,0,0,1,168.42,418a183,183,0,0,1-55.78,8.27c-37.53,0-65.93-10.45-84.4-31.05S.38,346.66.38,312.21c0-23.51,5.84-47.2,17.37-70.43a306.82,306.82,0,0,1,45.7-66.93,485.62,485.62,0,0,1,64.73-60.26,705.35,705.35,0,0,1,75.25-51.2,667.86,667.86,0,0,1,76.87-39c25.23-10.71,48.35-18.78,68.7-24m0-.27q-30.76,7.89-68.8,24a664.27,664.27,0,0,0-76.9,39A701.34,701.34,0,0,0,128,114.4a484,484,0,0,0-64.76,60.28,305.81,305.81,0,0,0-45.73,67Q.11,276.76.13,312.21q0,52,27.92,83.14t84.59,31.13a182.59,182.59,0,0,0,55.86-8.28,345.55,345.55,0,0,0,50.19-20.49q24.28-12.21,48.16-26a460,460,0,0,1,49.78-24.83v39.4q0,2.37-1.21,13t-2.83,22.46q-1.63,11.82-2.84,22.46t-1.21,13c0,2.11,1.07,6.18,3.24,12.22s3.77,9.85,4.85,11.42a13.37,13.37,0,0,0,3.24.79c5.93,0,9.31-.91,10.12-2.76s1.62-3.54,2.43-5.12,2.69-2.62,5.66-3.15a13.07,13.07,0,0,1,2.16-.16q5.17,0,16.87,2.52,11.33-29.14,34.4-69t46.55-82q23.46-42.15,40.87-82t17.41-68.17q0-13.4-3.64-17.74t-22.26-4.33H292.35q-13.77,9.45-23.88,16.55a132.69,132.69,0,0,0-18.62,15.76,142.46,142.46,0,0,0-15.78,19.31,168.36,168.36,0,0,0-14.57,27.19q5.64,4.72,17,7.88a230.87,230.87,0,0,0,22.67,5.12A159.55,159.55,0,0,0,279.8,244c6.2.27,10.39.39,12.55.39a95.16,95.16,0,0,0,10.52-1.18c5.39-.79,11.34-1.7,17.81-2.76s12.41-2,17.81-2.76A94.91,94.91,0,0,1,349,236.55q1.62,0,7.29.39t7.28.4q0,15-10.92,26.79t-27.93,20.49a203,203,0,0,1-38.45,14.58q-21.46,5.91-42.9,9.85a406.92,406.92,0,0,1-40.88,5.52q-19.44,1.59-31.57,1.58h-8.1q-5.67,0-12.14-.4t-12.14-.39h-8.1a56.92,56.92,0,0,1-18.21-21.28,58.15,58.15,0,0,1-6.88-26.8,97.75,97.75,0,0,1,1.21-16.94,49.08,49.08,0,0,1,4.05-12.61,121.43,121.43,0,0,1,7.69-13.4q4.86-7.47,12.14-19.3,19.43-30,42.9-50.44A223.51,223.51,0,0,1,224,121.1a235.51,235.51,0,0,1,58.28-18.92A471.43,471.43,0,0,1,349,94.69a31.12,31.12,0,0,1,.41-3.54,33.2,33.2,0,0,0,.4-4.34c0-1-.28-3.67-.81-7.88q-.81-1.56-4.85-7.88t-3.24-7.88c1.07-4.73,3.24-8.27,6.47-10.64A38.59,38.59,0,0,1,358.32,47a104.85,104.85,0,0,1,12.14-3.16,30.48,30.48,0,0,0,10.93-4.33,13.07,13.07,0,0,0,.81-3.15q0-13.4-10.93-22.86A69.17,69.17,0,0,0,349,.12Z"/>
</svg>
