<svg id="Layer_1" data-name="Layer 1" xmlns="http://www.w3.org/2000/svg" viewBox="0 0 502.94 537.72">
  <defs>
    <style>
      .cls-1 {
        fill: #ec008c;
      }
    </style>
  </defs>
  <title>_h</title>
  <path class="cls-1" d="M502.56.5c0,.63-.16,1.94-.4,4.06a48.11,48.11,0,0,0-.4,5.12L485.57,135.74c-3.13,8.64-8.65,23.53-17.39,46.86-8.52,22.72-17.64,46.72-27.12,71.32-9.75,25.3-18.87,49.3-27.12,71.33-8,21.28-14,37.49-17.4,46.88-4.78,11.89-11,26.34-18.61,42.94a452.13,452.13,0,0,1-26.7,49.62,279.63,279.63,0,0,1-34.37,44.88c-12.47,13.17-26.29,22.5-41.09,27.74.87-2.6.54-5.8-1-9.53-1.65-4-4.18-6.07-7.52-6.07-1.65,0-4.47,1-8.61,3.18a46.68,46.68,0,0,0-7.33,4.4c0-1.1-.17-2.84-.4-5.38-.26-2.74-.4-4.77-.4-5.89,0-1.65.13-3.89.4-6.68.27-3,.4-4.56.41-5.11,5.3-18.61,10.74-36.76,16.17-53.94s10.44-34.19,15-50.84a474.75,474.75,0,0,0,10.94-51.25,367.88,367.88,0,0,0,4-56,.26.26,0,0,0-.25-.25,8.6,8.6,0,0,1-2.76-.38,9.68,9.68,0,0,0-2.9-.4h-.06c-5.41,1.06-14.41,3-27.53,5.91-12.87,2.88-26.77,6.06-41.28,9.46-12.75,3-27.68,6.51-41.69,9.85-13.8,3.29-22.42,5.29-27.12,6.31l-.09,0c-13.47,9.44-24.66,22.73-33.26,39.5-8.54,16.62-17.53,33.46-26.71,50a190.94,190.94,0,0,1-31.94,42.89c-12,12-28.72,18-49.6,18-1.14,0-3.23-.13-6-.39s-4.63-.37-5.75-.39c4.34-13.21,8.93-27.28,13.65-41.84,4.85-14.94,9.35-30.19,13.36-45.33s7.41-30.18,10.13-44.94a233.32,233.32,0,0,0,4-41.81,11.7,11.7,0,0,0-2.9-8.05,66.88,66.88,0,0,0-6.09-5.93c-2.18-1.85-4.22-3.7-6.06-5.51a9.74,9.74,0,0,1-2.76-7.31,21.37,21.37,0,0,1,.78-3.81C30,264.73,37.14,260,46,255.81s15.35-10.07,19.14-17.45l81-165.5a.26.26,0,0,0,0-.24c-5.84-9.3-4.63-17.94,3.61-25.69s19.29-14.69,32.71-20.44A236.75,236.75,0,0,1,223.6,13.1c13.74-3.09,23.72-4.67,29.64-4.72a194.79,194.79,0,0,1-5.66,45.79c-3.77,15.46-7.85,31.1-12.14,46.49s-8.39,31-12.14,46.11a187.49,187.49,0,0,0-5.67,45,29.85,29.85,0,0,0,1.22,8.75c.83,2.69,3.47,4.87,7.84,6.46l.09,0h8.1c3.67,0,7.75.13,12.12.39,4.17.26,8.26.4,12.16.4h8.09c3.69,0,9.11.12,16.59.39,1.82.07,3.68.1,5.51.1a153.35,153.35,0,0,0,16.38-.89,88.14,88.14,0,0,0,20.7-4.74c6.5-2.38,11.18-6.26,13.91-11.57,8-18.73,16.32-39.55,24.69-61.87A338.51,338.51,0,0,1,395.77,67a175.92,175.92,0,0,1,43.65-47.62C456.24,6.89,477.48.54,502.56.5m.25-.25q-38.06,0-63.54,18.91a175.44,175.44,0,0,0-43.71,47.68A337.47,337.47,0,0,0,364.8,129.1Q352.23,162.61,340.11,191q-4.07,7.88-13.76,11.42a87.26,87.26,0,0,1-20.64,4.73,152.14,152.14,0,0,1-16.36.89c-1.84,0-3.67,0-5.5-.1q-10.94-.39-16.6-.39h-8.09q-5.67,0-12.14-.4t-12.14-.39h-8.1c-4.32-1.58-6.88-3.67-7.69-6.31a29.26,29.26,0,0,1-1.21-8.67,186.23,186.23,0,0,1,5.66-44.92q5.66-22.85,12.14-46.1t12.15-46.5a194.36,194.36,0,0,0,5.66-46.1q-8.91,0-30,4.73a235.26,235.26,0,0,0-41.28,13.4Q162,34.93,149.47,46.75t-3.64,26l-81,165.5q-5.67,11-19,17.34T24.41,269.77a23.59,23.59,0,0,0-.81,3.94,9.94,9.94,0,0,0,2.83,7.49c1.89,1.85,3.91,3.68,6.07,5.52a67.86,67.86,0,0,1,6.08,5.91,11.39,11.39,0,0,1,2.83,7.88,231.73,231.73,0,0,1-4,41.77Q33.3,364.35,27.24,387.2T13.89,432.51Q6.6,455,.12,474.67c1.08,0,3.1.14,6.08.4s5,.39,6.07.39q31.56,0,49.78-18.12a190.63,190.63,0,0,0,32-42.95q13.75-24.83,26.71-50.05t33.19-39.4q7.27-1.57,27.11-6.31t41.69-9.85q21.86-5.11,41.29-9.45t27.52-5.91a9.31,9.31,0,0,1,2.83.39,9,9,0,0,0,2.84.39,365.31,365.31,0,0,1-4,56,471.29,471.29,0,0,1-10.93,51.22q-6.89,25.23-15,50.83t-16.18,54c0,.53-.14,2.24-.41,5.12s-.4,5.12-.4,6.7c0,1.06.12,3,.4,5.91s.41,4.86.41,5.91c1.07-1.05,3.64-2.62,7.68-4.73s6.89-3.15,8.5-3.15q4.86,0,7.29,5.91c1.62,3.94,1.88,7.23.81,9.85q22.65-7.87,41.69-28a278.93,278.93,0,0,0,34.4-44.92,447.57,447.57,0,0,0,26.71-49.65q11.34-24.82,18.62-42.95,4.86-13.38,17.41-46.89T441.29,254q14.58-37.83,27.12-71.32t17.41-46.89L502,9.71a48.86,48.86,0,0,1,.41-5.13c.27-2.36.4-3.8.4-4.33Z"/>
</svg>
