<svg id="Layer_1" data-name="Layer 1" xmlns="http://www.w3.org/2000/svg" viewBox="0 0 269 497.53">
  <defs>
    <style>
      .cls-1 {
        fill: #ec008c;
      }
    </style>
  </defs>
  <title>_i</title>
  <path class="cls-1" d="M267.82.59c0,1.89.15,5.79.4,11.1.28,6.29.4,10.17.4,12.2,0,39.69-5.17,80.9-15.37,122.49a764.35,764.35,0,0,1-41.67,122.9,778.71,778.71,0,0,1-61.91,114.63C126,420,100.43,452.6,73.63,480.78c-9.11,7.31-17,11.93-23.39,13.75s-14.81,2.75-25,2.75c-4.34,0-9.65-.27-15.76-.79S.38,492.2.38,484.92A5.88,5.88,0,0,1,.77,483a6.61,6.61,0,0,0,.41-2c2.11-6.17,5.41-15.31,10.11-27.93,4.95-13.36,10.13-27.41,15.38-41.77,5.67-15.52,11.8-31.95,18.21-48.86S57.39,329.2,63.1,313.6s11-29.53,15.78-41.76c4.94-12.56,8.64-21.44,11.33-27.19,6.94-16.13,16-36.24,27.52-61.46,11.32-24.67,22.76-49.07,34-72.5C163.09,87,173,66.56,181.27,50c10.33-20.78,13.34-25.55,14-25.88L267.82.59m.24-.34L195.21,23.89q-1.64.8-14.17,26T151.5,110.58q-17,35.46-34,72.5T90,244.55q-4.07,8.69-11.33,27.19T62.86,313.51q-8.51,23.25-18.21,48.86T26.43,411.23Q17.94,434.5,11.05,453T.93,481a6.28,6.28,0,0,1-.4,2,6.11,6.11,0,0,0-.41,2q0,11,9.31,11.82t15.79.79c10.24,0,18.62-.91,25.09-2.76s14.3-6.43,23.48-13.79q40.47-42.56,76.09-96.94a774.82,774.82,0,0,0,61.93-114.66,760.26,760.26,0,0,0,41.68-122.94q15.38-62.65,15.38-122.55c0-2.09-.14-6.17-.4-12.21s-.41-9.85-.41-11.43Z"/>
</svg>
