<svg id="Layer_1" data-name="Layer 1" xmlns="http://www.w3.org/2000/svg" viewBox="0 0 446.28 426.6">
  <defs>
    <style>
      .cls-1 {
        fill: #ec008c;
      }
    </style>
  </defs>
  <title>_j</title>
  <path class="cls-1" d="M356.37.64C366.49,9.49,377,19.36,387.69,30a273.64,273.64,0,0,1,29.12,34.25,184.78,184.78,0,0,1,21,38.17,110.18,110.18,0,0,1,8.08,41.28c0,4.65-1.49,10.18-4.43,16.44s-6.23,12.79-9.71,19.3-7.17,12.9-10.92,18.9a125.2,125.2,0,0,0-8.1,14.6L348,339c-4.78,4.14-13.37,10.83-26.25,20.44-13.16,9.81-26.5,19.62-39.67,29.16-13.7,9.95-26.91,18.83-39.24,26.39s-21,11.39-25.77,11.39c-22.55,0-46.9-4-72.38-11.81a262.29,262.29,0,0,1-70.36-33.46,198.91,198.91,0,0,1-52.95-52.34,118.83,118.83,0,0,1-21-68.42c0-4.72,1-11.2,2.83-19.25,2.3-9.94,4-12,5-12h89c9,0,14.21,5.23,15.54,15.55a290.69,290.69,0,0,1,2,36.22A84.86,84.86,0,0,0,122.13,316c4.88,10.82,15.3,16.3,31,16.3,5.41,0,11.44-1.46,17.91-4.35a96.58,96.58,0,0,0,18.66-11.07c5.85-4.39,11.44-8.9,16.61-13.4s9.29-8.26,12.55-11.43c22.58-18.85,40.17-40.35,52.27-63.91A473.28,473.28,0,0,0,301.49,154c8-25.29,15.86-51.54,23.48-78A358,358,0,0,1,356.37.64M356.3.25a356.8,356.8,0,0,0-31.57,75.66q-11.36,39.41-23.48,78A470.9,470.9,0,0,1,270.9,228q-18.21,35.48-52.21,63.84-4.86,4.73-12.55,11.43t-16.6,13.39a95.58,95.58,0,0,1-18.61,11Q161.21,332,153.12,332q-23.49,0-30.76-16.15a84.26,84.26,0,0,1-7.29-35.07,289.77,289.77,0,0,0-2-36.26q-2-15.75-15.79-15.76h-89Q5.79,228.79,3,241T.12,260.32a118.54,118.54,0,0,0,21.05,68.56,198.41,198.41,0,0,0,53,52.41,261.59,261.59,0,0,0,70.43,33.49q38.43,11.82,72.45,11.82,7.27,0,25.9-11.43t39.26-26.4q20.64-15,39.66-29.16t26.31-20.49L413,213a122.78,122.78,0,0,1,8.1-14.58q5.65-9,10.92-18.91t9.72-19.31q4.44-9.45,4.45-16.55a110.06,110.06,0,0,0-8.09-41.37A184.32,184.32,0,0,0,417,64.08,272.52,272.52,0,0,0,387.87,29.8Q371.67,13.66,356.3.25Z"/>
</svg>
