<svg id="Layer_1" data-name="Layer 1" xmlns="http://www.w3.org/2000/svg" viewBox="0 0 502.94 531.42">
  <defs>
    <style>
      .cls-1 {
        fill: #ec008c;
      }
    </style>
  </defs>
  <title>_k</title>
  <path class="cls-1" d="M228.15.5a369.46,369.46,0,0,1-8.49,78.11,372.55,372.55,0,0,0-8.51,79.26.25.25,0,0,0,.25.25,108.16,108.16,0,0,1,15.34.78,51.55,51.55,0,0,0,8.14.79,29,29,0,0,0,9-1.59c3.23-1,8.27-3.11,15.41-6.31l242.5-118c0,.68.18,1.78.39,3.19a32.64,32.64,0,0,1,.41,4.3A41,41,0,0,1,501,53.37c-1.07,3.37-3.51,7.18-7.22,11.32-4.34,4.22-12.23,11.24-23.47,20.88C460,94.4,448.41,104.29,433.85,116.7c-12.8,10.89-25.19,21.23-36.83,30.73-12.15,9.89-20,16.15-24.68,19.69l-64.79,47.31-8.09,7.88a.24.24,0,0,0-.07.12,23.11,23.11,0,0,0-.82,4,7.07,7.07,0,0,0,2.1,5.3l4.05,3.94a16.59,16.59,0,0,1,3.19,4.27c.77,1.5.63,3.55-.41,6.1a.24.24,0,0,0,0,.22c7,11.94,15.43,26.37,23.48,40.19,9.14,15.71,18.26,32.54,27.11,50a412.28,412.28,0,0,1,22.65,53.95c6.17,18.31,9.3,35.52,9.3,51.14,0,7.28-1.62,13.2-4.81,17.59a32.2,32.2,0,0,1-12.05,10.17,53.39,53.39,0,0,1-16.92,4.7,161.75,161.75,0,0,1-19.4,1.18H319.06c-3.15,0-6.89-2.88-11.12-8.56L194.61,301.15l0,0c-1.12-1.09-4.73-2.65-11-4.79s-10.71-3.16-13.43-3.16c-1.16,0-2.68,1.05-4.64,3.23a26.28,26.28,0,0,0-3.68,4.79L72.75,482.45c-2.14,4.69-6.07,9.83-11.68,15.29a162,162,0,0,1-19,15.74,129.51,129.51,0,0,1-21.81,12.59c-7.37,3.33-14.06,5-19.88,5.09V506.24L162.18,25.77a42.08,42.08,0,0,0,10.28,1.43,22.63,22.63,0,0,0,9.5-1.9,61.65,61.65,0,0,0,14.22-9.1c4.27-3.63,8.9-7.21,13.75-10.62S220.8.54,228.15.5m.25-.25q-11.34,0-18.62,5.12T196,16a61.4,61.4,0,0,1-14.17,9.06A22.11,22.11,0,0,1,172.46,27,41.79,41.79,0,0,1,162,25.47L.13,506.2v25.22q8.9,0,20.23-5.13a129.57,129.57,0,0,0,21.86-12.61,160.21,160.21,0,0,0,19-15.76q8.5-8.26,11.74-15.37L162,301.3a26.05,26.05,0,0,1,3.64-4.73c1.89-2.1,3.37-3.15,4.46-3.15q4,0,13.35,3.15t10.93,4.73L307.73,466.79q6.47,8.68,11.33,8.67h17.81a160.32,160.32,0,0,0,19.43-1.18,53.37,53.37,0,0,0,17-4.73,32.21,32.21,0,0,0,12.14-10.24q4.86-6.69,4.86-17.74,0-23.64-9.31-51.22a409.28,409.28,0,0,0-22.67-54Q345,310,331.2,286.32t-23.47-40.19c1.07-2.62,1.21-4.73.4-6.3a16.91,16.91,0,0,0-3.23-4.34c-1.36-1.3-2.71-2.62-4-3.94a6.81,6.81,0,0,1-2-5.12,23.2,23.2,0,0,1,.81-3.94l8.1-7.88,64.76-47.29q7.27-5.5,24.69-19.7T434,116.89q19.42-16.56,36.43-31.13t23.47-20.89q5.65-6.3,7.29-11.42a41.11,41.11,0,0,0,1.62-12.22,31.85,31.85,0,0,0-.41-4.33,29.83,29.83,0,0,1-.4-3.55L259.16,151.56q-10.53,4.73-15.38,6.31a29.08,29.08,0,0,1-8.9,1.57,51.65,51.65,0,0,1-8.1-.79,109.28,109.28,0,0,0-15.38-.78,370.79,370.79,0,0,1,8.5-79.21A366.93,366.93,0,0,0,228.4.25Z"/>
</svg>
