<svg id="Layer_1" data-name="Layer 1" xmlns="http://www.w3.org/2000/svg" viewBox="0 0 359.66 490.44">
  <defs>
    <style>
      .cls-1 {
        fill: #ec008c;
      }
    </style>
  </defs>
  <title>_l</title>
  <path class="cls-1" d="M251.62.38V33.22c0,1.55-2.85,11.47-8.48,29.48-6,19.34-12.72,40.81-19.84,63.84-7.61,24.6-15.65,49.53-23.87,74.07s-15.2,45.14-20.65,61.09c-1.08,3.65-3.53,10-7.27,18.88S163.66,299,159.36,309c-4.55,10.52-8.65,19.8-12.54,28.37-4,8.88-6.88,15.25-8.5,18.92a.16.16,0,0,0,0,.1,6.15,6.15,0,0,1-.39,1.88,6.33,6.33,0,0,0-.42,2.06,22.35,22.35,0,0,0,.81,4s0,0,0,.05a19.13,19.13,0,0,0,3.69,4.4,19.38,19.38,0,0,0,4.52,3.59.23.23,0,0,0,.11,0h3.24a497.58,497.58,0,0,0,52.64-2.76c17-1.81,34.62-3.93,52.22-6.31,17.18-2.31,34.74-4.57,52.21-6.69a436.58,436.58,0,0,1,52.33-3.16c-.11,9.79-7,20.24-20.54,31.08a350.88,350.88,0,0,1-48.13,31.9,532.94,532.94,0,0,1-55,26.78c-18.25,7.58-31.86,12.74-40.45,15.36-5.27,1.54-13.35,3.86-24.69,7.09-12.55,3.58-23.94,6.8-34.8,9.85L102.05,485c-10.38,2.93-17,4.6-20.17,5.11H69.74c-12.85,0-25.74-4.35-38.31-12.93s-22.75-17.68-30.25-27c0-2.06-.13-6.41-.4-13.69-.26-6.63-.4-11.52-.4-13.75A210.78,210.78,0,0,1,7.65,368a436.54,436.54,0,0,1,18.2-53.48C33.12,297,41.15,279.7,49.73,263S66.45,230,74,214.24c2.1-4.62,6.73-13.62,14.15-27.52s15.49-28.91,23.88-44.45c8.2-15.21,16.65-30.69,25.1-46,8.21-14.9,14-25.2,17.8-31.46a132.83,132.83,0,0,1,17-22.38,151.14,151.14,0,0,1,23.84-20.83A138.78,138.78,0,0,1,223.64,6.26a75.35,75.35,0,0,1,28-5.88m.26-.26A75.51,75.51,0,0,0,223.54,6a138.1,138.1,0,0,0-27.92,15.35,149.8,149.8,0,0,0-23.88,20.86,132.24,132.24,0,0,0-17,22.42q-5.67,9.43-17.81,31.47t-25.1,46Q98.89,166.15,88,186.6T73.79,214.14Q62.43,237.75,49.5,262.92T25.62,314.46A434.06,434.06,0,0,0,7.41,368,210,210,0,0,0,.12,422.65q0,3.14.41,13.76c.27,7.1.4,11.68.4,13.77q11.34,14.16,30.36,27.15t38.45,13H81.88q4.86-.78,20.24-5.12l33.59-9.46q18.22-5.12,34.81-9.85t24.69-7.09q12.94-3.94,40.48-15.37a528.58,528.58,0,0,0,55-26.8,348.88,348.88,0,0,0,48.16-31.91q20.66-16.56,20.65-31.53a435.42,435.42,0,0,0-52.62,3.16Q281,359.49,254.71,363t-52.21,6.3a493.87,493.87,0,0,1-52.62,2.76h-3.24a19.14,19.14,0,0,1-4.45-3.55,18.66,18.66,0,0,1-3.64-4.33,22,22,0,0,1-.81-3.94,6.06,6.06,0,0,1,.4-2,6.34,6.34,0,0,0,.41-2q2.43-5.5,8.5-18.92t12.54-28.37q6.48-15,12.15-28.37T179,261.77q8.08-23.64,20.64-61.08t23.88-74.08Q234.87,90,243.38,62.78t8.5-29.56V.12Z"/>
</svg>
