<svg id="Layer_1" data-name="Layer 1" xmlns="http://www.w3.org/2000/svg" viewBox="0 0 713.41 537.72">
  <defs>
    <style>
      .cls-1 {
        fill: #ec008c;
      }
    </style>
  </defs>
  <title>_m</title>
  <path class="cls-1" d="M316.63.38c1,0,3.43,1,7.17,3.12s6.69,3.65,8.88,4.71c1.06,1,2.64,2.46,4.84,4.32,2.84,2.44,3.15,3.16,3.15,3.39L365,197.18a.26.26,0,0,0,.25.21h8.1a.21.21,0,0,0,.15,0c2.78-2.16,7.82-6,14.57-11,7-5.23,14.34-10.8,21.86-16.55s14.88-11.32,21.85-16.55c6.75-5.05,11.79-8.87,14.55-11l64.78-39.41c12.9-9.43,23-18,30-25.65a221.66,221.66,0,0,0,17-20.51c4.31-6,8.26-11.2,11.73-15.36a41.34,41.34,0,0,1,14.48-10.57c6.16-2.86,14.71-5,25.43-6.28s25.49-2,43.68-2c2.11,0,5.15.13,9.29.39,3.91.27,7.87.4,11.76.4,3.67,0,8.4.25,14.46.78L705,39.65c1.6,9.89,2.83,18.35,3.63,25.13.82,7,1.64,14,2.43,20.88.86,7.58,1.51,13,2,16.92v15.73l-8.09,31.51q-1.63,11.06-4.86,33.1c-2.13,14.52-4.51,30.89-7.28,50.05-2.66,18.27-5.38,38-8.1,58.71s-5.47,40.56-8.09,58.71c-2.82,19.39-5.2,35.89-7.29,50.44-2.2,15.23-3.79,25.93-4.85,32.68a398.84,398.84,0,0,1-11.33,40.17,128.59,128.59,0,0,1-16.56,33,73,73,0,0,1-25.82,22.39c-10.43,5.47-23.6,8.24-39.14,8.24-2.09,0-6.59-.25-14.15-.78-7.12-.52-11.87-.79-14.11-.79a74.21,74.21,0,0,1-8.4-7.42,72.38,72.38,0,0,1-7.61-8.17v-7.77l40.47-331V173.5a.23.23,0,0,0-.1-.2.25.25,0,0,0-.15-.05h-.07a64,64,0,0,0-18.29,9.5A65.59,65.59,0,0,0,535,197c-1.53,2.5-4.87,7.5-10.52,15.75-5.27,7.71-11,16.33-17,25.62-6.51,10.08-12.2,18.84-17.4,26.8-5.75,8.8-9.6,14.86-11.74,18.52a499.71,499.71,0,0,0-27.94,50.46,421.83,421.83,0,0,1-29.53,51.59,159.06,159.06,0,0,1-38.39,40.13C367.73,436.57,349.4,442,328,442a95.1,95.1,0,0,1-19.78-2.36,80.09,80.09,0,0,1-20.58-7.47,74.66,74.66,0,0,1-17.35-12.56A35.79,35.79,0,0,1,260.21,402L235.93,291.66a.26.26,0,0,0-.16-.18l-.08,0a.3.3,0,0,0-.16.05c-4.86,3.69-10.87,11-17.86,21.74s-14.94,23.26-23.48,37L167.07,394c-9.32,15.05-18.45,29.23-27.11,42.16a332,332,0,0,1-23.86,31.89c-7.2,8.31-13.26,12.52-18,12.52H17.12c-6.87,0-11.43-2.73-13.52-8.11A42.19,42.19,0,0,1,.38,457.21a29.91,29.91,0,0,1,.4-4.3,32.16,32.16,0,0,0,.4-3.58c0-.27.31-1.16,2.39-4.19,1.66-2.42,3.43-4.94,5.26-7.49s3.68-5.18,5.26-7.49a36.51,36.51,0,0,1,3.21-4.29l0-.06c19.24-35.9,38-70.24,55.86-102.06,17.72-31.63,35.7-63.05,53.42-93.38s36.44-61.45,55.45-92.2c19.14-31,40-64.13,61.92-98.51a151.85,151.85,0,0,1,13.74-19.28A57.55,57.55,0,0,1,272.24,8.22,51.7,51.7,0,0,1,290.77,2,179.09,179.09,0,0,1,316.63.38m0-.26a179,179,0,0,0-25.9,1.58A51.7,51.7,0,0,0,272.11,8a57.46,57.46,0,0,0-14.57,12.21,151.33,151.33,0,0,0-13.76,19.31q-33.19,52-61.93,98.51t-55.45,92.2Q99.7,276,73,323.63T17.12,425.69A39,39,0,0,0,13.89,430q-2.43,3.56-5.27,7.49T3.36,445c-1.62,2.36-2.43,3.81-2.43,4.33a32.27,32.27,0,0,1-.4,3.55,30.3,30.3,0,0,0-.41,4.33,42.39,42.39,0,0,0,3.24,15.37q3.22,8.26,13.76,8.27H98.07q7.29,0,18.22-12.61a328.69,328.69,0,0,0,23.88-31.91Q153.1,417,167.28,394.16t27.12-43.73q12.94-20.88,23.48-37t17.81-21.68L260,402a35.73,35.73,0,0,0,10.12,17.74,74.4,74.4,0,0,0,17.4,12.61,80.23,80.23,0,0,0,20.64,7.48A94.35,94.35,0,0,0,328,442.24q32.36,0,54.64-16.16a158.51,158.51,0,0,0,38.45-40.19,418.19,418.19,0,0,0,29.54-51.62,500,500,0,0,1,27.93-50.44q3.23-5.5,11.74-18.52t17.4-26.79q8.9-13.78,17-25.61t10.52-15.77A65,65,0,0,1,549.36,183a63.54,63.54,0,0,1,18.21-9.46v7.88l-40.47,331v7.88a70.23,70.23,0,0,0,7.69,8.27,71.62,71.62,0,0,0,8.5,7.49q3.23,0,14.17.79c7.28.51,12,.78,14.16.78q23.48,0,39.26-8.27a73,73,0,0,0,25.9-22.46,128.35,128.35,0,0,0,16.6-33.1,399.3,399.3,0,0,0,11.33-40.19q1.62-10.23,4.86-32.71t7.28-50.43q4-28,8.1-58.72T693,233q4.05-28,7.29-50t4.86-33.1l8.09-31.52V102.58q-.81-6.3-2-17t-2.43-20.88q-1.22-10.23-3.64-25.22L689,23.77Q680.08,23,674.43,23c-3.79,0-7.69-.12-11.74-.4s-7.16-.39-9.31-.39q-27.52,0-43.71,2t-25.5,6.31A41.31,41.31,0,0,0,569.6,41.1q-5.28,6.33-11.74,15.37a220.27,220.27,0,0,1-17,20.49q-10.53,11.43-29.95,25.62L446.15,142q-4.06,3.15-14.57,11t-21.86,16.55q-11.34,8.69-21.85,16.55t-14.57,11h-8.1L340.92,15.89c0-.52-1.09-1.7-3.24-3.55S333.9,9.06,332.82,8q-3.24-1.57-8.9-4.73c-3.78-2.1-6.21-3.16-7.29-3.16Z"/>
</svg>
