<svg id="Layer_1" data-name="Layer 1" xmlns="http://www.w3.org/2000/svg" viewBox="0 0 502.94 569.24">
  <defs>
    <style>
      .cls-1 {
        fill: #ec008c;
      }
    </style>
  </defs>
  <title>_n</title>
  <path class="cls-1" d="M437.25.5c7.93,0,15.95.26,23.86.79a72.63,72.63,0,0,1,21,4.32A32.1,32.1,0,0,1,497,17c3.72,5.2,5.61,12.31,5.61,21.13a614,614,0,0,1-10.92,117.37c-6.79,34.79-14.07,71.91-22.26,113.53,0,.21-.35,1-3.56,3.76-2.53,2.19-3.95,3.44-4.46,3.95a.15.15,0,0,0-.06.09c-3.24,8.4-5.83,18.89-7.71,31.18s-3.37,24.56-4.45,36.66-1.9,23.57-2.43,34.29-1.08,18.72-1.61,24c-1.07,5.7-2.4,14.6-4.05,27.2-1.58,12-3.35,24.89-5.27,38.22-1.89,13.14-4.21,25.59-6.87,37s-5.37,19.33-8,23.49l-48.51,15.75c-1.11.54-3.83,2-8.11,4.34s-6.95,3.51-8,3.51-3.17-1-6.34-3.11-5.08-3.62-5.58-4.63a.24.24,0,0,0-.22-.14h-.06a.26.26,0,0,0-.19.24V568a34.13,34.13,0,0,0-15.11-5.31c-5.34-.52-10.8-.79-16.21-.79a73,73,0,0,1-15.33-1.57,28.06,28.06,0,0,1-13.64-7.82c-4.81-4.68-9.69-13-14.52-24.74s-9.74-25-14.56-39.38S244.82,458.8,240,443.08s-10-30.19-15.39-43.37-11-24-16.61-32.35-11.9-12.72-18.43-12.72c-4.43,0-8.18,5.36-11.16,15.94s-6.24,23.89-9.72,39.81L167,418q-4.54,20.73-9.65,44a392.32,392.32,0,0,1-15,51.59c-5.9,15.92-13.24,29.29-21.82,39.72S101.71,569,90,569a80.7,80.7,0,0,1-50.85-17.68A229.08,229.08,0,0,1,.4,513.23C1,511.09,2.16,507,4,501.15s3.36-9.83,4.44-11.4a669.93,669.93,0,0,0,36-99.73c9.11-33.2,18.78-68.07,28.74-103.63,9.66-34.5,20.69-69,32.78-102.43a461.88,461.88,0,0,1,48.06-96,34.45,34.45,0,0,0,3.54-.39,35.33,35.33,0,0,1,4.42-.39c3.7,0,9,.26,16.17.79a213.13,213.13,0,0,1,21.43,2.75,160.42,160.42,0,0,1,20.61,5.12c6.38,2.07,11.23,4.69,14.42,7.77,7,23.09,13,46.79,17.79,70.45,4.84,23.84,10.42,47.84,16.6,71.34s13.53,46.91,21.86,69.37a319.07,319.07,0,0,0,32.81,64.67.25.25,0,0,0,.21.12H324a.23.23,0,0,0,.19-.19c1.69-8.2,4.35-20.6,7.69-35.86,3.45-15.76,7.67-34.06,12.55-54.37,4.71-19.6,9.6-40.48,15-63.84,5-21.8,10-43.27,15-63.83,4.83-20.12,9.33-38.42,13.36-54.37,4.1-16.25,7.15-27.72,9.31-35.08,1.21-5.9,2.57-12.66,4-20.1a141.69,141.69,0,0,1,6.87-23.6,65.33,65.33,0,0,1,11.7-19.63A22.7,22.7,0,0,1,437.25.5m0-.25a22.85,22.85,0,0,0-17.81,8.27A65.39,65.39,0,0,0,407.7,28.23a140.44,140.44,0,0,0-6.88,23.64Q398.39,64.1,396.77,72,393.53,83,387.46,107t-13.35,54.38q-7.29,30.35-15,63.84t-15,63.83q-7.29,30.35-12.55,54.38t-7.69,35.86a317.65,317.65,0,0,1-32.79-64.63q-12.56-33.87-21.85-69.35T252.68,174q-7.27-35.85-17.8-70.53Q230,98.77,220.3,95.61a156.45,156.45,0,0,0-20.64-5.12,211,211,0,0,0-21.45-2.76q-10.53-.78-16.19-.79a34.39,34.39,0,0,0-4.45.39,34.61,34.61,0,0,1-3.64.4,460,460,0,0,0-48.17,96.14Q87.55,234.32,73,286.32T44.24,390a667.37,667.37,0,0,1-36,99.69c-1.09,1.57-2.57,5.39-4.45,11.42S.66,511.2.13,513.29A228,228,0,0,0,39,551.51a80.62,80.62,0,0,0,51,17.73q17.79,0,30.76-15.76t21.85-39.8a388.79,388.79,0,0,0,15-51.62q6.08-27.57,11.33-51.61t9.72-39.8q4.44-15.76,10.92-15.76,9.72,0,18.22,12.61t16.59,32.31q8.09,19.69,15.38,43.34t14.57,45.31q7.29,21.69,14.57,39.41t14.57,24.82q6.48,6.31,13.77,7.88a72.56,72.56,0,0,0,15.38,1.58c5.38,0,10.79.26,16.19.79a33.94,33.94,0,0,1,15.38,5.52V544.81q.79,1.59,5.66,4.73c3.24,2.11,5.39,3.15,6.48,3.15s3.77-1.18,8.09-3.54,7-3.81,8.1-4.34l48.57-15.76q4-6.3,8.09-23.64t6.88-37q2.84-19.69,5.26-38.22t4-27.19q.8-7.87,1.62-24t2.43-34.28Q451,326.52,453.84,308t7.69-31.13c.53-.52,2-1.84,4.45-3.95s3.65-3.41,3.65-3.94Q481,211.47,491.89,155.5A612,612,0,0,0,502.81,38.08q0-13.39-5.66-21.28a32.2,32.2,0,0,0-15-11.43,73,73,0,0,0-21-4.33Q449.39.26,437.25.25Z"/>
</svg>
