<svg id="Layer_1" data-name="Layer 1" xmlns="http://www.w3.org/2000/svg" viewBox="0 0 446.28 426.6">
  <defs>
    <style>
      .cls-1 {
        fill: #ec008c;
      }
    </style>
  </defs>
  <title>_o</title>
  <path class="cls-1" d="M356.3.38c8,0,17.17,5.93,27.33,17.64a264.52,264.52,0,0,1,29.11,41.73,396.63,396.63,0,0,1,23.47,48c6.43,15.93,9.69,28,9.69,35.77,0,4.65-1.49,10.18-4.43,16.44s-6.23,12.79-9.71,19.3-7.17,12.89-10.92,18.89a125.32,125.32,0,0,0-8.1,14.6L348,338.84c-4.77,4.14-13.36,10.83-26.25,20.45-13.18,9.82-26.52,19.63-39.67,29.16-13.7,9.94-26.91,18.82-39.24,26.39s-21,11.39-25.77,11.39c-22.55,0-46.9-4-72.38-11.81A262.62,262.62,0,0,1,74.33,381a198.91,198.91,0,0,1-52.95-52.34,118.82,118.82,0,0,1-21-68.42c0-12,4.48-26.8,13.32-44a464.17,464.17,0,0,1,34-55.13,602.79,602.79,0,0,1,46.94-57.9,645.37,645.37,0,0,1,52.59-51.6c17.43-15.15,34-27.6,49.35-37S224.72.38,234.88.38H356.3M176.46,197.71c-6.06,1.77-13.6,3.94-21.79,6.29a55.11,55.11,0,0,0-23.59,13.46c-12.4,13.12-18.69,31.21-18.69,53.76a98.91,98.91,0,0,0,2,19A74.79,74.79,0,0,0,121.33,310a49.34,49.34,0,0,0,12.61,15.83c5.13,4.23,11.58,6.37,19.18,6.37,12.94,0,25.92-4.26,38.59-12.65s25-19.39,36.88-32.75a319.73,319.73,0,0,0,33.21-45.35,481,481,0,0,0,26.73-50.07,355.79,355.79,0,0,0,17.82-46.93c4.3-14.66,6.49-26.88,6.49-36.32a.25.25,0,0,0-.25-.25c-10.77,0-23.6,2.92-38.14,8.69a187.91,187.91,0,0,0-41.34,22.88A171.34,171.34,0,0,0,199.87,171c-9.12,11.49-17,20.49-23.41,26.73M356.3.12H234.88q-15.39,0-38.46,14.19t-49.37,37A642.41,642.41,0,0,0,94.43,103a599.22,599.22,0,0,0-47,57.92,462.66,462.66,0,0,0-34,55.17Q.13,242.07.12,260.19a118.54,118.54,0,0,0,21.05,68.56,198.26,198.26,0,0,0,53,52.41,261.61,261.61,0,0,0,70.43,33.5q38.43,11.82,72.45,11.82,7.27,0,25.9-11.43t39.26-26.4q20.64-15,39.67-29.16T348.2,339L413,212.91a123.45,123.45,0,0,1,8.1-14.58q5.65-9.06,10.93-18.92t9.71-19.3q4.44-9.47,4.45-16.55,0-11.84-9.71-35.86A396.59,396.59,0,0,0,413,59.62a264.07,264.07,0,0,0-29.14-41.76Q368.43.13,356.3.12Zm-43.71,108q0,14.19-6.48,36.25a355.09,355.09,0,0,1-17.81,46.89,478.75,478.75,0,0,1-26.71,50.05,318,318,0,0,1-33.19,45.31q-17.82,20.1-36.83,32.71t-38.45,12.61q-11.35,0-19-6.31a49,49,0,0,1-12.54-15.76,74.1,74.1,0,0,1-6.88-19.7,97.18,97.18,0,0,1-2-18.92q0-33.87,18.62-53.59a54.59,54.59,0,0,1,23.48-13.39q13.75-3.93,21.85-6.31,9.72-9.45,23.48-26.79a169.69,169.69,0,0,1,33.19-31.52,186.51,186.51,0,0,1,41.28-22.86q21.85-8.66,38-8.67Z"/>
</svg>
