<svg id="Layer_1" data-name="Layer 1" xmlns="http://www.w3.org/2000/svg" viewBox="0 0 527.22 607.86">
  <defs>
    <style>
      .cls-1 {
        fill: #ec008c;
      }
    </style>
  </defs>
  <title>_p</title>
  <path class="cls-1" d="M311.78.38C316.57.38,324,1.7,334,4.31s21.26,6.07,33.58,10.24S392.91,23.67,406,29.12s25.2,11.16,36,16.94A233.7,233.7,0,0,1,471.1,63.37c8,5.75,15.37,13.94,21.8,24.37,3.31,4.84,5.7,8.2,7.29,10.26a19.1,19.1,0,0,0,3.7,4,2.35,2.35,0,0,0,1.25.43,1.51,1.51,0,0,0,1-.39,13,13,0,0,1,10.24,4.64,35.91,35.91,0,0,1,6.43,11.74A68.37,68.37,0,0,1,526,133.73c.54,5.57.81,11,.81,16.13v16.55c0,7.8-1,18.26-2.83,31.09a250.61,250.61,0,0,1-8.9,38.58,168.11,168.11,0,0,1-15.35,35c-6.15,10.4-13.59,17.26-22.12,20.37-7,2.11-16.32,9.29-27.63,21.34-11.81,11.5-21.86,19.18-29.88,22.81a128.38,128.38,0,0,1-25.86,9.44c-8.71,2.13-21.51,5.31-38.06,9.46-10.28,3.34-18.36,5.92-24.69,7.88-6.76,2.11-13.29,3.83-19.4,5.12a150.84,150.84,0,0,1-18.59,2.75c-6.13.53-13.34.79-21.43.79a85.27,85.27,0,0,1-21.79-2.75c-7-1.83-13.93-3.82-20.63-5.91s-13.48-4.1-19.84-5.91a74.32,74.32,0,0,0-20.31-2.77c-7.7,0-12,.68-13.14,2.06s-3.23,6.12-6.52,14.65L97,559.57c-7.5,18.24-18,30.93-31,37.7s-30.13,10.21-50.47,10.21a20.81,20.81,0,0,1-10.4-2.72C2,603,.38,599.73.38,595.12.38,588.86,1.6,579.06,4,566s5.69-26.86,9.71-41,8.4-27.69,13-40.17S36,463.13,40.79,457.37c8.05-9.92,17.32-25.31,27.56-45.76s20.84-44,31.57-70.15S121,287.29,130.69,258.3,149,200.77,156.6,173.17,170,119.94,174,96.71s5.52-42.43,4.46-57.1a94.29,94.29,0,0,1,27.78-22.32A126.14,126.14,0,0,1,239,5.49a222.07,222.07,0,0,1,35.58-4.33C287.08.64,299.61.38,311.78.38M413,94.94c4.47,0,6.73-2.73,6.73-8.13s-2.26-8.13-6.73-8.13-6.72,2.74-6.72,8.13,2.26,8.13,6.72,8.13M234.67,197c-1.12,1.13-2.59,4.63-4.48,10.71s-3.12,10.41-3.66,13.08v3.94c0,2.75,3.09,5.66,9.45,8.89a194.11,194.11,0,0,0,21.07,9.07c7.83,2.9,15.6,5.42,23.09,7.5s12.72,3.16,15.45,3.16c11.31,0,25.63-3.19,42.58-9.47A256.59,256.59,0,0,0,387.6,219a204.42,204.42,0,0,0,41.33-34.72c11.59-12.86,17.47-25.78,17.47-38.39,0-9-4.67-16.35-13.88-21.89a122.38,122.38,0,0,0-31.63-13,356.15,356.15,0,0,0-35.64-9.07c-11.83-2.36-26.66-4.81-45.34-7.49h-.09l-36.43,7.88a.27.27,0,0,0-.17.13c-7.51,14.09-14.05,26.42-19.42,36.64S253,159.91,247.6,170.63C242.35,181.12,238,190,234.67,197M356.3,284.08c4.46,0,6.72-2.73,6.72-8.13s-2.26-8.13-6.72-8.13-6.73,2.74-6.73,8.13,2.26,8.13,6.73,8.13m-255,150.53a24.66,24.66,0,0,0,4.11-.8l0,0A19.52,19.52,0,0,0,110,430.2a19.52,19.52,0,0,0,3.7-4.4.25.25,0,0,0,0-.24.25.25,0,0,0-.22-.12,6.39,6.39,0,0,1-1.94-.38,7.29,7.29,0,0,0-2.1-.41,24.54,24.54,0,0,0-4.11.79l0,0a20.06,20.06,0,0,0-4.52,3.6,19.29,19.29,0,0,0-3.69,4.4.26.26,0,0,0,0,.24.27.27,0,0,0,.21.12,6.86,6.86,0,0,1,1.95.38,6.83,6.83,0,0,0,2.1.41M81.07,489c4.47,0,6.73-2.73,6.73-8.13s-2.26-8.13-6.73-8.13-6.72,2.74-6.72,8.13S76.61,489,81.07,489M48.69,575.67c4.47,0,6.73-2.73,6.73-8.13s-2.26-8.13-6.73-8.13S42,562.15,42,567.54s2.26,8.13,6.72,8.13M311.78.12q-18.63,0-37.24.79a219.6,219.6,0,0,0-35.62,4.34,125.24,125.24,0,0,0-32.78,11.82,94,94,0,0,0-27.93,22.46q1.62,22.07-4.45,57.14t-17.4,76.44Q145,214.48,130.45,258.22T99.69,341.36q-16.2,39.42-31.57,70.14T40.6,457.21q-7.29,8.69-14.17,27.58T13.48,525Q7.4,546.26,3.77,566T.12,595.12q0,7.1,4.86,9.86a21,21,0,0,0,10.53,2.75q30.75,0,50.59-10.24t31.16-37.83l72.86-189.14q4.84-12.6,6.47-14.58c1.08-1.3,5.39-2,12.95-2a74.09,74.09,0,0,1,20.24,2.76q9.72,2.77,19.83,5.91t20.65,5.91a85.19,85.19,0,0,0,21.85,2.76q12.15,0,21.45-.79a149.67,149.67,0,0,0,18.62-2.76q9.3-2,19.43-5.12t24.69-7.88q25.08-6.3,38-9.46a127.84,127.84,0,0,0,25.91-9.45q12.13-5.5,29.95-22.86,17-18.12,27.52-21.28Q490.67,287,500,271.22a167.33,167.33,0,0,0,15.38-35.07,249.67,249.67,0,0,0,8.91-38.61q2.82-19.31,2.83-31.13V149.86c0-5.25-.28-10.64-.81-16.16a67.64,67.64,0,0,0-3.24-15.36,35.9,35.9,0,0,0-6.47-11.82,13.2,13.2,0,0,0-10.53-4.73,1.27,1.27,0,0,1-.91.39,2.07,2.07,0,0,1-1.11-.39,19,19,0,0,1-3.64-3.94Q498,94.7,493.1,87.6q-9.72-15.75-21.85-24.43A233.35,233.35,0,0,0,442.1,45.83q-16.2-8.65-36-16.94T367.63,14.31Q349,8,334,4.07T311.78.12ZM413,94.69q-6.48,0-6.47-7.88c0-5.24,2.15-7.88,6.47-7.88s6.48,2.64,6.48,7.88-2.16,7.88-6.48,7.88ZM295.59,253.1q-4.06,0-15.38-3.15t-23.07-7.49a195.93,195.93,0,0,1-21-9.06q-9.32-4.74-9.31-8.67v-3.94q.79-3.94,3.64-13t4.46-10.64q4.85-10.23,13-26.4T264,139.22q8.09-15.36,19.42-36.64l36.43-7.89q27.51,4,45.33,7.49a355.59,355.59,0,0,1,35.62,9.06,121.79,121.79,0,0,1,31.57,13q13.75,8.26,13.76,21.67,0,18.92-17.4,38.22a203.31,203.31,0,0,1-41.29,34.68,254.92,254.92,0,0,1-49.38,24.82q-25.49,9.47-42.49,9.46Zm60.71,30.73c-4.33,0-6.48-2.62-6.48-7.88s2.15-7.88,6.48-7.88,6.47,2.64,6.47,7.88-2.16,7.88-6.47,7.88Zm-255,150.53a6.61,6.61,0,0,1-2-.4,7,7,0,0,0-2-.39,19.41,19.41,0,0,1,3.65-4.34,19.89,19.89,0,0,1,4.45-3.54,25.3,25.3,0,0,1,4-.79,7.27,7.27,0,0,1,2,.39,6.61,6.61,0,0,0,2,.4,19.2,19.2,0,0,1-3.64,4.33,20,20,0,0,1-4.45,3.55,24.71,24.71,0,0,1-4,.79ZM81.07,488.73q-6.48,0-6.47-7.88c0-5.24,2.15-7.88,6.47-7.88s6.48,2.64,6.48,7.88-2.16,7.88-6.48,7.88ZM48.69,575.42q-6.48,0-6.47-7.88c0-5.24,2.15-7.88,6.47-7.88s6.48,2.64,6.48,7.88-2.16,7.88-6.48,7.88Z"/>
</svg>
