<svg id="Layer_1" data-name="Layer 1" xmlns="http://www.w3.org/2000/svg" viewBox="0 0 528.03 465.38">
  <defs>
    <style>
      .cls-1 {
        fill: #ec008c;
      }
    </style>
  </defs>
  <title>_q</title>
  <path class="cls-1" d="M332.72.38c3.32,3.67,11.38,6.19,24,7.48,11.66,1.21,25.16,2.59,42.5,4.34,15.51,1.56,31.57,3.68,47.74,6.3s29.41,7.11,39.57,13.36a.22.22,0,0,0,.13,0c.16,0,.88.49,3.42,5.77,1.84,3.83,3.33,7.14,4.45,9.84A126.83,126.83,0,0,0,503,62.91c3.49,5.49,7.17,11.06,10.93,16.56a154.21,154.21,0,0,1,9.7,16.13,32.77,32.77,0,0,1,4,14.86c0,4.14-3.4,13.11-10.09,26.68s-14.78,28.36-23.87,43.72c-9.23,15.57-18.35,30.29-27.12,43.73S450.81,247.42,446,252.15c-2.78,3.24-6.32,7.08-10.51,11.41-4.38,4.53-8.74,8.9-12.95,13-4.45,4.34-8.16,7.82-11.32,10.63-4.44,4-5.33,4.27-5.5,4.27h-8.1a.25.25,0,0,0-.25.25v13.4a.29.29,0,0,0,0,.09l25.92,69.39c27.29,46.87,38.14,75.85,32.23,86.13-1.64,2.84-4.62,4.29-8.87,4.29a29.62,29.62,0,0,1-6.9-.95c-27.87-6.77-49.06-20-63-39.31-12.89-17.77-24.88-32.09-35.65-42.59a.28.28,0,0,0-.17-.07l-.1,0a.25.25,0,0,0-.15.23c0,7.78-3,14.88-8.84,21.11a82.55,82.55,0,0,1-21.39,16.11,117,117,0,0,1-26.65,10.22c-9.39,2.35-17.4,3.54-23.82,3.54H106.17c-10.7,0-22.36-4.62-34.66-13.74a192.92,192.92,0,0,1-34.36-33.06,208.22,208.22,0,0,1-26.28-40.93C3.91,331.25.38,318.43.38,307.48c0-39.69,10.2-78.23,30.32-114.55a365.26,365.26,0,0,1,78.06-96.87A403.85,403.85,0,0,1,215.55,28.33C254.7,11.37,294.12,2,332.72.38M162.79,212.52a7.93,7.93,0,0,0-5.38-2.44,8.16,8.16,0,0,0-4.85,1.84c-3.53,2.65-6.82,7.05-9.79,13.09a180.51,180.51,0,0,0-8.51,20.91c-2.67,7.79-5,15.49-6.88,22.88s-3.37,13.61-4.46,18.92c-.74,3.59-1.62,8-1.62,8.72a49.14,49.14,0,0,0,2,12.28A64.38,64.38,0,0,0,129,323a42.73,42.73,0,0,0,9,11.5,17.41,17.41,0,0,0,11.9,4.79c11.31,0,25.23-3.19,41.38-9.48,16.1-6.78,43.35-21.1,81-42.57a.24.24,0,0,0,.11-.29c-11.64-34.39-14.8-56.36-9.38-65.29a9.23,9.23,0,0,1,6.75-4.53,41.83,41.83,0,0,1,6.38-.49c11.08,0,21.94,4.65,32.28,13.83,5.3,4.5,10.88,6.77,16.59,6.77,7.69,0,15.84-4.13,24.22-12.3,14.49-14.61,26.48-28.94,35.65-42.59s13.8-25.88,13.8-36.39a82.45,82.45,0,0,0-.81-9.49,77.44,77.44,0,0,0-2.44-11.86,31.65,31.65,0,0,0-4.89-9.93,10.83,10.83,0,0,0-9.11-4.43H284.25c-8.09,0-18.35,4.25-30.49,12.65A357.71,357.71,0,0,0,217.3,152,395.61,395.61,0,0,0,184.09,186c-9.81,11.36-17,20.3-21.3,26.57M332.82.12q-58.27,2.37-117.37,28A402,402,0,0,0,108.6,95.88a363.67,363.67,0,0,0-78.12,96.93Q.12,247.59.12,307.48.12,324,10.65,345.7a207.88,207.88,0,0,0,26.31,41,191.72,191.72,0,0,0,34.4,33.1q18.61,13.8,34.81,13.79H260q9.72,0,23.88-3.55a116.35,116.35,0,0,0,26.71-10.24A82.46,82.46,0,0,0,332,403.62q8.91-9.45,8.91-21.28,16.18,15.78,35.62,42.56,21,29.16,63.13,39.4a29.62,29.62,0,0,0,7,1q29.7,0-23.14-90.8l-25.91-69.35v-13.4h8.1c.53,0,2.43-1.44,5.66-4.33s7-6.43,11.34-10.64,8.62-8.53,12.95-13,7.81-8.28,10.52-11.43q7.29-7.09,20.64-27.58T493.91,181q13.75-23.24,23.88-43.74t10.12-26.79a32.88,32.88,0,0,0-4-15,152.16,152.16,0,0,0-9.71-16.15q-5.67-8.28-10.93-16.55a125.66,125.66,0,0,1-8.5-15.37q-1.64-3.93-4.45-9.85c-1.9-3.94-3.11-5.91-3.65-5.91Q471.25,22.19,447,18.25T399.2,12q-23.49-2.37-42.5-4.34T332.82.12Zm-170,212.79q6.46-9.47,21.45-26.8a395,395,0,0,1,33.19-33.89,354.84,354.84,0,0,1,36.43-29.15q18.21-12.6,30.35-12.61h97.14a10.56,10.56,0,0,1,8.91,4.33,31,31,0,0,1,4.85,9.85,76.67,76.67,0,0,1,2.43,11.82,84.1,84.1,0,0,1,.81,9.46q0,15.78-13.76,36.25T349,224.73Q336.46,237,325,237q-8.52,0-16.43-6.71-15.66-13.91-32.44-13.89a41.21,41.21,0,0,0-6.42.5Q249.45,220,272.11,287q-56.67,32.33-81,42.55Q166.88,339,149.88,339a17.14,17.14,0,0,1-11.74-4.73,42.36,42.36,0,0,1-8.9-11.43,64.14,64.14,0,0,1-5.67-14.18,48.94,48.94,0,0,1-2-12.22c0-.51.53-3.41,1.62-8.67s2.55-11.55,4.45-18.91,4.17-15,6.88-22.85a177.62,177.62,0,0,1,8.5-20.89q4.44-9,9.71-13a7.9,7.9,0,0,1,4.7-1.79,7.8,7.8,0,0,1,5.42,2.58Z"/>
</svg>
