<svg id="Layer_1" data-name="Layer 1" xmlns="http://www.w3.org/2000/svg" viewBox="0 0 519.13 490.44">
  <defs>
    <style>
      .cls-1 {
        fill: #ec008c;
      }
    </style>
  </defs>
  <title>_r</title>
  <path class="cls-1" d="M374.11.5c14.4,0,28.42.66,41.66,2a181.55,181.55,0,0,1,38,7.87A135.58,135.58,0,0,1,488.1,27.25c10.7,7.3,20.74,17.07,29.85,29,0,2.84.14,8.26.4,15.68.28,8.2.4,13.21.4,15.76,0,21.89-6.78,40.26-20.17,54.6s-30.12,26.39-49.7,35.8a307.28,307.28,0,0,1-63.5,22.05c-22.64,5.25-43.33,9.76-61.51,13.39a.26.26,0,0,0-.2.25v3.94c0,1.65,2.13,6.08,6.51,13.52s9.87,16.21,16.6,26.42S361,279.24,369,291.58s16.16,24.33,23.88,35.47c8.37,12.1,15.22,22,21.45,31.13l14.57,21.26a24.29,24.29,0,0,0,10.22,9.16c4.66,2.41,9.29,4.66,13.77,6.71A125.92,125.92,0,0,1,465,401.6c3.42,2,5.15,4.89,5.15,8.45,0,13.54-3,24.5-8.86,32.56a62.92,62.92,0,0,1-23,19.23,99.82,99.82,0,0,1-30.68,9.43,222.19,222.19,0,0,1-31.13,2.37c-12.83,0-26.8-7.14-41.52-21.21a423.94,423.94,0,0,1-44.09-50c-14.55-19.14-28.85-38.49-42.5-57.52s-26.37-34.08-37.67-44.56a.23.23,0,0,0-.17-.07.22.22,0,0,0-.13,0,70.9,70.9,0,0,0-26.81,29.26A263.59,263.59,0,0,0,168.26,369c-4.3,14.09-8.39,28.55-12.15,43a131.7,131.7,0,0,1-17,38.93,87.77,87.77,0,0,1-30.68,28.29c-12.84,7.3-30.5,11-52.49,11-4.81,0-10.5-1.19-16.91-3.54a79.3,79.3,0,0,1-18.16-9.42A65.56,65.56,0,0,1,6.39,463.49a27.65,27.65,0,0,1-6-17.19c0-11,3-24.46,8.89-40.1s13-32,21-48.84,16.26-33.24,24.28-48.86,14.31-28.91,18.63-39.42c1.05-2.57,2.51-6.31,4.45-11.43s3.69-10.12,5.27-15c1.73-5.33,3.19-9.71,4.45-13.39,1.39-4.09,2-6.49,2-7.57v-5.52c0-3.12-.13-6.48-.41-10.26-.27-3.54-.4-6.71-.4-9.44,0-4.47.4-5.8.73-6.12l24.32-23.68c2.21-3.25,7.39-11.29,15-23.26,8.12-12.81,16.56-26.2,25.09-39.8,9-14.38,17.47-27.76,25.1-39.8,7.79-12.3,13.09-20.11,15.78-23.24,3.19-4.65,13.22-9.39,29.81-14.08s35.14-9.08,55-13S318.63,6.4,336.9,4,367.67.5,374.11.5M273.73,151c4.84,0,14.38-.79,28.36-2.36a226.24,226.24,0,0,0,44.17-9.86,145.47,145.47,0,0,0,40.95-20.53c11.88-8.68,17.91-20.29,17.91-34.48a13.76,13.76,0,0,0-4.53-10A30.4,30.4,0,0,0,389.16,67a65.91,65.91,0,0,0-14.62-3.16,141.52,141.52,0,0,0-14.19-.79H348.2c-24.77,0-43.63,6.65-56,19.78s-18.69,36-18.69,67.94a.25.25,0,0,0,.25.25M476.26,426.29v.25a4,4,0,0,1,1.37.29c2.58,1,3.89,2.27,3.89,3.71s-1.31,2.71-3.89,3.71a4.84,4.84,0,0,1-1.69.38c-1.36,0-2-1.08-2-3.3,0-3.22.77-4.79,2.34-4.79v-.25M374.11.25q-9.72,0-37.24,3.55T279.4,13.25q-30,5.91-55,13T194.4,40.44q-4.07,4.73-15.78,23.25t-25.1,39.8q-13.35,21.27-25.09,39.8t-15,23.25L89.17,190.18c-.55.53-.81,2.63-.81,6.3q0,4,.4,9.46t.41,10.24v5.52c0,1.06-.68,3.55-2,7.49s-2.83,8.41-4.45,13.39-3.37,10-5.26,15S74.05,266.36,73,269q-6.49,15.76-18.62,39.4T30.08,357.25Q17.93,382.48,9,406.11T.12,446.3A27.73,27.73,0,0,0,6.2,463.64a64.9,64.9,0,0,0,14.57,13.79A79.19,79.19,0,0,0,39,486.89q9.72,3.54,17,3.55,33.18,0,52.62-11A87.8,87.8,0,0,0,139.36,451a131.76,131.76,0,0,0,17-39q5.64-21.66,12.14-42.95a260.93,260.93,0,0,1,15.38-39.4,70.22,70.22,0,0,1,26.71-29.16q17,15.76,37.64,44.53t42.5,57.52a422,422,0,0,0,44.12,50.05q22.25,21.27,41.69,21.28a221.1,221.1,0,0,0,31.16-2.37,99.53,99.53,0,0,0,30.76-9.46,62.75,62.75,0,0,0,23.07-19.3q8.89-12.21,8.91-32.71,0-5.51-5.27-8.67a128.58,128.58,0,0,0-12.14-6.3q-6.88-3.15-13.76-6.7a24,24,0,0,1-10.12-9.06L414.58,358q-9.7-14.19-21.45-31.13t-23.88-35.46Q357.12,272.94,347,257.56t-16.6-26.4q-6.48-11-6.47-13.4v-3.94q27.51-5.5,61.52-13.4A305.42,305.42,0,0,0,449,178.36q29.55-14.19,49.79-35.86T519,87.73q0-3.95-.4-15.76c-.28-7.89-.4-13.13-.4-15.77q-13.79-18.12-30-29.16a134.91,134.91,0,0,0-34.4-16.94,181.29,181.29,0,0,0-38-7.88q-19.85-2-41.69-2ZM273.73,150.77q0-48.06,18.62-67.77T348.2,63.3h12.15c4.31,0,9,.27,14.16.78a65.28,65.28,0,0,1,14.57,3.16,29.85,29.85,0,0,1,11.33,6.7,13.46,13.46,0,0,1,4.46,9.85q0,21.27-17.81,34.28a144.3,144.3,0,0,1-40.88,20.49,224.12,224.12,0,0,1-44.12,9.85q-21.06,2.37-28.33,2.36ZM476.26,426.29q-2.6,0-2.59,5c0,2.36.76,3.55,2.27,3.55a4.91,4.91,0,0,0,1.78-.4c2.69-1,4-2.36,4-3.94s-1.36-2.88-4-3.94a4.08,4.08,0,0,0-1.46-.31Z"/>
</svg>
