<svg id="Layer_1" data-name="Layer 1" xmlns="http://www.w3.org/2000/svg" viewBox="0 0 477.85 513.29">
  <defs>
    <style>
      .cls-1 {
        fill: #ec008c;
      }
    </style>
  </defs>
  <title>_s</title>
  <path class="cls-1" d="M362.77.37c13.37,0,26.94,4.89,40.33,14.54a181.52,181.52,0,0,1,36.78,35.81A216.38,216.38,0,0,1,467,95.58c6.92,15.57,10.45,29.23,10.5,40.63a28.65,28.65,0,0,1-10.18-1.56,23.73,23.73,0,0,1-6.81-3.9,59.64,59.64,0,0,0-5.29-4c-1.66-1.08-4.16-1.62-7.42-1.62a13.93,13.93,0,0,0-4.12.8.21.21,0,0,0-.1.06c-1.11,1.08-2.76,3.75-4.91,7.94-2,3.9-3.06,6.42-3.24,7.67a58.89,58.89,0,0,1-19.85-10.9c-6.25-5.06-12.78-10.49-19.43-16.15A166.74,166.74,0,0,0,376.26,100a39.1,39.1,0,0,0-20.77-6.34,80.6,80.6,0,0,0-28.42,5.53,110.35,110.35,0,0,0-26.78,14.61,77.45,77.45,0,0,0-19.89,21.74,51,51,0,0,0-7.73,26.93,65.36,65.36,0,0,0,9.75,34.81,192.41,192.41,0,0,0,24.32,31.17c9.7,10.23,20.33,20.71,31.58,31.14a299.39,299.39,0,0,1,31.54,34.25,184.74,184.74,0,0,1,24.25,40.92c6.44,14.88,9.7,32.21,9.7,51.52,0,28.71-5.57,51.73-16.56,68.43a107.38,107.38,0,0,1-43.2,38.13c-17.7,8.62-38.24,14.18-61,16.53a678.12,678.12,0,0,1-69.18,3.54,221.14,221.14,0,0,1-81.67-15.34,214.83,214.83,0,0,1-67.92-42.51,211.43,211.43,0,0,1-46.49-63.37A178.3,178.3,0,0,1,.38,314,63.9,63.9,0,0,1,13,315.21c3.67.77,6.89,3.51,9.54,8.15a.26.26,0,0,0,.22.13l.1,0a17.09,17.09,0,0,0,9.85-11.19c1.57-5.08,3.2-10.51,4.86-16.16a56.13,56.13,0,0,1,6.45-14.52c2.63-4.1,7.74-6.19,15.17-6.19,4.75,0,10.68,3.95,17.62,11.74S92,304.94,101.11,316.69s19.48,24.63,30.77,38.23a382.31,382.31,0,0,0,36.45,38.25,204.18,204.18,0,0,0,41.74,29.59,98.62,98.62,0,0,0,46.66,11.85A86.73,86.73,0,0,0,272.56,433a59.33,59.33,0,0,0,16.26-5.54,44.47,44.47,0,0,0,13-9.91,21.46,21.46,0,0,0,5.33-14.75c0-15.73-3.69-29.43-11-40.72A149.06,149.06,0,0,0,269,330.93c-10.73-9.39-22.59-18.81-35.23-28a274.28,274.28,0,0,1-35.18-30.31,150.09,150.09,0,0,1-27.08-38.56c-7.23-14.6-10.9-32.32-10.9-52.69,0-23,6.53-45.58,19.39-67.25a227.92,227.92,0,0,1,49.33-57.86,264.13,264.13,0,0,1,65.51-40.55C318.47,5.54,341.32.37,362.77.37m0-.25q-32.38,0-68,15.37a263,263,0,0,0-65.57,40.59A227,227,0,0,0,179.83,114q-19.43,32.72-19.43,67.38,0,30.74,10.93,52.8a149.57,149.57,0,0,0,27.12,38.62,273.75,273.75,0,0,0,35.21,30.34q19,13.8,35.21,28A148.32,148.32,0,0,1,296,362.25q10.93,17,10.93,40.58a21.15,21.15,0,0,1-5.26,14.58,44.06,44.06,0,0,1-13,9.85,58.62,58.62,0,0,1-16.19,5.52,86.2,86.2,0,0,1-15.79,1.58,97.89,97.89,0,0,1-46.54-11.82A202.64,202.64,0,0,1,168.5,393a379.91,379.91,0,0,1-36.43-38.22q-17-20.47-30.76-38.22T77,287Q66.5,275.17,59.22,275.16q-11.36,0-15.38,6.31a55.75,55.75,0,0,0-6.48,14.58q-2.43,8.28-4.86,16.16a16.77,16.77,0,0,1-9.71,11q-4.07-7.1-9.71-8.28a63.83,63.83,0,0,0-13-1.18,177.79,177.79,0,0,0,17.41,78,210.63,210.63,0,0,0,46.54,63.44,214,214,0,0,0,68,42.56,220.34,220.34,0,0,0,81.76,15.36A675.85,675.85,0,0,0,283,509.62q34.4-3.56,61.12-16.55a107.17,107.17,0,0,0,43.3-38.22q16.59-25.22,16.6-68.57,0-29.14-9.72-51.62a184.42,184.42,0,0,0-24.28-41,299.86,299.86,0,0,0-31.57-34.28q-17-15.75-31.57-31.13a191.82,191.82,0,0,1-24.29-31.12,64.88,64.88,0,0,1-9.71-34.68,50.61,50.61,0,0,1,7.69-26.8A77,77,0,0,1,300.44,114a109.65,109.65,0,0,1,26.72-14.58,79.88,79.88,0,0,1,28.33-5.51,38.65,38.65,0,0,1,20.64,6.3A166.33,166.33,0,0,1,396,114.79q9.72,8.28,19.43,16.16a58.89,58.89,0,0,0,20.24,11c0-1,1.07-3.67,3.24-7.88s3.76-6.82,4.85-7.88a13.78,13.78,0,0,1,4-.79q4.86,0,7.29,1.58a59.23,59.23,0,0,1,5.26,3.94,24.38,24.38,0,0,0,6.88,3.94,29.2,29.2,0,0,0,10.52,1.57q0-17.33-10.52-41a216.14,216.14,0,0,0-27.12-44.92,181.4,181.4,0,0,0-36.83-35.85Q383,.13,362.77.12Z"/>
</svg>
