<svg id="Layer_1" data-name="Layer 1" xmlns="http://www.w3.org/2000/svg" viewBox="0 0 519.29 545.6">
  <defs>
    <style>
      .cls-1 {
        fill: #ec008c;
      }
    </style>
  </defs>
  <title>_t</title>
  <path class="cls-1" d="M264.18.5a47.62,47.62,0,0,1,16.1,2.35c4.23,1.54,8,6.27,11.19,14a.25.25,0,0,0,.23.16c7.4,0,20.14-.14,36.84-.39,17.73-.27,36.66-.4,56.25-.4s38.51.13,56.26.4c16.69.25,29.42.39,36.83.39a70.63,70.63,0,0,1,8.06.78c3.86.55,7.94,1.21,12.14,2s8.31,1.7,12.12,2.76,6.33,1.8,7.91,2.3a6.81,6.81,0,0,0,.42,1.87,6.26,6.26,0,0,1,.39,1.89c0,2.51-5.95,6.68-17.67,12.38s-27,12.51-45.32,20.1-38.21,15.56-59.08,23.63c-20.07,7.78-40.22,15.46-59.9,22.86-18.06,6.78-34.13,12.87-47.77,18.13-13.1,5.05-20.26,8-21.9,9.08a.23.23,0,0,0-.1.15c-1.09,4.22-2.73,11.25-4.86,20.89-2.45,11-4.7,21.06-6.88,30.74-2.42,10.74-4.87,21.07-7.29,30.72s-4.16,16.34-5.26,20.1C240.81,245,238.29,254,235.2,265c-2.94,10.41-6.34,20.75-10.11,30.71a151.94,151.94,0,0,1-13.33,27.14c-5.08,8.07-10.91,13.74-17.3,16.86a.2.2,0,0,0-.12.12c-7.52,17.22-15.69,37.77-24.29,61.09a420.55,420.55,0,0,1-32,67.34A214.72,214.72,0,0,1,92.81,523c-17.41,14.86-39.28,22.4-65,22.4-2.64,0-6.34-.13-11.32-.39s-7.5-.39-8.07-.4a17.8,17.8,0,0,1-5.54-3.48C.83,539.32,0,538,.52,537L146.23,158.74a.29.29,0,0,0,0-.09V127.13a.26.26,0,0,0-.18-.24c-10.38-3-21.64-6.25-34.41-9.85a307.27,307.27,0,0,1-35.18-12.21A226,226,0,0,1,43.73,87.91,106.85,106.85,0,0,1,16.78,64.06c1.7-3.06,8-6.81,18.82-11.17,11-4.46,24.66-9.1,40.45-13.79s33.44-9.31,52.6-13.78,37.78-8.56,55.44-12.22C202,9.41,218.23,6.36,232.25,4,246.46,1.69,257.2.5,264.18.5m0-.25q-10.53,0-32,3.55T184,12.86q-26.72,5.52-55.45,12.21T76,38.87Q52.08,46,35.5,52.66t-19,11.42a106.35,106.35,0,0,0,27.12,24,224.57,224.57,0,0,0,32.78,16.94,306.38,306.38,0,0,0,35.21,12.22q18.21,5.13,34.41,9.85v31.52L.29,536.93c-.54,1.05.26,2.49,2.43,4.34a18,18,0,0,0,5.66,3.54q.81,0,8.1.4c4.86.25,8.62.39,11.33.39q38.85,0,65.16-22.46t45.34-54.77a419.38,419.38,0,0,0,32-67.38q12.94-35.06,24.29-61.08,9.7-4.73,17.4-16.94a152.51,152.51,0,0,0,13.36-27.19q5.64-15,10.11-30.74t7.69-27.58q1.62-5.51,5.27-20.09t7.28-30.74q3.65-16.14,6.88-30.73T267.42,135q2.43-1.57,21.85-9.06T337,107.82Q365.37,97.19,396.94,85T456,61.33q27.51-11.41,45.33-20.1t17.81-12.61a6.4,6.4,0,0,0-.41-2,6.28,6.28,0,0,1-.4-2c-1.62-.52-4.33-1.31-8.1-2.36s-7.83-2-12.14-2.76-8.37-1.44-12.14-2a68.83,68.83,0,0,0-8.1-.79q-10.53,0-36.83-.39T384.79,16q-30,0-56.26.4t-36.83.39Q286.86,5,280.37,2.61A47.87,47.87,0,0,0,264.18.25Z"/>
</svg>
