<svg id="Layer_1" data-name="Layer 1" xmlns="http://www.w3.org/2000/svg" viewBox="0 0 412.28 514.87">
  <defs>
    <style>
      .cls-1 {
        fill: #ec008c;
      }
    </style>
  </defs>
  <title>_u</title>
  <path class="cls-1" d="M411.9.37a730,730,0,0,1-11.73,128.17,1303.44,1303.44,0,0,1-30.35,130c-12.36,42.85-26.24,85.67-41.28,127.26-15.19,42-30.17,82.41-44.51,120.15a19.38,19.38,0,0,1-3.59,4.27,20,20,0,0,1-4.37,3.49,22.8,22.8,0,0,1-4.77.77c-4.71,0-7.76-2.72-9.06-8.08a74.31,74.31,0,0,1-2-17.68,146.81,146.81,0,0,1,1.21-19.27c.82-6.1,1.22-9.59,1.22-10.67a.25.25,0,0,0-.25-.25H251.87a.23.23,0,0,0-.23.17l-16,46.67c-5.74-13.42-8.77-29.09-9-46.6-.28-17.76.13-33.66,1.21-47.26a.24.24,0,0,0-.14-.24.23.23,0,0,0-.11,0,.28.28,0,0,0-.17.07A146.42,146.42,0,0,1,181.36,440a148.13,148.13,0,0,1-55,10.62c-25.73,0-46.93-5.16-63-15.33A113.72,113.72,0,0,1,25,395.22a168.9,168.9,0,0,1-19.4-55.48A359.52,359.52,0,0,1,.37,279.11a375.72,375.72,0,0,1,6.07-69.7,397.77,397.77,0,0,1,17-61.83A547.82,547.82,0,0,1,49.32,88.11c9.94-19.61,21-40.69,32.78-62.65l0-.05c.5-2,4.53-4.06,12-6.13a256.35,256.35,0,0,1,25.07-5.51c9.12-1.57,18.1-2.76,26.7-3.54,8.32-.76,13.94-1.16,16.72-1.18V49L114,261.71a.13.13,0,0,0,0,.06c0,.5-.12,2.07-.4,5.1-.27,2.76-.41,4.81-.41,5.93a101.62,101.62,0,0,0,2,21.73A190,190,0,0,0,122.12,317a.26.26,0,0,0,.17.15h.07a.21.21,0,0,0,.15-.05,225.2,225.2,0,0,0,50.25-55.62,706.71,706.71,0,0,0,38.46-67.8c11.9-24,23.61-47.45,34.81-69.74a334,334,0,0,1,40-62.22,187.39,187.39,0,0,1,52.54-44.46C358.39,6.1,383.05.41,411.9.37m.25-.25q-43.71,0-73.66,17A186.81,186.81,0,0,0,285.87,61.6a332.68,332.68,0,0,0-40.07,62.25Q228.39,158.54,211,193.6a705.16,705.16,0,0,1-38.45,67.77,223.72,223.72,0,0,1-50.19,55.56,186.53,186.53,0,0,1-6.88-22.46,99.89,99.89,0,0,1-2-21.67c0-1.05.13-3,.41-5.91s.4-4.59.4-5.12L162.83,49V8.79q-4.07,0-17,1.19t-26.71,3.54Q105.35,15.89,94,19t-12.15,6.3Q64.08,58.44,49.1,88a542.7,542.7,0,0,0-25.9,59.5,394.76,394.76,0,0,0-17,61.86A373.61,373.61,0,0,0,.12,279.11a357.83,357.83,0,0,0,5.27,60.68,168.38,168.38,0,0,0,19.42,55.56,113.45,113.45,0,0,0,38.46,40.19q24.27,15.36,63.13,15.37a147.57,147.57,0,0,0,55-10.64,146,146,0,0,0,46.14-28.77Q226,432,226.38,458.79t9.31,47.28l16.18-47.28H262.4c0,1.06-.41,4.6-1.22,10.64a145.46,145.46,0,0,0-1.21,19.3,74.49,74.49,0,0,0,2,17.74c1.34,5.51,4.46,8.27,9.31,8.27a23.11,23.11,0,0,0,4.86-.79,19.89,19.89,0,0,0,4.45-3.54,19.41,19.41,0,0,0,3.64-4.34q21.86-57.51,44.53-120.18t41.28-127.27a1297.87,1297.87,0,0,0,30.36-130A727.69,727.69,0,0,0,412.15.12Z"/>
</svg>
