<svg id="Layer_1" data-name="Layer 1" xmlns="http://www.w3.org/2000/svg" viewBox="0 0 327.28 490.44">
  <defs>
    <style>
      .cls-1 {
        fill: #ec008c;
      }
    </style>
  </defs>
  <title>_v</title>
  <path class="cls-1" d="M55.17.38A35.23,35.23,0,0,1,82.91,12.9a97.85,97.85,0,0,1,17.36,29.87,180,180,0,0,1,9.29,36.59C111.4,92,112.9,102.68,114,111.29c.57,3.37,1.57,9.53,2.83,17.33,1.28,8,2.74,16.69,4.45,26.41,1.62,9.17,3.25,17.92,4.86,26a147.07,147.07,0,0,0,4.06,17,.24.24,0,0,0,.23.16,6.86,6.86,0,0,1,2,.38,6.78,6.78,0,0,0,2.1.41c5.45,0,12.46-5.6,20.84-16.65s17.33-24,26.72-38.63,18.86-29.51,28.34-44.53,17.94-26.66,25.47-35c3.27-3.7,8-8.61,14.16-14.57,7.91-7.7,9.63-8.94,9.94-9h66.94c0,20.31-4.12,43.66-12.13,69.42a675,675,0,0,1-31.56,81.14c-12.87,27.92-27.84,56.69-44.51,85.49s-33.93,56.7-51.4,83.13-34.91,51.1-51.8,73.27-32.17,41-45.64,56.25c-1.1,0-3,.14-6,.4-2.82.25-4.91.39-6,.39a92.62,92.62,0,0,1-12.11-1.18,151.06,151.06,0,0,1-17-3.54A135.13,135.13,0,0,1,33,480.23c-4.47-1.79-7-4-7.53-6.49a883.13,883.13,0,0,0-.41-109.93c-2.41-35.7-5.4-71.76-8.9-107.19C12.94,224.13,9.5,189.2,5.64,149.84,2.14,114.37.38,77.53.38,40.32c0-2.77.14-8.37.4-15.76.27-8,.4-12.95.4-15.57C12,6.37,21.28,4.27,28.91,2.73A134.53,134.53,0,0,1,55.17.38m0-.25A133.48,133.48,0,0,0,28.86,2.49Q17.12,4.86.93,8.79c0,2.64-.13,7.88-.4,15.77S.12,37.69.12,40.32q0,56,5.27,109.54T15.91,256.65q5.25,53.19,8.9,107.17a879.56,879.56,0,0,1,.41,109.94q.8,4,7.69,6.7a133.45,133.45,0,0,0,15.78,5.12,151.64,151.64,0,0,0,17,3.55,91.64,91.64,0,0,0,12.15,1.18c1.07,0,3.09-.12,6.07-.39s5-.4,6.07-.4q20.22-22.84,45.73-56.35t51.81-73.29q26.29-39.78,51.4-83.14t44.52-85.51A668.71,668.71,0,0,0,315,110.06q12.15-39,12.15-69.74H260q-.81,0-10.12,9.06T235.69,64Q224.34,76.58,210.19,99t-28.34,44.53q-14.16,22.07-26.71,38.61T134.5,198.72a6.55,6.55,0,0,1-2-.39,7,7,0,0,0-2-.4,149.19,149.19,0,0,1-4-16.94q-2.41-12.21-4.85-26t-4.45-26.4q-2-12.6-2.84-17.34-1.64-12.58-4.45-31.91a179.76,179.76,0,0,0-9.31-36.65A97.38,97.38,0,0,0,83.1,12.73Q72.17.14,55.17.13Z"/>
</svg>
