<svg id="Layer_1" data-name="Layer 1" xmlns="http://www.w3.org/2000/svg" viewBox="0 0 673.92 521.96">
  <defs>
    <style>
      .cls-1 {
        fill: #ec008c;
      }
    </style>
  </defs>
  <title>_w</title>
  <path class="cls-1" d="M162,.5V236.67a.25.25,0,0,0,.25.25,16.92,16.92,0,0,1,4,1.17,9.6,9.6,0,0,0,3.09.73,1.7,1.7,0,0,0,1.18-.36,60.65,60.65,0,0,0,5.26-3.15c2.48-1.61,5.06-3.2,7.68-4.73a85,85,0,0,0,7.3-4.74,47,47,0,0,0,4.06-3.16c3.86-3.22,10.54-9.33,19.85-18.14,9.55-9,19.49-18.58,29.55-28.37S264,156.68,273.28,147.4c9.12-9.13,15.38-15.62,18.6-19.28a59.22,59.22,0,0,1,27.78-8.23c9.54-.26,19.21-.39,28.73-.39,2.62,0,7.76.13,16.18.39,7.61.26,13.17.39,16.09.4,1,1.07,2.5,3.67,4.33,7.73s3.07,6.77,3.63,7.86c.49,3.41,1.49,9.61,3.23,20.06,1.61,9.67,3.25,20,4.86,30.73s3.25,21.22,4.85,31.13c1.54,9.45,2.66,16.54,3.24,20.49,0,0,0,.05,0,.07a18.61,18.61,0,0,0,3.69,4.4,19.28,19.28,0,0,0,4.52,3.6h0a24.1,24.1,0,0,0,4.11.8c6.53,0,15.58-6.93,26.91-20.58s23.13-29.52,35.22-47.3c11.95-17.57,23.8-35.34,35.22-52.81,11.29-17.27,20.81-30,28.3-37.79L607.5,25.74a36.09,36.09,0,0,0,7.51.77,45,45,0,0,0,8.24-.8c5.57-1,11.43-2.35,17.42-3.94,5.75-1.53,11.6-3,17.4-4.33a71.55,71.55,0,0,1,15.47-2c0,.66-.15,2.07-.4,4.46A17.43,17.43,0,0,1,672,25.35c-.68,1.31-1.6,3.11-2.78,5.42L666.7,35.6c-2.39,4.65-5,9.55-7.69,14.57s-5.17,9.65-7.29,13.8a80.69,80.69,0,0,0-4.05,8.66c-2.72,3.18-8.28,11.17-17,24.42-8.45,12.85-17.72,27.17-27.53,42.56-9.64,15.14-19,29.45-27.92,42.55-10.2,15.05-15.57,22.93-16.58,24.41-1.12,1.09-2.58,3.69-4.49,7.94s-3.1,6.8-3.64,7.88a143.23,143.23,0,0,1-15.76,28.72A302.35,302.35,0,0,1,515,275.91c-6.93,7.78-13.74,15.74-20.24,23.65a161.17,161.17,0,0,0-17,25.27c-5.36,10.95-11.08,23.54-17,37.44s-12.46,28.34-19.42,43-14.64,29.15-22.65,42.93a210.45,210.45,0,0,1-27.49,37.39,128.67,128.67,0,0,1-33.94,26.35A87.07,87.07,0,0,1,316,521.71H308c-4-1.11-9.05-2.57-14.94-4.32-7.93-2.35-9-3.12-9.13-3.31V277.65a.23.23,0,0,0-.08-.17l-8.09-7.89a.29.29,0,0,0-.18-.07.27.27,0,0,0-.12,0,42,42,0,0,0-17.1,17.05,67.26,67.26,0,0,0-7.3,22.45c-3.33,2.71-8.89,7.73-16.53,14.92-7.92,7.45-16.22,15.4-24.69,23.64s-16.67,16.37-24.29,24-12.71,13-15.39,16.18a90.16,90.16,0,0,0-13.8,23.31C153,419.45,149.87,427.81,147,436a249.83,249.83,0,0,1-10.11,24.4,86.06,86.06,0,0,1-15.29,22c-2.6,1-7.09,2.64-14.11,5.1s-14.32,5-21.85,7.49c-7.76,2.61-15.25,5-22.25,7.09s-11.89,3.42-14.5,3.93H44.83c-13.1,0-23.46-3.29-30.8-9.79S2.16,479.78.56,466.77a41.89,41.89,0,0,1,2-16.85,80.05,80.05,0,0,1,8.07-17.67A146.34,146.34,0,0,1,22,416.12a142.58,142.58,0,0,1,10.91-12.19.25.25,0,0,0,.08-.18c.52-28.51,1.61-59.27,3.23-91.41,1.62-31.88,4.07-64.48,7.29-96.92s7.31-65.16,12.14-97.31S66.41,54.87,73.37,25.66C90.63,20.25,104,16.14,114.11,13.1s20.18-5.94,30-8.67C153.16,1.9,159.18.58,162,.5m.25-.25q-4,0-18.21,3.94T114,12.86Q98.26,17.59,73.16,25.47q-10.53,44.15-17.81,92.6T43.21,215.4q-4.86,48.87-7.29,96.93t-3.23,91.42a152.3,152.3,0,0,0-22.26,28.37,80.31,80.31,0,0,0-8.1,17.73,41.86,41.86,0,0,0-2,16.94q4.86,39.42,44.52,39.41h4.05q4-.78,14.57-3.94t22.26-7.1q11.73-3.93,21.85-7.48c6.75-2.37,11.46-4.07,14.17-5.13a86,86,0,0,0,15.38-22.06,247.62,247.62,0,0,0,10.12-24.43q4.44-12.6,9.31-24.83A89.56,89.56,0,0,1,170.3,388q4-4.74,15.38-16.16t24.28-24q12.94-12.59,24.69-23.64t16.6-15a66.38,66.38,0,0,1,7.28-22.46,41.67,41.67,0,0,1,17-17l8.1,7.88V514.08q0,.79,9.31,3.55t15,4.33H316a86.9,86.9,0,0,0,41.28-9.85,128.45,128.45,0,0,0,34-26.4,209.56,209.56,0,0,0,27.52-37.44q12.15-20.86,22.67-42.95t19.42-42.95q8.91-20.87,17-37.43a160.8,160.8,0,0,1,17-25.22q9.72-11.82,20.24-23.64A301.24,301.24,0,0,0,535,251.25a142.56,142.56,0,0,0,15.79-28.76c.53-1.05,1.74-3.67,3.64-7.88s3.36-6.82,4.45-7.88q3.23-4.72,16.6-24.43t27.92-42.56Q618,116.9,630.9,97.18t17-24.43a80.22,80.22,0,0,1,4-8.67q3.22-6.28,7.29-13.79t7.69-14.58c2.43-4.72,4.17-8.14,5.26-10.24A17.32,17.32,0,0,0,673.39,20c.27-2.62.41-4.2.41-4.73a71,71,0,0,0-15.79,2q-8.49,2-17.4,4.34t-17.4,3.94a44.65,44.65,0,0,1-8.2.79,35.53,35.53,0,0,1-7.59-.79L542.66,88.52q-11.34,11.82-28.33,37.82t-35.21,52.8q-18.21,26.81-35.21,47.29t-26.72,20.49a24.32,24.32,0,0,1-4.05-.79,19.56,19.56,0,0,1-4.45-3.55,18.66,18.66,0,0,1-3.64-4.33q-.81-5.5-3.24-20.49T397,186.63q-2.43-16.14-4.86-30.73t-3.24-20.1c-.54-1.05-1.76-3.67-3.64-7.88s-3.38-6.82-4.45-7.88c-2.71,0-8.1-.12-16.19-.4s-13.5-.39-16.19-.39q-14.58,0-28.74.39a59.25,59.25,0,0,0-27.93,8.28q-4.86,5.52-18.62,19.31T244,176q-15.37,15-29.54,28.37t-19.84,18.13a47.53,47.53,0,0,1-4,3.15c-2.17,1.58-4.59,3.15-7.29,4.73s-5.26,3.15-7.69,4.73a59.34,59.34,0,0,1-5.26,3.15,1.45,1.45,0,0,1-1,.32,9.63,9.63,0,0,1-3-.71,17.82,17.82,0,0,0-4.05-1.19V.25Z"/>
</svg>
