<svg id="Layer_1" data-name="Layer 1" xmlns="http://www.w3.org/2000/svg" viewBox="0 0 496.46 490.44">
  <defs>
    <style>
      .cls-1 {
        fill: #ec008c;
      }
    </style>
  </defs>
  <title>_x</title>
  <path class="cls-1" d="M167.69.5c10.11,0,19,4.87,26.51,14.48s14.29,22,20.21,36.6c3.18,7.22,6.17,14.77,8.9,22.44,2.58,7.31,5.5,15.43,8.9,24.83,3.24,8.93,7.19,18.75,11.75,29.17a307.24,307.24,0,0,0,18.22,34.7.25.25,0,0,0,.2.12h0a.27.27,0,0,0,.19-.08c31.11-35,54-54.85,67.87-59,7.34-2,14.7-4.16,21.86-6.31,7-2.09,14.09-4.48,21.07-7.09,13.94-5.22,28.37-10,42.88-14.18a169.07,169.07,0,0,1,46.63-6.3V80.63a.24.24,0,0,0,.14.23l32.29,15.72a12.94,12.94,0,0,1,.76,3c0,5.15-4.19,11-12.45,17.53A262.63,262.63,0,0,1,451.69,138c-12.68,7.21-26.19,14.81-41.28,23.24C395.9,169.31,382,177.67,369.11,186s-23.7,17-32,25.65-12.62,17.6-12.62,26.57a30.62,30.62,0,0,0,.41,4.37c.27,1.91.4,3,.4,3.51a.28.28,0,0,0,0,.09c2.09,5.61,5.8,15.28,11.34,29.55,5.36,13.86,11.08,29,17,44.92,5.81,15.7,11.52,30.95,17,45.32,5.82,15.32,9.31,24.56,11.32,29.91.51,2.55,1.57,6.68,3.24,12.62,1.62,5.79,3.25,12,4.85,18.51S393.3,440,394.91,446s2.67,10.29,3.23,13c0,.63.15,2.49.41,5.12.27,3,.4,5.14.4,6.67,0,1-.13,2.94-.4,5.89-.25,2.6-.39,4.57-.41,5.73-2.69.51-7,1.15-13.14,1.93s-12.72,1.58-19.42,2.36-13.27,1.58-19.43,2.37a124.54,124.54,0,0,1-12.52,1.18h-4.85c-10.14,0-19.06-4.88-26.52-14.49s-14.57-21.94-21-36.59c-3.25-7.36-6.24-14.91-8.9-22.44s-5.39-16-8.09-25.21c-2.78-9.42-5.91-19.76-9.31-30.74-3.5-11.23-7.18-24.36-10.93-39a.24.24,0,0,0-.21-.19h0a.26.26,0,0,0-.22.13l-32.33,59a176.58,176.58,0,0,0-42.88,22.86,169.63,169.63,0,0,1-40.41,22c-14,5.25-28.18,11.08-42.11,17.34A308.89,308.89,0,0,1,42.42,458.6L33.56,410a.22.22,0,0,0-.14-.18L1.14,394.11a12.12,12.12,0,0,1-.76-3c0-5.15,4.18-11.05,12.45-17.54a262.15,262.15,0,0,1,31.94-20.86c12.72-7.22,26.22-14.82,41.28-23.25,14.52-8.11,28.41-16.46,41.3-24.83s23.66-17.12,32-26.05S172,260.87,172,252.44a33.6,33.6,0,0,0-.41-4.38,30.25,30.25,0,0,1-.4-3.51.29.29,0,0,0,0-.09c-2.17-5.25-6-15.06-11.33-29.15-5.48-14.38-11.2-29.62-17-45.32-6-16.17-11.72-31.42-17-45.31-6-15.69-9.36-24.64-11.33-29.92-.32-1.25-1.28-4.93-3.23-12.22-1.62-6-3.25-12.38-4.86-18.91s-3.25-12.9-4.86-18.92c-1.67-6.21-2.72-10.46-3.23-12.94,0-.5-.12-2-.4-5.14-.27-2.73-.41-5-.41-6.68,0-1.11.14-3.14.41-5.89s.39-4.66.4-5.73c2.25-.52,6.53-1.17,12.73-1.92,6.63-.81,13.3-1.6,19.84-2.36,6.71-.79,13.24-1.58,19.43-2.37A124.17,124.17,0,0,1,162.83.5h4.86M309.35,304.7c4.46,0,6.72-2.74,6.72-8.13s-2.26-8.13-6.72-8.13-6.73,2.73-6.73,8.13,2.26,8.13,6.73,8.13m32.38,78.81h8.09a.24.24,0,0,0,.23-.16.25.25,0,0,0-.05-.27l-8.1-7.88a.23.23,0,0,0-.17-.07.16.16,0,0,0-.1,0,.24.24,0,0,0-.15.23v7.88a.25.25,0,0,0,.25.25M357.92,415a.23.23,0,0,0,.17-.07l8.1-7.88a.25.25,0,0,0,.05-.27.24.24,0,0,0-.23-.16h-8.09a.25.25,0,0,0-.25.25v7.88a.25.25,0,0,0,.15.23l.1,0M364.24,447a5.33,5.33,0,0,0,1.86-.41c2.79-1.09,4.21-2.49,4.21-4.18s-1.38-3.06-4.21-4.17a4.32,4.32,0,0,0-1.55-.33c-1.88,0-2.84,1.78-2.84,5.29,0,2.52.85,3.8,2.53,3.8M167.69.25h-4.86a122.09,122.09,0,0,0-12.55,1.18Q141,2.62,130.86,3.8C124.1,4.58,117.5,5.37,111,6.16s-10.8,1.45-13,2c0,1.06-.14,3-.4,5.91s-.41,4.87-.41,5.91c0,1.58.13,3.82.41,6.7s.4,4.61.4,5.12c.53,2.64,1.62,7,3.24,13s3.24,12.35,4.86,18.91S109.41,76.57,111,82.6s2.7,10.13,3.24,12.22q3.22,8.69,11.34,30t17,45.31q8.91,24,17,45.32t11.34,29.15a29.62,29.62,0,0,0,.4,3.55,32.11,32.11,0,0,1,.41,4.34q0,12.62-12.55,26t-32,26q-19.42,12.62-41.28,24.82T44.65,352.52a262.75,262.75,0,0,0-32,20.89Q.11,383.27.12,391.14a13.07,13.07,0,0,0,.81,3.15l32.38,15.76,8.91,48.86a307.39,307.39,0,0,0,43.71-15.76q21-9.45,42.09-17.34a168.87,168.87,0,0,0,40.48-22.06,175.35,175.35,0,0,1,42.9-22.86l32.38-59.1q5.66,22.07,10.93,39T264,391.53q4,13.8,8.09,25.22T281,439.21q9.71,22.08,21,36.65t26.72,14.58h4.85a123.58,123.58,0,0,0,12.55-1.19q9.3-1.17,19.43-2.36T385,484.53q9.29-1.18,13.35-2c0-1,.13-3,.41-5.91s.4-4.85.4-5.91c0-1.57-.14-3.8-.4-6.69s-.41-4.6-.41-5.13q-.81-3.93-3.24-13T390.3,427q-2.43-9.86-4.86-18.52c-1.62-5.78-2.71-10-3.24-12.61q-3.24-8.67-11.33-29.95t-17-45.32q-8.92-24-17-44.92t-11.33-29.55a33.88,33.88,0,0,0-.41-3.55,29.78,29.78,0,0,1-.4-4.33q0-13.4,12.55-26.4t32-25.61q19.42-12.6,41.28-24.83t41.29-23.25a259.86,259.86,0,0,0,32-20.88q12.54-9.84,12.55-17.73a13.07,13.07,0,0,0-.81-3.15L463.15,80.63v-11a168.82,168.82,0,0,0-46.95,6.31q-21.85,6.32-42.9,14.18-10.53,4-21.05,7.09t-21.86,6.31q-21,6.32-68,59.1a303.67,303.67,0,0,1-18.22-34.67q-6.88-15.75-11.73-29.16t-8.91-24.82q-4-11.41-8.9-22.46-8.92-22.06-20.24-36.65T167.69.25Zm141.66,304.2c-4.33,0-6.48-2.62-6.48-7.88s2.15-7.88,6.48-7.88,6.47,2.63,6.47,7.88-2.16,7.88-6.47,7.88Zm32.38,78.81v-7.88l8.09,7.88ZM366,406.9l-8.09,7.88V406.9Zm-1.77,39.8c-1.52,0-2.28-1.19-2.28-3.55q0-5,2.59-5a4,4,0,0,1,1.46.31q4,1.59,4.05,3.94c0,1.58-1.35,2.9-4.05,3.94a4.9,4.9,0,0,1-1.77.4Z"/>
</svg>
