<svg id="Layer_1" data-name="Layer 1" xmlns="http://www.w3.org/2000/svg" viewBox="0 0 445.47 711.1">
  <defs>
    <style>
      .cls-1 {
        fill: #ec008c;
      }
    </style>
  </defs>
  <title>_y</title>
  <path class="cls-1" d="M174.17.5a44.66,44.66,0,0,1,16.5,2.74c4.5,1.82,8.41,6.41,11.59,13.64,1.1,3.22,2.87,8.92,5.26,16.94s5,16.79,7.69,26,5.12,18,7.28,26.39,3.51,14.21,4,17.34a138.14,138.14,0,0,1,2,14.54c.79,7.49,1.47,15.84,2,24.82.52,8.72,1.2,17.07,2,24.83a133.62,133.62,0,0,0,2,14.64,87.17,87.17,0,0,0,3.65,8.3c1.93,4,3.4,6.49,4.51,7.56a.24.24,0,0,0,.11.06,24.1,24.1,0,0,0,4.11.8,24.43,24.43,0,0,0,4.1-.8.23.23,0,0,0,.12-.06l16.21-15.78L372.66,56.38c1-1,2.51-2.57,4.47-4.74,2.4-2.67,3.19-3.07,3.45-3.07,1,0,3.71,1.19,8,3.52,4.75,2.6,7.1,3.86,8.11,4.34a.18.18,0,0,0,.1,0h4.05a53.17,53.17,0,0,0,22-4.75A54.49,54.49,0,0,1,445.09,47v9.2c0,.47-1.49,3.88-4.43,10.14S434,80.13,429.74,88.4,421,105.23,416.38,114s-8.52,15.69-11.73,20.88c-10.73,19.83-22.44,42.37-34.81,67a710.48,710.48,0,0,1-38,66.95c-19.71,27.48-41.36,57.05-64.35,87.87-22.73,30.45-45.48,62.54-67.6,95.36s-43,66.5-62.34,100.5A734.83,734.83,0,0,0,88.94,655.06a.11.11,0,0,0,0,.08V663a62.27,62.27,0,0,0,1.22,9.1c.8,4.42,1.62,9.32,2.42,14.58s1.63,10.16,2.43,14.58a82.25,82.25,0,0,0,1.93,8.77c-1.21,0-3.19.16-5.75.4-3,.26-5,.39-6,.39-22.5,0-42.47-5.69-59.36-16.9S.38,664.39.38,639.38a170.77,170.77,0,0,1,10.1-59A312,312,0,0,1,36,527.21c10.16-16.94,21.32-33.9,33.17-50.42s23-33.4,33.2-50.06a306.28,306.28,0,0,0,25.52-52.45A163.43,163.43,0,0,0,138,317.06c0-25.57-1-51.56-2.84-77.25-1.91-26-4.09-52-6.47-77.24-2.43-25.77-4.61-51.75-6.48-77.22s-2.82-51.57-2.83-77.75c.69,0,2.27.15,5,.39,3.6.33,4.77.78,5.11,1.11l.06,0c1.06.52,3.7,2.07,8.08,4.72,3.66,2.24,6.12,3.32,7.54,3.32a1.86,1.86,0,0,0,.79-.15c1.09-.53,3.77-3.13,8.17-7.94,4.21-4.61,6.89-7.23,8-7.8.67,0,2.56-.15,5.23-.4,3-.26,5.27-.39,6.86-.39m0-.25c-1.62,0-3.93.14-6.89.39S162.55,1,162,1q-1.64.8-8.09,7.88c-4.33,4.73-7,7.36-8.1,7.88a1.53,1.53,0,0,1-.68.13c-1.36,0-3.82-1.09-7.41-3.28-4.33-2.63-7-4.2-8.1-4.73-.54-.52-2.3-.91-5.26-1.18s-4.73-.4-5.26-.4q0,39.42,2.83,78t6.48,77.23q3.65,38.63,6.47,77.24t2.84,77.23a162.53,162.53,0,0,1-10.12,57.13,304.7,304.7,0,0,1-25.5,52.41q-15.39,25.23-33.19,50T35.74,527.08a312.4,312.4,0,0,0-25.5,53.2A170.33,170.33,0,0,0,.12,639.38q0,37.83,25.5,54.77t59.5,17c1.08,0,3.1-.14,6.07-.4s5-.39,6.07-.39a75.38,75.38,0,0,1-2-9.06c-.81-4.47-1.62-9.34-2.43-14.58s-1.62-10.12-2.43-14.58A62.58,62.58,0,0,1,89.17,663v-7.89a732.67,732.67,0,0,1,48.57-102.45q29.14-51.23,62.33-100.48t67.59-95.35Q302.05,310.75,332,269a704.72,704.72,0,0,0,38.05-67q18.62-37,34.81-67,4.86-7.86,11.74-20.88T430,88.52q6.46-12.6,10.93-22.07t4.45-10.25V46.75a54.48,54.48,0,0,0-22.66,4.73,52.84,52.84,0,0,1-21.86,4.72h-4.05c-1.09-.51-3.78-2-8.09-4.33s-7-3.55-8.1-3.55c-.54,0-1.75,1.06-3.64,3.16s-3.38,3.68-4.45,4.72L267.25,182.3l-16.18,15.76a24.91,24.91,0,0,1-4,.79,24.13,24.13,0,0,1-4.05-.79q-1.64-1.58-4.45-7.49a86.39,86.39,0,0,1-3.64-8.27,132.24,132.24,0,0,1-2-14.58q-1.22-11.41-2-24.83t-2-24.82a136.29,136.29,0,0,0-2-14.58q-.81-4.72-4.05-17.34t-7.28-26.4q-4.06-13.78-7.69-26T202.5,16.8Q197.64,5.77,190.76,3A44.59,44.59,0,0,0,174.17.25Z"/>
</svg>
