<svg id="Layer_1" data-name="Layer 1" xmlns="http://www.w3.org/2000/svg" viewBox="0 0 617.08 489.65">
  <defs>
    <style>
      .cls-1 {
        fill: #ec008c;
      }
    </style>
  </defs>
  <title>_z</title>
  <path class="cls-1" d="M299.63.38c28.58,0,56.49.13,83,.39,26,.27,53.09,5.7,80.44,16.13a73.72,73.72,0,0,1,8.44,7.44,75.07,75.07,0,0,1,7.61,8.17v3.87a20.88,20.88,0,0,1-2.8,10.9c-1.92,3.19-3.82,6.1-5.65,8.65s-3.75,5.35-5.68,8.29A19.33,19.33,0,0,0,462.09,75c-5.37,16.71-16.52,40.54-33.16,70.85-16.08,29.24-45.46,53.07-87.3,70.82-41.91,18.31-71.33,32.64-87.46,42.57l-25.5,16.55L210.55,287.5l-9.85,6.4-25.9,25.22a.21.21,0,0,0-.06.1c-2.17,6.3-4.21,11.73-6.07,16.14a79.69,79.69,0,0,1-5.24,10.6,3.56,3.56,0,0,0-.32,3.35c1.83,4.52,12.58,9.21,32.85,14.36H196c6.83,0,17.55.13,32.78.39s32,.81,50.18,1.58c19,.81,38.78,1.47,58.69,2,20.64.53,40.38,1.2,58.69,2,18.69.79,35.58,1.32,50.19,1.58,14.12.25,25.46.39,32.79.39,1,0,3.84.25,8.88.79s10.58,1.21,16.59,2,12.11,1.7,17.79,2.75,10.14,1.85,13.4,2.37a29.37,29.37,0,0,1,6,1.18c3,.78,6.23,1.58,9.72,2.36s6.76,1.58,9.71,2.36,5.18,1.43,6.88,2c4.62,1.3,9.12,2.59,13.75,3.94,5.29,1.55,10.6,3.27,15.77,5.12,4.91,1.77,11.08,3.94,18.86,6.64v13.76a114.09,114.09,0,0,0-28.14,3.55c-9.13,2.35-18.39,5.14-27.54,8.28s-18.59,6.08-27.92,8.67A135.52,135.52,0,0,1,503.59,442c-4.34.53-13.46,1.06-27.09,1.57-14.06.55-30.26,1.08-48.16,1.58-18.74.54-38.35,1.2-58.29,2-20.58.79-40.19,1.32-58.28,1.58-19.47.28-35.23.54-48.16.78s-22.54.4-27.13.4a169.45,169.45,0,0,0-40.94,7.89c-12.76,4.24-25.29,8.75-37.25,13.4-12.16,4.74-24.55,9-36.81,12.61a136.57,136.57,0,0,1-38.79,5.5c-10.74,0-19-.92-24.61-2.74s-9.93-4.32-12.85-7.42A19.13,19.13,0,0,1,40,468.21a103.8,103.8,0,0,1-.81-13.36c0-6.3-1.64-13.23-4.88-20.61-.57-1.09-2.44-3.05-5.73-6s-6.8-6.22-10.51-9.84c-3.92-3.8-7.36-7-10.53-9.86s-5-4.76-5.59-5.79a18.87,18.87,0,0,0-.82-3.55,11.77,11.77,0,0,1,0-8.53,21.14,21.14,0,0,0,.81-3.4L16.35,385c3.24-.51,6.48-1,9.72-1.57A65.26,65.26,0,0,0,35.82,381c6.57-2.13,53.2-53.18,142.55-156.08L337,139.85c3.42-1.18,5.57-3,6.39-5.36,1-3,0-6.84-3-11.55-5.4-9.45-12.52-16.12-21.16-19.8a90.18,90.18,0,0,0-31.66-7.51c-11.83-.79-24.91-1.19-38.87-1.19-2.09,0-6.6.13-14.18.4-6.83.25-11.86.39-14.16.39a.25.25,0,0,0-.25.25c0,1-1.06,2.51-3.16,4.55s-3.67,3.08-4.68,3.08a111.57,111.57,0,0,1-35.94-5.89,200.25,200.25,0,0,1-33.55-15,294.16,294.16,0,0,1-31.14-20.08C101.68,54.9,92.07,47.53,83,40.25c3.75-6.66,10.49-12.53,20-17.44a167.29,167.29,0,0,1,31.53-12.2,263,263,0,0,1,34-7.09A211,211,0,0,1,196,1.16h14.57c8.91,0,18.72-.13,29.15-.39C250.65.51,261.81.38,272.92.38h26.71m0-.26H272.92q-17,0-33.19.4T210.59.91H196A208.34,208.34,0,0,0,168.5,3.28a259.9,259.9,0,0,0-34,7.09,166.41,166.41,0,0,0-31.57,12.22Q88.37,30.07,82.69,40.32q13.75,11,28.74,22.06a292.12,292.12,0,0,0,31.16,20.1,199.89,199.89,0,0,0,33.6,15,111.21,111.21,0,0,0,36,5.91c1.08,0,2.69-1,4.86-3.15s3.23-3.67,3.23-4.73c2.16,0,6.89-.12,14.17-.39s12-.4,14.17-.4q21,0,38.85,1.19t31.57,7.48q12.94,5.53,21.05,19.71,8.08,12.62-3.24,16.55L178.21,224.73q-132.77,152.9-142.47,156A63.53,63.53,0,0,1,26,383.13l-9.71,1.58Q6.6,386.3,1.74,387.07a17.3,17.3,0,0,1-.81,3.55,12,12,0,0,0,0,8.67,17.55,17.55,0,0,1,.81,3.54q.81,1.59,5.67,5.91t10.52,9.86q5.66,5.52,10.53,9.85c3.24,2.89,5.12,4.86,5.66,5.91Q39,445.4,39,454.85a105,105,0,0,0,.81,13.39,19.25,19.25,0,0,0,5.26,11c3,3.15,7.29,5.65,13,7.48s13.89,2.76,24.69,2.76A136,136,0,0,0,121.55,484q18.62-5.5,36.83-12.61T195.62,458a168.28,168.28,0,0,1,40.88-7.88q6.47,0,27.11-.4t48.17-.78q27.51-.39,58.28-1.58t58.28-2q27.51-.78,48.17-1.58t27.11-1.57a135.48,135.48,0,0,0,29.55-4.73q14.16-3.93,27.93-8.67t27.52-8.27A112.79,112.79,0,0,1,617,417V402.83q-11.34-3.93-19-6.7T582.14,391q-8.1-2.36-13.76-3.94c-1.62-.52-3.92-1.18-6.88-2s-6.21-1.57-9.71-2.36-6.76-1.58-9.71-2.37a29.87,29.87,0,0,0-6.08-1.18c-3.23-.52-7.69-1.3-13.35-2.36s-11.61-2-17.81-2.76-11.74-1.44-16.6-2-7.83-.79-8.9-.79q-10.53,0-32.78-.39t-50.19-1.58q-27.93-1.18-58.69-2t-58.69-2q-27.93-1.18-50.19-1.58T196,363.43q-37.25-9.46-32.38-17.34a80.36,80.36,0,0,0,5.26-10.64c1.89-4.45,3.91-9.85,6.07-16.15l25.91-25.22q14.56-9.46,27.92-18.13t25.5-16.55q24.29-15,87.43-42.55,63.13-26.79,87.42-70.93Q454.23,100.23,462.34,75a19.06,19.06,0,0,1,2.83-10.64c1.89-2.88,3.77-5.64,5.67-8.27s3.77-5.52,5.67-8.67a21.1,21.1,0,0,0,2.83-11V32.44a71.07,71.07,0,0,0-7.69-8.28,72.61,72.61,0,0,0-8.5-7.49Q421.87.92,382.61.52t-83-.4Z"/>
</svg>
