<svg id="Layer_1" data-name="Layer 1" xmlns="http://www.w3.org/2000/svg" viewBox="0 0 478.65 561.36">
  <defs>
    <style>
      .cls-1 {
        fill: #ec008c;
      }
    </style>
  </defs>
  <title>A</title>
  <path class="cls-1" d="M414.58.37c6.35,0,11.87,3.28,16.39,9.75a85.91,85.91,0,0,1,10.9,22,166.46,166.46,0,0,1,6.06,24c1.36,8,2,13.13,2,15.72V347.67a.25.25,0,0,0,.1.2,110.59,110.59,0,0,0,12.14,7.89c1.13,1.08,3.79,2.51,8.15,4.35,3.51,1.51,6,2.59,7.36,3.21-15.25,2.69-26.47,8.24-33.36,16.5a103.85,103.85,0,0,0-17,29.62c-4.27,11.17-8.5,23.24-12.55,35.87a89.21,89.21,0,0,1-20.59,34.19c-9.65,10.18-23.92,18.78-42.4,25.55s-44.34,10.21-77,10.23a76.5,76.5,0,0,1,3.63-22.92c2.46-7.7,5.18-15.52,8.09-23.24,3-8,5.72-15.93,8.1-23.66a85.57,85.57,0,0,0,3.65-25.29.25.25,0,0,0-.25-.25,34,34,0,0,1-5.61-.78,36.11,36.11,0,0,0-6.53-.79h-1.69L203.24,442l-.09,0A108,108,0,0,0,174,475.61c-7.55,13.37-15.58,26.49-23.87,39a145.64,145.64,0,0,1-29.5,32.65c-11.23,9.12-26.7,13.74-46,13.74-3.71,0-8.73-.26-15.36-.79a99.12,99.12,0,0,1-19.38-3.54,55.77,55.77,0,0,1-16.52-7.45c-4.5-3.09-6.78-7-6.78-11.61a59.48,59.48,0,0,1,5.24-24.33,247,247,0,0,1,12.13-23.62c4.39-7.55,9-15.37,13.76-23.25a90.32,90.32,0,0,0,10.15-24.1.13.13,0,0,0,0-.06V438.3A27.67,27.67,0,0,0,53,422.39a48.74,48.74,0,0,0-12.21-12.27A103.52,103.52,0,0,0,24.92,401a145.83,145.83,0,0,0-15.81-6.32H9l-.1,0L.38,398.51C.47,386.25,5.06,377.44,14,372.32a121.1,121.1,0,0,1,31.5-12.19c11.85-2.88,23.83-6.06,35.63-9.46S101.52,341,106.38,332L268.28,48.32c5.34-9.37,14-17.29,25.8-23.54a176.71,176.71,0,0,1,39.61-15,285.29,285.29,0,0,1,43.68-7.48c14.58-1.3,27.1-2,37.21-2M285.06,341.61h12.15c2.76,0,9.31-.53,19.45-1.57a.27.27,0,0,0,.22-.19L325,308.33a.15.15,0,0,0,0-.07V134.89a.25.25,0,0,0-.17-.24h-.08a.22.22,0,0,0-.2.1,181.7,181.7,0,0,0-23.11,44.19c-6.17,16.72-11.75,34.09-16.6,51.64-4.73,17.15-9.77,34.92-15,52.8a323.77,323.77,0,0,1-18.2,48.43.24.24,0,0,0,0,.29A29,29,0,0,0,267.21,340a101.77,101.77,0,0,0,17.85,1.58M414.58.12q-15.39,0-37.24,2a282.22,282.22,0,0,0-43.71,7.48,175.78,175.78,0,0,0-39.66,15Q276.15,34,268.06,48.2L106.17,331.91q-7.29,13.41-25.1,18.52t-35.61,9.45A120.94,120.94,0,0,0,13.89,372.1Q.1,380,.12,398.89L9,395a143.76,143.76,0,0,1,15.78,6.31,102.5,102.5,0,0,1,15.79,9.06,48.11,48.11,0,0,1,12.14,12.22A27.24,27.24,0,0,1,57.6,438.3v3.94a89.67,89.67,0,0,1-10.12,24q-6.88,11.44-13.76,23.25a242.92,242.92,0,0,0-12.14,23.64,59.38,59.38,0,0,0-5.27,24.44q0,7.08,6.89,11.82a55.76,55.76,0,0,0,16.59,7.48,99.63,99.63,0,0,0,19.43,3.55q9.7.78,15.38.79,29.13,0,46.14-13.79a145.08,145.08,0,0,0,29.54-32.71q12.54-18.92,23.88-39a107.24,107.24,0,0,1,29.15-33.49l80.94-23.64h1.62a37.18,37.18,0,0,1,6.48.78,34.34,34.34,0,0,0,5.66.79,85.1,85.1,0,0,1-3.64,25.22q-3.64,11.82-8.09,23.64t-8.1,23.25a76.08,76.08,0,0,0-3.64,23.25q49.36,0,77.31-10.25t42.49-25.61A88.92,88.92,0,0,0,415,445.39q6.06-18.92,12.54-35.86a103.23,103.23,0,0,1,17-29.55q10.52-12.6,34-16.55c-1.09-.52-3.78-1.7-8.1-3.55s-7-3.27-8.09-4.33a109.42,109.42,0,0,1-12.14-7.88V71.84c0-2.62-.69-7.88-2-15.76a165.06,165.06,0,0,0-6.07-24A85.55,85.55,0,0,0,431.18,10Q424.28.13,414.58.12ZM285.06,341.36a101.11,101.11,0,0,1-17.81-1.57,28.7,28.7,0,0,1-15.38-7.88,322.8,322.8,0,0,0,18.22-48.47q7.68-26.4,15-52.8T301.66,179a180.85,180.85,0,0,1,23.07-44.13V308.26l-8.1,31.53c-10.25,1.06-16.73,1.57-19.42,1.57Z"/>
</svg>
