<svg id="Layer_1" data-name="Layer 1" xmlns="http://www.w3.org/2000/svg" viewBox="0 0 420.37 529.51">
  <defs>
    <style>
      .cls-1 {
        fill: #ec008c;
      }
    </style>
  </defs>
  <title>Ampersand</title>
  <path class="cls-1" d="M321.49.5c6.39,0,15.24.53,26.29,1.57a233.11,233.11,0,0,1,32.74,5.52,99.53,99.53,0,0,1,27.86,11C416.09,23.25,420,29.28,420,36.5a15.84,15.84,0,0,1-3.19,9.7,70.07,70.07,0,0,1-7.26,8.25,93.26,93.26,0,0,0-7.3,7.9A14.71,14.71,0,0,0,399,72c0,2.11.26,3.43.81,4-.36,3.35-18.55,22.58-54.07,57.17A305.39,305.39,0,0,1,290.81,119H267.25c-2.21,0-5.69,1.43-10.65,4.37a125.14,125.14,0,0,0-15,10.66c-5,4.12-10.07,8.5-15,13a73.28,73.28,0,0,0-10.56,11.47.23.23,0,0,0,0,.14c0,.49-.12,2.25-.41,5.89-.27,3.31-.4,6.1-.4,8.3,0,9.49,4.11,18,12.22,25.4s18.17,13.45,30,18.17c11.26,4.7,24.3,14.23,38.78,28.32s17.12,29.84,8,47c-8.08,16.7-24.48,25.17-48.76,25.17-1.45,0-2.94,0-4.43-.09-7.11-.53-13.65-.79-19.44-.79h-51c-5.8,0-12.21.26-19,.79A98.82,98.82,0,0,0,142.93,320a37.8,37.8,0,0,0-14.26,7.14,15.87,15.87,0,0,0-5.75,12.8,30.38,30.38,0,0,0,.4,4.37,33.6,33.6,0,0,1,.41,3.51.26.26,0,0,0,.13.23c39.77,19.89,106.52,36.6,198.4,49.67h0a.24.24,0,0,0,.22-.14c16.6-32.85,37.23-50.84,61.33-53.45a32.37,32.37,0,0,1,3.6-.21c6.28,0,11.08,2.12,14.25,6.29,7.12,9.36,6.47,29.48-1.94,59.84-4.3,39.62-10.16,69.75-17.43,89.54s-16,29.7-26.17,29.7a17.35,17.35,0,0,1-3.86-.45c-11.81-2.61-24.47-5.79-37.62-9.46-12.94-3.59-27.24-7.83-42.5-12.61-15-4.15-30.35-9.06-45.72-14.57-16.41-5.89-31.64-11.43-46.55-16.94-23.63-8.36-46.5-17.51-68-27.18a584.77,584.77,0,0,1-57-29.15c-16.35-9.65-29.68-19.31-39.62-28.73S.38,372.12.38,364.34a181.37,181.37,0,0,1,4.85-40.13A144.35,144.35,0,0,1,21,284.08a122.57,122.57,0,0,1,28.68-33.42C61.44,241,76.11,234,93.27,229.82a.24.24,0,0,0,.2-.24V127.13c0-14.57,8.14-29.49,24.2-44.34s36.09-28.66,59.44-40.94a401.74,401.74,0,0,1,74.43-29.93c26-7.58,49.59-11.42,70-11.42m0-.25q-30.76,0-70,11.43A400.06,400.06,0,0,0,177,41.62q-35.22,18.52-59.5,41T93.22,127.13V229.58Q67.3,235.9,49.5,250.46A122.13,122.13,0,0,0,20.77,284,143.78,143.78,0,0,0,5,324.15,180.81,180.81,0,0,0,.12,364.34q0,11.82,15,26t39.67,28.76a579.53,579.53,0,0,0,57.06,29.16q32.37,14.6,68,27.19,23.47,8.69,46.55,17T272.11,507q22.65,7.08,42.5,12.6t37.64,9.46a17.16,17.16,0,0,0,3.91.46q30.9,0,43.85-119.46,18.39-66.41-12.56-66.41a32.9,32.9,0,0,0-3.63.21q-36.42,4-61.52,53.59Q183.88,377.76,124,347.79a33.8,33.8,0,0,0-.41-3.54,30,30,0,0,1-.4-4.34,15.6,15.6,0,0,1,5.66-12.61A37.47,37.47,0,0,1,143,320.21a97.77,97.77,0,0,1,18.62-3.15q10.11-.78,19-.79h51q8.9,0,19.43.79c1.51.06,3,.09,4.44.09q36.75,0,49-25.31,13.75-26-8.09-47.29t-38.86-28.37q-17.81-7.1-30-18.12t-12.14-25.22c0-2.09.12-4.85.4-8.28s.41-5.38.41-5.91a72,72,0,0,1,10.52-11.42q7.29-6.69,15-13a124.46,124.46,0,0,1,15-10.64q7.29-4.32,10.52-4.33h23.48a305.29,305.29,0,0,0,55,14.19Q400,80.64,400,75.91c-.54-.52-.81-1.84-.81-4a14.43,14.43,0,0,1,3.24-9.45,96.59,96.59,0,0,1,7.28-7.88A69.6,69.6,0,0,0,417,46.35a16.06,16.06,0,0,0,3.24-9.85q0-11-11.74-18.12a99.5,99.5,0,0,0-27.93-11A232,232,0,0,0,347.8,1.83Q331.2.25,321.49.25Z"/>
</svg>
