<svg id="Layer_1" data-name="Layer 1" xmlns="http://www.w3.org/2000/svg" viewBox="0 0 147.6 153.52">
  <defs>
    <style>
      .cls-1 {
        fill: #ec008c;
      }
    </style>
  </defs>
  <title>Asterisk</title>
  <path class="cls-1" d="M101.16.5c8.42,0,14,2,16.51,5.94,2.74,4.26,2.06,11-2,19.89-5.1,10.8-6.38,18.33-3.81,22.39,1.54,2.43,4.46,3.66,8.68,3.66a31.69,31.69,0,0,0,5.11-.47,18.86,18.86,0,0,1,2.66-.2,13.66,13.66,0,0,1,10.08,4.16c6.2,6.31,9.17,20,8.83,40.71,0,11.44-2.3,20.54-6.83,27a9,9,0,0,1-7.74,4.08c-4.48,0-10.34-2.59-17.4-7.67-4.71-4-8.6-6-11.56-6-5,0-7.47,5.54-7.47,16.45,0,7.58-1.91,13.34-5.68,17.11s-9.51,5.69-17.07,5.69c-1.43,0-2.94-.07-4.52-.2-12.74,0-20-6.82-21.61-20.27-1.51-13.29-15.16-20-40.57-20-1.79,0-3.66,0-5.57.1,0-2.15-.14-6.47-.4-13.54C.52,92.69.38,87.79.38,85.55V66.63c0-5.12.39-6.59.73-6.91a.24.24,0,0,0,.07-.16c.76-7.42,5.22-11,13.63-11a49.1,49.1,0,0,1,12,1.8,38.45,38.45,0,0,0,6.9.73c4.55,0,7.68-1.27,9.32-3.76,2.36-3.6,1.62-9.86-2.18-18.58-4-11.06-4.58-18.73-1.71-22.83,1.69-2.41,4.64-3.63,8.76-3.63,6.15,0,13.09-.13,20.65-.4,7.76-.25,17.16-.65,27.94-1.18C98.12.56,99.7.5,101.16.5m0-.25q-2.22,0-4.71.18-16.2.8-27.92,1.18c-7.83.28-14.71.4-20.65.4q-17,0-7.28,26.79,9.59,22-6.91,22a37.06,37.06,0,0,1-6.85-.73,48.91,48.91,0,0,0-12-1.8Q2.09,48.28.93,59.54q-.81.8-.81,7.09V85.55q0,3.15.41,13.79t.4,13.79c2-.07,4-.11,5.82-.11q38.07,0,40.32,19.81,2.43,20.5,21.86,20.49c1.57.13,3.08.2,4.52.2q23,0,23-23.05,0-16.2,7.22-16.2,4.36,0,11.4,6,10.73,7.73,17.56,7.73a9.21,9.21,0,0,0,7.94-4.18q6.87-9.85,6.88-27.19.75-45.12-19.16-45.12a19.53,19.53,0,0,0-2.7.2,31.13,31.13,0,0,1-5.07.47q-16.77,0-4.64-25.69Q127.82.25,101.16.25Z"/>
</svg>
