<svg id="Layer_1" data-name="Layer 1" xmlns="http://www.w3.org/2000/svg" viewBox="0 0 839.69 834.04">
  <defs>
    <style>
      .cls-1 {
        fill: #ec008c;
      }
    </style>
  </defs>
  <title>At_Sign	</title>
  <path class="cls-1" d="M684.14.5A75.78,75.78,0,0,1,712.38,6,87,87,0,0,1,737,20.93a77.31,77.31,0,0,1,17.75,22.39A60.72,60.72,0,0,1,761.6,72c0,.42-1.92,2.17-19.68,9.22-13.18,5.24-29.73,11.69-50.59,19.7-20.16,7.75-42.4,16.38-68,26.4-24.8,9.72-49.17,19.53-72.46,29.16-23.49,9.74-44.87,19.42-63.56,28.78s-32.39,17.61-40.49,24.44c-10.79,5-21.94,10.13-33.16,15.35a320,320,0,0,0-36.46,20.11,343.28,343.28,0,0,0-38.48,28.79,324.57,324.57,0,0,0-39.29,40.62C273.1,346.46,244.77,390,215.23,443.82c-15,27.21-26,53.22-32.41,77.29S174.19,568,176.34,589a.36.36,0,0,0,0,.11c29.57,45.55,55.75,73.15,77.83,82.06a174.08,174.08,0,0,0,64.85,12.62c42.44,0,81.67-3.18,116.61-9.46s73.1-16.89,113.37-31.53c40.85-14.65,74.65-34.82,100.47-59.95,12.9-12.56,24.34-24.5,34-35.48A216.12,216.12,0,0,0,707,515.8a275.9,275.9,0,0,1,18.2-24,205.79,205.79,0,0,1,16.17-16.92c5.11-4.72,10.28-9.09,15.36-13a172.24,172.24,0,0,0,15-13,240,240,0,0,1,30.73-25.59c10.09-7,22.49-10.55,36.84-10.59A237.11,237.11,0,0,1,821.52,503a370.15,370.15,0,0,1-46.11,81.12,458.61,458.61,0,0,1-64.72,69.7,671,671,0,0,1-73.61,56.32l-34,17.35c-7.48,5.2-17.82,12.09-30.75,20.49-14.19,9-21.35,13.67-21.9,14.22a.15.15,0,0,0,0,.06c-.54,1-1.78,4.24-3.65,9.49a105.5,105.5,0,0,0-4.47,16.58c-2.15,11.48-4.18,19.15-6,22.79s-5.45,5.38-10.71,5.38H507.67a112.29,112.29,0,0,1-16.15-1.18c-5.47-.8-8.66-1.18-9.75-1.18-1.68,0-6,.93-13,2.76-7.19,1.88-14.68,3.87-22.26,5.91-7.76,2.08-15,4.07-21.45,5.92s-10.51,2.74-12.08,2.74H399.2c-8.59,0-18.27.4-28.75,1.19s-21.76,1.18-33.58,1.18H288.3c-9.67,0-20.15-.4-31.15-1.18s-22.06-1.19-32.8-1.19H205.1c-.66-1.64-3-4.53-6.88-8.59s-7.44-7.11-10.16-8.71c-35.94-21.92-65.2-42.86-87-62.23s-39.28-40.78-52.16-63.77-22.82-49.49-29.52-78.74S6.3,544.74.4,504c8.06-5.29,18.52-17.21,31.1-35.45s25.28-39,37.65-61.48c6.44-11,12.84-22.26,19-33.5s12.3-22,18.21-31.91c6-10.09,11.58-19.1,16.59-26.79a147.87,147.87,0,0,1,14.15-18.89A1166.51,1166.51,0,0,1,250,182.48,852.11,852.11,0,0,1,380.3,88.34,692.92,692.92,0,0,1,526,24.13,535.06,535.06,0,0,1,684.14.5M586.19,195.94c4.74,0,8.76,2.48,11.93,7.38a64.39,64.39,0,0,1,7.66,17.27,191.38,191.38,0,0,1,4.45,18.89,87.91,87.91,0,0,1,1.62,12.17V468.37a.27.27,0,0,0,.08.19c4.3,3.67,7.22,5.74,8.9,6.32.61,1.09,2.5,2.26,5.74,3.57,2.48,1,4.47,1.85,5.75,2.42-11.48,2.17-19.85,6.66-24.88,13.36a83.85,83.85,0,0,0-12.18,23.31c-3,8.68-6,18.1-8.9,28a73.58,73.58,0,0,1-14.93,27.1c-7,8.08-17.27,14.81-30.66,20s-32.3,7.85-56.32,7.87a84,84,0,0,1,8.47-36.29,87.89,87.89,0,0,0,8.53-38.33.25.25,0,0,0-.25-.25,19.45,19.45,0,0,1-5.19-1.17,12.45,12.45,0,0,0-3.72-.72,3.92,3.92,0,0,0-1.73.34A79.51,79.51,0,0,1,479.27,528c-5.16,1.51-11,3.31-17.82,5.52-6.25,2-12.24,3.89-17.8,5.52a82.09,82.09,0,0,0-11.37,4l0,0a83.34,83.34,0,0,0-21.52,26.08c-5.59,10.37-11.58,20.71-17.8,30.73a116.1,116.1,0,0,1-21.81,25.95c-8.28,7.28-19.25,11-32.62,11a116.41,116.41,0,0,1-12.12-.79,64.55,64.55,0,0,1-14.11-3.14A44.08,44.08,0,0,1,300.59,627a10.62,10.62,0,0,1-4.75-8.87,52.41,52.41,0,0,1,3.62-18.82,148.4,148.4,0,0,1,8.89-18.88c3.72-6.69,7-12.74,10.12-18.52a83.11,83.11,0,0,0,7.31-18.58s0,0,0-.06v-3.16c0-9-4.12-16.33-12.25-21.87A110.06,110.06,0,0,0,290.82,506h-.09a.26.26,0,0,0-.22.13l-6,11v-8.48c0-9.31,3.23-16.14,9.6-20.28a80.58,80.58,0,0,1,22.6-9.82c8.9-2.44,17.62-5,25.91-7.49,8.66-2.63,15-7.44,18.77-14.31L479.57,232.84c3.72-7.79,9.95-14.12,18.51-18.8a120.48,120.48,0,0,1,28.68-11,221.77,221.77,0,0,1,31.93-5.51c10.77-1.05,20-1.58,27.5-1.58M493.91,454.43h17c1.65,0,6.42-.27,13.78-.79a.24.24,0,0,0,.23-.19l5.66-26.8a.07.07,0,0,0,0,0V280a.26.26,0,0,0-.18-.24h-.07a.25.25,0,0,0-.22.12A171.68,171.68,0,0,0,513.5,317c-4.57,14.13-8.66,28.85-12.14,43.76s-7.18,30-10.93,44.92a318.59,318.59,0,0,1-12.94,40.55.25.25,0,0,0,0,.25,20.42,20.42,0,0,0,16.38,8M684.14.25A532.83,532.83,0,0,0,525.89,23.89,690,690,0,0,0,380.18,88.12,848.36,848.36,0,0,0,249.85,182.3,1161.34,1161.34,0,0,0,136.93,295.78a147,147,0,0,0-14.17,18.91q-7.7,11.83-16.59,26.8T88,373.41q-9.32,16.95-19,33.49a716,716,0,0,1-37.64,61.47Q12.26,496,.12,503.83,9,565.3,19.15,609.44t29.54,78.8q19.44,34.69,52.22,63.84t87,62.26Q192,816.7,198,823c4.05,4.2,6.34,7.1,6.88,8.67h19.43q16.18,0,32.79,1.19T288.3,834h48.57q17.79,0,33.59-1.18t28.74-1.19H413q2.43,0,12.14-2.75T446.56,823q11.71-3.15,22.26-5.91c7-1.84,11.33-2.75,12.95-2.75q1.61,0,9.71,1.18a111.52,111.52,0,0,0,16.19,1.18h17.81c5.39,0,9-1.85,10.93-5.52s3.91-11.3,6.07-22.85a104.12,104.12,0,0,1,4.45-16.55q2.84-7.89,3.64-9.46.81-.8,21.86-14.18,19.43-12.61,30.76-20.49l34-17.34A667.37,667.37,0,0,0,710.85,654a456.56,456.56,0,0,0,64.76-69.74A369,369,0,0,0,821.75,503a236.15,236.15,0,0,0,17.81-90.62q-21.85,0-37.24,10.63a241.52,241.52,0,0,0-30.76,25.62,169.52,169.52,0,0,1-15,13q-7.71,5.91-15.38,13A205.88,205.88,0,0,0,725,491.62a273.9,273.9,0,0,0-18.21,24,215.38,215.38,0,0,1-23.48,31.53q-14.57,16.55-34,35.46Q610.48,620.47,549,642.54q-60.72,22.07-113.33,31.52t-116.57,9.45a173,173,0,0,1-64.76-12.6q-33.2-13.39-77.71-82-6.48-63,38.86-145Q260,362.78,299.63,314.69a322.6,322.6,0,0,1,39.26-40.58,340.48,340.48,0,0,1,38.46-28.77,317.07,317.07,0,0,1,36.42-20.09Q431.58,217,447,209.88q12.15-10.23,40.48-24.43T551,156.68q35.21-14.56,72.45-29.15t68-26.41Q722.19,89.3,742,81.42T761.85,72A60.64,60.64,0,0,0,755,43.2a77,77,0,0,0-17.81-22.46,86.9,86.9,0,0,0-24.69-15A75.67,75.67,0,0,0,684.14.25ZM586.19,195.69q-11.34,0-27.52,1.58a220.67,220.67,0,0,0-32,5.52,119.94,119.94,0,0,0-28.73,11q-13,7.1-18.62,18.91L361.15,456.55q-5.67,10.24-18.61,14.18t-25.91,7.49A80.09,80.09,0,0,0,294,488.07q-9.72,6.31-9.72,20.49V518l6.48-11.82a109.36,109.36,0,0,1,22.67,12.21q12.14,8.28,12.14,21.67v3.16a82.68,82.68,0,0,1-7.29,18.52q-4.86,9.06-10.12,18.52a149.14,149.14,0,0,0-8.9,18.91,52.27,52.27,0,0,0-3.64,18.91,10.8,10.8,0,0,0,4.85,9.07,44.31,44.31,0,0,0,11.74,5.91,64.89,64.89,0,0,0,14.17,3.15,115.16,115.16,0,0,0,12.14.79q20.22,0,32.78-11a116.1,116.1,0,0,0,21.86-26q9.3-15,17.81-30.74a82.55,82.55,0,0,1,21.45-26,79.92,79.92,0,0,1,11.33-3.94c5.39-1.58,11.34-3.41,17.81-5.52s12.41-3.94,17.81-5.52a79.57,79.57,0,0,0,11.33-3.94,3.83,3.83,0,0,1,1.62-.31,12,12,0,0,1,3.64.71,20,20,0,0,0,5.27,1.18,87.32,87.32,0,0,1-8.5,38.22,83.81,83.81,0,0,0-8.5,36.65q36.42,0,56.66-7.88t30.76-20.1a73.46,73.46,0,0,0,15-27.19q4.44-15,8.9-28a83.2,83.2,0,0,1,12.14-23.24q7.7-10.25,25.5-13.4c-1.09-.52-3.24-1.44-6.47-2.76s-5.14-2.49-5.67-3.55c-1.62-.51-4.59-2.62-8.9-6.3V251.65a87.94,87.94,0,0,0-1.62-12.22A192.18,192.18,0,0,0,606,220.52a64.53,64.53,0,0,0-7.69-17.34q-4.85-7.49-12.14-7.49ZM493.91,454.18a20.1,20.1,0,0,1-16.19-7.88,316.85,316.85,0,0,0,12.95-40.58q5.65-22.47,10.93-44.92t12.14-43.74a169.78,169.78,0,0,1,16.6-37V426.6l-5.67,26.8c-7.56.53-12.14.78-13.76.78Z"/>
</svg>
