<svg id="Layer_1" data-name="Layer 1" xmlns="http://www.w3.org/2000/svg" viewBox="0 0 505.37 569.24">
  <defs>
    <style>
      .cls-1 {
        fill: #ec008c;
      }
    </style>
  </defs>
  <title>B</title>
  <path class="cls-1" d="M242.16.38c16.06,0,34.69,3.83,55.36,11.41a284.23,284.23,0,0,1,59,29.92c18.51,12.28,34.29,26.05,46.9,40.93s19,29.79,19,44.37V229.46a.24.24,0,0,0,.14.22A189.79,189.79,0,0,1,480.78,271C496.85,288,505,309.77,505,335.85c0,1.52-.25,4.65-.8,9.82-.54,4.88-.81,8.18-.82,9.81-15,26.63-34.2,49.13-57,66.86A397.48,397.48,0,0,1,372,468a677.33,677.33,0,0,1-83.35,32.69c-28.85,9.19-57.32,18.61-84.62,28l-16.16,7.86c-4.45.54-7,.79-8,.79s-3.58-.25-8-.79c-1.13-.55-3.83-2-8.05-4.31-4.4-2.4-7.09-3.57-8.21-3.57-11.88,0-21.33,2.13-28.06,6.34a139.85,139.85,0,0,0-18.65,13.81,212.2,212.2,0,0,1-17.39,13.78c-5.88,4.15-13.73,6.26-23.33,6.26-4.79,0-11.15-2.38-18.89-7.06A165.6,165.6,0,0,1,26.6,545.29,127.46,127.46,0,0,1,8,525.62C3,518.89.38,513.37.38,509.22c0-1.1.13-3.14.4-5.88a18.5,18.5,0,0,1,1.16-5.76A148.19,148.19,0,0,0,57,436.83a177.44,177.44,0,0,0,18.65-78.92c0-4.76-1.39-8.66-4.12-11.59a90.67,90.67,0,0,0-8.93-8.3c-3.26-2.65-6.25-5.29-8.89-7.87a13.45,13.45,0,0,1-4-10.06c0-3.6,2.3-8.06,6.82-13.24a109.63,109.63,0,0,1,16.16-14.94c6-4.6,12.43-9.11,19-13.38s11.64-7.38,15.37-9.45a.28.28,0,0,0,.11-.13L180.06,79.81a.29.29,0,0,0,0-.09,28.18,28.18,0,0,1,.4-3.51,31.4,31.4,0,0,0,.41-4.37,16.14,16.14,0,0,0-2.88-9.6c-1.9-2.63-3.78-5.25-5.67-7.88s-3.78-5.25-5.66-7.89-2.79-5.95-2.79-10.09c0-7.24,3.23-13.27,9.61-17.93a76.21,76.21,0,0,1,22.19-11A143.16,143.16,0,0,1,221.55,2,189.33,189.33,0,0,1,242.16.38m-8.09,230.11a138.37,138.37,0,0,0,29.19-3.55,122.73,122.73,0,0,0,30-10.66,79.86,79.86,0,0,0,23.55-18.18,37.49,37.49,0,0,0,9.78-25.39c0-2.06-.14-4.77-.41-8.29-.25-3.1-.4-5.3-.4-5.89a.27.27,0,0,0,0-.12,64.35,64.35,0,0,0-8.13-11.47c-3.76-4.44-7.85-8.82-12.16-13a139.65,139.65,0,0,0-12.16-10.66c-3.87-3-6.57-4.38-8.25-4.38H266.45a.25.25,0,0,0-.25.25A78.37,78.37,0,0,1,261,148.58c-3.54,8.74-7.35,17.22-11.32,25.21a247,247,0,0,0-10.94,25.63c-3.23,8.93-4.87,19.3-4.87,30.82a.25.25,0,0,0,.25.25M179.83,418.85h0a464.09,464.09,0,0,0,113-22.87,527.92,527.92,0,0,0,105.69-48.1.22.22,0,0,0,.12-.21,28,28,0,0,1,.4-3.51,31.53,31.53,0,0,0,.41-4.37c0-5.29-1.52-9.59-4.52-12.78a27.86,27.86,0,0,0-11.43-7.16,66.84,66.84,0,0,0-15-3.17c-5.46-.52-10.37-.78-14.59-.78-16.13,0-34.79.39-55.46,1.18a246,246,0,0,0-59.56,9.46C220,332,203.93,341.07,191,353.4s-19.5,30.3-19.5,53.37v3.94a.25.25,0,0,0,0,.12,28.59,28.59,0,0,0,8.21,8,.23.23,0,0,0,.11,0M242.16.12A189.25,189.25,0,0,0,221.52,1.7a142,142,0,0,0-25.9,5.52,76,76,0,0,0-22.27,11q-9.71,7.09-9.71,18.13,0,6.32,2.83,10.24c1.89,2.64,3.77,5.26,5.67,7.88s3.77,5.26,5.67,7.88a15.88,15.88,0,0,1,2.83,9.46,32.93,32.93,0,0,1-.4,4.33,31.2,31.2,0,0,0-.41,3.55L107,268.86q-5.69,3.17-15.38,9.46t-19,13.39a109.13,109.13,0,0,0-16.19,15q-6.89,7.89-6.88,13.4a13.59,13.59,0,0,0,4,10.24q4.05,4,8.91,7.88a93,93,0,0,1,8.9,8.28c2.69,2.89,4,6.7,4,11.42a176.35,176.35,0,0,1-18.62,78.81,147.22,147.22,0,0,1-55,60.68,18.51,18.51,0,0,0-1.21,5.91c-.28,2.9-.41,4.87-.41,5.91q0,6.33,7.69,16.55a127.88,127.88,0,0,0,18.62,19.71A165.8,165.8,0,0,0,49.1,562q11.73,7.08,19,7.09c9.72,0,17.53-2.11,23.48-6.31A212.74,212.74,0,0,0,109,549a138.77,138.77,0,0,1,18.62-13.79q10.11-6.32,27.93-6.3c1.07,0,3.76,1.18,8.09,3.54s7,3.81,8.1,4.34c4.31.52,7,.79,8.09.79s3.77-.27,8.1-.79l16.18-7.88q41.29-14.19,84.6-28a675.85,675.85,0,0,0,83.37-32.7,396.08,396.08,0,0,0,74.48-45.71q34.4-26.79,57.06-67c0-1.58.27-4.85.81-9.85s.81-8.28.81-9.85q0-39.41-24.28-65a188.88,188.88,0,0,0-58.28-41.37V127q0-22.07-19-44.53t-46.95-41a283.26,283.26,0,0,0-59.09-29.95Q266.44.13,242.16.12Zm-8.09,230.12q0-17.33,4.85-30.73a246,246,0,0,1,10.93-25.61q6.08-12.21,11.33-25.22t5.27-29.55h18.61q2.43,0,8.1,4.33A140.61,140.61,0,0,1,305.3,134.1q6.46,6.32,12.14,13a65.19,65.19,0,0,1,8.1,11.43c0,.53.12,2.5.4,5.91s.41,6.18.41,8.27a37.06,37.06,0,0,1-9.72,25.22,79.08,79.08,0,0,1-23.47,18.13,122.37,122.37,0,0,1-30,10.64,138,138,0,0,1-29.14,3.54ZM179.83,418.6a19.14,19.14,0,0,1-4.45-3.55,18.86,18.86,0,0,1-3.64-4.34v-3.94q0-34.66,19.42-53.19t47.76-26.8a244.9,244.9,0,0,1,59.5-9.45q31.15-1.18,55.45-1.18c4.31,0,9.17.27,14.57.78a65.8,65.8,0,0,1,15,3.16,27.6,27.6,0,0,1,11.33,7.09q4.44,4.72,4.45,12.61a32.93,32.93,0,0,1-.4,4.33,31.2,31.2,0,0,0-.41,3.55,525.73,525.73,0,0,1-105.64,48.07q-57.06,18.92-112.92,22.86Z"/>
</svg>
