<svg id="Layer_1" data-name="Layer 1" xmlns="http://www.w3.org/2000/svg" viewBox="0 0 445.47 592.89">
  <defs>
    <style>
      .cls-1 {
        fill: #ec008c;
      }
    </style>
  </defs>
  <title>Backslash</title>
  <path class="cls-1" d="M.38.5A54.6,54.6,0,0,1,22.69,5.21a53.19,53.19,0,0,0,22,4.75h4a.2.2,0,0,0,.11,0c1-.47,3.34-1.73,8.11-4.34,4.26-2.33,6.94-3.51,8-3.51.26,0,1,.4,3.46,3.07,1.93,2.15,3.39,3.71,4.45,4.72L178,136c3.77,4.73,7.62,7.94,11.43,9.53a66.46,66.46,0,0,0,11,3.56,52.79,52.79,0,0,1,9.66,3.13c2.91,1.29,5.73,3.79,8.4,7.4,21.47,31.9,39.85,62.91,54.62,92.18s31.8,59.26,50.61,89.07c12.94,20.48,26.28,40.76,39.67,60.3s26,39.78,37.22,59.87a458.48,458.48,0,0,1,29.13,62.62,262.38,262.38,0,0,1,15.34,69H429.15a321.07,321.07,0,0,1-38-2c-10.67-1.29-25.05-3.27-42.76-5.89-1.63-3.67-5-10.52-10.07-20.38-5.32-10.33-10.9-20.93-16.6-31.53-6-11.12-11.85-21.46-17.41-30.74s-9.84-16-12.55-19.72q-6.17-9-18.86-27.53l-1.38-2q-13.77-20.1-31.57-46.1L215.4,370.93l-12.7-18.55c-13.93-20.34-26-38-36.83-54-11.58-17-22.2-32.54-31.57-46.11-9-13-16.16-23.4-20.64-29.94a705.64,705.64,0,0,1-38-67c-12.38-24.61-24.09-47.15-34.82-67-3.24-5.26-7.19-12.28-11.73-20.87C24.45,58.76,20,50.14,15.73,41.9S7.79,26.21,4.8,19.85C1,11.67.38,10,.38,9.71V.5M.12.25V9.71q0,.79,4.46,10.24T15.51,42Q22,54.64,28.86,67.63T40.6,88.51q16.18,30,34.81,67a701.34,701.34,0,0,0,38,67q6.48,9.45,20.64,29.95t31.57,46.1q17.4,25.62,36.84,54l37.23,54.38L271.3,453q13.76,20.1,20.24,29.55,4,5.54,12.55,19.71T321.49,533q8.89,16.54,16.59,31.52T348.2,585q26.71,4,42.91,5.92a320.2,320.2,0,0,0,38,2h16.19A260.64,260.64,0,0,0,430,523.54a456.72,456.72,0,0,0-29.14-62.66q-17-30.33-37.24-59.89T323.92,340.7q-28.35-44.93-50.59-89t-54.64-92.21q-4.06-5.5-8.5-7.48a53,53,0,0,0-9.72-3.16,66.53,66.53,0,0,1-10.93-3.54q-5.67-2.37-11.33-9.46L73,9.71Q71.35,8.14,68.53,5c-1.9-2.09-3.11-3.15-3.65-3.15q-1.62,0-8.09,3.54c-4.33,2.37-7,3.82-8.1,4.34h-4A52.75,52.75,0,0,1,22.79,5,54.71,54.71,0,0,0,.12.25Z"/>
</svg>
