<svg id="Layer_1" data-name="Layer 1" xmlns="http://www.w3.org/2000/svg" viewBox="0 0 393.66 380.1">
  <defs>
    <style>
      .cls-1 {
        fill: #ec008c;
      }
    </style>
  </defs>
  <title>C</title>
  <path class="cls-1" d="M321.49.38c9.06,0,17.45,3.16,24.93,9.39s11.25,14.12,11.25,23.43c-.09.22-1.17,1.08-9.15,4.12-6.38,2.43-14.41,5.35-23.87,8.67-9.73,3.43-20.49,7.41-32,11.83-11.33,4.36-22.77,8.87-34,13.39-11,4.46-21,8.84-29.56,13-8.77,4.28-14.88,7.9-18.67,11.07-9.12,7.83-20.15,18.31-32.8,31.15a403.71,403.71,0,0,0-36,42.19,258.29,258.29,0,0,0-28,46.93c-7.27,16-10.14,31.29-8.52,45.46,2.7,17.34,8.32,28.53,16.72,33.28s19.7,7.12,33.72,7.12c14.54,0,29.69-3.05,45-9.08a297.07,297.07,0,0,0,45.78-22.87c15-9.13,29.31-18.81,42.52-28.78,12.44-9.39,24.17-18.31,34.86-26.53.25,1.1,1.32,2.56,3.26,4.44,2.22,2.17,3.86,3.23,5,3.23a27.83,27.83,0,0,0,16.34-5.17,116.06,116.06,0,0,0,14.19-11.85A118.13,118.13,0,0,1,376.68,193a28.57,28.57,0,0,1,16.6-5.08,109,109,0,0,1-8.07,41.42A153,153,0,0,1,363.79,266a239.14,239.14,0,0,1-29.92,31.49,322.49,322.49,0,0,1-34.35,26.36l-16.21,7.9c-3.29,2.13-8,5.17-14.17,9.06s-9.6,6.19-10.15,6.73-1.26,2-2.09,4.43a59.83,59.83,0,0,0-2,7.52,61,61,0,0,1-2,7.46c-1,2.88-1.61,3.89-2,4.23s-1.28.72-3.87.72h-8.1a69.72,69.72,0,0,1-7.66-.39c-2.57-.28-3.95-.4-4.48-.4a34.54,34.54,0,0,0-6.53,1.19c-3.18.77-6.59,1.7-10.14,2.76-3.39,1-6.79,1.95-10.1,2.76a39.92,39.92,0,0,1-5.61,1.17h-6.47c-3.75,0-8.13.13-13.37.4-4.95.26-10.26.39-15.78.39H136.12c-4.47,0-9.37-.13-14.56-.39-5.45-.27-10.63-.4-15.39-.4H97.41a21.22,21.22,0,0,0-3.62-4.26,20.4,20.4,0,0,0-4.5-3.59c-17.18-9.92-31.06-19.45-41.24-28.34a119.1,119.1,0,0,1-24.64-29.1A130.11,130.11,0,0,1,9.27,277.86C6.05,264.54,3.07,248.3.4,229.59c3.76-2.15,8.63-7.45,14.5-15.75s11.85-17.71,17.82-28,11.87-20.22,17.81-29.94,10.78-16.66,14.54-20.85a608.75,608.75,0,0,1,53-51.59,370.22,370.22,0,0,1,61.07-42.92,353.79,353.79,0,0,1,68-29.14,251,251,0,0,1,74.4-11M348.2,277c4.47,0,6.73-2.73,6.73-8.13s-2.26-8.13-6.73-8.13-6.72,2.74-6.72,8.13,2.26,8.13,6.72,8.13M321.49.12a250.39,250.39,0,0,0-74.47,11,352.08,352.08,0,0,0-68,29.16,368.64,368.64,0,0,0-61.11,42.95,605.52,605.52,0,0,0-53,51.62q-5.67,6.31-14.57,20.88T32.5,185.72q-8.91,15.36-17.8,28T.13,229.46q4,28.36,8.9,48.46A130.06,130.06,0,0,0,23.2,313.78a118.58,118.58,0,0,0,24.68,29.16q15.38,13.41,41.29,28.37a20.63,20.63,0,0,1,4.45,3.55,19.88,19.88,0,0,1,3.64,4.33h8.91q7.27,0,15.38.4c5.39.27,10.24.39,14.57.39h22.66c5.39,0,10.65-.12,15.79-.39s9.57-.4,13.36-.4h6.47a43.87,43.87,0,0,0,5.67-1.18c3.24-.79,6.6-1.7,10.12-2.76s6.88-2,10.11-2.76a34.53,34.53,0,0,1,6.48-1.18c.53,0,2,.14,4.45.39a67.32,67.32,0,0,0,7.69.4H247c2.15,0,3.5-.26,4-.79a13.49,13.49,0,0,0,2-4.33,61.13,61.13,0,0,0,2-7.49,59.85,59.85,0,0,1,2-7.49q1.22-3.54,2-4.33t10.12-6.7q9.3-5.91,14.16-9.06L299.63,324A322.41,322.41,0,0,0,334,297.63,238.67,238.67,0,0,0,364,266.1a152.66,152.66,0,0,0,21.45-36.64,108.94,108.94,0,0,0,8.09-41.77,28.81,28.81,0,0,0-17,5.12,116.2,116.2,0,0,0-14.17,11.82,115.15,115.15,0,0,1-14.17,11.82A27.39,27.39,0,0,1,332,221.58q-1.62,0-4.85-3.16c-2.17-2.09-3.24-3.67-3.24-4.73q-15.39,11.84-35.21,26.8a510.88,510.88,0,0,1-42.5,28.76,296.63,296.63,0,0,1-45.74,22.86q-23.07,9.06-44.92,9.06-21.06,0-33.6-7.09T105.36,261q-2.43-21.29,8.5-45.31a256.47,256.47,0,0,1,27.93-46.9,400.72,400.72,0,0,1,36-42.16q19-19.31,32.78-31.13,5.66-4.73,18.62-11t29.55-13q16.58-6.69,34-13.4t32-11.82q14.56-5.11,23.88-8.67t9.31-4.34q0-14.17-11.34-23.64T321.49.12ZM348.2,276.74q-6.48,0-6.47-7.88T348.2,261q6.48,0,6.48,7.88t-6.48,7.88Z"/>
</svg>
