<svg id="Layer_1" data-name="Layer 1" xmlns="http://www.w3.org/2000/svg" viewBox="0 0 276.28 281.59">
  <defs>
    <style>
      .cls-1 {
        fill: #ec008c;
      }
    </style>
  </defs>
  <title>Caret</title>
  <path class="cls-1" d="M62.71.5A83.65,83.65,0,0,1,74.15,2.07c5.57,1,11.53,2.07,18.22,3.16,6.43,1,12.55,2.24,18.19,3.54,6.82,1.58,10.48,2.46,11.7,2.75,9.1,3.65,19.28,11.58,30.27,23.57A415.06,415.06,0,0,1,186.1,77.62c11.24,16.17,22.41,33.92,33.18,52.79s20.34,36.87,28.73,54,15.11,32.46,20.22,46.08,7.68,23.36,7.68,29.07v3.77c-10.64,4.13-20.23,6.63-28.51,7.41s-18,1.18-28.71,1.18c-7.46,0-13.73.13-18.64.39l-.58,0c-4.5,0-8.59-3-12.16-9a102.83,102.83,0,0,1-7.26-12.19c-3.2-6-6.47-12.46-9.71-19.29-3-6.35-6.14-12.85-9.31-19.31s-5-10.2-6.07-12.22a.26.26,0,0,0-.21-.14h0a.25.25,0,0,0-.21.11L106,271.21a.23.23,0,0,0,0,.14c0,.1-.19.65-3.87,1.73-2.7.79-5.83,1.58-9.29,2.36L82.23,277.8A40.87,40.87,0,0,1,73.79,279c-2.64,0-7.41.13-14.58.39-6.42.25-13.49.5-22.26.79q-11.75.4-22.26.79c-6.5.25-11.44.39-14.31.39,0-5.25,1.4-13.36,4-24.12,2.69-11,6.36-23.3,10.93-36.62s10-27.19,16.18-41.36a409.14,409.14,0,0,1,19.42-39,190.72,190.72,0,0,1,20.21-29.52c6.66-7.79,13-12,18.85-12.52a.25.25,0,0,0,.23-.25c0-11-1.51-20.43-4.47-28.07s-6.14-15.12-9.32-22.08c-3.31-7.26-6.44-14.55-9.3-21.66S62.73,10.32,62.71.5M62.46.25q0,15,4.45,26t9.31,21.67Q81.07,58.57,85.53,70T90,98q-8.92.8-19,12.61a190.2,190.2,0,0,0-20.24,29.55,408.6,408.6,0,0,0-19.43,39Q22,200.43,15.1,220.52T4.17,257.16q-4.05,16.56-4,24.43c2.7,0,7.56-.12,14.58-.39s14.43-.52,22.26-.79,15.24-.52,22.26-.79,11.86-.39,14.57-.39a40.75,40.75,0,0,0,8.5-1.18l10.52-2.37q5.25-1.17,9.31-2.36c2.69-.79,4-1.44,4-2l48.57-70.93q1.6,3.17,6.07,12.22T170.12,232q4.84,10.25,9.71,19.3a100.73,100.73,0,0,0,7.29,12.22c3.61,6,7.74,9.08,12.35,9.08l.6,0q7.27-.39,18.62-.39,16.17,0,28.73-1.18t28.74-7.49v-3.94q0-8.67-7.69-29.16t-20.24-46.1q-12.55-25.61-28.73-54t-33.19-52.8a411.72,411.72,0,0,0-33.6-42.55q-16.59-18.12-30.35-23.65c-2.17-.51-6.07-1.44-11.74-2.76S98.88,6,92.41,5,79.86,2.88,74.19,1.83A77.46,77.46,0,0,0,62.46.25Z"/>
</svg>
