<svg id="Layer_1" data-name="Layer 1" xmlns="http://www.w3.org/2000/svg" viewBox="0 0 186.43 422.66">
  <defs>
    <style>
      .cls-1 {
        fill: #ec008c;
      }
    </style>
  </defs>
  <title>Colon</title>
  <path class="cls-1" d="M86.74.5c11.23,0,22.9,2.91,34.7,8.64a128.21,128.21,0,0,1,31.91,22,123.88,123.88,0,0,1,23.43,30.28c6.15,11.23,9.28,22.45,9.28,33.37s-2.3,20-6.84,27.05a55.37,55.37,0,0,1-17.73,17.26,75.23,75.23,0,0,1-25,9.43,150.49,150.49,0,0,1-28.69,2.75c-12.85,0-25.6-4.36-37.91-13S47.54,120.66,40,111.28c0-2.07-.13-6.44-.4-13.71-.27-6.65-.41-11.55-.41-13.78,0-7.83.41-16.71,1.21-26.38A108.48,108.48,0,0,1,46.1,30.28,50.51,50.51,0,0,1,60.19,9.11C66.6,3.4,75.53.5,86.74.5M47.88,271.6c11.23,0,22.91,2.91,34.7,8.64a128.08,128.08,0,0,1,31.92,22,124.22,124.22,0,0,1,23.42,30.27c6.16,11.23,9.28,22.46,9.28,33.38s-2.3,20-6.84,27.05a55.27,55.27,0,0,1-17.73,17.26,75.15,75.15,0,0,1-25,9.43,150.49,150.49,0,0,1-28.69,2.75c-12.84,0-25.59-4.36-37.9-13S8.69,391.76,1.18,382.38c0-2.07-.13-6.44-.4-13.71-.26-6.65-.4-11.55-.4-13.78,0-7.83.4-16.71,1.21-26.38a108.47,108.47,0,0,1,5.65-27.13,50.63,50.63,0,0,1,14.1-21.18c6.4-5.71,15.33-8.6,26.54-8.6M86.74.25Q69.75.25,60,8.92A50.6,50.6,0,0,0,45.86,30.2a108.35,108.35,0,0,0-5.67,27.19Q39,72,39,83.79q0,3.15.41,13.79c.26,7.09.4,11.7.4,13.79q11.33,14.19,29.95,27.19t38.05,13a149.05,149.05,0,0,0,28.73-2.76,74.81,74.81,0,0,0,25.1-9.45A55.57,55.57,0,0,0,179.43,122q6.85-10.64,6.88-27.19T177,61.33A123.49,123.49,0,0,0,153.52,31a128.22,128.22,0,0,0-32-22.06Q103.73.25,86.74.25ZM47.88,271.35q-17,0-26.71,8.67A50.67,50.67,0,0,0,7,301.3a107.92,107.92,0,0,0-5.67,27.18Q.13,343.07.12,354.89q0,3.15.41,13.79c.27,7.09.4,11.7.4,13.79q11.34,14.17,30,27.19t38,13a149.15,149.15,0,0,0,28.74-2.76,74.76,74.76,0,0,0,25.09-9.45,55.37,55.37,0,0,0,17.81-17.34q6.87-10.65,6.88-27.19t-9.31-33.5a123.83,123.83,0,0,0-23.47-30.34,128.09,128.09,0,0,0-32-22.06q-17.81-8.67-34.81-8.67Z"/>
</svg>
