<svg id="Layer_1" data-name="Layer 1" xmlns="http://www.w3.org/2000/svg" viewBox="0 0 221.24 311.54">
  <defs>
    <style>
      .cls-1 {
        fill: #ec008c;
      }
    </style>
  </defs>
  <title>Comma</title>
  <path class="cls-1" d="M220.86.5c0,20.79-3.42,40.16-10.1,57.58a264.34,264.34,0,0,1-25.88,50.39A477.59,477.59,0,0,1,150.09,155c-12.76,15.06-25.16,30.31-36.84,45.32-5.92,7.85-11.92,18.07-17.83,30.39s-12.35,24.67-19,36.63a150.16,150.16,0,0,1-22.62,31.07c-8.29,8.58-18.17,12.93-29.37,12.93-4.24,0-9.26-.26-15.36-.79C3.21,310,.37,306.2.37,298.93V295C2,290.85,4,284.89,6.43,277.34s4.89-15.19,7.29-22.46c2.32-7,4.63-13.79,6.88-20.09,2.14-6,3.5-9.56,4-10.63,1.09-2.63,3.81-8.06,8.09-16.13s9.43-17.49,15.78-28.76c6-10.71,12.55-22.51,19.43-35.07,6.77-12.4,13.31-24.07,19.42-34.68s11.68-20,16.59-28c4.82-7.81,8.08-12.84,9.72-15,9.15-17.29,14.06-29.52,14.6-36.35s1.33-11.1,2.4-12.9c.78-1.34,3.38-2,7.71-2,1.25,0,2.66.06,4.19.17,1,.08,2.19.12,3.5.12,7.82,0,21.37-1.37,40.24-4.06.25,0,.93,0,4.24-4,2.84-3.47,3.64-3.85,3.85-3.85h.06c2.2-.53,6.68-1.19,13.33-2C214.24.93,218.64.53,220.86.5m.25-.25q-3.24,0-13.35,1.18c-6.76.79-11.21,1.46-13.36,2-.54,0-1.9,1.32-4.05,3.94s-3.51,3.94-4,3.94q-28.45,4.05-40.24,4.06-2,0-3.48-.12c-1.55-.11-3-.17-4.21-.17q-6.67,0-7.93,2.14Q128.82,20,128,30.2T113.45,66.45q-2.43,3.15-9.71,15t-16.6,28q-9.31,16.16-19.42,34.68T48.29,179.14Q39,195.7,32.5,207.91t-8.09,16.15q-.8,1.58-4.05,10.64t-6.88,20.1q-3.64,11-7.28,22.46T.12,295v3.94q0,11,8.91,11.82t15.38.79q17,0,29.55-13a149.8,149.8,0,0,0,22.66-31.13q10.11-18.14,19-36.65t17.81-30.34q17.8-22.86,36.83-45.31a477.3,477.3,0,0,0,34.81-46.5A263.47,263.47,0,0,0,211,58.17Q221.11,31.78,221.11.25Z"/>
</svg>
