<svg id="Layer_1" data-name="Layer 1" xmlns="http://www.w3.org/2000/svg" viewBox="0 0 423.61 528.26">
  <defs>
    <style>
      .cls-1 {
        fill: #ec008c;
      }
    </style>
  </defs>
  <title>D</title>
  <path class="cls-1" d="M268.68.37c2.72,10.43,8.73,19.28,17.85,26.32A160.54,160.54,0,0,1,309.16,47.5c15,17.78,29.75,36.7,43.7,56.25a433.36,433.36,0,0,1,36.4,60.95A377.3,377.3,0,0,1,413.93,230a263.74,263.74,0,0,1,9.3,70,157.77,157.77,0,0,1-9.69,53,246.06,246.06,0,0,1-26.29,52.27A298.2,298.2,0,0,1,348,452.81a303.45,303.45,0,0,1-48.13,38.92,255.43,255.43,0,0,1-53,26.33,160.75,160.75,0,0,1-54.15,9.83,537.24,537.24,0,0,1-56.23-3.53A283.26,283.26,0,0,1,73.47,510.2C53.34,503.16,35.94,493,21.75,480S.38,449.81.38,429c0-1.59.27-4.9.8-9.81.55-5.14.81-8.26.81-9.82,8.54-23.87,18.47-50.33,29.53-78.64s22.85-57.31,35.21-86.55S92.24,185.92,106,157.62s27.78-54.79,41.68-78.68a.31.31,0,0,0,0-.13c0-1.08.14-3.16.4-5.86.28-3,.41-4.91.41-5.94a22.23,22.23,0,0,0-1.64-9.15c-1.14-2.47-2.2-4.66-3.24-6.7q-1.22-2.32-2.41-4.67l-.83-1.62c-1.06-2-1.59-5.17-1.59-9.33,0-8.77,2.94-14.25,8.73-16.29a64.65,64.65,0,0,1,18.95-3.53,102.81,102.81,0,0,0,17.45-2A6.05,6.05,0,0,0,188.09,11c1.37-2.25,1.43-5.82.16-10.62h80.43M143.4,433c19.92,0,39.57-5.3,58.41-15.74a200.24,200.24,0,0,0,50.65-40.13,217.27,217.27,0,0,0,36.07-53.49c9.14-19.34,13.78-38.15,13.78-55.92a290,290,0,0,0-2-29.49,194.07,194.07,0,0,0-7.7-36.58,109,109,0,0,0-15.42-31.51c-6.5-8.94-15-13.47-25.3-13.47-4.33,0-7.65.68-9.84,2a14.58,14.58,0,0,0-5.35,6A49.87,49.87,0,0,0,233,175a113.84,113.84,0,0,1-4.84,14.11L131,409.1a.36.36,0,0,0,0,.1,34.17,34.17,0,0,1-.4,3.51,30.62,30.62,0,0,0-.41,4.36,21.21,21.21,0,0,0,2.87,11.12c1.92,3.21,5.4,4.84,10.33,4.84M268.87.12H187.93c2.15,7.89.8,12.34-4.05,13.39a102.26,102.26,0,0,1-17.41,2,64.68,64.68,0,0,0-19,3.54q-8.91,3.15-8.9,16.53c0,4.2.53,7.35,1.62,9.44s2.15,4.2,3.23,6.3,2.15,4.32,3.24,6.68A21.88,21.88,0,0,1,148.26,67c0,1.06-.14,3-.4,5.91s-.41,4.86-.41,5.89q-21.06,36.19-41.69,78.7T66.5,244.07q-18.63,44.07-35.21,86.56T1.74,409.31q0,2.37-.81,9.84c-.54,5-.81,8.26-.81,9.84q0,31.47,21.46,51.15t51.8,30.29a281.9,281.9,0,0,0,63.14,14.17,532.63,532.63,0,0,0,56.26,3.54A160.42,160.42,0,0,0,247,518.3a254.94,254.94,0,0,0,53-26.36A301.51,301.51,0,0,0,348.2,453a295.84,295.84,0,0,0,39.26-47.61,244.41,244.41,0,0,0,26.31-52.32q9.72-27.15,9.71-53.12a263.52,263.52,0,0,0-9.3-70,376.24,376.24,0,0,0-24.69-65.31,431,431,0,0,0-36.43-61Q332,74.09,309.35,47.34a160,160,0,0,0-22.67-20.85Q272.91,15.87,268.87.12ZM143.4,432.78c-4.85,0-8.23-1.56-10.11-4.72a20.8,20.8,0,0,1-2.84-11,30.06,30.06,0,0,1,.41-4.32,35.14,35.14,0,0,0,.4-3.55l97.14-220A113,113,0,0,0,233.26,175a49.32,49.32,0,0,1,3.64-10.22,14.32,14.32,0,0,1,5.26-5.89c2.15-1.3,5.39-2,9.71-2q15.38,0,25.1,13.36a108.4,108.4,0,0,1,15.38,31.44A192,192,0,0,1,300,238.29a287.32,287.32,0,0,1,2,29.46q0,26.73-13.76,55.81a215.65,215.65,0,0,1-36,53.43,199.19,199.19,0,0,1-50.59,40.08q-28.35,15.72-58.29,15.71Z"/>
</svg>
