<svg id="Layer_1" data-name="Layer 1" xmlns="http://www.w3.org/2000/svg" viewBox="0 0 477.85 691.4">
  <defs>
    <style>
      .cls-1 {
        fill: #ec008c;
      }
    </style>
  </defs>
  <title>Dollar_Sign</title>
  <path class="cls-1" d="M344.71,2.09V17.62a109.1,109.1,0,0,1,.8,11.79v7.88a239.05,239.05,0,0,1-1.61,28.34c-1.1,9-2.46,18-4.05,26.78a.26.26,0,0,0,.07.22.25.25,0,0,0,.18.08h.05a118.92,118.92,0,0,1,22.61-2.36c13.37,0,26.94,4.89,40.33,14.53a182.05,182.05,0,0,1,36.78,35.81A216.7,216.7,0,0,1,467,185.55c6.92,15.56,10.45,29.23,10.5,40.63a28.88,28.88,0,0,1-10.18-1.56,24.2,24.2,0,0,1-6.81-3.9,59.89,59.89,0,0,0-5.29-4c-1.66-1.07-4.16-1.61-7.42-1.61a13.93,13.93,0,0,0-4.12.8l-.1.05c-1.11,1.08-2.76,3.76-4.91,7.95-2,3.9-3.06,6.42-3.24,7.67a59.06,59.06,0,0,1-19.85-10.9c-6.24-5.05-12.77-10.49-19.43-16.15A167.26,167.26,0,0,0,376.26,190a39.11,39.11,0,0,0-20.77-6.35,78.89,78.89,0,0,0-37.36,9.49.29.29,0,0,0-.13.18c-1.08,7.35-1.9,14.64-2.43,21.69s-.81,14.32-.81,21.69v4.73a.25.25,0,0,0,0,.12l5.63,10.19v3.88A115.93,115.93,0,0,1,316,287c-3,10.6-6.13,21.21-9.31,31.52a.26.26,0,0,0,.06.25c9.66,9.93,20.29,20.28,31.58,30.74a300.23,300.23,0,0,1,31.54,34.25,184.8,184.8,0,0,1,24.25,40.93c6.44,14.87,9.7,32.21,9.7,51.52,0,26.11-4.49,47.41-13.33,63.32a100.61,100.61,0,0,1-35.93,37.74c-15,9.13-32.42,15.49-51.72,18.88a408.92,408.92,0,0,1-60.68,5.9.26.26,0,0,0-.23.2c-5.92,26.12-13.67,47.71-23,64.16s-25.21,24.7-47.13,24.7c-2.68,0-8.39-.8-16.93-2.36a10.56,10.56,0,0,1-4.73-3.85c-1.56-2-2.09-3.81-1.58-5.3l17.81-67.78a.13.13,0,0,0,0-.06,20.91,20.91,0,0,1,.8-3.88c.53-2.1,1.34-5.26,2.43-9.46a.26.26,0,0,0,0-.19.25.25,0,0,0-.16-.11,217.54,217.54,0,0,1-66.31-24.8,220.15,220.15,0,0,1-53.77-43.29,193.68,193.68,0,0,1-36-57.85A183,183,0,0,1,.38,404,64,64,0,0,1,13,405.17c3.67.77,6.89,3.52,9.54,8.16a.25.25,0,0,0,.22.12.18.18,0,0,0,.1,0,17,17,0,0,0,9.85-11.19c1.57-5.06,3.2-10.5,4.86-16.16a56.06,56.06,0,0,1,6.45-14.51c2.63-4.11,7.74-6.19,15.17-6.19,5.28,0,12.16,5,20.45,14.88s17.87,21.87,28.73,35.85,23.13,28.72,36.84,44.15A258.72,258.72,0,0,0,189.4,500.1a.23.23,0,0,0,.14,0,.16.16,0,0,0,.1,0,.25.25,0,0,0,.15-.18c4-19.32,7.91-38.94,11.74-58.32,4-20.27,8.05-40.9,12.54-63.83a.24.24,0,0,0-.08-.24,183.13,183.13,0,0,1-37.59-42.89c-10.45-16.44-15.75-37.74-15.75-63.31a121.26,121.26,0,0,1,8.08-43.26A171.87,171.87,0,0,1,191,187.57a245.58,245.58,0,0,1,32.75-36.22,249.87,249.87,0,0,1,39.63-29.52.28.28,0,0,0,.12-.19c1.06-8.88,2.7-20,4.85-33.09S273,62.84,276,50.75a170,170,0,0,1,10.5-31.09c4-8.53,8.68-12.86,13.94-12.86a6.33,6.33,0,0,1,2.25.73c1.06,2.13,2.4,6.86,4,14s2.43,12.6,2.43,15.71a.26.26,0,0,0,.17.24h.08a.25.25,0,0,0,.2-.1,27.08,27.08,0,0,0,4.08-8.35L314,28q1.44-4.56,2.89-9.14a74.74,74.74,0,0,1,3.23-8.64c1-2.26,2.31-3.41,3.82-3.41a14,14,0,0,1,3.07.75l5.62,9.38a.2.2,0,0,0,.08.08c1.66,1.09,2.76,1.62,3.37,1.62s1.46-.54,2.6-1.65,2.33-3.56,3.71-7.59c1-3,1.8-5.41,2.34-7.3M260,524.57a65.62,65.62,0,0,0,15.44-2,57.56,57.56,0,0,0,15-5.94,46.15,46.15,0,0,0,11.8-9.51c3.26-3.7,4.92-8.53,4.92-14.35,0-12.58-2.6-24-7.72-34a117.36,117.36,0,0,0-19.87-27.64.27.27,0,0,0-.18-.08h-.07a.25.25,0,0,0-.18.19c-3.25,15.3-6.52,30.81-9.71,46.1-3.32,15.88-6.59,31.66-9.72,46.89a.26.26,0,0,0,.06.21.22.22,0,0,0,.19.09M345,.25c-.54,2.11-1.49,5.12-2.83,9.06s-2.57,6.44-3.64,7.49-1.9,1.58-2.43,1.58a8.34,8.34,0,0,1-3.24-1.58l-5.66-9.46a14.58,14.58,0,0,0-3.24-.79c-1.62,0-3,1.19-4.05,3.55a76.07,76.07,0,0,0-3.24,8.67Q315,23.9,313.4,29a26.63,26.63,0,0,1-4,8.28q0-4.73-2.43-15.76T302.87,7.34a6.76,6.76,0,0,0-2.43-.79q-8.1,0-14.16,13a169.06,169.06,0,0,0-10.53,31.13q-4.46,18.14-7.69,37.82t-4.85,33.1a249.09,249.09,0,0,0-39.67,29.56,244,244,0,0,0-32.78,36.25A171.39,171.39,0,0,0,168.5,228a121,121,0,0,0-8.1,43.35q0,38.63,15.79,63.44a182.54,182.54,0,0,0,37.64,42.95q-6.5,33.11-12.55,63.83t-11.74,58.32a257,257,0,0,1-44.11-39.8Q124.79,436.86,108.6,416T79.86,380.1q-12.56-15-20.64-15-11.36,0-15.38,6.31A55.83,55.83,0,0,0,37.36,386q-2.43,8.28-4.86,16.16a16.75,16.75,0,0,1-9.71,11q-4.07-7.08-9.71-8.27a63.83,63.83,0,0,0-13-1.18,182.41,182.41,0,0,0,13,68.56,192.69,192.69,0,0,0,36,57.92,218.87,218.87,0,0,0,53.83,43.35,216.56,216.56,0,0,0,66.38,24.82q-1.63,6.3-2.43,9.46a21.82,21.82,0,0,0-.81,3.94l-17.81,67.77q-.81,2.37,1.62,5.52a10.85,10.85,0,0,0,4.86,3.94q12.93,2.37,17,2.37,33.18,0,47.35-24.83t23.07-64.23a405.34,405.34,0,0,0,60.71-5.91q29.14-5.11,51.81-18.91a100.5,100.5,0,0,0,36-37.83q13.37-24,13.36-63.44,0-29.14-9.72-51.62a184.19,184.19,0,0,0-24.28-41,298.2,298.2,0,0,0-31.57-34.28q-17-15.75-31.57-30.74,4.86-15.75,9.31-31.52a115.73,115.73,0,0,0,4.45-31.52v-3.94L315,241.4v-4.73q0-11,.81-21.67t2.43-21.67a78.42,78.42,0,0,1,37.24-9.46,38.67,38.67,0,0,1,20.64,6.31A166.33,166.33,0,0,1,396,204.76q9.72,8.27,19.43,16.15a58.93,58.93,0,0,0,20.24,11c0-1,1.07-3.67,3.24-7.89s3.76-6.82,4.85-7.88a14.05,14.05,0,0,1,4-.78c3.24,0,5.67.53,7.28,1.57a59.76,59.76,0,0,1,5.27,3.94,23.9,23.9,0,0,0,6.88,3.94,29.14,29.14,0,0,0,10.52,1.58q0-17.33-10.52-41a215.88,215.88,0,0,0-27.12-44.92,181.45,181.45,0,0,0-36.83-35.86Q383,90.1,362.77,90.09a118.58,118.58,0,0,0-22.66,2.37q2.43-13.39,4.05-26.8a238.58,238.58,0,0,0,1.61-28.37V29.41A107.58,107.58,0,0,0,345,17.59V.25ZM260,524.32q4.86-23.64,9.71-46.89t9.72-46.1a117,117,0,0,1,19.83,27.58q7.68,15,7.69,33.89,0,8.68-4.86,14.19a45.86,45.86,0,0,1-11.73,9.45,56.54,56.54,0,0,1-15,5.91,64.75,64.75,0,0,1-15.38,2Z"/>
</svg>
