<svg id="Layer_1" data-name="Layer 1" xmlns="http://www.w3.org/2000/svg" viewBox="0 0 417.13 270.56">
  <defs>
    <style>
      .cls-1 {
        fill: #ec008c;
      }
    </style>
  </defs>
  <title>Double_Quote</title>
  <path class="cls-1" d="M416.76.5A200.68,200.68,0,0,1,412.31,40a310.56,310.56,0,0,1-12.13,42.91,246,246,0,0,1-19,40.55c-7.53,12.81-15.95,23.53-25.05,31.86l-127,115h-7.75a36.49,36.49,0,0,1,3.22-15.8,37.36,37.36,0,0,0,3.26-16.26.23.23,0,0,0-.14-.22,12.89,12.89,0,0,0-5-1.61.23.23,0,0,0-.11,0c-2.2,1.08-6.29,3.34-12.15,6.71-5.07,2.91-8.15,5.14-9.34,6.74v-6.13c0-.69.84-3.29,4.83-11.72,3.25-6.84,7.74-15.45,13.35-25.6,5.43-9.81,11.52-21,18.62-34.28,6.55-12.26,13.63-25.11,21-38.22,7.24-12.78,14.19-25.11,20.65-36.64s12.23-21.7,17-30a79.18,79.18,0,0,1,5.64-7.84c3.2-4.15,6.77-8.66,10.92-13.79s8.18-9.95,12.14-14.57c4.13-4.83,7.18-8.44,9.3-11,2.63-2.56,6.47-6.43,11.74-11.82C351.42,3.13,354.76.5,356.3.5h60.46M216,.5A200.68,200.68,0,0,1,211.56,40a310.56,310.56,0,0,1-12.13,42.91,244.82,244.82,0,0,1-19,40.55c-7.52,12.81-15.94,23.52-25,31.86l-127,115H20.61a36.64,36.64,0,0,1,3.21-15.8,37.21,37.21,0,0,0,3.27-16.26A.25.25,0,0,0,27,238a12.89,12.89,0,0,0-5-1.61.23.23,0,0,0-.11,0c-2.2,1.08-6.3,3.34-12.16,6.71-5.06,2.91-8.14,5.14-9.34,6.74v-6.13c0-.69.84-3.29,4.84-11.72,3.25-6.84,7.74-15.45,13.35-25.6,5.44-9.84,11.53-21,18.62-34.28,6.55-12.26,13.63-25.11,21-38.22,7.3-12.89,14.24-25.22,20.64-36.64,6.52-11.64,12.24-21.71,17-30a79.18,79.18,0,0,1,5.64-7.84c3.2-4.15,6.77-8.66,10.92-13.79s8.18-9.95,12.14-14.57c4.13-4.83,7.18-8.44,9.29-11,2.64-2.56,6.48-6.43,11.75-11.82,5-5.18,8.4-7.81,9.94-7.81H216M417,.25H356.3q-2.43,0-10.12,7.88c-5.14,5.26-9,9.2-11.74,11.82q-3.24,4-9.31,11T313,45.56q-6.08,7.5-10.93,13.8a78.81,78.81,0,0,0-5.66,7.88q-7.29,12.62-17,29.94t-20.65,36.65q-10.92,19.32-21,38.22t-18.62,34.28q-8.51,15.38-13.36,25.62t-4.85,11.82v7.09c.53-1.58,3.77-4.06,9.71-7.49s10-5.64,12.14-6.7a12.72,12.72,0,0,1,4.86,1.58,37,37,0,0,1-3.24,16.16,36.83,36.83,0,0,0-3.24,16.15h8.1L356.3,155.5q13.76-12.6,25.09-31.92a243.84,243.84,0,0,0,19-40.58,310.78,310.78,0,0,0,12.15-42.95A199.53,199.53,0,0,0,417,.25ZM216.26.25H155.55q-2.43,0-10.12,7.88T133.69,20q-3.24,4-9.31,11T112.24,45.56q-6.08,7.5-10.93,13.8a81.58,81.58,0,0,0-5.67,7.88q-7.27,12.62-17,29.94T58,133.83q-10.92,19.32-21,38.22T18.34,206.33Q9.84,221.71,5,232T.12,243.77v7.09c.54-1.58,3.77-4.06,9.72-7.49s10-5.64,12.14-6.7a12.77,12.77,0,0,1,4.86,1.58,37,37,0,0,1-3.24,16.16,36.83,36.83,0,0,0-3.24,16.15h8.1L155.55,155.5q13.75-12.6,25.09-31.92a243.84,243.84,0,0,0,19-40.58,310.78,310.78,0,0,0,12.15-42.95A200.27,200.27,0,0,0,216.26.25Z"/>
</svg>
