<svg id="Layer_1" data-name="Layer 1" xmlns="http://www.w3.org/2000/svg" viewBox="0 0 519.94 491.22">
  <defs>
    <style>
      .cls-1 {
        fill: #ec008c;
      }
    </style>
  </defs>
  <title>E</title>
  <path class="cls-1" d="M404.87.38c3.7,0,8.72.12,15.37.39,6.25.26,12.52.39,18.63.39,5.82,0,11.12.14,15.77.4,3.86.23,6.79.38,7.6.39l16,15.54a32.52,32.52,0,0,1-12.73,10.78,74.52,74.52,0,0,1-17.35,5.89c-6.12,1.3-12.25,2.36-18.19,3.15a92.59,92.59,0,0,0-16.22,3.55,43,43,0,0,0-17.1,8.33,155.29,155.29,0,0,0-13.78,12.63c-4.27,4.41-8.49,9.05-12.56,13.8A85.27,85.27,0,0,1,357,88.19c-6.43,4.7-15.53,8.53-27,11.38s-23.41,6.17-35.63,9.86a198.4,198.4,0,0,0-32.83,13c-9.74,5-15.78,12.1-17.93,21-.55,1.61-.55,4.7,0,9.18.51,4.29,1.17,9.06,2,14.59.81,5.26,1.62,10.16,2.43,14.58a63.6,63.6,0,0,1,1.21,9,.25.25,0,0,0,.25.25h2.44l113.31-7.88h16.17l11.85,1.15,8.39.82c7.92.77,16,1.57,23.87,2.36s17.42,2,28.65,3.54l24.08,23.44c-6.39,9.77-15,15.5-25.62,17a126.13,126.13,0,0,1-18.24,1.29,151,151,0,0,1-16.1-.89c-12.16-1.31-24.42-2.24-36.44-2.76-.92,0-1.85-.06-2.76-.06a54.47,54.47,0,0,0-30.15,8.75c-1.11.54-3.25,2.36-6.54,5.56L338,247.71l-6.16,6c-3.91,3.81-7.22,7.16-10.13,10.25-3.08,3.27-4.75,5-5.22,5.49-6.44,4.7-17.72,9.72-33.53,14.94s-32.2,11.2-48.58,17.73a327,327,0,0,0-44.15,21.3c-13,7.63-19.55,16.06-19.55,25,0,4.33,2,6.8,5.88,7.34a72.39,72.39,0,0,0,9.75.79,573.93,573.93,0,0,0,94.75-7.89,579.93,579.93,0,0,1,95.48-7.87h21c4.2,0,11.79.25,23.87.78,11.79.54,24.18,1.2,36.83,2s25.13,1.71,36.82,2.76c11.34,1,19.3,1.82,23.66,2.34a6.89,6.89,0,0,0,.41,1.83,6.21,6.21,0,0,1,.39,1.89c0,1.36-1.86,3.51-10.74,6.06-7.2,2.08-16.72,4.33-28.32,6.7q-15.75,3.19-34.46,7.06l-4,.82c-14.07,2.9-27.83,5.95-40.88,9.06s-25.36,6.57-36.45,10.25-19.08,7.39-23.94,11.06a117.57,117.57,0,0,0-17.85,14.22c-5.54,5.39-11.12,10.69-16.58,15.76A187,187,0,0,1,288.56,448,80.34,80.34,0,0,1,268,458.55c-5.92,1.56-16.12,3.95-30.34,7.09s-29.76,6.31-46.14,9.45c-15.05,2.88-30.27,5.85-46.55,9.07-14.44,2.86-24.79,4.85-30.71,5.9-1.18,0-4.06.14-8.11.4-4.49.26-7.32.39-8.89.39-8.08,0-17.72-1.32-28.68-3.93a134.37,134.37,0,0,1-31.51-11.8,110.48,110.48,0,0,1-25.84-18.48C4,449.63.38,441.34.38,432a24.42,24.42,0,0,1,7.21-17.55,125,125,0,0,1,16.56-14.16c6.1-4.39,12.5-8.76,19-13a43.34,43.34,0,0,0,14.65-15A82.73,82.73,0,0,0,70,336.66a328.14,328.14,0,0,0,1.21-36.28c-.27-12-.13-24,.41-35.84a73.59,73.59,0,0,1,10.5-34.18c.49-1,3-2.4,7.56-4.22s7.42-3,8.55-3.57c6.46-4.72,13.56-12.43,21.1-22.91a287.94,287.94,0,0,0,21.07-34.32,301.33,301.33,0,0,0,16.2-36.28c4.31-11.8,6.49-21.51,6.49-28.85V96.27a.25.25,0,0,0-.08-.18,38.16,38.16,0,0,1-3.2-4.29c-1.43-2.1-3.06-4.41-5.27-7.5-1.68-2.33-3.4-4.78-5.25-7.48-2-2.88-2.39-3.87-2.39-4.19a33.87,33.87,0,0,0-.41-3.59,30.91,30.91,0,0,1-.4-4.29,31.44,31.44,0,0,1,.4-4.3c.26-1.76.39-2.86.41-3.44a420.1,420.1,0,0,1,62.17-29.46,380.23,380.23,0,0,1,62.29-17.33,523.71,523.71,0,0,1,64.73-7.88c22.15-1.3,45.29-2,68.79-2m0-.26q-35.64,0-68.81,2A518,518,0,0,0,271.3,10,379.73,379.73,0,0,0,209,27.31a419,419,0,0,0-62.33,29.56,34.75,34.75,0,0,1-.4,3.54,30.54,30.54,0,0,0-.41,4.34,30.05,30.05,0,0,0,.41,4.33c.26,1.85.4,3,.4,3.55s.81,2,2.43,4.33,3.36,4.87,5.26,7.49,3.64,5.12,5.26,7.49a37.53,37.53,0,0,0,3.24,4.33v3.94q0,11.06-6.47,28.77a301.75,301.75,0,0,1-16.19,36.25,287.19,287.19,0,0,1-21,34.28q-11.34,15.78-21.05,22.85-1.63.79-8.5,3.55t-7.69,4.33a73.67,73.67,0,0,0-10.52,34.29q-.81,17.73-.4,35.85a327.7,327.7,0,0,1-1.22,36.26Q68.11,354.78,57.6,372.1a43.06,43.06,0,0,1-14.57,15q-9.72,6.31-19,13A124.94,124.94,0,0,0,7.41,414.26,24.59,24.59,0,0,0,.12,432q0,14.19,10.93,24.83A110.53,110.53,0,0,0,37,475.34a133.23,133.23,0,0,0,31.57,11.82q16.57,3.94,28.73,3.94c1.62,0,4.58-.14,8.91-.4s7-.39,8.09-.39q8.89-1.57,30.76-5.91t46.55-9.06q24.68-4.72,46.14-9.46t30.35-7.09a80.22,80.22,0,0,0,20.65-10.64,186.37,186.37,0,0,0,17.81-14.58q8.49-7.87,16.59-15.76a116.08,116.08,0,0,1,17.81-14.19q7.27-5.5,23.88-11t36.42-10.25q19.83-4.72,40.88-9.06l38.45-7.88q17.4-3.54,28.34-6.7c7.28-2.09,10.92-4.2,10.92-6.3a6.64,6.64,0,0,0-.4-2,6.06,6.06,0,0,1-.41-2q-6.48-.78-23.88-2.37t-36.83-2.76q-19.43-1.17-36.83-2t-23.88-.78h-21A576.36,576.36,0,0,0,281,348.46a571.73,571.73,0,0,1-94.71,7.88,71.23,71.23,0,0,1-9.72-.79q-5.67-.78-5.66-7.09,0-13.4,19.42-24.83a326,326,0,0,1,44.12-21.28q24.69-9.84,48.57-17.73t33.59-15c.53-.52,2.29-2.37,5.27-5.52s6.33-6.56,10.11-10.24l10.53-10.25q4.84-4.72,6.47-5.51a54,54,0,0,1,30-8.73c.91,0,1.82,0,2.75.06q18.21.79,36.42,2.76a151.71,151.71,0,0,0,16.13.89,126.58,126.58,0,0,0,18.28-1.29q16.19-2.37,25.9-17.34l-24.28-23.64q-17-2.37-28.74-3.55l-23.88-2.36-20.24-2H365.2l-113.32,7.88h-2.43a62.91,62.91,0,0,0-1.22-9.06q-1.22-6.69-2.43-14.58t-2-14.58c-.54-4.46-.54-7.49,0-9.06q3.22-13.4,17.81-20.89a196.24,196.24,0,0,1,32.78-13q18.22-5.51,35.62-9.85t27.12-11.43a85,85,0,0,0,13.35-12.61Q376.54,68.69,383,62a155.33,155.33,0,0,1,13.76-12.61,42.53,42.53,0,0,1,17-8.27A91.34,91.34,0,0,1,430,37.56q8.9-1.19,18.21-3.15a75,75,0,0,0,17.41-5.91,32.81,32.81,0,0,0,12.95-11L462.34,1.7c-.54,0-3.11-.12-7.69-.39s-9.85-.4-15.78-.4S426.72.79,420.25.52s-11.61-.4-15.38-.4Z"/>
</svg>
