<svg id="Layer_1" data-name="Layer 1" xmlns="http://www.w3.org/2000/svg" viewBox="0 0 332.14 247.71">
  <defs>
    <style>
      .cls-1 {
        fill: #ec008c;
      }
    </style>
  </defs>
  <title>Equals</title>
  <path class="cls-1" d="M175,.38,328.72,35h.06c.19,0,.76.22,1.8,2.23a9,9,0,0,1,1.18,3.83c0,5.12-2.94,9-8.75,11.59a32.08,32.08,0,0,1-13,2.8,34,34,0,0,1-5.46-.46h0a.25.25,0,0,0-.23.15.25.25,0,0,0,.07.29l15.75,13c-18.33,2.55-35.16,4.78-50,6.62s-29.16,3.29-42.89,4.33-27.44,1.85-40.87,2.36-28,.79-43.71.79c-14.49,0-26.87-.79-36.79-2.36S87.33,75.92,80.39,72A58.79,58.79,0,0,1,61.85,55.14,180.65,180.65,0,0,1,45.79,27.82c16.06-8.3,35.3-15,57.19-20S145.41.38,163.64.38H175M129.61,164.3,283.39,199h.05c.2,0,.77.22,1.81,2.23a9,9,0,0,1,1.18,3.83c0,5.12-2.94,9-8.75,11.59a31.91,31.91,0,0,1-13,2.8,34,34,0,0,1-5.46-.46h0a.25.25,0,0,0-.23.15.25.25,0,0,0,.07.29l15.75,13c-18.39,2.56-35.22,4.79-50,6.62s-29.25,3.43-42.9,4.73S154.34,246,141,246.54s-28,.79-43.71.79c-14.49,0-26.87-.79-36.79-2.36s-18.47-4.6-25.4-9a71.59,71.59,0,0,1-18.56-17.27,164.28,164.28,0,0,1-16-26.93c16.06-8.3,35.3-15,57.19-20s42.43-7.48,60.66-7.48h11.3M175,.12H163.64q-27.52,0-60.71,7.49T45.46,27.71A180.68,180.68,0,0,0,61.65,55.29,58.73,58.73,0,0,0,80.26,72.23q10.51,5.91,25.5,8.28t36.83,2.36q23.47,0,43.72-.79t40.88-2.36q20.64-1.57,42.9-4.33t50.59-6.7l-16.19-13.4a34.5,34.5,0,0,0,5.5.46,32,32,0,0,0,13.12-2.82Q332,49,332,41.11a9.07,9.07,0,0,0-1.21-3.94c-.81-1.58-1.49-2.37-2-2.37L175,.12ZM129.64,164.05H118.31q-27.53,0-60.71,7.48T.12,191.63a164.64,164.64,0,0,0,16.19,27.19,71.64,71.64,0,0,0,18.62,17.34q10.51,6.69,25.5,9.06t36.83,2.36q23.47,0,43.72-.79T181.85,244q20.66-2,42.91-4.73t50.59-6.7l-16.19-13.4a34.5,34.5,0,0,0,5.5.46,32,32,0,0,0,13.12-2.82q8.89-3.94,8.9-11.82a9.14,9.14,0,0,0-1.21-3.95c-.81-1.57-1.49-2.36-2-2.36l-153.8-34.67Z"/>
</svg>
