<svg id="Layer_1" data-name="Layer 1" xmlns="http://www.w3.org/2000/svg" viewBox="0 0 279.52 548.75">
  <defs>
    <style>
      .cls-1 {
        fill: #ec008c;
      }
    </style>
  </defs>
  <title>Exclamation</title>
  <path class="cls-1" d="M279.15.5a284.44,284.44,0,0,1-9.71,74.16,541.47,541.47,0,0,1-24.68,70.89c-9.93,23.25-21,46.57-32.77,69.34s-23,46.27-33.18,69.72c-2.71,4.22-6,12.46-9.74,24.49q-2.12,6.16-4.39,12.83l-2.49,7.26c-2.38,6.95-5,14.24-7.69,21.66-4.59,11.79-21.58,17.76-50.5,17.76-8,0-17-.46-26.9-1.36-15.79-9.38-26.84-18.82-32.86-28.06s-7.14-18.48-3.41-27.56c6.63-17.89,13.3-35.79,19.84-53.2C66.8,242,71.3,230.24,74,223.37c9.12-22.45,19.47-47,30.76-72.89A400.88,400.88,0,0,1,145.63,78a224.16,224.16,0,0,1,56.2-55.5C223.21,8,249.23.54,279.15.5m-237.74,435a78.7,78.7,0,0,1,29.85,6.29,110.41,110.41,0,0,1,27.87,16.51,98.45,98.45,0,0,1,20.59,22.79c5.34,8.35,8,16.79,8,25.09,0,7.79-2,14.5-6,19.95a42,42,0,0,1-15.69,12.92,88.24,88.24,0,0,1-21.8,7.07,131,131,0,0,1-25,2.36c-11.25,0-22.23-3.3-32.65-9.81A134.16,134.16,0,0,1,.38,517.92V497.53c0-5.8.27-12.42.8-19.69A63.31,63.31,0,0,1,6,457.43a39.16,39.16,0,0,1,12.07-15.66c5.32-4.15,13.17-6.25,23.32-6.25M279.4.25q-45.34,0-77.71,22.07a223.13,223.13,0,0,0-56.26,55.56,398.2,398.2,0,0,0-40.88,72.5q-17,39-30.76,72.9-4.07,10.25-13.36,35.07T40.6,311.54q-11.34,27.6,36.43,56,14.88,1.37,27,1.36,43.74,0,50.74-17.91,4-11,7.69-21.68t6.88-20.09Q175,291.06,179,284.75,194.4,249.28,212.21,215T245,145.65a538.5,538.5,0,0,0,24.69-70.93A283.31,283.31,0,0,0,279.4.25Zm-238,435q-15.39,0-23.48,6.3A39.31,39.31,0,0,0,5.79,457.34,63.16,63.16,0,0,0,.93,477.83q-.81,11-.81,19.7V518A134.09,134.09,0,0,0,26.43,538.9q15.8,9.87,32.79,9.85a131.55,131.55,0,0,0,25.09-2.36,88.59,88.59,0,0,0,21.86-7.09,42.11,42.11,0,0,0,15.78-13Q128,518,128,506.2q0-12.6-8.09-25.22a98.09,98.09,0,0,0-20.64-22.86,110.9,110.9,0,0,0-27.93-16.55,79,79,0,0,0-29.95-6.3Z"/>
</svg>
