<svg id="Layer_1" data-name="Layer 1" xmlns="http://www.w3.org/2000/svg" viewBox="0 0 489.18 466">
  <defs>
    <style>
      .cls-1 {
        fill: #ec008c;
      }
    </style>
  </defs>
  <title>F</title>
  <path class="cls-1" d="M425.91.38a118,118,0,0,1,20.6,2A79.27,79.27,0,0,1,467.09,9a43.5,43.5,0,0,1,15.69,12.54,29.93,29.93,0,0,1,6,18.76A17.39,17.39,0,0,1,484,52a63.42,63.42,0,0,1-11.69,10.21c-4.68,3.21-9.31,6.25-13.76,9.05a68.06,68.06,0,0,0-10.92,8.27,13.34,13.34,0,0,1-3.92.76c-7.46,0-11.08-2.76-11.08-8.42a39.11,39.11,0,0,1,.8-7.83,40.15,40.15,0,0,0,.82-7.93.29.29,0,0,0-.07-.18.26.26,0,0,0-.18-.07H413.77a.25.25,0,0,0-.25.25c0,2.7.27,4.55.84,5.63a6.76,6.76,0,0,1,.78,3c0,2.5-2.67,4.81-7.91,6.85-22,6.27-42.16,10.25-59.86,11.81S313.59,86.17,299.62,87A292.18,292.18,0,0,0,262,91.3a58.45,58.45,0,0,0-28.86,14.24c-8.1,7.37-15.2,18.4-21.11,32.8s-11.1,34.43-15.4,59.55a.49.49,0,0,0,0,.12c1.65,4.81,5.12,7.65,10.32,8.44a42.46,42.46,0,0,0,6.42.52,33.36,33.36,0,0,0,7.31-.79l-7.84,15.28a.25.25,0,0,0,0,.25.24.24,0,0,0,.21.12c6.82,0,18.44-.14,33.6-.4,16.09-.26,33.11-.39,50.59-.39,18,0,35.42.13,51.8.39,15.41.26,27.17.4,34,.4,2.06,0,6.82.25,15,.78A236.43,236.43,0,0,1,423,225.76a126.42,126.42,0,0,1,25,7.08c7.71,3.11,13,7.3,15.64,12.47a23.86,23.86,0,0,1,.8,3.85c0,4.1-1.33,7.08-3.94,8.86a21.91,21.91,0,0,1-9.2,3.5,48.24,48.24,0,0,1-7.15.53c-1.23,0-2.48-.05-3.73-.14a54.62,54.62,0,0,1-8.86-1.17h-.13c-5.57,1.62-14.15,3.88-25.49,6.7s-24,6-38.86,9.85c-14.34,3.69-29.59,7.4-45.32,11s-31,7.35-45.34,11c-16.65,4.29-28.51,7.33-38.45,9.85-11.6,3-19.81,5.16-25.09,6.7-4.43,1.09-11.79,3.21-21.87,6.31a150,150,0,0,0-30,13,94,94,0,0,0-24.35,19.36c-6.48,7.36-8.14,15.63-5,24.56-2.14,3.12-5.93,8.38-11.25,15.65-6,8.14-11.53,15.74-17,23.24-5.93,8.13-11.65,16.09-17,23.65-5.8,8.18-9.3,13.16-11.36,16.18a19.15,19.15,0,0,1-3.59,4.27,20.29,20.29,0,0,1-4.33,3.48c-8.59-.52-16.47-.91-23.41-1.18a60.36,60.36,0,0,1-18.14-3.14,23,23,0,0,1-11.62-8.57c-2.65-3.87-4-9.79-4-17.59a146.84,146.84,0,0,1,10.1-53.5,284.21,284.21,0,0,0,15-53.64.24.24,0,0,0-.06-.2.22.22,0,0,0-.19-.09H.4c.53-5.57,1.32-9.43,2.38-11.47a72.81,72.81,0,0,1,13.31-19.63,120.91,120.91,0,0,1,16.56-14.16c5.85-4.14,11.85-8.52,17.81-13a108.52,108.52,0,0,0,17-16.19.09.09,0,0,0,0,0c2.6-5.06,7.37-14.6,14.58-29.16,7.85-15.89,15.13-30.72,22.26-45.32,7.7-15.78,15.06-31,21.86-45.31,6.7-14.1,11.46-24.18,14.14-29.92,1.1-1.6,2.56-5.36,4.49-11.49s3.09-10.1,3.64-12.23a.13.13,0,0,0,0-.06V75c0-.27,0-.91-5-4.53-3.22-2.35-6.89-5.14-10.92-8.27-4.32-3.37-7.89-6.2-10.93-8.67s-4.84-4.19-5.48-5.23c2.59-1.51,6.9-3.85,13.54-7.36s13.62-7,21-10.63a209.19,209.19,0,0,1,22.64-9.45c7.5-2.6,14-3.93,19.34-3.93h4a21.31,21.31,0,0,1,4.34,3.48,19.85,19.85,0,0,1,3.59,4.27.27.27,0,0,0,.22.14H237.3c15.64,0,29.28-.13,41.7-.4,12.63-.26,25.57-.65,38.45-1.18s26.64-1.31,40.89-2.37,30.12-2.32,49-3.94a.22.22,0,0,0,.17-.09.24.24,0,0,0,.05-.2C406,7.91,407.53,3,412.21,2A64.89,64.89,0,0,1,425.91.38m0-.26A65.25,65.25,0,0,0,412.15,1.7q-7.27,1.59-4.85,15-27.54,2.37-49,3.94T317.44,23Q298,23.78,279,24.16t-41.69.4H204.92a19.87,19.87,0,0,0-3.64-4.34,21,21,0,0,0-4.45-3.55h-4.05q-8.1,0-19.43,3.94a210.75,210.75,0,0,0-22.66,9.46q-11.34,5.52-21.05,10.64T115.88,48.2c.53,1.06,2.43,2.89,5.67,5.51s6.88,5.52,10.93,8.67,7.69,5.91,10.92,8.28,4.86,3.82,4.86,4.33v4.73q-.81,3.16-3.64,12.22t-4.45,11.42q-4.06,8.69-14.17,30t-21.86,45.31Q92.4,202.68,81.88,223.94T67.31,253.1a107.64,107.64,0,0,1-17,16.15q-8.91,6.71-17.81,13a120.91,120.91,0,0,0-16.59,14.18A72.77,72.77,0,0,0,2.55,316.15Q.93,319.3.12,328H34.93a283.16,283.16,0,0,1-15,53.59A146.24,146.24,0,0,0,9.84,435.15q0,11.82,4.05,17.73a23.15,23.15,0,0,0,11.73,8.67,60.76,60.76,0,0,0,18.22,3.15q10.5.41,23.47,1.18a19.56,19.56,0,0,0,4.45-3.55A19.59,19.59,0,0,0,75.41,458q3.23-4.72,11.33-16.16t17-23.64q8.9-12.21,17-23.25t11.33-15.76q-4.86-13.4,4.86-24.43a93.55,93.55,0,0,1,24.28-19.31,150,150,0,0,1,29.95-13q15.38-4.72,21.86-6.3,8.08-2.37,25.09-6.7t38.45-9.85q21.45-5.5,45.34-11t45.33-11q21.43-5.5,38.85-9.85t25.5-6.7a54.88,54.88,0,0,0,8.9,1.18c1.27.09,2.51.14,3.75.14a48.44,48.44,0,0,0,7.18-.53,21.89,21.89,0,0,0,9.31-3.55q4-2.75,4-9.06a24.33,24.33,0,0,0-.81-3.94q-4.06-7.87-15.79-12.61a125.2,125.2,0,0,0-25.09-7.09A235.26,235.26,0,0,0,398,222.36c-7.83-.51-12.83-.78-15-.78q-9.7,0-34-.4t-51.8-.39q-26.71,0-50.6.39t-33.59.4l8.09-15.77a32.2,32.2,0,0,1-7.78.91,41.81,41.81,0,0,1-6.38-.51c-5.14-.79-8.5-3.55-10.12-8.28q6.46-37.83,15.38-59.5t21-32.7A58,58,0,0,1,262,91.54a292.59,292.59,0,0,1,37.64-4.33q21-1.18,47.76-3.55T407.3,71.84c5.38-2.09,8.09-4.46,8.09-7.09a7,7,0,0,0-.81-3.15,13.2,13.2,0,0,1-.81-5.52H434A39.7,39.7,0,0,1,433.2,64a38.4,38.4,0,0,0-.81,7.88q0,8.68,11.33,8.67a13.52,13.52,0,0,0,4-.79,66.86,66.86,0,0,1,10.93-8.27q6.87-4.33,13.76-9.07A63.36,63.36,0,0,0,484.2,52.14a17.61,17.61,0,0,0,4.85-11.82A30.1,30.1,0,0,0,483,21.4,43.86,43.86,0,0,0,467.2,8.79,79,79,0,0,0,446.56,2.1a117,117,0,0,0-20.65-2Z"/>
</svg>
