<svg id="Layer_1" data-name="Layer 1" xmlns="http://www.w3.org/2000/svg" viewBox="0 0 147.58 151.56">
  <defs>
    <style>
      .cls-1 {
        fill: #ec008c;
      }
    </style>
  </defs>
  <title>Full_Stop</title>
  <path class="cls-1" d="M47.88.5c11.23,0,22.91,2.91,34.7,8.64a128.26,128.26,0,0,1,31.92,22,124.08,124.08,0,0,1,23.42,30.28c6.16,11.23,9.28,22.45,9.28,33.37s-2.3,20-6.84,27.05a55.16,55.16,0,0,1-17.73,17.26,74.93,74.93,0,0,1-25,9.43,149.69,149.69,0,0,1-28.69,2.75c-12.84,0-25.59-4.36-37.9-13S8.68,120.66,1.18,111.28c0-2.08-.13-6.45-.4-13.71C.52,90.91.38,86,.38,83.79c0-7.83.4-16.7,1.21-26.38A108.57,108.57,0,0,1,7.24,30.28,50.53,50.53,0,0,1,21.34,9.11C27.74,3.4,36.67.5,47.88.5m0-.25q-17,0-26.71,8.67A50.67,50.67,0,0,0,7,30.2,107.91,107.91,0,0,0,1.34,57.39Q.13,72,.13,83.79c0,2.1.12,6.7.4,13.79s.4,11.7.4,13.79q11.34,14.19,30,27.19t38,13a149.15,149.15,0,0,0,28.74-2.76,74.76,74.76,0,0,0,25.09-9.45A55.37,55.37,0,0,0,140.57,122q6.87-10.64,6.88-27.19t-9.31-33.49A123.64,123.64,0,0,0,114.67,31a127.86,127.86,0,0,0-32-22.07Q64.88.25,47.88.25Z"/>
</svg>
