<svg id="Layer_1" data-name="Layer 1" xmlns="http://www.w3.org/2000/svg" viewBox="0 0 544.22 617.32">
  <defs>
    <style>
      .cls-1 {
        fill: #ec008c;
      }
    </style>
  </defs>
  <title>G</title>
  <path class="cls-1" d="M394.34.5a94.1,94.1,0,0,1,18.57,2c6.4,1.3,9.52,4.7,9.52,10.39a6.26,6.26,0,0,1-.39,1.89,6.13,6.13,0,0,0-.42,1.94L381.22,56l-.05.07c-.55,1.07-1.78,3.86-3.65,8.29s-3.32,6.88-4.33,7.36l-.07.05c-1.07,1-4.45,3-10.05,5.86s-11.71,6.17-18.23,9.86-12.64,7-18.2,9.84c-5.75,2.94-9.08,4.89-10.15,5.94-16.7,12.06-35.64,28.64-56.29,49.28a644.31,644.31,0,0,0-58.31,67,458.43,458.43,0,0,0-45.76,73.73c-12.37,25.11-18.64,48.49-18.64,69.46,0,10,1.92,18.25,5.7,24.56a42.77,42.77,0,0,0,15.06,15.06,60.92,60.92,0,0,0,21.54,7.51,156.94,156.94,0,0,0,25.13,2h34.81c16.81,0,34.51-.53,52.63-1.58a251.71,251.71,0,0,0,53.08-8.68,149.08,149.08,0,0,0,45.81-21.31c13.47-9.45,23.84-23,30.85-40.3a.31.31,0,0,0,0-.19c-1.64-4.26-4-6.83-7.05-7.64a36.57,36.57,0,0,0-9.37-1.19,78.78,78.78,0,0,0-24.36,4c-8.25,2.68-16.56,5.6-24.71,8.67-8.38,3.15-16.95,6.07-25.48,8.66a91.14,91.14,0,0,1-26.64,3.93c-7.57,0-18.05-.93-31.13-2.75a257.22,257.22,0,0,1-39.22-8.66,119.27,119.27,0,0,1-33.52-15.73c-9.33-6.48-14.06-14.77-14.06-24.62,0-3.57,3.5-7.61,10.4-12a175.31,175.31,0,0,1,26.68-13.37c10.79-4.46,22.77-8.7,35.59-12.6s25.44-7.51,37.23-10.64,22.56-5.62,32.36-7.48,16.47-2.76,20.19-2.76c1.78,0,6.95-.14,14.18-.39,7.91-.26,16.76-.4,26.3-.4,10.51,0,20.72-.13,30.36-.39,10.25-.26,18.06-.39,23.87-.39,3.68,0,9.11.13,16.59.39,7,.26,14.25.39,21.46.39,6.88,0,13.27.14,19,.4,5.19.25,8.87.39,10.1.39l32.22,7.84a12.53,12.53,0,0,1,.75,2.95c0,6.74-5.17,20.49-15.35,40.86s-23.18,44.31-38.45,70.92S458,423.05,440.27,452.08,405.75,508,390.09,532.46c-15.57,24.29-28.92,44.71-39.67,60.68-12.59,18.68-16.31,23.09-17.35,23.81V592.1a.25.25,0,0,0-.17-.24h-.08a.25.25,0,0,0-.2.1,80.42,80.42,0,0,1-12.1,13.35c-3.67,3.07-9,4.64-15.78,4.67a76.44,76.44,0,0,1,4.44-26.06c2.91-8,6.18-16.23,9.71-24.42s6.76-16.34,9.72-24.44a75.06,75.06,0,0,0,4.46-25.7v-3.94a.23.23,0,0,0-.1-.2.25.25,0,0,0-.15,0h-.07c-14.21,4.26-27.42,8.37-39.26,12.22-12.17,4-24.42,7.39-36.41,10.24s-24.59,5.26-37.22,7.08a291.3,291.3,0,0,1-41.65,2.76c-27.64,0-52.63-3.74-74.29-11.12A153.63,153.63,0,0,1,47.65,493,141,141,0,0,1,12.2,439.42C4.35,418.6.38,394.4.38,367.5.38,336.15,6,306.62,17,279.72a316.55,316.55,0,0,1,44.49-76,413.43,413.43,0,0,1,64.31-65A740.17,740.17,0,0,1,203,84c27.08-16.71,54.85-32.08,82.55-45.7s54.55-26.09,79.67-37c1.76,0,5.24-.14,10.08-.4C380.58.63,383.88.5,385.44.5h8.9m0-.25h-8.9c-1.62,0-5,.14-10.12.39s-8.5.4-10.12.4q-38.06,16.55-79.73,37T202.9,83.79a735.3,735.3,0,0,0-77.3,54.77,411.38,411.38,0,0,0-64.36,65,315.27,315.27,0,0,0-44.52,76.05Q.12,320.23.12,367.5q0,81.17,47.36,125.69t130.73,44.53A290.09,290.09,0,0,0,219.9,535q19-2.75,37.24-7.09t36.42-10.25q18.22-5.91,39.26-12.21v3.94A74.33,74.33,0,0,1,328.37,535q-4.46,12.22-9.71,24.43t-9.72,24.43a76.49,76.49,0,0,0-4.45,26.4q10.51,0,16.19-4.72a80.56,80.56,0,0,0,12.14-13.4v25.22q1.62,0,17.81-24T390.3,532.6q23.46-36.64,50.18-80.39t49.79-83.93q23.07-40.18,38.45-70.92t15.38-41a13.23,13.23,0,0,0-.81-3.16l-32.38-7.88c-1.09,0-4.45-.12-10.12-.39s-12-.4-19-.4-14.17-.12-21.45-.39-12.83-.39-16.6-.39q-8.91,0-23.88.39t-30.35.39q-14.58,0-26.31.4c-7.83.27-12.55.39-14.17.39q-5.67,0-20.23,2.76t-32.38,7.49q-17.82,4.72-37.24,10.64t-35.62,12.61a176.09,176.09,0,0,0-26.71,13.39q-10.53,6.7-10.52,12.22,0,15,14.16,24.82T234.07,345a253.31,253.31,0,0,0,39.26,8.67q19.82,2.78,31.16,2.76a90.81,90.81,0,0,0,26.71-3.94q12.94-3.93,25.5-8.67t24.69-8.67a78.52,78.52,0,0,1,24.29-3.94,36.11,36.11,0,0,1,9.31,1.19q4.44,1.17,6.88,7.48-10.53,26-30.76,40.19a148.19,148.19,0,0,1-45.74,21.28,250.08,250.08,0,0,1-53,8.67q-27.53,1.59-52.62,1.58H204.92a155.77,155.77,0,0,1-25.09-2,60.62,60.62,0,0,1-21.45-7.49,42.37,42.37,0,0,1-15-15q-5.67-9.46-5.66-24.43,0-31.51,18.62-69.35a454.66,454.66,0,0,1,45.73-73.69,642.06,642.06,0,0,1,58.28-67q31.15-31.12,56.26-49.25,1.62-1.58,10.12-5.91T345,87.73q9.7-5.51,18.21-9.85c5.67-2.89,9-4.86,10.12-5.91q1.6-.78,4.45-7.49c1.88-4.46,3.1-7.22,3.64-8.28l40.48-39.4a6.06,6.06,0,0,1,.4-2,6.34,6.34,0,0,0,.41-2q0-8.67-9.72-10.64a94.64,94.64,0,0,0-18.62-2Z"/>
</svg>
