<svg id="Layer_1" data-name="Layer 1" xmlns="http://www.w3.org/2000/svg" viewBox="0 0 216.38 270.56">
  <defs>
    <style>
      .cls-1 {
        fill: #ec008c;
      }
    </style>
  </defs>
  <title>Grave_Accent</title>
  <path class="cls-1" d="M60.84.5c1.52,0,4.87,2.63,9.94,7.81,5.24,5.38,9.08,9.25,11.72,11.8,2,2.39,4.73,5.69,9.31,11,4,4.64,8.06,9.54,12.14,14.57s7.76,9.69,10.92,13.79a82.86,82.86,0,0,1,5.65,7.85c4.78,8.28,10.5,18.35,17,30,6.4,11.43,13.35,23.75,20.64,36.64,7.17,12.67,14.25,25.53,21.05,38.22,6.58,12.31,12.84,23.84,18.62,34.28,5.61,10.15,10.1,18.76,13.34,25.6,4,8.43,4.84,11,4.84,11.72v6.14c-1.2-1.61-4.28-3.83-9.34-6.75-5.88-3.38-10-5.63-12.16-6.71a.2.2,0,0,0-.11,0,12.79,12.79,0,0,0-5,1.61.25.25,0,0,0-.14.22,37.06,37.06,0,0,0,3.27,16.26,36.83,36.83,0,0,1,3.21,15.8H188l-127-115c-9.12-8.34-17.54-19.06-25-31.86A267.53,267.53,0,0,1,16.55,82.91,248.44,248.44,0,0,1,4.42,40,217.11,217.11,0,0,1,.38.5H60.84m0-.25H.13a217.86,217.86,0,0,0,4,39.8A249.28,249.28,0,0,0,16.31,83a267.46,267.46,0,0,0,19.43,40.58q11.32,19.32,25.1,31.92L187.93,270.56H196a37,37,0,0,0-3.24-16.15,36.84,36.84,0,0,1-3.24-16.16,12.62,12.62,0,0,1,4.86-1.58q3.22,1.59,12.14,6.7c5.94,3.43,9.17,5.91,9.72,7.49v-7.09q0-1.58-4.86-11.82T198,206.33q-8.49-15.36-18.61-34.28t-21.05-38.22q-10.94-19.31-20.64-36.65t-17-29.94a83.56,83.56,0,0,0-5.67-7.88q-4.86-6.3-10.93-13.8T92,31q-6.07-7.08-9.31-11Q78.64,16,71,8.13C65.82,2.88,62.46.25,60.84.25Z"/>
</svg>
