<svg id="Layer_1" data-name="Layer 1" xmlns="http://www.w3.org/2000/svg" viewBox="0 0 260.9 772.71">
  <defs>
    <style>
      .cls-1 {
        fill: #ec008c;
      }
    </style>
  </defs>
  <title>Greater_Than</title>
  <path class="cls-1" d="M145.91.5c-15.31,11.9-26,23.44-31.87,34.31s-8.93,26.15-8.93,45a285.08,285.08,0,0,0,14.18,89.52,558.09,558.09,0,0,0,35.63,84,893.22,893.22,0,0,0,47.37,80C219.42,359.16,236,385,251.66,410.18q5.66,9.45,7.28,12.21c1.06,1.81,1.59,5.61,1.59,11.3a32,32,0,0,1-.4,4.3,33.79,33.79,0,0,0-.41,3.55l-7.28,28.34c-3.22,12.56-6.49,25.69-9.71,39-3.14,13-6.27,25.44-9.31,37-2.95,11.2-5,18.49-6.07,21.67-1.61,5.75-4.52,14.38-8.9,26.38-4.31,11.79-9.62,25-15.78,39.39S189.54,662.89,182,678.28s-15.29,29.9-23.06,42.93a270.4,270.4,0,0,1-23.45,33.86c-7.76,9.37-14.93,15.18-21.33,17.26a3.87,3.87,0,0,1-1.08.13c-2.14,0-6.22-1-12.13-2.89-7.28-2.36-15.18-5.15-23.46-8.27l-23.07-8.67c-6.67-2.5-11-3.83-12.79-4V741a203.83,203.83,0,0,1,10.91-65.33,543.72,543.72,0,0,1,26.3-63.8c10.21-20.93,21-41.87,32-62.25A506.49,506.49,0,0,0,138.78,489a.29.29,0,0,0,0-.09,31.21,31.21,0,0,1,.4-3.51,33,33,0,0,0,.41-4.37,49.1,49.1,0,0,0-4.88-20.2A169,169,0,0,0,123,439.47c-4.42-6.84-9.06-13.74-13.76-20.5-4.56-6.51-8.23-12.2-10.92-16.92-11-20.95-22.74-42.83-34.81-65a673.75,673.75,0,0,1-31.55-66.17A510.55,510.55,0,0,1,9.27,202.33,292.65,292.65,0,0,1,.38,130.28c0-45.94,10.86-79.42,32.3-99.51S89.73.5,138.55.5h7.36m.73-.25h-8.09q-73.68,0-106,30.34T.12,130.28A291.12,291.12,0,0,0,9,202.39,507.82,507.82,0,0,0,31.7,271a671.89,671.89,0,0,0,31.56,66.19q17.81,32.72,34.81,65,4.05,7.09,10.93,16.94t13.76,20.49a168.65,168.65,0,0,1,11.74,21.28q4.86,10.65,4.86,20.1a31.58,31.58,0,0,1-.41,4.33,30.27,30.27,0,0,0-.4,3.55,505.58,505.58,0,0,1-27.93,60.68Q94,580.28,78.65,611.8a539.21,539.21,0,0,0-26.31,63.83A202.88,202.88,0,0,0,41.41,741v7.89c1.62,0,5.93,1.3,13,3.94s14.7,5.51,23.07,8.67,16.19,5.91,23.48,8.27q9,2.91,12.2,2.9a4,4,0,0,0,1.15-.14q9.72-3.17,21.45-17.34a271,271,0,0,0,23.48-33.89q11.73-19.68,23.07-43t20.64-44.92q9.3-21.66,15.79-39.4t8.9-26.4c1.08-3.16,3.1-10.37,6.07-21.68s6.07-23.64,9.31-37,6.48-26.4,9.71-39L260,441.58a32.53,32.53,0,0,1,.4-3.55,31.83,31.83,0,0,0,.41-4.34q0-8.65-1.62-11.42t-7.28-12.22q-23.49-37.83-49.38-76.84a886.77,886.77,0,0,1-47.36-80,555.86,555.86,0,0,1-35.62-83.93,283.75,283.75,0,0,1-14.16-89.44q0-28.38,8.9-44.92T146.64.25Z"/>
</svg>
