<svg id="Layer_1" data-name="Layer 1" xmlns="http://www.w3.org/2000/svg" viewBox="0 0 512.65 573.18">
  <defs>
    <style>
      .cls-1 {
        fill: #ec008c;
      }
    </style>
  </defs>
  <title>H</title>
  <path class="cls-1" d="M219.5.5A24.43,24.43,0,0,1,231.92,4c3.92,2.29,5.11,6.84,3.52,13.52V31.77c0,6.53.13,13.56.4,20.9.27,7.71.41,15,.41,21.66V88.51A363.52,363.52,0,0,1,231.8,146a356.56,356.56,0,0,0-4.46,56.78v3.94a.25.25,0,0,0,.22.24c4.31.53,12.34,1.33,23.89,2.37,11.27,1,23.66,2,36.84,2.76,13.6.83,25.65,1.47,36.83,2,11.46.52,19.5.79,23.89.79h14.57c5.47,0,10.58-4.16,15.2-12.34s9.06-18.6,13.37-31.18,8.65-26.59,13-41.78c4.37-15.44,8.73-30.28,12.95-44.12A369.75,369.75,0,0,1,431.41,48c4.53-10.67,9.55-18.19,14.92-22.38.33-.33,1.28-.72,3.87-.72,2.09,0,4.67.13,7.67.39s5.45.4,7.71.4h4.86a.19.19,0,0,0,.1,0c1.1-.52,3.77-3.12,8.18-7.93,4.26-4.68,7-7.32,8-7.83,2.11-1,6.44-2.07,12.89-3.13a108.74,108.74,0,0,1,12.66-1.57c0,68.9-6.28,135-18.61,196.33S459.8,325.68,429.73,387.88c-3.83,8.52-8.59,18.59-14.16,29.94s-11.72,23.62-18.21,36.25L377.93,491.9c-6.38,12.43-12.37,23.83-17.8,33.88s-9.86,18.27-13.36,24.83c-4.34,8.1-5.68,10.23-6,10.57l-8,7.77c-4.48-1.7-7.17-3.57-8-5.57a3.66,3.66,0,0,1,.16-3.09A28.68,28.68,0,0,0,327.41,548a.25.25,0,0,0-.25-.25c-.3,0-1.32-.21-4.77-1.56a13,13,0,0,0-4.41-1.07,3.37,3.37,0,0,0-1.48.3,73,73,0,0,0-8.54,7.52,82.72,82.72,0,0,0-7.27,7.7c0-1.72-.16-4.66-.4-9.11-.26-4.67-.41-8.16-.41-9.84,0-12,2.17-22.3,6.45-30.62a137.86,137.86,0,0,0,10.55-28.42c4.83-17.77,8.92-35.81,12.14-53.61,3.17-17.48,6.17-35.38,8.91-53.2,2.67-17.44,5.53-35.33,8.5-53.19s6.62-35.55,10.92-52.79a.26.26,0,0,0,0-.19,35.57,35.57,0,0,0-12.23-11.12,32.24,32.24,0,0,0-16.31-4.76h-4a.2.2,0,0,0-.11,0l-16.21,7.89c-4.85,2.95-12.47,7.57-21.45,13-9.7,5.87-20,12.19-31.57,19.31-11,6.8-21.63,13.16-31.57,18.91s-16.89,9.74-20.64,11.82a.3.3,0,0,0-.08.08,171.71,171.71,0,0,0-16.22,32c-4.83,12.3-9.33,25-13.36,37.85s-7.7,25.15-10.93,36.65c-3.16,11.29-5.88,20.57-8.09,27.57-4.3,12-11.64,24.71-21.82,37.76a269.91,269.91,0,0,1-35.18,37,197.16,197.16,0,0,1-42,28.34c-14.66,7.26-28.83,11-42.13,11A361.07,361.07,0,0,1,19,509.39c3.73-20.79,8.09-41.6,13-61.85,4.81-20,9.17-40,13-59.51a295,295,0,0,0,5.67-56c0-7.41-2.62-12.78-7.81-16A151.44,151.44,0,0,0,25.32,307,75.64,75.64,0,0,1,8,296.37c-5-4.12-7.59-10.95-7.59-20.29,0-12,3-20.64,8.81-25.82a64.74,64.74,0,0,1,20.57-12.17c7.79-2.87,16-5.65,24.27-8.27a36.35,36.35,0,0,0,20-15.07,270.09,270.09,0,0,0,23.5-42.6c7-15.72,13.53-32.17,19.44-48.88s11.38-33.78,16.19-50.45c5.4-18.7,9.76-33.66,13.7-47.06a88.6,88.6,0,0,0,16.9,2c4.14,0,7.42-.58,9.74-1.71a27.08,27.08,0,0,0,11-9.15c2.45-3.7,5.17-7.41,8.08-11S201.81.5,211.4.5h8.1m0-.25h-8.1q-14.57,0-19,5.52t-8.1,11a26.61,26.61,0,0,1-10.92,9.06c-2.31,1.12-5.52,1.69-9.64,1.69a88.93,88.93,0,0,1-17.08-2.08q-6.48,22.07-13.76,47.28t-16.19,50.44q-8.91,25.23-19.43,48.86a269.75,269.75,0,0,1-23.47,42.56,36,36,0,0,1-19.83,15q-12.57,4-24.29,8.28A64.66,64.66,0,0,0,9,250.07Q.11,258,.12,276.08q0,14.18,7.7,20.49a75.51,75.51,0,0,0,17.4,10.64,150.1,150.1,0,0,1,17.4,9.06Q50.32,321,50.31,332a293.8,293.8,0,0,1-5.66,56Q39,417.16,31.7,447.48t-13,61.87a359.94,359.94,0,0,0-5.66,63.83q20.22,0,42.5-11a196.62,196.62,0,0,0,42.09-28.37,269.19,269.19,0,0,0,35.21-37q15.38-19.69,21.86-37.83,3.22-10.23,8.09-27.58t10.93-36.65q6.08-19.29,13.36-37.82a169.51,169.51,0,0,1,16.19-31.92Q209,321.81,224,313.12t31.57-18.92q16.57-10.23,31.57-19.3t21.45-13L324.73,254h4A32,32,0,0,1,345,258.74a35.23,35.23,0,0,1,12.14,11q-6.5,26-10.93,52.8t-8.5,53.2q-4.06,26.42-8.9,53.2t-12.15,53.59a136.3,136.3,0,0,1-10.52,28.37q-6.48,12.62-6.48,30.73c0,1.58.13,4.86.41,9.85s.4,8.28.4,9.85a113.83,113.83,0,0,1,16.19-15.76,3.15,3.15,0,0,1,1.35-.26,12.84,12.84,0,0,1,4.32,1,22.19,22.19,0,0,0,4.86,1.58,28.29,28.29,0,0,1-2.43,12.21q-2.43,5.12,8.09,9.06l8.1-7.88q.79-.79,6.07-10.64t13.36-24.82q8.07-15,17.8-33.89t19.43-37.83q9.72-18.92,18.22-36.25T430,388q45.33-93.76,64-186.38T512.53,5a103.45,103.45,0,0,0-12.95,1.57q-9.72,1.59-13,3.16-1.62.79-8.09,7.88t-8.09,7.88h-4.86c-2.16,0-4.73-.12-7.69-.4s-5.54-.39-7.69-.39-3.52.27-4.05.79q-8.1,6.32-15,22.46a369.91,369.91,0,0,0-13.36,37.43q-6.49,21.28-12.95,44.13t-12.95,41.77q-6.5,18.92-13.36,31.13t-15,12.22H349q-6.48,0-23.88-.79t-36.83-2q-19.43-1.18-36.83-2.76t-23.88-2.36v-3.94A355.67,355.67,0,0,1,232,146a361.42,361.42,0,0,0,4.46-57.53V74.33q0-10.23-.41-21.67c-.28-7.61-.4-14.58-.4-20.89V17.59c1.61-6.82.4-11.43-3.65-13.79A24.48,24.48,0,0,0,219.5.25Z"/>
</svg>
