<svg id="Layer_1" data-name="Layer 1" xmlns="http://www.w3.org/2000/svg" viewBox="0 0 574.98 572.4">
  <defs>
    <style>
      .cls-1 {
        fill: #ec008c;
      }
    </style>
  </defs>
  <title>Hash</title>
  <path class="cls-1" d="M495.29,1.58c0,3.36.16,8.31.39,14.44.28,7.67.41,12.43.41,15a133.3,133.3,0,0,1-2.83,27.53,266.74,266.74,0,0,1-6.87,26,.23.23,0,0,0,.06.25.23.23,0,0,0,.17.07h.08c13.1-4.25,20.53-6.83,22.69-7.89l56.67-23.64a1.27,1.27,0,0,1,.58-.13c.91,0,2.12.82,3.58,2.43A17.44,17.44,0,0,1,573.8,61c0,.64.13,3.76.4,9.43.28,5.93.41,10.3.41,13.39,0,19.82-3.12,35.69-9.28,47.16a79.09,79.09,0,0,1-25.42,28.28,148.83,148.83,0,0,1-38,18.1c-14.57,4.73-30.37,10.3-47,16.55a.26.26,0,0,0-.17.24v2.36a.25.25,0,0,0,.08.18l8,7.81v3.83a47.19,47.19,0,0,1-3.63,17.64,180.91,180.91,0,0,1-8.48,18.1c-3.2,6-6.6,11.93-10.11,17.72a118.68,118.68,0,0,0-8.52,16.59.23.23,0,0,0,0,.26.23.23,0,0,0,.18.08h.08c21.94-7.29,40.19-13.13,54.23-17.34s21.49-6.79,22.73-7.9l56.63-23.63a1.27,1.27,0,0,1,.58-.13c.91,0,2.12.82,3.58,2.43a17.44,17.44,0,0,1,3.58,5.39c0,.64.13,3.76.4,9.43.28,5.92.41,10.3.41,13.39,0,19.81-3.12,35.81-9.28,47.56a77,77,0,0,1-25.82,28.67,155.29,155.29,0,0,1-38.79,18.1c-14.76,4.7-31,10.26-48.18,16.55l-60.71,21.28a.23.23,0,0,0-.15.15c-2.73,8-5.73,15.91-8.9,23.63-3.23,7.87-6.23,16.1-8.91,24.44-6.45,16.76-12.17,32.54-17,46.9a146.91,146.91,0,0,1-18.59,37.76,77.82,77.82,0,0,1-29.45,25.14c-12,6-28.48,9-48.86,9-3.17,0-7.67-.13-13.75-.4-5.84-.26-9.05-.39-9.69-.39a17.49,17.49,0,0,1-5.54-3.49c-2.05-1.74-2.85-3.09-2.36-4l24.28-55.15c.54-1.07,2.72-7.18,6.49-18.16,3.81-11.16,8.71-26,14.57-44.14a.25.25,0,0,0-.08-.27.25.25,0,0,0-.16-.06.17.17,0,0,0-.12,0c-9.15,5.23-19.09,10.67-29.54,16.15s-20.61,8.24-30.24,8.24h-4l-8-7.81a.28.28,0,0,0-.17-.07h-8.1a.25.25,0,0,0-.25.25c0,1.28-.2,1.67-.33,1.79a1.82,1.82,0,0,0-.48,1.32c-6.45,16.77-12.17,32.53-17,46.86A147.56,147.56,0,0,1,157,538a77.82,77.82,0,0,1-29.45,25.14c-12.07,6-28.51,9-48.87,9-3.17,0-7.66-.13-13.74-.4-5.85-.26-9.05-.39-9.69-.39a17.75,17.75,0,0,1-5.54-3.49c-2.05-1.75-2.85-3.11-2.37-4l24.29-55.17a.3.3,0,0,0,0-.1c0-.34.42-1.89,2.41-7.4,1.48-4.07,3.48-9.78,6.48-18.52a.25.25,0,0,0-.06-.26.25.25,0,0,0-.18-.08l-.08,0a139,139,0,0,1-23.43,5.9,157.11,157.11,0,0,1-25,2c-2.88,0-8.2-.14-15.38-.4-6.68-.23-11.55-.35-14.78-.39,1.62-.63,3.87-1.65,6.79-3.07,3.84-1.87,6.24-3.3,7.35-4.38a.27.27,0,0,0,.06-.1,12.9,12.9,0,0,0,.82-4,23.72,23.72,0,0,0-.81-4,.26.26,0,0,0-.07-.11l-8-7.84a20.85,20.85,0,0,1-.78-3.81c0-4.06,3.35-7.43,10-10s11.83-5.83,15.07-9.52a.25.25,0,0,0,0-.27.25.25,0,0,0-.22-.15c-2.15,0-6.34-1.05-12.47-3.14s-10-3.61-11.61-4.65a11.1,11.1,0,0,1-.77-3c0-8.28,4.59-15.5,13.65-21.46A134.11,134.11,0,0,1,52,394.92a305.51,305.51,0,0,1,35.18-9.45c11.53-2.35,20.11-4.34,25.49-5.9a1.87,1.87,0,0,0,1.35-.47c.13-.12.53-.32,1.85-.32a.25.25,0,0,0,.24-.18c5-15.54,10.13-31.45,15.38-47.28,5.37-16.23,11.09-32.67,17-48.85a.26.26,0,0,0-.24-.34h-.07c-18.79,5.76-37.73,12.52-56.28,20.11A158.11,158.11,0,0,1,31.7,313.66c-2.88,0-8.19-.14-15.38-.4-6.69-.23-11.56-.35-14.78-.39,1.62-.63,3.86-1.64,6.79-3.07,3.84-1.87,6.24-3.3,7.35-4.38a.27.27,0,0,0,.06-.1,12.9,12.9,0,0,0,.82-4,23.72,23.72,0,0,0-.81-4,.26.26,0,0,0-.07-.11l-8-7.84a20.68,20.68,0,0,1-.78-3.81c0-4.06,3.35-7.43,10-10s11.83-5.83,15.07-9.52a.25.25,0,0,0,0-.27.25.25,0,0,0-.22-.15c-2.15,0-6.34-1.05-12.47-3.14s-10-3.61-11.61-4.65a11.1,11.1,0,0,1-.77-3c0-8.28,4.59-15.5,13.65-21.46a134.49,134.49,0,0,1,31.51-15,305.51,305.51,0,0,1,35.18-9.45c11.55-2.35,20.14-4.34,25.52-5.91,9.13-2.62,19.76-5.8,31.58-9.46,12-3.71,24.52-7.69,37.24-11.82a.31.31,0,0,0,.16-.16c4-11.68,7.43-22,10.52-31.53s5.93-18.35,8.47-26.22l.44-1.41c.53-4.12,2-11.72,4.45-23.22a261.22,261.22,0,0,1,10.11-34.65A135.17,135.17,0,0,1,231.84,33.1c6.4-9.08,14-13.69,22.46-13.69a14.08,14.08,0,0,1,3.08.75c1.06,1.59,2.66,5.39,4.78,11.3s3.23,10.1,3.23,12.13a.24.24,0,0,0,.14.23.2.2,0,0,0,.11,0,.33.33,0,0,0,.16-.05c3.78-3.17,7.08-8.11,9.78-14.68s6.1-9.7,10.29-9.7a25.05,25.05,0,0,1,3.92.77l8,7.83a.24.24,0,0,0,.12.07,24.71,24.71,0,0,0,4.1.79,13.86,13.86,0,0,0,4.13-.8.18.18,0,0,0,.09-.06c1.1-1.06,2.57-3.41,4.5-7.16,1.45-2.82,2.52-5.05,3.18-6.66,0,3.37.17,8.32.4,14.44.28,7.66.4,12.42.4,15a143.21,143.21,0,0,1-10.5,54.68c-7,17-13.53,34.13-19.43,50.84a.25.25,0,0,0,.23.34h.08c16.17-5.24,32.38-10.42,48.16-15.37s31.13-9.84,45.74-14.58a.25.25,0,0,0,.16-.16q.8-2.35,1.62-4.73t1.62-4.73c1.61-5.23,3.66-13.59,6.08-24.85a286.48,286.48,0,0,1,9.7-34.25,137.42,137.42,0,0,1,14.95-30.68C419,11.27,426.58,6.8,435.63,6.8a14.21,14.21,0,0,1,3.08.75c1.05,1.59,2.66,5.39,4.78,11.3S446.71,29,446.71,31a.26.26,0,0,0,.14.22.23.23,0,0,0,.11,0,.25.25,0,0,0,.16-.06c3.79-3.17,7.08-8.11,9.79-14.68S463,6.8,467.2,6.8a25.5,25.5,0,0,1,3.92.77l8.05,7.83a.26.26,0,0,0,.11.07,24.75,24.75,0,0,0,4.11.79,13.8,13.8,0,0,0,4.12-.8.21.21,0,0,0,.1-.06c1.09-1.06,2.57-3.41,4.5-7.15,1.45-2.82,2.51-5.06,3.18-6.67m-262,340.16h.07c14.19-4.42,27.3-8.55,40.07-12.61s25.76-8.15,40.07-12.61a.23.23,0,0,0,.16-.16c9.44-27.05,19-54.89,28.33-82.75a.25.25,0,0,0,0-.25.27.27,0,0,0-.18-.08h-.08l-51,16.56c-5.91,2.09-13.54,5.8-22.71,11a.2.2,0,0,0-.08.08c-3.75,5.72-7.29,11.7-10.54,17.75a185.32,185.32,0,0,0-8.11,17c-3,8.61-5.6,16.21-8.09,23.24-2.86,8-5.5,15.38-8.1,22.46a.25.25,0,0,0,.06.26.23.23,0,0,0,.18.08M495.53.25a70.59,70.59,0,0,1-3.64,7.88c-1.9,3.68-3.38,6-4.46,7.09a13.46,13.46,0,0,1-4,.79,24.13,24.13,0,0,1-4.05-.79l-8.09-7.88a27.53,27.53,0,0,0-4.05-.79q-6.49,0-10.53,9.86T447,31c0-2.1-1.09-6.17-3.24-12.22s-3.78-9.85-4.85-11.43a14.58,14.58,0,0,0-3.24-.79Q421.86,6.55,413,20a137.07,137.07,0,0,0-15,30.74A285.22,285.22,0,0,0,388.27,85q-3.64,16.95-6.07,24.82c-.54,1.58-1.09,3.16-1.62,4.73L379,119.25q-21.85,7.09-45.73,14.58T285.06,149.2Q294,124,304.49,98.37A142.79,142.79,0,0,0,315,43.59q0-3.93-.4-15c-.28-7.35-.4-12.61-.4-15.76a71.2,71.2,0,0,1-3.65,7.88c-1.89,3.68-3.37,6.05-4.45,7.09a13.52,13.52,0,0,1-4.05.79,24.28,24.28,0,0,1-4-.79L289.92,20a25.93,25.93,0,0,0-4.05-.79q-6.48,0-10.52,9.85t-9.71,14.58c0-2.09-1.09-6.17-3.24-12.21s-3.78-9.85-4.86-11.43a14,14,0,0,0-3.24-.79q-13,0-22.66,13.8a134.12,134.12,0,0,0-16.19,31.52,259.72,259.72,0,0,0-10.12,34.67q-3.65,17-4.45,23.25Q196.82,135,192,150t-10.52,31.52q-19.42,6.31-37.24,11.82t-31.57,9.46q-8.1,2.36-25.5,5.91a303.94,303.94,0,0,0-35.21,9.45,133.67,133.67,0,0,0-31.57,15Q6.59,242.19,6.6,254.8A12.49,12.49,0,0,0,7.41,258q2.43,1.59,11.74,4.73c6.2,2.11,10.38,3.15,12.55,3.15q-4.86,5.52-15,9.46c-6.76,2.63-10.12,6-10.12,10.24a22.82,22.82,0,0,0,.81,3.94l8.09,7.89a23.2,23.2,0,0,1,.81,3.94,12.63,12.63,0,0,1-.81,3.94q-1.62,1.59-7.28,4.33a71.83,71.83,0,0,1-8.09,3.55q4.85,0,16.18.39c7.56.27,12.68.4,15.39.4A157.7,157.7,0,0,0,92,302.48q27.93-11.42,56.26-20.1-8.91,24.44-17,48.86t-15.38,47.29a3.24,3.24,0,0,0-2,.39,1.69,1.69,0,0,1-1.22.4q-8.1,2.35-25.5,5.91a303.94,303.94,0,0,0-35.21,9.45,133.67,133.67,0,0,0-31.57,15Q6.59,418.72,6.6,431.33a12.49,12.49,0,0,0,.81,3.15q2.43,1.59,11.74,4.73c6.2,2.11,10.38,3.15,12.55,3.15q-4.86,5.52-15,9.46C10,454.45,6.6,457.87,6.6,462.06A22.82,22.82,0,0,0,7.41,466l8.09,7.89a23.2,23.2,0,0,1,.81,3.94,12.68,12.68,0,0,1-.81,3.94q-1.62,1.59-7.28,4.33a71.83,71.83,0,0,1-8.09,3.55q4.85,0,16.18.39c7.56.27,12.68.4,15.39.4a155.85,155.85,0,0,0,25.09-2,136.92,136.92,0,0,0,23.47-5.91q-4,11.83-6.47,18.52t-2.43,7.49L47.08,563.73q-.82,1.56,2.42,4.33a17.86,17.86,0,0,0,5.67,3.55c.53,0,3.77.12,9.71.39s10.53.4,13.76.4q30.77,0,49-9.07a77.69,77.69,0,0,0,29.55-25.22,146.72,146.72,0,0,0,18.61-37.82q7.29-21.68,17-46.89a1.58,1.58,0,0,1,.41-1.19,3.08,3.08,0,0,0,.4-2h8.1l8.09,7.88h4.05q14.56,0,30.35-8.27t29.55-16.16q-8.91,27.6-14.57,44.14T252.68,496L228.4,551.12q-.81,1.59,2.43,4.33a17.58,17.58,0,0,0,5.66,3.55c.54,0,3.77.12,9.72.39s10.52.4,13.76.4q30.75,0,49-9.07a77.54,77.54,0,0,0,29.55-25.22,147.06,147.06,0,0,0,18.62-37.82q7.27-21.68,17-46.89,4-12.6,8.9-24.43t8.91-23.65q29.13-10.23,60.71-21.27,25.89-9.46,48.16-16.55a154.6,154.6,0,0,0,38.86-18.13A77,77,0,0,0,565.55,308q9.3-17.75,9.31-47.68c0-3.16-.14-7.61-.41-13.4s-.4-8.93-.4-9.46a17.44,17.44,0,0,0-3.64-5.51q-2.28-2.52-3.77-2.52a1.65,1.65,0,0,0-.69.15l-56.66,23.64q-1.64,1.59-22.67,7.88t-54.23,17.34a119.21,119.21,0,0,1,8.5-16.55q5.25-8.65,10.12-17.73a180.26,180.26,0,0,0,8.5-18.13,47.22,47.22,0,0,0,3.64-17.73v-3.94l-8.1-7.88v-2.36q25.09-9.47,46.95-16.55t38-18.13a79.14,79.14,0,0,0,25.5-28.37q9.3-17.32,9.31-47.28c0-3.16-.14-7.61-.41-13.4s-.4-8.93-.4-9.46a17.44,17.44,0,0,0-3.64-5.51q-2.28-2.52-3.77-2.52a1.65,1.65,0,0,0-.69.15L509.29,76.69q-3.24,1.59-22.67,7.88a263.94,263.94,0,0,0,6.89-26A133.57,133.57,0,0,0,496.34,31c0-2.63-.14-7.61-.41-15s-.4-12.61-.4-15.76ZM341.73,233.52q-13.78,41-28.33,82.75-20.25,6.32-40.07,12.61t-40.07,12.61q4-11,8.09-22.46t8.1-23.25a182.36,182.36,0,0,1,8.09-16.94q4.86-9.06,10.52-17.74,13.76-7.86,22.67-11l51-16.55Z"/>
</svg>
