<svg id="Layer_1" data-name="Layer 1" xmlns="http://www.w3.org/2000/svg" viewBox="0 0 284.38 521.17">
  <defs>
    <style>
      .cls-1 {
        fill: #ec008c;
      }
    </style>
  </defs>
  <title>I</title>
  <path class="cls-1" d="M203.31.5c3.21,0,9.33.4,18.19,1.18s17.95,2,27.09,3.54S266,8.51,273.26,10.34,284,14.06,284,16V86.9l-89,260c-2.15,6.27-6.63,15.14-13.33,26.36A413.92,413.92,0,0,1,157,409.51c-9.62,12.75-20.51,25.87-32.37,39S100.81,473.63,89,484.34a238,238,0,0,1-34.37,26.37c-11,6.78-20.59,10.21-28.6,10.21-4.88,0-10.46-.26-16.57-.79S.38,515.84.38,508.56c0-3.1,2.85-10.88,8.47-23.14s12.21-25.74,19.43-39.79S42.83,418,50.13,405.05s12.56-21.7,15.77-26.38a.11.11,0,0,0,0-.08C83.09,314.89,101.61,250.33,121,186.7A1195.92,1195.92,0,0,1,195.37.5h7.94m0-.25h-8.1a1191,1191,0,0,0-74.47,186.38q-29.14,95.76-55,191.9-4.84,7.1-15.78,26.4T28.05,445.52Q17.13,466.79,8.62,485.31T.12,508.56q0,11.05,9.31,11.82t16.6.79q12.13,0,28.74-10.24a239,239,0,0,0,34.4-26.4q17.79-16.15,35.62-35.86t32.38-39a409.33,409.33,0,0,0,24.68-36.25Q192,356.46,195.21,347l89-260.07V16q0-3.14-10.92-5.91T248.64,5q-13.78-2.37-27.12-3.55T203.31.25Z"/>
</svg>
