<svg id="Layer_1" data-name="Layer 1" xmlns="http://www.w3.org/2000/svg" viewBox="0 0 529.01 577.91">
  <defs>
    <style>
      .cls-1 {
        fill: #ec008c;
      }
    </style>
  </defs>
  <title>J</title>
  <path class="cls-1" d="M471.82.38c.3,2.18,4.46,4.76,12.69,7.86s20.12,10,35.16,20.46c6.6,4.44,9.58,8.22,8.86,11.25-1,4.06-8.53,7-22.51,8.79-32.85,4.26-36.64,6.68-36.64,8.11-.55,7.84-1.47,18.15-2.84,31.51q-2,19.71-4.45,43c-1.61,15.48-3.25,31.39-4.86,47.29s-3.24,30.9-4.85,44.52c-1.56,13.14-3.06,24.94-4.45,35.07-1.3,9.35-2.28,16-2.83,19.28-.56,2.16-2.24,8.43-4.86,18.12s-5.51,20.66-8.9,33.89c-3.2,12.47-6.61,25.06-10.12,37.43s-6.37,22-8.49,28.75q-1.64,4.72-6.08,17.73c-2.94,8.6-8,18.26-14.95,28.72-3.16,5.13-6.29,9.9-9.3,14.17s-5.82,8.18-8.49,11.81c-6.44,7.83-44,32.73-111.62,74-11.85,4.2-20,8.32-24.35,12.25s-8,6.12-11.21,6.64a268.32,268.32,0,0,0-36.06,10.26,107.77,107.77,0,0,1-36.74,6.29c-28.42,0-52.62-5.69-71.92-16.91a140.92,140.92,0,0,1-47.27-44.45A190.78,190.78,0,0,1,8.46,454,308.84,308.84,0,0,1,.38,383.92c0-5.74.81-14.21,2.42-25.18,1.6-11.43,11.64-23,29.84-34.5,11.43-7.21,24.64-10.86,39.27-10.86a111.94,111.94,0,0,1,27.72,3.79c13.11,3.4,22.68,7.95,28.42,13.54a20.69,20.69,0,0,1,6.2,20.06,221.11,221.11,0,0,0-4.86,45.76A65.7,65.7,0,0,0,131,409.19a77.89,77.89,0,0,0,4.87,15.41,43.64,43.64,0,0,0,8.55,13.08,17,17,0,0,0,12.73,5.6c10.07,0,19.07-.13,27.52-.4a113.6,113.6,0,0,0,25.15-3.55,107.77,107.77,0,0,0,23.94-9.48,109.52,109.52,0,0,0,23.94-18.17A147.82,147.82,0,0,0,293.39,358c7.63-20.15,14.71-39.24,21.05-56.74a470.61,470.61,0,0,0,16.2-55.2c4.29-18.8,9.19-37.36,14.56-55.15,2.68-8.86,5-17.88,6.89-26.81s3.51-17.35,4.86-25.23,2.55-14.79,3.64-20.88,2.42-10.6,4-13.75c2.72-7.18-2.07-15.43-14.26-24.52s-31.86-19.19-58.73-30.18C264.92,38.14,251.91,28.88,253,22c1-6.59,15.09-11.22,41.82-13.78,27.93-2.61,52-4.6,71.63-5.91s35.38-2,46.53-2h58.86m.23-.26H413q-17,0-46.54,2T294.78,8q-82.57,7.88-3.24,41.76,80.94,33.1,72.85,54.38c-1.62,3.15-3,7.76-4,13.79s-2.31,13-3.65,20.89-3,16.29-4.85,25.21-4.19,17.87-6.88,26.8q-8.12,26.81-14.58,55.17a465,465,0,0,1-16.19,55.16q-9.7,26.81-21,56.74a146.81,146.81,0,0,1-35.62,53.59q-12.14,11.82-23.88,18.13a106.54,106.54,0,0,1-23.88,9.45,112.65,112.65,0,0,1-25.09,3.55q-13,.4-27.52.4a16.73,16.73,0,0,1-12.55-5.52,43.36,43.36,0,0,1-8.5-13,78.16,78.16,0,0,1-4.86-15.37,65.25,65.25,0,0,1-1.62-12.61,219.28,219.28,0,0,1,4.86-45.71q4.86-23.64-34.81-33.89a111.56,111.56,0,0,0-27.78-3.8q-22.11,0-39.41,10.9Q5,341.37,2.55,358.7.12,375.25.13,383.92a307.31,307.31,0,0,0,8.09,70.14,190.41,190.41,0,0,0,26.31,62.26,140.59,140.59,0,0,0,47.35,44.52q29.15,16.93,72.05,16.95a107.41,107.41,0,0,0,36.83-6.31,266.87,266.87,0,0,1,36-10.24q4.86-.79,11.33-6.7t24.29-12.22q102-62.24,111.71-74.08,4-5.5,8.5-11.82t9.31-14.18q10.5-15.76,15-28.77T413,395.74q3.23-10.23,8.5-28.76t10.12-37.44q4.86-18.92,8.9-33.89t4.86-18.12q.8-4.72,2.83-19.31t4.46-35.07q2.43-20.47,4.85-44.53t4.86-47.28q2.43-23.24,4.45-42.95t2.84-31.52q0-3.15,36.42-7.88,37.23-4.74,13.76-20.49Q497.15,12.73,484.6,8T472.05.12Z"/>
</svg>
