<svg id="Layer_1" data-name="Layer 1" xmlns="http://www.w3.org/2000/svg" viewBox="0 0 625.17 514.08">
  <defs>
    <style>
      .cls-1 {
        fill: #ec008c;
      }
    </style>
  </defs>
  <title>K</title>
  <path class="cls-1" d="M269.43.38c0,4.78-.84,14.09-2.42,27.69-1.61,13.79-3.78,28.64-6.48,44.12A279.3,279.3,0,0,1,250,114.32c-4.28,12.46-9.13,19.57-14.41,21.11a.26.26,0,0,0-.15.14.27.27,0,0,0,0,.2c3.26,7.92,7.12,12.73,11.48,14.33a48.37,48.37,0,0,0,16.28,2.37,152.4,152.4,0,0,0,58-11.44c18.52-7.57,37.18-15.93,55.46-24.83S413.51,99,432.08,91.38A154.07,154.07,0,0,1,490.67,80a177,177,0,0,1,17.78,1.58,245.24,245.24,0,0,1,26.28,4.72,94.74,94.74,0,0,1,23.41,8.64c6.63,3.62,10,8.06,10,13.18,0,3-4.72,7.34-14,12.79a263.41,263.41,0,0,1-32.35,15.75,302.44,302.44,0,0,1-35.58,12.2c-7.69,2.09-13.84,3.14-18.29,3.14a16.23,16.23,0,0,1-5.44-.77h-.18l-97.16,39.42a19.73,19.73,0,0,0-4.51,3.59,19.34,19.34,0,0,0-3.71,4.44c-2.68,8.32-6.46,14.24-11.24,17.6a144.47,144.47,0,0,1-13.74,8.65,52.23,52.23,0,0,0-11.38,8.32c-3.28,3.18-4.94,8.81-4.94,16.73a74.47,74.47,0,0,0,1.22,14.63c.82,4,3.43,8.39,7.76,13.12,10.2,10.48,22.05,21.62,35.23,33.12,13.43,11.75,27.18,23.68,40.88,35.46,14,12,27.84,24.36,41.27,36.64s25.67,24.62,36.41,36.63l.08.06L616,490.53a20.48,20.48,0,0,1,4.39,3.51,20.19,20.19,0,0,1,3.58,4.24,23.86,23.86,0,0,1,.8,3.85,6.26,6.26,0,0,1-.39,1.89,6.63,6.63,0,0,0-.42,1.84c-3.25.52-9,1.31-17.19,2.33s-17.14,2-26.7,2.76c-9.85.82-18.72,1.46-27.11,2s-14.52.78-17.8.78h-4.85c-12.89,0-27.44-2.91-43.23-8.65A369.64,369.64,0,0,1,439,483.39a454.6,454.6,0,0,1-45.71-28,345.85,345.85,0,0,1-36-28.34L243.94,316.75c-5.36-4.7-13-10-22.7-15.79s-18.74-8.71-26.84-8.71c-8.66,0-15.94,2.81-21.62,8.35A71.87,71.87,0,0,0,158.15,322,165.55,165.55,0,0,0,148,350.76c-2.68,10.41-5.54,20.48-8.5,29.93A127.43,127.43,0,0,1,129,405.47c-4,7-9,11.61-14.84,13.68a.25.25,0,0,0-.17.22.27.27,0,0,0,.14.24,20.35,20.35,0,0,1,4.39,3.5,20.38,20.38,0,0,1,3.58,4.24,23.67,23.67,0,0,1,.8,3.86c0,2.6-.82,7-2.42,12.93a185.25,185.25,0,0,1-6.07,18.5,130.68,130.68,0,0,1-8.08,17.3c-2.91,5.15-5.72,8.56-8.35,10.12H90.79c-3.21,0-6.79.13-11,.4-3.9.26-7.57.39-10.91.39H44.65a115.62,115.62,0,0,1-29.49-3.93C5.35,484.34.38,477.53.38,466.67a29.91,29.91,0,0,1,.4-4.3,32.71,32.71,0,0,0,.4-3.54c2.11-6.68,5.55-16.72,10.51-30.69,5-14.15,10.62-29.66,16.6-46.1,6.09-16.77,12.89-34.93,20.23-54s14.32-37.31,20.65-54c6.84-18,12.41-32.7,17.4-45.71,5.2-13.61,9-23.27,11.73-29.54,5.32-12.45,13.22-28.89,23.47-48.85,10.13-19.74,20.62-39.36,31.16-58.31,9.77-17.56,19.17-34.39,27.93-50,8-14.36,12.94-22.43,14.49-23.95L207.1,10V49a.26.26,0,0,0,.1.19.22.22,0,0,0,.15.06h.06c9.19-2.1,15.24-6,18-11.56s5.14-11.07,7.29-16.57A36.92,36.92,0,0,1,243.13,6.62C247.9,2.5,256.74.4,269.43.38m.25-.26Q250.26.12,243,6.43A36.89,36.89,0,0,0,232.45,21q-3.25,8.28-7.29,16.55T207.35,49V9.58l-12.14,7.88q-2.43,2.37-14.57,24t-27.93,50q-15.78,28.38-31.16,58.32T98.07,198.72q-4,9.47-11.74,29.55T68.93,274q-9.71,25.62-20.64,54T28.05,382q-9.32,25.62-16.59,46.1T.93,458.79a31.93,31.93,0,0,1-.4,3.54,30.54,30.54,0,0,0-.41,4.34q0,16.54,15,20.49a115.61,115.61,0,0,0,29.55,3.94H68.93c3.24,0,6.88-.12,10.93-.39s7.69-.4,10.93-.4h7.28q4.05-2.37,8.5-10.24a132.12,132.12,0,0,0,8.1-17.34,184.73,184.73,0,0,0,6.07-18.52q2.43-9.06,2.43-13a24.57,24.57,0,0,0-.81-3.95,20.56,20.56,0,0,0-3.65-4.33,20.47,20.47,0,0,0-4.45-3.55q8.89-3.13,15-13.79a126.53,126.53,0,0,0,10.52-24.82q4.44-14.19,8.5-29.95a163.82,163.82,0,0,1,10.12-28.76A71.43,71.43,0,0,1,173,300.78q8.51-8.28,21.45-8.28,12.15,0,26.71,8.67t22.67,15.76L357.11,427.26a342.73,342.73,0,0,0,36,28.37,452.9,452.9,0,0,0,45.74,28A366.63,366.63,0,0,0,487,505.28Q510.9,514,530.34,514h4.85q4.86,0,17.81-.78t27.12-2q14.16-1.18,26.71-2.76t17.41-2.37a6.06,6.06,0,0,1,.4-2,6.34,6.34,0,0,0,.41-2,24.76,24.76,0,0,0-.81-3.94,28.86,28.86,0,0,0-8.1-7.88L478.53,419.38q-16.2-18.12-36.43-36.64t-41.28-36.65Q379.76,328,359.94,310.63t-35.21-33.1c-4.33-4.73-6.88-9.06-7.69-13A73.86,73.86,0,0,1,315.82,250q0-11.82,4.86-16.55A51.7,51.7,0,0,1,332,225.12a141.39,141.39,0,0,0,13.76-8.67q7.29-5.12,11.34-17.73a19.08,19.08,0,0,1,3.64-4.33,19.71,19.71,0,0,1,4.45-3.55l97.14-39.4a16.52,16.52,0,0,0,5.53.78q6.74,0,18.35-3.15a300.24,300.24,0,0,0,35.62-12.21,262.58,262.58,0,0,0,32.38-15.76q14.14-8.28,14.16-13,0-7.86-10.12-13.39A94.33,94.33,0,0,0,534.79,86a244.69,244.69,0,0,0-26.31-4.73,177.63,177.63,0,0,0-17.81-1.58A153.65,153.65,0,0,0,432,91.15Q404.07,102.58,376.54,116T321.09,140.8a151.43,151.43,0,0,1-57.88,11.42q-9.72,0-16.19-2.36t-11.34-14.19q8.08-2.35,14.58-21.27a279.24,279.24,0,0,0,10.52-42.17q4-23.23,6.47-44.13t2.43-28Z"/>
</svg>
