<svg id="Layer_1" data-name="Layer 1" xmlns="http://www.w3.org/2000/svg" viewBox="0 0 404.99 570.03">
  <defs>
    <style>
      .cls-1 {
        fill: #ec008c;
      }
    </style>
  </defs>
  <title>L</title>
  <path class="cls-1" d="M324.48.5a118,118,0,0,1-5.66,35.58,81.91,81.91,0,0,0-3.25,36,2159.52,2159.52,0,0,1-161.86,355,.27.27,0,0,0,0,.12v23.68a.25.25,0,0,0,.25.25h24.28c.57,0,7.94-1.46,21.91-4.34s30-6.35,49.38-10.66l58.28-13c19.86-4.44,36.19-8.3,48.55-11.45a17.89,17.89,0,0,0,4.52-1.59c2.4-1,5-2.09,7.68-3.15a50.24,50.24,0,0,1,7.65-2.36,35,35,0,0,1,4.37-.79c4.23,1.06,9.07,5.53,14.4,13.32s8.55,13.81,9.65,18c-11.22,18.23-20,31.6-26.24,39.75s-12.54,13.79-18.93,16.9-14.58,5.24-24.21,6.28-24.46,3.72-43.74,7.9a480.26,480.26,0,0,0-56.69,17c-19.37,7.09-39,14.12-58.28,20.91s-38.88,12.9-58.27,18.15a216.71,216.71,0,0,1-56.59,7.88h-21a52,52,0,0,1-9.21-6.65c-4-3.37-8.2-7.23-12.53-11.45s-8.19-8.26-11.73-12.24a51.67,51.67,0,0,1-6.73-8.83A150.49,150.49,0,0,0,53,478.5a440.62,440.62,0,0,0,34.82-71.17c9.64-25.09,18.9-50.88,27.53-76.66s18.92-48.79,30.74-68.71a.28.28,0,0,0,0-.13V246c0-.23.43-1.87,4.44-12.15,3-7.7,6.66-16.74,10.92-26.86,4.35-10.36,8.85-20.73,13.36-30.82s8.44-18.47,11.73-24.9c2.14-4.71,6.23-13.09,12.14-24.89s12.49-24.64,19.43-37.92c7.12-13.65,13.79-26.55,19.83-38.33,6.13-12,10.61-20.46,13.32-25.22A186.19,186.19,0,0,1,286.77,7.6,110.61,110.61,0,0,1,324.48.5M105.36,310.21c4.19,0,6.22,2.5,6.22,7.64s-2,7.63-6.22,7.63-6.23-2.5-6.23-7.63,2-7.64,6.23-7.64M324.73.25a110.28,110.28,0,0,0-38.05,7.12,184.82,184.82,0,0,0-35.61,17.38Q247,31.88,237.71,50T217.88,88.37q-10.53,20.14-19.43,37.92t-12.14,24.9q-4.86,9.5-11.74,24.9t-13.36,30.82q-6.48,15.41-10.93,26.87c-3,7.63-4.45,11.72-4.45,12.24v15.81q-17.81,30-30.76,68.76T87.55,407.24a438.19,438.19,0,0,1-34.81,71.13A149.44,149.44,0,0,1,.12,530.52Q1.74,533.68,7,539.6t11.73,12.26q6.48,6.32,12.55,11.46T40.6,570h21a216,216,0,0,0,56.66-7.89q29.15-7.89,58.28-18.15t58.29-20.91a475.79,475.79,0,0,1,56.66-17q29.15-6.32,43.71-7.89t24.29-6.31q9.7-4.73,19-17t26.31-39.86q-1.64-6.31-9.72-18.15t-14.57-13.42a33.6,33.6,0,0,0-4.45.79,50.31,50.31,0,0,0-7.69,2.38c-2.71,1.06-5.26,2.1-7.69,3.15a18.18,18.18,0,0,1-4.45,1.58q-18.63,4.74-48.57,11.45t-58.28,13q-28.35,6.31-49.38,10.67t-21.86,4.33H153.93V427.19A2148.62,2148.62,0,0,0,315.82,72.06a81.35,81.35,0,0,1,3.24-35.9A117.73,117.73,0,0,0,324.73.25ZM105.36,310c-4.33,0-6.48,2.64-6.48,7.89s2.15,7.88,6.48,7.88,6.47-2.63,6.47-7.88-2.16-7.89-6.47-7.89Z"/>
</svg>
