<svg id="Layer_1" data-name="Layer 1" xmlns="http://www.w3.org/2000/svg" viewBox="0 0 276.81 581.85">
  <defs>
    <style>
      .cls-1 {
        fill: #ec008c;
      }
    </style>
  </defs>
  <title>Left_Bracket</title>
  <path class="cls-1" d="M233.58.45l9.66,60.4a.3.3,0,0,0,.12.17l31.51,20.45c1.29,2.53,1.56,3.45,1.56,3.77,0,6.72-4.33,14.22-12.87,22.28A340.69,340.69,0,0,1,231.2,133.9c-12.77,9.32-26.93,19.26-42.08,29.54C174.14,173.6,160,184.21,147,195a218.07,218.07,0,0,0-32.41,32.75c-8.63,11-13,22.21-13,33.25a34.64,34.64,0,0,0,.41,5.16,40.91,40.91,0,0,1,.4,5.87.22.22,0,0,0,0,.08c2,6.43,5.69,18,10.77,34l1,3.06c5.53,17.43,11.35,36.12,17.81,57.13s12.14,39.76,17.4,57.14c5.31,17.6,9.12,30.06,11.33,37,.52,3.61,1.58,9.16,3.24,17,1.6,7.56,3.24,15.51,4.85,23.64s3.24,15.91,4.86,23.25,2.69,12.82,3.23,16.5c0,.6.16,3.17.41,6.71.27,4,.4,7,.4,9,0,1-.13,3.25-.4,7.07-.26,3.37-.4,6-.41,7.7-2.19.52-6.34,1.29-12.33,2.32-6.15,1-13,2.23-20.24,3.55s-14.33,2.38-20.63,3.15-10.52,1.18-12.11,1.18h-5.67c-10.11,0-19-6.19-26.5-18.4s-14.58-28-21-46.84c-3.25-9.49-6.24-19.29-8.9-29.15-2.84-10.45-5.84-21.19-8.91-31.92-3.22-11.25-7.31-23.58-12.15-36.66S17.31,390.86,9.79,375.17c-8.59-47-11.31-87.89-8.09-121.45S14.16,193,29.18,172.86l0-.05L61.55,98a103.67,103.67,0,0,0,23-12.6c7.07-5.09,14.16-10.4,21.06-15.77s13.61-10.46,20.23-15.36a111.08,111.08,0,0,1,20.61-12.19c14.34-7.24,28.91-14.93,43.31-22.86A239.76,239.76,0,0,1,233.58.45m.2-.33A239,239,0,0,0,189.66,19q-21.45,11.82-43.31,22.85a111.39,111.39,0,0,0-20.64,12.22q-10.12,7.5-20.24,15.37t-21,15.76A103.9,103.9,0,0,1,61.36,97.85L29,172.71Q-16.36,233.42,9.55,375.25q11.33,23.64,18.62,43.34t12.14,36.65q4.86,17,8.9,31.92t8.91,29.16q9.72,28.36,21.05,46.89t26.71,18.52h5.67q2.42,0,12.14-1.19t20.64-3.15q10.92-2,20.24-3.54c6.19-1.06,10.38-1.85,12.54-2.37,0-1.57.13-4.21.41-7.88s.4-6,.4-7.09c0-2.11-.14-5.12-.4-9.06s-.41-6.17-.41-6.7q-.81-5.5-3.23-16.55T169,501q-2.43-12.21-4.86-23.64t-3.24-16.95q-3.24-10.23-11.33-37t-17.4-57.13q-9.31-30.33-17.81-57.14t-11.74-37a42.45,42.45,0,0,0-.4-5.91,34,34,0,0,1-.41-5.12q0-16.55,13-33.1a217.68,217.68,0,0,1,32.38-32.71q19.43-16.14,42.1-31.52t42.09-29.55a339,339,0,0,0,32.38-26.4q12.93-12.21,12.95-22.46a13.64,13.64,0,0,0-1.62-3.94L243.49,60.81,233.78.12Z"/>
</svg>
