<svg id="Layer_1" data-name="Layer 1" xmlns="http://www.w3.org/2000/svg" viewBox="0 0 315.95 410.05">
  <defs>
    <style>
      .cls-1 {
        fill: #ec008c;
      }
    </style>
  </defs>
  <title>Left_Parenthesis</title>
  <path class="cls-1" d="M315.46.5A170.17,170.17,0,0,1,288.11,47a446.6,446.6,0,0,1-39.64,42.14c-14.43,13.54-29.28,27.06-44.12,40.19a528.55,528.55,0,0,0-40.89,40.21,206.27,206.27,0,0,0-30.4,43,102.23,102.23,0,0,0-11.76,47.8c0,6.86,1.78,14.18,5.28,21.77A107,107,0,0,0,140,303.81a95.62,95.62,0,0,0,18.26,17.78,56.54,56.54,0,0,0,19.66,9.83c-1.58,4.61-3.54,10.59-6,18.27A229.39,229.39,0,0,1,163,372.91a174.07,174.07,0,0,1-11.72,22c-4.27,6.75-8.85,11.74-13.62,14.86A159.27,159.27,0,0,1,86,399.57a143.79,143.79,0,0,1-44-26,125.86,125.86,0,0,1-30.3-39.33C4.18,319.17.37,302.24.37,284c0-20.36,4.9-41.8,14.55-63.74a304.49,304.49,0,0,1,39.23-64.56,440.13,440.13,0,0,1,56.63-59.47A490.19,490.19,0,0,1,177.53,47,386.83,386.83,0,0,1,247.1,13.09C270.19,4.74,291.94.5,311.78.5h3.68m.36-.25h-4q-30,0-64.76,12.61A385,385,0,0,0,177.4,46.75,487.37,487.37,0,0,0,110.62,96,437.41,437.41,0,0,0,54,155.5,302.64,302.64,0,0,0,14.7,220.12Q.12,253.23.12,284q0,27.6,11.34,50.44a125.54,125.54,0,0,0,30.35,39.4,143.92,143.92,0,0,0,44.12,26,159.17,159.17,0,0,0,51.81,10.24q7.27-4.73,13.76-15A174.45,174.45,0,0,0,163.24,373a227.14,227.14,0,0,0,8.9-23.25q3.65-11.42,6.07-18.52-9.71-2.36-19.83-9.85a94.52,94.52,0,0,1-18.21-17.73A106,106,0,0,1,126.81,282q-5.28-11.42-5.26-21.67a101.44,101.44,0,0,1,11.74-47.68,204.67,204.67,0,0,1,30.35-42.95,524.74,524.74,0,0,1,40.88-40.19q22.26-19.69,44.12-40.2A444.53,444.53,0,0,0,288.3,47.14,169.43,169.43,0,0,0,315.82.25Z"/>
</svg>
