<svg id="Layer_1" data-name="Layer 1" xmlns="http://www.w3.org/2000/svg" viewBox="0 0 478.66 542.45">
  <defs>
    <style>
      .cls-1 {
        fill: #ec008c;
      }
    </style>
  </defs>
  <title>Left_Brace</title>
  <path class="cls-1" d="M404.87.5c3.69,0,8.72.26,15.36.79,6.39.52,12.66.79,18.64.79,5.82,0,11.13.13,15.77.39s6.92.38,7.59.39l16,17.11a36.49,36.49,0,0,1-13.55,11.58,93.73,93.73,0,0,1-17,6.29,144.82,144.82,0,0,1-17.78,3.54,91.7,91.7,0,0,0-16.22,3.55,40.41,40.41,0,0,0-17.1,8.72,117.77,117.77,0,0,0-13.79,14.22c-4.13,5-8.35,10.31-12.55,15.76A71,71,0,0,1,356.93,97c-5.87,5.72-14.82,10.2-26.6,13.33s-23.92,6.71-36,10.64a177.54,177.54,0,0,0-32.83,14.21c-9.75,5.53-15.78,13.41-17.93,23.38-.53,1.56-4.11,13.81-10.93,37.45-7,24.1-16.9,57.64-29.55,99.69-11.8,42.31-20.49,65.86-25.83,70-4.35,4.23-6.55,10.39-6.55,18.3,0,5.39,2,8.39,5.88,8.92a70.79,70.79,0,0,0,9.75.79,523,523,0,0,0,94.75-8.67,527.31,527.31,0,0,1,95.48-8.67h21c4.19,0,8.48,3.67,12.74,10.91s.42,15.85-11.27,25.69c-11.82,9.4-23.37,16-34.33,19.66s-19.12,7.94-23.94,12.64a95.93,95.93,0,0,0-17.85,15c-5.38,5.76-11,11.59-16.59,17.33a204.55,204.55,0,0,1-17.79,16.14A68.52,68.52,0,0,1,268,505.18c-5.34,2.61-15.4,5.66-29.89,9.05-14.33,3.35-30,6.8-46.54,10.24s-32.26,6.62-46.55,9.46-24.77,4.84-30.71,5.9a64,64,0,0,0-8.14,1.19,60.52,60.52,0,0,1-8.86,1.18c-8,0-17.68-1.59-28.66-4.72a139.26,139.26,0,0,1-31.52-13.37,110.31,110.31,0,0,1-25.84-20.45C4,495.87.37,486.91.37,477A29.25,29.25,0,0,1,7.6,457.11a134.07,134.07,0,0,1,16.56-15.73c6.14-4.94,12.53-9.84,19-14.58A50.61,50.61,0,0,0,57.82,411c7-13.11,11.22-26.39,12.57-39.5a282.28,282.28,0,0,0,1.22-39.83c-.54-13.33-.54-26.71,0-39.78a92.14,92.14,0,0,1,10.5-38.51c.49-1,3-2.4,7.56-4.22s7.42-3,8.55-3.58c6.46-4.71,13.56-13.08,21.11-24.89a347.7,347.7,0,0,0,21.06-38.25,347.94,347.94,0,0,0,16.2-40.22c4.31-13.1,6.49-23.73,6.49-31.6v-3.94a.25.25,0,0,0-.08-.18,32.3,32.3,0,0,1-3.19-4.68c-1.68-2.72-3.45-5.63-5.26-8.66-2.14-3.56-3.81-6.31-5.27-8.68-2.08-3.37-2.39-4.32-2.39-4.59a33.59,33.59,0,0,0-.41-3.59,31,31,0,0,1-.4-4.29,47.7,47.7,0,0,1,.41-5.1c.25-2.3.38-3.62.4-4.22a393.45,393.45,0,0,1,62.17-31.83,388.39,388.39,0,0,1,62.29-18.9,477.78,477.78,0,0,1,64.73-9.06C358.09,1.3,381.23.5,404.87.5m0-.25q-35.64,0-68.81,2.36a475.35,475.35,0,0,0-64.76,9.07A386.15,386.15,0,0,0,209,30.59a390.91,390.91,0,0,0-62.33,31.92c0,.53-.14,2-.4,4.33a48.86,48.86,0,0,0-.41,5.13,30.18,30.18,0,0,0,.41,4.33c.26,1.85.4,3,.4,3.55s.81,2.1,2.43,4.73,3.36,5.51,5.26,8.66,3.64,6.05,5.26,8.67a32.35,32.35,0,0,0,3.24,4.73v3.94q0,11.82-6.47,31.52a349.76,349.76,0,0,1-16.19,40.2,348,348,0,0,1-21,38.22q-11.34,17.73-21.05,24.82-1.63.79-8.5,3.55t-7.69,4.33a92.08,92.08,0,0,0-10.52,38.62q-.81,19.71,0,39.8a281.86,281.86,0,0,1-1.21,39.8q-2,19.69-12.55,39.4A50.13,50.13,0,0,1,43,426.6q-9.72,7.09-19,14.58A134.49,134.49,0,0,0,7.41,456.94,29.36,29.36,0,0,0,.12,477q0,15,10.93,26.79A109.87,109.87,0,0,0,37,524.32a138.26,138.26,0,0,0,31.57,13.4q16.57,4.72,28.73,4.73a61.1,61.1,0,0,0,8.91-1.18,64.76,64.76,0,0,1,8.09-1.19q8.89-1.58,30.76-5.91t46.55-9.45q24.68-5.15,46.54-10.25t29.95-9.06A68.38,68.38,0,0,0,288.71,494a204.72,204.72,0,0,0,17.81-16.15q8.49-8.67,16.59-17.34a95.16,95.16,0,0,1,17.81-15q7.27-7.09,23.88-12.61t34.4-19.71q17.79-15,11.33-26t-12.95-11h-21A525.72,525.72,0,0,0,281,384.83a519.74,519.74,0,0,1-94.71,8.67,71.23,71.23,0,0,1-9.72-.79c-3.78-.51-5.66-3.41-5.66-8.67q0-11.82,6.47-18.12,8.08-6.3,25.91-70.14,19.42-64.6,29.54-99.69t10.93-37.44q3.22-15,17.81-23.24a176.34,176.34,0,0,1,32.78-14.19q18.22-5.91,36-10.64t26.72-13.4a70.83,70.83,0,0,0,13.35-13.39Q376.54,75.92,383,68a117.34,117.34,0,0,1,13.76-14.19,40.17,40.17,0,0,1,17-8.67A91.34,91.34,0,0,1,430,41.62a142.34,142.34,0,0,0,17.81-3.54,93.25,93.25,0,0,0,17-6.31A36.5,36.5,0,0,0,478.53,20L462.34,2.61c-.54,0-3.11-.12-7.69-.39s-9.85-.39-15.78-.39S426.72,1.57,420.25,1,408.64.25,404.87.25Z"/>
</svg>
