<svg id="Layer_1" data-name="Layer 1" xmlns="http://www.w3.org/2000/svg" viewBox="0 0 260.9 772.71">
  <defs>
    <style>
      .cls-1 {
        fill: #ec008c;
      }
    </style>
  </defs>
  <title>Less_Than</title>
  <path class="cls-1" d="M147.8.5c2.14,0,6.22,1,12.12,2.89,7.19,2.33,15.09,5.11,23.47,8.27,10,3.78,16.92,6.37,23.07,8.67,6.65,2.5,10.95,3.83,12.79,3.94v7.64a203.66,203.66,0,0,1-10.92,65.33A541.74,541.74,0,0,1,182,161.05c-10.16,20.83-20.92,41.9-32,62.64A562,562,0,0,0,122.12,284a.28.28,0,0,0,0,.09,34.48,34.48,0,0,1-.4,3.51,30.87,30.87,0,0,0-.41,4.37,48.94,48.94,0,0,0,4.88,20.2,168.12,168.12,0,0,0,11.75,21.31c4.55,7.05,9.18,13.94,13.77,20.5s8.26,12.27,10.91,16.91c11.4,21.68,23.11,43.55,34.81,65A684.28,684.28,0,0,1,229,502.1a515.76,515.76,0,0,1,22.65,68.53,292.89,292.89,0,0,1,8.9,72c0,45.94-10.87,79.42-32.3,99.5s-57.07,30.28-105.87,30.28H115c15.3-11.9,26-23.44,31.87-34.31,5.93-11,8.94-26.18,8.94-45A286.72,286.72,0,0,0,141.62,604,555.11,555.11,0,0,0,106,519.62a900.5,900.5,0,0,0-47.36-80C41.48,413.81,24.87,388,9.24,362.78c-4.19-7-6.3-10.54-7.28-12.22S.38,345,.38,339.26A29.79,29.79,0,0,1,.78,335a33.61,33.61,0,0,0,.4-3.55l3.15-12.24,4.13-16.1c3.22-12.54,6.49-25.66,9.72-39s6.38-25.9,9.31-37,5-18.54,6.06-21.67c1.65-5.86,4.64-14.74,8.9-26.38S52,154,58.23,139.59,71.34,110.1,78.87,94.68s15.29-29.89,23.06-42.94a270.78,270.78,0,0,1,23.45-33.85C133.13,8.52,140.3,2.71,146.72.63A3.49,3.49,0,0,1,147.8.5m0-.25a4,4,0,0,0-1.16.14q-9.7,3.17-21.45,17.34a267.85,267.85,0,0,0-23.47,33.89Q90,71.32,78.65,94.57T58,139.49q-9.31,21.67-15.78,39.4t-8.91,26.4Q31.69,210,27.24,227t-9.31,37q-4.85,20.1-9.71,39L.93,331.38a32,32,0,0,1-.4,3.55,30.26,30.26,0,0,0-.4,4.33q0,8.69,1.61,11.43c1.08,1.85,3.51,5.91,7.29,12.22q23.48,37.83,49.38,76.83a898,898,0,0,1,47.35,80,551.4,551.4,0,0,1,35.62,84.33,285.06,285.06,0,0,1,14.17,89.05q0,28.38-8.91,44.92t-32.38,34.68h8.1q73.65,0,106-30.34t32.38-99.69a292.18,292.18,0,0,0-8.9-72.11A514.45,514.45,0,0,0,229.21,502a680,680,0,0,0-31.57-66.2q-17.82-32.68-34.81-65-4.05-7.1-10.93-17t-13.76-20.49a166.62,166.62,0,0,1-11.74-21.27q-4.84-10.65-4.85-20.1a30.25,30.25,0,0,1,.4-4.34,32.94,32.94,0,0,0,.41-3.54,560.29,560.29,0,0,1,27.92-60.29q16.59-31.12,32-62.65a542.34,542.34,0,0,0,26.31-63.84A203,203,0,0,0,219.5,31.91V24c-1.62,0-5.95-1.3-13-3.94s-14.71-5.51-23.07-8.67S167.28,5.51,160,3.15Q151,.24,147.8.25Z"/>
</svg>
