<svg id="Layer_1" data-name="Layer 1" xmlns="http://www.w3.org/2000/svg" viewBox="0 0 633.06 529.84">
  <defs>
    <style>
      .cls-1 {
        fill: #ec008c;
      }
    </style>
  </defs>
  <title>M</title>
  <path class="cls-1" d="M348.2.5a35.33,35.33,0,0,1,4.42.39c1.53.22,2.67.35,3.35.39-4.25,15-6.81,27.92-7.61,38.35s-1.22,23.21-1.22,37.85c0,3.31.14,8.49.41,15,.26,6.76.4,10.51.4,11.06.54,4.72,1.86,13,4.05,25.23,2.13,12,4.59,24.84,7.29,38.23,2.53,12.56,5,24.93,7.69,37.83,2.56,12.44,4.23,20.33,5.26,24.83a.26.26,0,0,0,.25.19,6.8,6.8,0,0,1,1.94.38,6.89,6.89,0,0,0,2.11.41,25.21,25.21,0,0,0,4.08-.79c.43,0,1.27-.44,3.79-3.23,1.93-2.15,3.38-3.69,4.46-4.74l40.47-47.28c8.51-9.33,20.09-21.13,34.39-35.06,14.63-14.24,28.92-28,42.5-41,12.68-12.12,24.93-23.78,36.42-34.68C553,54,558.14,49.18,558.81,48.53l64.5-31.4a85.45,85.45,0,0,1,6.75,23.74,245.93,245.93,0,0,1,2.43,27.95c.26,9.41.26,18.55,0,27.17-.27,8.37-.41,15.67-.41,21.68,0,14.12-.41,32.28-1.21,54s-2.57,45.1-5.26,69.72a664.2,664.2,0,0,1-12.54,74.45c-5.64,24.82-13.4,47.48-23.06,67.33s-22.14,36.23-37.17,48.78-33.19,18.85-54.07,18.85c-13.37,0-21.76-1.44-24.93-4.27s-4.77-10.84-4.77-23.85a221.42,221.42,0,0,1,4-42.11c2.66-13.76,5.66-27.81,8.9-41.76,3.17-13.62,6.17-27.81,8.91-42.18A232.91,232.91,0,0,0,495,253.22c0-2.56-.13-7.57-.41-15.77-.26-7.49-.4-12.94-.4-15.75a.25.25,0,0,0-.14-.23l-.11,0a.3.3,0,0,0-.16.05c-21,16.77-37.73,33.75-49.83,50.49-11.32,15.68-23.1,31.92-36,49.65a434.69,434.69,0,0,1-39.64,46.86c-14.49,14.89-34.87,29.05-60.59,42.09h-4c-14.46,0-25.85-2.64-33.86-7.84a46.1,46.1,0,0,1-17.72-21.17,95.32,95.32,0,0,1-6.86-30.26c-.82-11.55-1.51-23.34-2-35.06A.25.25,0,0,0,243,316a6.45,6.45,0,0,1-1.95-.38,7.23,7.23,0,0,0-2.1-.41,25,25,0,0,0-4.08.79c-.43,0-1.28.44-3.79,3.23-1.94,2.16-3.4,3.7-4.46,4.73-3.81,4.25-9.26,10.62-16.19,18.92-7.12,8.53-15.29,18.21-24.28,28.77S167.43,393.78,157.38,406C147.52,417.88,138,429.54,129,440.63s-17,20.9-24.28,29.55S92.26,485.23,89,489.47c-5.32,4.15-11.14,8.52-17.78,13.37a182.29,182.29,0,0,1-20.61,13,161,161,0,0,1-21.82,9.83,60.71,60.71,0,0,1-20.56,3.93,35.64,35.64,0,0,1-4.42-.39c-1.46-.21-2.6-.35-3.29-.39a797.43,797.43,0,0,1,67-120.19c25.28-37.18,49.79-74.44,72.86-110.74a776.19,776.19,0,0,0,59.51-113.12c16.39-38.71,25.52-81.94,27.14-128.48a36.36,36.36,0,0,1,10.41-10.5L248.29,39l.48-.3a77.45,77.45,0,0,0,10.56-7.9c3.2-2.86,5.93-7.46,8.09-13.69,4.38,1,12.28,1.53,24.12,1.53,12,0,20-.51,24.31-1.57.26,0,1-.1,4.56-2.41,2.41-1.56,5-3.42,7.71-5.52s5.3-4,7.67-5.51c3-1.92,4-2.32,4.32-2.32a34.23,34.23,0,0,0,3.67-.4A35.18,35.18,0,0,1,348.2.5m0-.25a34.68,34.68,0,0,0-4.45.39,34.61,34.61,0,0,1-3.64.4q-.83,0-4.45,2.36c-2.43,1.58-5,3.43-7.69,5.52s-5.27,3.94-7.69,5.51-3.93,2.37-4.46,2.37q-6.48,1.59-24.28,1.58T267.25,16.8c-2.16,6.3-4.85,10.91-8.09,13.79a77.76,77.76,0,0,1-10.52,7.88L237.3,45.56A36.75,36.75,0,0,0,226.78,56.2q-2.43,70.16-27.12,128.46a772.74,772.74,0,0,1-59.49,113.09q-34.81,54.78-72.86,110.72A796.54,796.54,0,0,0,.12,529.05a32.89,32.89,0,0,1,3.65.39,35.19,35.19,0,0,0,4.45.4,60.82,60.82,0,0,0,20.64-3.94,159.41,159.41,0,0,0,21.86-9.85,181.42,181.42,0,0,0,20.64-13q9.72-7.08,17.81-13.39Q94,483.35,105,470.34t24.29-29.55q13.35-16.56,28.33-34.68t28.74-34.28q13.75-16.14,24.28-28.77t16.19-18.91c1.08-1,2.56-2.62,4.45-4.73s3.1-3.15,3.65-3.15a25.47,25.47,0,0,1,4-.79,7,7,0,0,1,2,.4,6.55,6.55,0,0,0,2,.39q.79,18.14,2,35.07a94.81,94.81,0,0,0,6.88,30.34A46.25,46.25,0,0,0,269.68,403q12.15,7.89,34,7.88h4.05q38.85-19.69,60.71-42.16a432.91,432.91,0,0,0,39.66-46.89q17.81-24.42,36-49.65t49.78-50.44q0,3.95.4,15.76t.41,15.76a231.32,231.32,0,0,1-4.05,43.35q-4.05,21.27-8.9,42.16t-8.91,41.77a220.87,220.87,0,0,0-4,42.16q0,19.71,4.85,24t25.1,4.33q31.56,0,54.23-18.91t37.24-48.86q14.57-29.94,23.07-67.38a661.4,661.4,0,0,0,12.55-74.48q4-37,5.26-69.74t1.21-54q0-8.65.41-21.67t0-27.19a243.81,243.81,0,0,0-2.43-28,84.74,84.74,0,0,0-6.88-24L558.67,48.32,542.48,63.69q-15.39,14.6-36.43,34.68t-42.5,41q-21.45,20.88-34.4,35.07L388.68,221.7c-1.09,1.06-2.57,2.63-4.45,4.73s-3.12,3.15-3.65,3.15a24.67,24.67,0,0,1-4,.79,6.32,6.32,0,0,1-2-.4,7.27,7.27,0,0,0-2-.39q-1.64-7.1-5.26-24.82t-7.69-37.83q-4.07-20.1-7.29-38.22t-4.05-25.22c0-.52-.14-4.2-.4-11s-.41-11.83-.41-15q0-22.05,1.22-37.83T356.3,1a33.55,33.55,0,0,1-3.64-.4A35,35,0,0,0,348.2.25Z"/>
</svg>
