<svg id="Layer_1" data-name="Layer 1" xmlns="http://www.w3.org/2000/svg" viewBox="0 0 286.81 96.4">
  <defs>
    <style>
      .cls-1 {
        fill: #ec008c;
      }
    </style>
  </defs>
  <title>Minus</title>
  <path class="cls-1" d="M118.31.38c1,0,3,.12,6,.39,2.65.24,4.61.39,5.25.39l153.77,39.4h.06c.16,0,.73.18,1.8,2.61a11.61,11.61,0,0,1,1.19,4.23c0,6.18-2.95,10.74-8.76,13.57a30.46,30.46,0,0,1-13.37,3.15,31.61,31.61,0,0,1-5.1-.42h0a.24.24,0,0,0-.22.14.25.25,0,0,0,.05.29l15.82,15.4c-18.25,2.55-35.1,4.91-50.09,7s-29.32,3.83-42.89,5.12-27.3,2.36-40.87,3.15S112.83,96,97.26,96c-14.53,0-26.91-.93-36.78-2.75S42,88.15,35.07,83.45A66.41,66.41,0,0,1,16.53,63.82,213.78,213.78,0,0,1,.44,32.54C16.5,22.67,35.75,14.76,57.66,9S100.08.38,118.31.38m0-.26Q90.79.12,57.6,8.79T.13,32.44A215.18,215.18,0,0,0,16.31,64a66.55,66.55,0,0,0,18.62,19.7q10.51,7.09,25.5,9.85t36.83,2.76q23.47,0,43.72-1.18t40.87-3.15q20.66-2,42.91-5.13t50.59-7.09L259.16,64a32.1,32.1,0,0,0,5.14.42,30.48,30.48,0,0,0,13.48-3.18c5.93-2.88,8.9-7.49,8.9-13.79a11.67,11.67,0,0,0-1.21-4.33c-.81-1.84-1.49-2.76-2-2.76L129.64.91c-.54,0-2.3-.12-5.26-.39s-5-.4-6.07-.4Z"/>
</svg>
