<svg id="Layer_1" data-name="Layer 1" xmlns="http://www.w3.org/2000/svg" viewBox="0 0 610.6 577.91">
  <defs>
    <style>
      .cls-1 {
        fill: #ec008c;
      }
    </style>
  </defs>
  <title>N</title>
  <path class="cls-1" d="M610.23.38A455.51,455.51,0,0,1,605,69.44a636.17,636.17,0,0,1-14.16,66.94C580,165.86,569,196.62,558,227.8c-11,31.46-22.89,63.54-35.21,95.35-12.4,32-25.74,63.93-39.66,95A844.6,844.6,0,0,1,437,506.73c-3.15,5.12-7.39,11.69-12.94,20.09-5.32,8-10.63,15.84-15.79,23.24-5,7.16-9.49,13.66-13.35,19.31-4.95,7.21-6,8.11-6.27,8.17h-7.85V538.38a.25.25,0,0,0-.25-.25,6.5,6.5,0,0,1-1.95-.38,7.23,7.23,0,0,0-2.09-.41,25.65,25.65,0,0,0-4.11.8.34.34,0,0,0-.12.06l-16.16,15.74a4.45,4.45,0,0,0-2.1,1.66,1.13,1.13,0,0,1-.74.63c0-13.32-.14-25.16-.4-35.19a181.72,181.72,0,0,0-2.84-28,230.69,230.69,0,0,0-6.49-26c-2.71-8.69-6.52-19.17-11.34-31.15-6.07-14.5-14-32.79-23.47-54.39-9.64-21.89-19.44-43.63-29.15-64.62C271,298.14,262,278.61,254.53,262.45c-10.54-22.88-11.18-23.51-11.39-23.72l-8.09-7.88a.28.28,0,0,0-.17-.07.29.29,0,0,0-.18.07l-8.09,7.88c-.57.56-4.29,6.5-11.38,18.18S200,282.32,191,297.89c-9.48,16.27-19.15,32.71-28.74,48.86-9.69,16.31-18,30.36-24.69,41.78-7,12.51-13.78,26-20.25,40.21s-13.38,28-20.63,41.35A302.42,302.42,0,0,1,72,508.28,130.12,130.12,0,0,1,40.69,538c-.6-1.2-1.78-3.76-3.51-7.62-1.92-4.27-3.4-6.87-4.5-8a.23.23,0,0,0-.12-.06,25.84,25.84,0,0,0-4.1-.8,25.25,25.25,0,0,0-4.11.8s-.05,0-.08,0a72.37,72.37,0,0,0-8.53,7.52,74.51,74.51,0,0,0-7.6,8.13,20.46,20.46,0,0,1-4.2-3.4,19.35,19.35,0,0,1-3.57-4.22v-7.77l178.06-457A36.14,36.14,0,0,0,187,47.85a106.81,106.81,0,0,0,2-19.11c10.69,0,19.76-1.89,27-5.54s16.31-5.49,27-5.49c15.51,0,29.61,5.55,41.93,16.49s23.6,25.38,33.54,42.89a369.29,369.29,0,0,1,26.29,58.27c7.51,21.18,14.46,42.25,20.64,62.65s11.89,39.5,17,56.73,9.88,30.58,14.18,39.45a.23.23,0,0,0,.18.13h0a.29.29,0,0,0,.18-.07l8.09-7.88a.24.24,0,0,0,.07-.12c6.95-25.53,14.44-50.59,22.26-74.46s16.47-47.2,25.89-69.73a720.38,720.38,0,0,1,32-66.56A595.16,595.16,0,0,1,526.4,10.64a91.43,91.43,0,0,0,11.52.77,69,69,0,0,0,10.67-.79c6.68-1,13.36-2.37,19.85-3.95s13.07-3,19.82-4.33a117.17,117.17,0,0,1,22-2m.25-.26a117.72,117.72,0,0,0-22.26,2q-10.14,2-19.84,4.34t-19.83,3.94a68.56,68.56,0,0,1-10.63.79,89.6,89.6,0,0,1-11.63-.79,592.05,592.05,0,0,0-41.28,65A717.4,717.4,0,0,0,453,142q-14.17,33.89-25.9,69.74T404.87,286.2l-8.1,7.88q-6.48-13.4-14.16-39.41t-17-56.74Q356.29,167.2,345,135.28A368.6,368.6,0,0,0,318.66,77q-15-26.38-33.6-42.95T243,17.46q-16.2,0-27.12,5.52T188.73,28.5a104.82,104.82,0,0,1-2,19.3,35.58,35.58,0,0,1-8.5,17.74L.12,522.62v7.88a19.25,19.25,0,0,0,3.65,4.34,19,19,0,0,0,4.45,3.54,70.23,70.23,0,0,1,7.69-8.27,72.61,72.61,0,0,1,8.5-7.49,25.3,25.3,0,0,1,4.05-.79,25.9,25.9,0,0,1,4,.79q1.62,1.59,4.46,7.88c1.88,4.21,3.1,6.84,3.64,7.88a129.69,129.69,0,0,0,31.57-29.94,301.19,301.19,0,0,0,24.69-38.23q10.92-20.08,20.64-41.37t20.24-40.19q9.7-16.56,24.69-41.77T191.16,298q13.76-23.64,24.29-41t11.33-18.13l8.1-7.88,8.09,7.88q.79.79,11.33,23.64t25.1,54.38q14.57,31.53,29.14,64.62T332,435.93q7.29,18.13,11.34,31.13a230.8,230.8,0,0,1,6.47,26,180,180,0,0,1,2.84,28q.39,15,.4,35.47a1.31,1.31,0,0,0,1.21-.79,4.26,4.26,0,0,1,2-1.58l16.19-15.76a26.58,26.58,0,0,1,4.05-.79,7,7,0,0,1,2,.4,6.55,6.55,0,0,0,2,.39v39.41h8.1q.79,0,6.47-8.28t13.36-19.31q7.68-11,15.78-23.24t13-20.1a841.29,841.29,0,0,0,46.14-88.66q21-46.87,39.66-95t35.21-95.36q16.59-47.28,32.79-91.42a631.1,631.1,0,0,0,14.16-67A451.13,451.13,0,0,0,610.48.12Z"/>
</svg>
