<svg id="Layer_1" data-name="Layer 1" xmlns="http://www.w3.org/2000/svg" viewBox="0 0 551.51 441.57">
  <defs>
    <style>
      .cls-1 {
        fill: #ec008c;
      }
    </style>
  </defs>
  <title>O</title>
  <path class="cls-1" d="M323.92.38a292.9,292.9,0,0,1,79.26,11.41,254.94,254.94,0,0,1,73.19,33.46,187.32,187.32,0,0,1,53.76,55.1c13.94,21.92,21,47.6,21,76.31,0,13.53-.54,28.11-1.61,43.32A71.36,71.36,0,0,1,534.19,260c-14,18.34-31.69,38.22-52.6,59.08a589.37,589.37,0,0,1-68.78,58.69A443.57,443.57,0,0,1,336,423.1c-26.28,12-52.11,18.1-76.8,18.1-9.14,0-21.24-1.46-36-4.33a447.35,447.35,0,0,1-48.55-12.6c-17.49-5.5-35.46-12.13-53.4-19.7a355.52,355.52,0,0,1-49.34-25.2,188.53,188.53,0,0,1-37.6-29.9c-10.16-10.67-16.13-22.16-17.74-34.15-.54-3.63-1.35-10-2.43-18.91-1.05-8.68-2-18.22-2.83-28.36-.85-10.49-1.51-19.77-2-28.36-.54-8.81-.81-15.17-.81-18.9a.25.25,0,0,0-.08-.18L.47,212.89l72.65-86.46a92.3,92.3,0,0,0,32-17.36c9.43-7.87,18.56-16.23,27.14-24.84,8.39-8.43,17.1-16.92,25.9-25.21a105.64,105.64,0,0,1,28.23-19.25c1.64-.53,6-1.45,12.92-2.75s14.74-2.89,23.08-4.73c9.46-2.08,16.92-3.71,23.48-5.13,7.34-1.58,11.7-2.61,13.34-3.14,1.14,0,3.74-.69,7.73-2s8.23-2.88,12.57-4.73c4.54-1.93,8.64-3.74,12.55-5.52s6.53-3,7.66-3.54c3.18-1,7.82-2.57,14.17-4.73,6.17-2.08,9.54-3.13,10-3.13M234.88,329c19.36,0,39.54-3.45,60-10.25a189.54,189.54,0,0,0,55.52-29.2,169.41,169.41,0,0,0,40.94-45c10.77-17.3,16.23-37,16.23-58.45,0-2.56-.26-7.58-.81-15.78a150,150,0,0,0-1.63-15.79.18.18,0,0,0,0-.1,115.45,115.45,0,0,0-29.61-28,69.75,69.75,0,0,0-39.4-12.25c-8.63,0-19.42,2.39-32.06,7.11a307.2,307.2,0,0,0-40.51,18.92A399,399,0,0,0,221,167.39a354.26,354.26,0,0,0-38.08,31.94,179.89,179.89,0,0,0-27.56,33.54c-7,11.29-10.56,21.8-10.56,31.26,0,12.62,2.6,23.27,7.73,31.66A57.87,57.87,0,0,0,173.23,316a87,87,0,0,0,28.82,10.27A190.75,190.75,0,0,0,234.88,329M323.92.12q-.82,0-10.12,3.16T299.63,8q-1.62.8-7.69,3.54T279.4,17.07c-4.33,1.85-8.5,3.42-12.55,4.73s-6.61,2-7.69,2c-1.62.53-6.07,1.57-13.36,3.15L222.33,32q-12.56,2.77-23.07,4.73t-12.95,2.76A105.62,105.62,0,0,0,158,58.84Q145,71.07,132.07,84.06T105,108.88a91.83,91.83,0,0,1-32,17.34L.12,212.91l8.1,7.88q0,5.52.81,18.91t2,28.37q1.21,15,2.84,28.37t2.42,18.92q2.43,18.13,17.81,34.28a188.45,188.45,0,0,0,37.64,29.94,354.88,354.88,0,0,0,49.38,25.22q27.12,11.44,53.43,19.71a450,450,0,0,0,48.57,12.61q22.25,4.33,36,4.33,37.23,0,76.9-18.13A442.07,442.07,0,0,0,413,378a587.9,587.9,0,0,0,68.81-58.71q31.56-31.51,52.61-59.11A71.21,71.21,0,0,0,549.76,220q1.62-22.84,1.62-43.34,0-43.33-21-76.45a186.55,186.55,0,0,0-53.83-55.16,253.74,253.74,0,0,0-73.26-33.5A291.54,291.54,0,0,0,323.92.12Zm-89,328.63A190.06,190.06,0,0,1,202.09,326a86.59,86.59,0,0,1-28.74-10.25,57.37,57.37,0,0,1-20.64-20.09Q145,283.06,145,264.13q0-14.19,10.53-31.13a178.73,178.73,0,0,1,27.52-33.49,352.56,352.56,0,0,1,38-31.92,398,398,0,0,1,42.5-27.19,305.43,305.43,0,0,1,40.48-18.91q19-7.09,32-7.09a69.17,69.17,0,0,1,39.26,12.21,114.49,114.49,0,0,1,29.55,28,152.06,152.06,0,0,1,1.62,15.76c.53,7.88.81,13.14.81,15.76q0,32.32-16.19,58.32a168.57,168.57,0,0,1-40.88,44.92,188.19,188.19,0,0,1-55.45,29.16q-30.78,10.25-59.9,10.24Z"/>
</svg>
