<svg id="Layer_1" data-name="Layer 1" xmlns="http://www.w3.org/2000/svg" viewBox="0 0 559.6 551.91">
  <defs>
    <style>
      .cls-1 {
        fill: #ec008c;
      }
    </style>
  </defs>
  <title>P</title>
  <path class="cls-1" d="M446.15.5c4.19,0,6.23,2.5,6.23,7.63s-2,7.63-6.23,7.63-6.23-2.49-6.23-7.63S442,.5,446.15.5M429,.5a25.86,25.86,0,0,0-3.69,3.12A19.79,19.79,0,0,0,421.64,8l0,.05a22.69,22.69,0,0,0-.81,4,6.45,6.45,0,0,0,.41,2,6.33,6.33,0,0,1,.4,1.89.25.25,0,0,0,.18.24A261.28,261.28,0,0,0,453,23a138.37,138.37,0,0,0,21.67,1.76c4,0,8-.19,11.88-.57,7,6.28,14.85,13.15,23.4,20.42a226.51,226.51,0,0,1,23.85,23.62A130.94,130.94,0,0,1,552,95.32a68.8,68.8,0,0,1,7.26,31c0,21.91-6.66,42.54-19.79,61.33s-30.7,36.28-52.15,52a397.69,397.69,0,0,1-73.22,41.75,632.44,632.44,0,0,1-82.13,29.93,561.57,561.57,0,0,1-79.29,16.94,357.39,357.39,0,0,1-47.07,3.5c-6.47,0-12.67-.25-18.44-.75h0a.24.24,0,0,0-.23.16c-8.07,19.37-15.43,41.92-21.87,67a477.59,477.59,0,0,1-24.68,72.07c-9.93,22.71-23.39,42.18-40,57.84s-39.16,23.58-67,23.58c-10.11,0-18.22-4.47-24.07-13.29S.38,521.1.38,513.29a118.8,118.8,0,0,1,4.44-30.67,267.13,267.13,0,0,1,11.32-33.07C20.51,439,25,428.32,29.9,416.85c4.59-10.78,8.54-21,11.75-30.36C51.34,357.67,62.5,329,74.83,301.4l1.84-4.13q17.68-39.7,35.39-79.41c12.38-27.77,24-56,34.41-83.94a566,566,0,0,0,24.69-86.3,26.65,26.65,0,0,1,3.6-4.65c1.83-2,3.26-3.07,4.26-3.07h48.57l.11,0c1.09-.53,3.76-3.12,8.17-7.94s7-7.31,8-7.82A256.84,256.84,0,0,1,321.51,4.44C348.94,1.83,375.9.5,401.63.5H429M264,245.59c11.31,0,25.79-4.78,43-14.21a339.1,339.1,0,0,0,51.44-35.1,379.89,379.89,0,0,0,45.77-44.16c13.45-15.45,22.18-29.4,25.95-41.46a.28.28,0,0,0,0-.13c-1.1-4.82-3.9-7.54-8.3-8.08a97.19,97.19,0,0,0-11.37-.79A381.44,381.44,0,0,0,353,106.39a203.82,203.82,0,0,0-57.14,17.36,124.76,124.76,0,0,0-43.8,34.35c-11.58,14.43-17.45,33.17-17.45,55.72,0,7.4,2.07,12.9,6.15,16.35s10.28,8.19,19,14.59l.07,0a13.6,13.6,0,0,0,4.13.8M446.15.25q-6.48,0-6.48,7.88T446.15,16c4.31,0,6.48-2.62,6.48-7.88S450.46.25,446.15.25ZM430,.25H401.63q-38.85,0-80.14,3.94a256.12,256.12,0,0,0-77.71,19.7c-1.09.53-3.78,3.15-8.1,7.88s-7,7.37-8.09,7.88H179c-1.09,0-2.57,1.06-4.45,3.16a26,26,0,0,0-3.64,4.72,565.18,565.18,0,0,1-24.69,86.3q-15.8,42.16-34.41,83.93T74.6,301.3Q56,343.07,41.41,386.41q-4.86,14.19-11.74,30.34t-13.76,32.7a265.37,265.37,0,0,0-11.33,33.1A118.34,118.34,0,0,0,.13,513.29q0,11.82,8.9,25.22t24.28,13.4q42.09,0,67.19-23.65t40.07-57.92a475.83,475.83,0,0,0,24.69-72.11q9.72-37.83,21.86-67,8.7.75,18.46.75a353.46,353.46,0,0,0,47.1-3.51A559.78,559.78,0,0,0,332,311.54a629.1,629.1,0,0,0,82.17-30,396.11,396.11,0,0,0,73.25-41.76q32.37-23.65,52.22-52t19.83-61.47a68.71,68.71,0,0,0-7.29-31.13A130.28,130.28,0,0,0,534,68,226,226,0,0,0,510.1,44.38q-13-11-23.47-20.49-5.91.59-12,.58A137.87,137.87,0,0,1,453,22.71,259,259,0,0,1,421.87,16a6.4,6.4,0,0,0-.41-2,6,6,0,0,1-.4-2,22.34,22.34,0,0,1,.81-3.94,19.08,19.08,0,0,1,3.64-4.33A19.71,19.71,0,0,1,430,.25ZM264,245.34a13.46,13.46,0,0,1-4-.79Q247,235.1,241,230t-6.07-16.15q0-33.87,17.4-55.56A123.85,123.85,0,0,1,296,124a202.3,202.3,0,0,1,57.07-17.34,379.74,379.74,0,0,1,57.47-4.73,96.78,96.78,0,0,1,11.34.79q6.47.8,8.09,7.88-5.67,18.14-25.9,41.38a378,378,0,0,1-45.74,44.13,337.38,337.38,0,0,1-51.4,35.07Q281,245.34,264,245.34Z"/>
</svg>
