<svg id="Layer_1" data-name="Layer 1" xmlns="http://www.w3.org/2000/svg" viewBox="0 0 445.47 592.89">
  <defs>
    <style>
      .cls-1 {
        fill: #ec008c;
      }
    </style>
  </defs>
  <title>Percent</title>
  <path class="cls-1" d="M445.09.5V9.71c0,.46-1.49,3.87-4.43,10.14s-6.68,13.79-10.92,22S421,58.74,416.38,67.51s-8.52,15.68-11.73,20.89c-10.72,19.81-22.43,42.35-34.81,67a711.65,711.65,0,0,1-38,67c-4.58,6.67-11.72,17-20.64,29.94-9.38,13.57-20,29.08-31.58,46.11-12.33,18.14-24.72,36.3-36.83,54l-12.41,18.13q-12.79,18.66-24.82,36.25L174,452.86q-13.77,20.1-20.23,29.55c-2.71,3.67-6.82,10.12-12.56,19.72S129.62,522,123.76,532.87c-5.73,10.63-11.32,21.24-16.6,31.53-5,9.7-8.38,16.56-10.07,20.38-17.66,2.61-32,4.59-42.76,5.89a321.61,321.61,0,0,1-38,2H.4a261.51,261.51,0,0,1,15.34-69A459,459,0,0,1,44.86,461c11.32-20.2,23.85-40.34,37.23-59.88,13.53-19.77,26.87-40.05,39.67-60.29a510.38,510.38,0,0,0,26.32-44.55c7.55-14.47,15.58-29.58,23.88-44.92,8-14.81,16.58-30.05,25.49-45.31s18.86-30.9,29.53-46.47c2.66-3.62,5.49-6.12,8.4-7.41a52.4,52.4,0,0,1,9.67-3.13,67.69,67.69,0,0,0,11-3.56c3.79-1.59,7.64-4.8,11.43-9.53L372.66,9.89c1.06-1,2.52-2.59,4.47-4.74,2.4-2.68,3.19-3.07,3.45-3.07,1,0,3.71,1.18,8,3.51,4.67,2.57,7.1,3.86,8.11,4.34a.19.19,0,0,0,.1,0h4.05a53.33,53.33,0,0,0,22-4.75A54.5,54.5,0,0,1,445.09.5M73,39.12c11.23,0,22.9,2.9,34.7,8.64a128.44,128.44,0,0,1,31.91,22A124.25,124.25,0,0,1,163,100.06c6.15,11.23,9.27,22.46,9.27,33.38s-2.3,20-6.83,27.05a55.47,55.47,0,0,1-17.73,17.26,75,75,0,0,1-25,9.42A149.59,149.59,0,0,1,94,189.93c-12.85,0-25.6-4.36-37.91-13s-22.34-17.7-29.84-27.07c0-2.09-.13-6.45-.41-13.72-.26-6.65-.4-11.55-.4-13.78,0-7.82.41-16.7,1.21-26.38A108.49,108.49,0,0,1,32.34,68.9,50.54,50.54,0,0,1,46.43,47.72c6.4-5.71,15.34-8.6,26.55-8.6M299.63,373.26c11.23,0,22.91,2.91,34.7,8.65a128,128,0,0,1,31.92,22,124.08,124.08,0,0,1,23.42,30.28c6.16,11.23,9.28,22.45,9.28,33.37s-2.3,20-6.84,27.05a55.26,55.26,0,0,1-17.73,17.26,74.72,74.72,0,0,1-25,9.43,149.69,149.69,0,0,1-28.69,2.75c-12.84,0-25.59-4.36-37.9-13S260.43,493.42,252.93,484c0-2.06-.13-6.43-.4-13.71-.26-6.64-.41-11.54-.41-13.78,0-7.83.41-16.71,1.22-26.38A108.13,108.13,0,0,1,259,403a50.53,50.53,0,0,1,14.1-21.17c6.4-5.71,15.33-8.61,26.54-8.61M445.34.25A54.63,54.63,0,0,0,422.68,5a52.85,52.85,0,0,1-21.86,4.73h-4.05q-1.63-.78-8.09-4.34c-4.33-2.36-7-3.54-8.1-3.54-.54,0-1.76,1.06-3.64,3.15s-3.38,3.68-4.45,4.73L267.25,135.8q-5.67,7.09-11.33,9.46A66.83,66.83,0,0,1,245,148.8a52.38,52.38,0,0,0-9.71,3.16q-4.46,2-8.5,7.48-16.2,23.64-29.55,46.5t-25.49,45.31q-12.15,22.47-23.88,44.92a506.64,506.64,0,0,1-26.31,44.53Q102.13,371.44,81.88,401T44.65,460.88A456.78,456.78,0,0,0,15.5,523.54,261,261,0,0,0,.12,592.89H16.31a320.38,320.38,0,0,0,38.05-2q16.19-2,42.9-5.92,2.43-5.49,10.12-20.49T124,533q8.89-16.54,17.4-30.73t12.55-19.71L174.16,453l31.57-46.1L243,352.52q19.42-28.36,36.83-54t31.57-46.1Q325.53,232,332,222.49a703.48,703.48,0,0,0,38.05-67q18.62-37,34.81-67,4.86-7.86,11.73-20.88T430,42q6.46-12.6,10.93-22.07t4.45-10.24V.25ZM73,38.87q-17,0-26.71,8.67A50.57,50.57,0,0,0,32.1,68.81,108.44,108.44,0,0,0,26.43,96q-1.21,14.6-1.21,26.4,0,3.16.4,13.79T26,150Q37.35,164.17,56,177.17t38.05,13a149.13,149.13,0,0,0,28.73-2.76,75,75,0,0,0,25.1-9.46,55.46,55.46,0,0,0,17.81-17.34q6.86-10.63,6.87-27.18t-9.3-33.5A123.63,123.63,0,0,0,139.76,69.6a127.69,127.69,0,0,0-32-22.06Q90,38.87,73,38.87ZM299.63,373q-17,0-26.71,8.67A50.7,50.7,0,0,0,258.75,403a108.35,108.35,0,0,0-5.66,27.19q-1.22,14.6-1.21,26.4c0,2.1.12,6.7.4,13.79s.4,11.7.4,13.79q11.34,14.19,29.95,27.19t38.05,13a149.23,149.23,0,0,0,28.74-2.76,74.76,74.76,0,0,0,25.09-9.45,55.37,55.37,0,0,0,17.81-17.34q6.87-10.63,6.88-27.19t-9.31-33.49a123.83,123.83,0,0,0-23.47-30.34,127.86,127.86,0,0,0-32-22.07Q316.64,373,299.63,373Z"/>
</svg>
