<svg id="Layer_1" data-name="Layer 1" xmlns="http://www.w3.org/2000/svg" viewBox="0 0 312.71 305.24">
  <defs>
    <style>
      .cls-1 {
        fill: #ec008c;
      }
    </style>
  </defs>
  <title>Plus</title>
  <path class="cls-1" d="M181.35.46c8.53,15.13,15.56,33.2,20.9,53.71A307.64,307.64,0,0,1,212,112.83a.25.25,0,0,0,.19.23l96.33,22.07h.06c.19,0,.8.25,2.21,2.63a9.54,9.54,0,0,1,1.59,4.21c0,6.17-3.22,10.74-9.57,13.56a36.46,36.46,0,0,1-15,3.16,42.7,42.7,0,0,1-5.91-.42h0a.24.24,0,0,0-.23.14.26.26,0,0,0,.06.3l17.4,15.39-53.29,7c-15.84,2.1-31,3.69-44.91,4.73a.27.27,0,0,0-.23.19L173.92,301.11s0,0,0,.06c0,.19-.26.79-2.7,2.15a10,10,0,0,1-4.33,1.54c-5.8,0-10.08-3.13-12.72-9.3a37,37,0,0,1-2.41-20.36.25.25,0,0,0-.15-.26.19.19,0,0,0-.1,0,.25.25,0,0,0-.19.09l-15,16.93c-2.66-19.63-5.08-37.74-7.21-53.84s-4-32-5.66-47.28a.27.27,0,0,0-.25-.22H105.36c-15.62,0-28.95-.93-39.62-2.76A79.09,79.09,0,0,1,37.9,178a69,69,0,0,1-20.57-19.64C11.46,150.1,5.78,139.58.44,127.11c16.06-8.82,35.3-16.2,57.22-21.93a317.22,317.22,0,0,1,62.28-10.24.25.25,0,0,0,.24-.25c0-13.59,1.09-25.24,3.23-34.62a67.85,67.85,0,0,1,10.48-24.34,78.78,78.78,0,0,1,19-18.46A238.49,238.49,0,0,1,181.35.46m.1-.34a238.42,238.42,0,0,0-28.74,17,78.51,78.51,0,0,0-19,18.52A67.39,67.39,0,0,0,123.17,60q-3.26,14.19-3.24,34.67A315.38,315.38,0,0,0,57.6,104.94Q24.39,113.63.13,127q8.07,18.92,17,31.53a69.12,69.12,0,0,0,20.65,19.7q11.71,7.1,27.92,9.85t39.67,2.76h17.81q2.43,22.86,5.66,47.28t7.29,54.38l15.38-17.34a37.11,37.11,0,0,0,2.43,20.49q4,9.47,12.95,9.46a10.2,10.2,0,0,0,4.45-1.57c1.89-1.05,2.83-1.84,2.83-2.37l26.72-115.06q21-1.58,44.92-4.73l53.83-7.09-17.8-15.76a43,43,0,0,0,5.94.42,36.59,36.59,0,0,0,15.1-3.18c6.48-2.88,9.72-7.49,9.72-13.79a9.72,9.72,0,0,0-1.62-4.34c-1.09-1.83-1.9-2.75-2.43-2.75l-96.33-22.07a307.33,307.33,0,0,0-9.71-58.71Q194.4,23,181.45.12Z"/>
</svg>
