<svg id="Layer_1" data-name="Layer 1" xmlns="http://www.w3.org/2000/svg" viewBox="0 0 438.18 473.94">
  <defs>
    <style>
      .cls-1 {
        fill: #ec008c;
      }
    </style>
  </defs>
  <title>Q</title>
  <path class="cls-1" d="M308.54.37c14.45,0,29.52,3.84,44.81,11.41a171.31,171.31,0,0,1,42,29.51A155.82,155.82,0,0,1,426.1,81.81c7.77,14.88,11.71,29.56,11.71,43.62,0,20.9-3.27,47.4-9.71,78.76C422.19,235,395.24,283.5,348,348.31a.24.24,0,0,0,0,.23l32.36,88.21c-1.27,12.23-4.23,21.53-8.8,27.64s-10.87,9.17-18.74,9.17c-11.07,0-25.63-6.09-43.26-18.1l-23.45-36.21a.25.25,0,0,0-.21-.12l-.11,0c-42.94,20.38-76.4,30.71-99.45,30.71a249,249,0,0,1-63.48-8.66,209.9,209.9,0,0,1-60.24-26.37,155.29,155.29,0,0,1-44.85-43.28C6.22,354.63.38,334.4.38,311.42c0-16.19,2.44-31.14,7.27-44.44a267.5,267.5,0,0,1,17.79-39c6.74-12.13,14-24.86,21.45-37.82a228.6,228.6,0,0,0,18.23-40.24.19.19,0,0,0,0-.08V118.38C68.34,99.62,79.61,82.7,98.63,68.1s41.5-27.08,66.72-37A455.82,455.82,0,0,1,243,8.25C269.36,3,291.4.37,308.54.37M158,340c8.12,0,29.68-13,64.1-38.67a.24.24,0,0,0,.06-.34c-10.73-15.4-17.11-28.75-19-39.7s.7-19.7,7.62-26.17c4.69-4.39,10-6.61,15.72-6.61,10.58,0,23.15,7.52,37.36,22.36a.23.23,0,0,0,.18.07h0a.26.26,0,0,0,.19-.13C282,218.44,292.32,195.08,295,181.44c3.23-14.65,4.86-26.6,4.86-35.52V142a.19.19,0,0,0,0-.08,79.72,79.72,0,0,1-2-7.86A88,88,0,0,0,294.61,123a28.55,28.55,0,0,0-5.72-9.54,12.42,12.42,0,0,0-9.49-4,7,7,0,0,0-2.11.41,6.65,6.65,0,0,1-1.94.38.22.22,0,0,0-.2.1c-7.51,10.43-20,21.28-37.17,32.25s-35.72,26.62-55.09,46.53a180,180,0,0,0-24.72,31.57A228.1,228.1,0,0,0,141.55,253a164.61,164.61,0,0,0-9.32,30,127.87,127.87,0,0,0-2.84,24.48c0,2.67,1.1,5.9,3.27,9.58A92.94,92.94,0,0,0,140,327.73a45.71,45.71,0,0,0,8.95,8.71c3.27,2.39,6.31,3.6,9.05,3.6M308.54.12Q282.62.12,243,8a453.15,453.15,0,0,0-77.71,22.85q-38.06,15-66.78,37t-33.6,50.44v31.52a226.28,226.28,0,0,1-18.21,40.19Q35.74,209,25.22,227.88a267.76,267.76,0,0,0-17.81,39Q.12,287,.12,311.42q0,34.68,17.41,60.29a154.89,154.89,0,0,0,44.93,43.34,209.26,209.26,0,0,0,60.3,26.4,247.71,247.71,0,0,0,63.55,8.67q34.78,0,99.56-30.74l23.48,36.25q26.65,18.18,43.44,18.18,24,0,27.79-37.09L348.2,348.46q71.22-97.71,80.14-144.22,9.72-47.3,9.72-78.81,0-21.29-11.74-43.74a155.46,155.46,0,0,0-30.76-40.58,170.73,170.73,0,0,0-42.1-29.56Q330.39.13,308.54.12ZM158,339.79q-4,0-8.9-3.55a44.93,44.93,0,0,1-8.9-8.67,89.52,89.52,0,0,1-7.29-10.64q-3.24-5.51-3.24-9.45a126.59,126.59,0,0,1,2.84-24.43,162.49,162.49,0,0,1,9.3-30,227.7,227.7,0,0,1,16.6-32.31,179.07,179.07,0,0,1,24.69-31.53q29.15-29.94,55-46.49t37.24-32.31a6.66,6.66,0,0,0,2-.4,6.86,6.86,0,0,1,2-.39,12.15,12.15,0,0,1,9.31,3.94,28.15,28.15,0,0,1,5.66,9.46,87.2,87.2,0,0,1,3.24,11c.81,3.68,1.48,6.3,2,7.88v3.94q0,13.41-4.85,35.46-4.06,20.51-30.76,69.35-21.49-22.42-37.54-22.43-8.74,0-15.89,6.67-21.06,19.71,11.33,66.2Q170.11,339.8,158,339.79Z"/>
</svg>
