<svg id="Layer_1" data-name="Layer 1" xmlns="http://www.w3.org/2000/svg" viewBox="0 0 366.14 597.61">
  <defs>
    <style>
      .cls-1 {
        fill: #ec008c;
      }
    </style>
  </defs>
  <title>Question_Mark</title>
  <path class="cls-1" d="M82.69.5c19.33,0,40,.8,61.5,2.36a479.06,479.06,0,0,1,63.92,9.06A374.83,374.83,0,0,1,268.38,30a170.84,170.84,0,0,1,50.11,30.29,145.5,145.5,0,0,1,34.35,45.24c8.57,17.51,12.92,38.55,12.92,62.54a166.71,166.71,0,0,1-12.12,62.95c-8,19.81-17.28,39.68-27.51,59.08-10.75,18.82-22.71,33.38-35.55,43.27-6.49,4.74-16.29,11-29.12,18.5s-29.22,16.73-48.56,27.19a.18.18,0,0,0-.08.07l-33.88,47.12c-7.94-3.61-15.22-7.29-21.65-10.94a246.32,246.32,0,0,1-22.24-14.56,228.56,228.56,0,0,1-25.33-21.52c16.58-28.62,31.77-47.62,45.15-56.49,6.44-4.17,13.39-8.95,20.66-14.19a261.78,261.78,0,0,0,22.27-18.14,127.88,127.88,0,0,0,35.28-50.93c7.8-20.17,11.76-42.34,11.76-65.89,0-13.09-1.92-23.47-5.69-30.85a55.28,55.28,0,0,0-15.45-18.61,109.59,109.59,0,0,0-23.53-13.42,228.57,228.57,0,0,1-29.12-15.36,81.34,81.34,0,0,1-12.91-9c-3.24-2.89-6.37-5.54-9.32-7.89a33.49,33.49,0,0,0-10.6-5.56c-4.08-1.32-9.41-2-15.86-2-12.07,0-19.15,1.71-21.66,5.23S97,86.94,97,98a227.38,227.38,0,0,0,2.84,35.9c1.86,11.69,4,23.63,6.48,35.47,2.37,11.57,4.69,23.5,6.88,35.46a200.23,200.23,0,0,1,3.23,35.56c-6.37,0-11,1.11-13.66,3.21a20.62,20.62,0,0,0-6.15,7.58,30.33,30.33,0,0,1-4.81,7.42c-1.84,2-5.18,3.07-9.94,3.07a32.65,32.65,0,0,1-4.42-.39c-1.85-.25-3-.38-3.56-.39-13.45-14.14-25-26.84-34.33-37.75a162.35,162.35,0,0,1-22.63-33.83A153.56,153.56,0,0,1,4.42,151.91c-2.68-13.28-4-29.57-4-48.42V94.82c0-4.85.14-9.88.41-15,.27-5.3.4-10.08.4-14.2V56.3C6,50.57,11.56,44.37,17.71,37.85a206.65,206.65,0,0,1,19.41-18.1A104.74,104.74,0,0,1,58.92,6,55.72,55.72,0,0,1,82.69.5M67.31,446.55c11.23,0,22.91,2.91,34.7,8.65a128.26,128.26,0,0,1,31.91,22,123.88,123.88,0,0,1,23.43,30.28c6.16,11.23,9.28,22.46,9.28,33.37s-2.3,20-6.84,27.06a55.47,55.47,0,0,1-17.73,17.26,74.92,74.92,0,0,1-25,9.42,149.69,149.69,0,0,1-28.69,2.75c-12.85,0-25.6-4.36-37.9-13s-22.35-17.7-29.85-27.08c0-2.06-.13-6.43-.4-13.71-.26-6.64-.41-11.53-.41-13.78,0-7.83.41-16.71,1.22-26.38a108.13,108.13,0,0,1,5.65-27.13,50.59,50.59,0,0,1,14.1-21.17c6.4-5.71,15.33-8.61,26.54-8.61M82.69.25A55.73,55.73,0,0,0,58.81,5.77,104.49,104.49,0,0,0,37,19.56,204.83,204.83,0,0,0,17.53,37.68Q8.22,47.55.93,56.2v9.46q0,6.32-.4,14.19t-.41,15v8.67q0,28.37,4.05,48.47a153.36,153.36,0,0,0,12.55,37.43,162.34,162.34,0,0,0,22.66,33.89q14.16,16.54,34.41,37.82c.53,0,1.74.14,3.64.4a32.81,32.81,0,0,0,4.45.39c4.86,0,8.22-1,10.12-3.15a30.14,30.14,0,0,0,4.86-7.49,20.17,20.17,0,0,1,6.07-7.48q4-3.15,13.76-3.16a199.93,199.93,0,0,0-3.24-35.85q-3.24-17.73-6.88-35.47t-6.47-35.46A225.55,225.55,0,0,1,97.26,98q0-16.55,3.65-21.67t21.45-5.12q9.71,0,15.78,2a33.25,33.25,0,0,1,10.53,5.51c3,2.37,6.07,5,9.3,7.88a80.22,80.22,0,0,0,13,9.07A226.28,226.28,0,0,0,200.07,111a108.73,108.73,0,0,1,23.47,13.39,54.65,54.65,0,0,1,15.38,18.52q5.66,11.06,5.67,30.74,0,35.46-11.74,65.8a127.14,127.14,0,0,1-35.21,50.83,260.1,260.1,0,0,1-22.26,18.13q-10.94,7.89-20.64,14.18Q134.49,336,109.41,379.32A225.91,225.91,0,0,0,134.9,401a246.36,246.36,0,0,0,22.27,14.58q9.71,5.52,21.85,11l34-47.28q29.14-15.76,48.57-27.19t29.14-18.52q19.42-15,35.62-43.35,15.36-29.14,27.52-59.1a166.27,166.27,0,0,0,12.14-63q0-36.24-12.95-62.65a145,145,0,0,0-34.4-45.32A170.87,170.87,0,0,0,268.47,29.8a372.87,372.87,0,0,0-60.31-18.12,475.6,475.6,0,0,0-63.95-9.07Q111.83.26,82.69.25ZM67.31,446.3q-17,0-26.71,8.67a50.6,50.6,0,0,0-14.17,21.28,108.35,108.35,0,0,0-5.66,27.19q-1.21,14.59-1.22,26.4,0,3.17.41,13.79c.26,7.09.4,11.7.4,13.79q11.33,14.19,30,27.19t38.05,13a150,150,0,0,0,28.74-2.75,75.06,75.06,0,0,0,25.09-9.46A55.47,55.47,0,0,0,160,568.06q6.87-10.63,6.88-27.19t-9.31-33.49A123.63,123.63,0,0,0,134.09,477a127.81,127.81,0,0,0-32-22.07q-17.82-8.66-34.81-8.67Z"/>
</svg>
