<svg id="Layer_1" data-name="Layer 1" xmlns="http://www.w3.org/2000/svg" viewBox="0 0 559.6 551.91">
  <defs>
    <style>
      .cls-1 {
        fill: #ec008c;
      }
    </style>
  </defs>
  <title>R</title>
  <path class="cls-1" d="M446.15.37c4.19,0,6.23,2.5,6.23,7.64s-2,7.63-6.23,7.63-6.22-2.5-6.22-7.63,2-7.64,6.22-7.64M429,.37a26.1,26.1,0,0,0-3.69,3.12,19.85,19.85,0,0,0-3.7,4.4.08.08,0,0,1,0,.05,22.73,22.73,0,0,0-.81,4,6.33,6.33,0,0,0,.42,2.05,6.53,6.53,0,0,1,.39,1.89.25.25,0,0,0,.18.24A263.81,263.81,0,0,0,453,22.83a138.5,138.5,0,0,0,21.67,1.77c4,0,8-.2,11.88-.57,7,6.29,14.86,13.16,23.4,20.42a225.47,225.47,0,0,1,23.85,23.61A131.27,131.27,0,0,1,552,95.2a68.77,68.77,0,0,1,7.26,31c0,20.34-6.25,39.91-18.58,58.18a250.32,250.32,0,0,1-46.09,50.78,341.38,341.38,0,0,1-58.24,39.76c-20.44,11-38.94,19.21-55,24.4-1.21,0-4.57-.14-9.25-.39-2.56-.13-5.26-.19-8-.19s-5.66.06-8.61.19a52.85,52.85,0,0,0-16.27,3.17c-4.94,1.88-7.45,5-7.45,9.3a6.33,6.33,0,0,0,.42,2.05,6.21,6.21,0,0,1,.39,1.89.24.24,0,0,0,.05.14c8,11.46,17.69,25.65,28.73,42.16a368.51,368.51,0,0,0,37.26,46.92,191,191,0,0,0,45,35.9,75.47,75.47,0,0,0,37.63,10.31,78.65,78.65,0,0,0,13.14-1.14A55.54,55.54,0,0,1,479.57,474,94.43,94.43,0,0,1,455,491.27a123.13,123.13,0,0,1-29.09,9.83,141.84,141.84,0,0,1-28.28,3.15c-.28,0-1.54-.41-6.76-3.13-3.81-2-7-3.6-9.32-4.73A113.88,113.88,0,0,1,369,488.92c-5-3.31-10.29-6.76-15.79-10.25s-10.05-6.47-13.75-9.06-5.93-4.19-6.46-4.71c-5.93-4.72-15.59-13.22-29.53-26-13.73-12.58-28.44-26.1-43.72-40.19-16.11-14.87-30.41-28.14-43.71-40.59-14.1-13.19-23.5-22.08-28.73-27.18a.23.23,0,0,0-.17-.07h-.05a.27.27,0,0,0-.18.15c-8.07,19.37-15.43,41.92-21.87,67a477.21,477.21,0,0,1-24.68,72.07c-9.93,22.72-23.39,42.18-40,57.85s-39.16,23.57-67,23.57c-10.11,0-18.21-4.47-24.07-13.29S.38,521,.38,513.16c0-3.15,1-9,2.82-17.28s4.46-18.13,7.69-29.14c3.4-11.59,6.94-23.52,10.52-35.46,3.75-12.55,7.43-24.48,10.93-35.46,3.43-10.82,6.84-20.9,10.11-29.94,3.22-8.88,5.67-15.24,7.28-18.89L163.06,102.67c1.07-2.61,2.71-7,4.86-13,2.22-6.23,3.26-9.64,3.26-10.73V47.47a26.43,26.43,0,0,1,3.57-4.62c1.84-2,3.27-3.07,4.27-3.07h48.57a.2.2,0,0,0,.11,0c1.09-.52,3.76-3.12,8.17-7.93s7-7.31,8-7.82A257,257,0,0,1,321.51,4.31C348.94,1.7,375.9.37,401.63.37H429M264,245.47c11.31,0,25.79-4.79,43-14.22a337.79,337.79,0,0,0,51.44-35.09A380,380,0,0,0,404.25,152c13.45-15.45,22.18-29.4,25.95-41.46a.57.57,0,0,0,0-.13c-1.11-4.82-3.91-7.53-8.31-8.07a97.19,97.19,0,0,0-11.37-.79A381.44,381.44,0,0,0,353,106.27a203.82,203.82,0,0,0-57.14,17.36A124.65,124.65,0,0,0,252.08,158c-11.58,14.42-17.45,33.17-17.45,55.71,0,7.41,2.07,12.91,6.16,16.35s10.26,8.19,19,14.59l.07,0a13.6,13.6,0,0,0,4.13.8M446.15.12c-4.32,0-6.47,2.64-6.47,7.89s2.15,7.88,6.47,7.88,6.48-2.63,6.48-7.88S450.46.12,446.15.12ZM430,.12H401.63q-38.85,0-80.14,4a255.54,255.54,0,0,0-77.71,19.7q-1.64.8-8.09,7.88c-4.33,4.73-7,7.36-8.1,7.88H179c-1.09,0-2.57,1.06-4.45,3.15a25.92,25.92,0,0,0-3.64,4.73V78.93c0,1.06-1.09,4.61-3.24,10.64s-3.78,10.38-4.86,13L49.5,346.88q-2.43,5.52-7.28,18.91T32.1,395.74q-5.28,16.54-10.93,35.46T10.65,466.67Q5.79,483.22,3,495.83C1.06,504.24.13,510,.13,513.16Q.13,525,9,538.38t24.28,13.4q42.09,0,67.19-23.64t40.07-57.93a475.45,475.45,0,0,0,24.69-72.11q9.72-37.82,21.86-67,8.07,7.89,28.73,27.19t43.72,40.58q23.06,21.28,43.71,40.19t29.54,26c.53.53,2.7,2.11,6.48,4.73s8.36,5.65,13.76,9.06,10.65,6.84,15.79,10.25a111.73,111.73,0,0,0,12.54,7.48q3.23,1.59,9.31,4.73t6.88,3.16a141.29,141.29,0,0,0,28.33-3.16,122.14,122.14,0,0,0,29.15-9.85,94,94,0,0,0,24.68-17.34,55.4,55.4,0,0,0,15-24.82,76.79,76.79,0,0,1-13.49,1.21,75,75,0,0,1-37.51-10.27,189.91,189.91,0,0,1-44.92-35.86,364.93,364.93,0,0,1-37.24-46.89Q345,332.7,332.82,315.36a6.59,6.59,0,0,0-.4-2,6.06,6.06,0,0,1-.41-2q0-6.3,7.29-9.07a52.39,52.39,0,0,1,16.19-3.15q4.44-.19,8.6-.19c2.76,0,5.43.06,8,.19,5.13.27,8.22.39,9.31.39q24.28-7.86,55.05-24.43a339.39,339.39,0,0,0,58.28-39.79,249.15,249.15,0,0,0,46.14-50.83q18.61-27.58,18.62-58.32a68.67,68.67,0,0,0-7.29-31.13A130,130,0,0,0,534,67.9,224.1,224.1,0,0,0,510.1,44.26q-13-11-23.47-20.49-5.91.57-12,.58A136.71,136.71,0,0,1,453,22.58a261.1,261.1,0,0,1-31.16-6.69,6.34,6.34,0,0,0-.41-2,6,6,0,0,1-.4-2A22.16,22.16,0,0,1,421.87,8a19.3,19.3,0,0,1,3.64-4.34A20,20,0,0,1,430,.12ZM264,245.22a13.46,13.46,0,0,1-4-.79q-13-9.47-19-14.58t-6.07-16.16q0-33.87,17.4-55.56A123.85,123.85,0,0,1,296,123.85a202.72,202.72,0,0,1,57.07-17.33,378.56,378.56,0,0,1,57.47-4.73,96.78,96.78,0,0,1,11.34.79q6.47.78,8.09,7.88-5.67,18.14-25.9,41.37A377.28,377.28,0,0,1,358.32,196,335.93,335.93,0,0,1,306.92,231Q281,245.22,264,245.22Z"/>
</svg>
