<svg id="Layer_1" data-name="Layer 1" xmlns="http://www.w3.org/2000/svg" viewBox="0 0 276.8 581.85">
  <defs>
    <style>
      .cls-1 {
        fill: #ec008c;
      }
    </style>
  </defs>
  <title>Right_Bracket</title>
  <path class="cls-1" d="M170.93.5c10.1,0,19,6.19,26.5,18.4S212,47,218.45,65.74c3.17,9.26,6.16,19.06,8.9,29.14,2.64,9.81,5.56,20.25,8.9,31.93,3.23,11.25,7.32,23.59,12.15,36.66S259.52,191.18,267,206.8c8.59,47,11.31,87.9,8.09,121.47S262.64,389,247.63,409.11l0,.05-32.34,74.78a104.71,104.71,0,0,0-23,12.6c-7.24,5.22-14.32,10.53-21,15.76S157.56,522.77,151,527.67a112.46,112.46,0,0,1-20.61,12.19C115.56,547.33,101,555,87,562.72a241.26,241.26,0,0,1-43.79,18.81l-9.67-60.4a.25.25,0,0,0-.11-.17L1.94,500.51C.65,498,.38,497.07.38,496.74c0-6.72,4.33-14.22,12.87-22.28A340.44,340.44,0,0,1,45.6,448.08c12.94-9.45,27.1-19.39,42.09-29.55S117,397.67,129.8,387a218.28,218.28,0,0,0,32.42-32.75c8.63-11,13-22.22,13-33.25a36.7,36.7,0,0,0-.4-5.16,39.13,39.13,0,0,1-.41-5.88.17.17,0,0,0,0-.07l-2.86-9.05q-3.31-10.44-8.87-28c-5.84-18.38-11.83-37.6-17.81-57.13-6.32-20.57-12.17-39.79-17.41-57.14-5.3-17.55-9.12-30-11.32-37-.56-3.74-1.65-9.45-3.24-17S109.65,89.12,108,81s-3.24-15.9-4.86-23.25c-1.65-7.53-2.71-12.93-3.23-16.5,0-.49-.12-2.5-.4-6.72-.27-3.79-.41-6.84-.41-9,0-1.12.15-3.63.41-7.08.26-3.61.39-6.13.4-7.7,2.18-.51,6.33-1.29,12.34-2.31s12.65-2.05,20.23-3.15,14.31-2.12,20.65-3.16A108.37,108.37,0,0,1,165.26.5h5.67m0-.25h-5.67a109.35,109.35,0,0,0-12.14,1.58Q143.4,3.41,132.48,5T112.24,8.13q-9.31,1.59-12.55,2.37c0,1.57-.14,4.21-.4,7.88s-.41,6-.41,7.09c0,2.1.13,5.12.41,9.06s.4,6.18.4,6.7q.8,5.52,3.24,16.55T107.79,81q2.43,12.23,4.85,23.64t3.24,16.94q3.23,10.26,11.33,37t17.41,57.14q9.3,30.35,17.81,57.13l11.73,37a39.41,39.41,0,0,0,.41,5.92A36.77,36.77,0,0,1,175,321q0,16.54-12.95,33.1a217.18,217.18,0,0,1-32.38,32.7Q110.22,403,87.55,418.33T45.46,447.88a336.78,336.78,0,0,0-32.38,26.4Q.12,486.51.13,496.74a13.57,13.57,0,0,0,1.61,3.94l31.57,20.49L43,581.85a239.74,239.74,0,0,0,44.11-18.91q21.45-11.82,43.31-22.86a111.42,111.42,0,0,0,20.64-12.21q10.13-7.49,20.24-15.37t21-15.76a103.46,103.46,0,0,1,23.07-12.61l32.38-74.87q45.32-60.67,19.42-202.53-11.34-23.65-18.61-43.35t-12.15-36.64q-4.85-17-8.9-31.92t-8.9-29.16Q209,37.3,197.64,18.77T170.93.25Z"/>
</svg>
