<svg id="Layer_1" data-name="Layer 1" xmlns="http://www.w3.org/2000/svg" viewBox="0 0 478.66 542.45">
  <defs>
    <style>
      .cls-1 {
        fill: #ec008c;
      }
    </style>
  </defs>
  <title>Right_Brace</title>
  <path class="cls-1" d="M381.39.5c8,0,17.68,1.59,28.67,4.72a139.76,139.76,0,0,1,31.51,13.37A110.53,110.53,0,0,1,467.42,39c7.21,7.79,10.86,16.75,10.86,26.62a29.24,29.24,0,0,1-7.22,19.93,134.14,134.14,0,0,1-16.57,15.73c-6.1,4.92-12.5,9.82-19,14.58a50.6,50.6,0,0,0-14.64,15.83c-7.54,13.1-11.91,26.4-13,39.51a323.63,323.63,0,0,0-.81,39.83c.52,13.33.52,26.72,0,39.78a92.43,92.43,0,0,1-10.5,38.51c-.51,1-3.05,2.41-7.56,4.22s-7.44,3-8.55,3.57c-6.48,4.73-13.59,13.11-21.11,24.9a361.06,361.06,0,0,0-37.27,78.47c-4.3,13.07-6.49,23.71-6.49,31.6v3.94a.27.27,0,0,0,.08.18,31.26,31.26,0,0,1,3.2,4.68c1.45,2.36,3.12,5.11,5.26,8.66,1.82,3.05,3.59,6,5.26,8.67,2.08,3.39,2.39,4.34,2.39,4.6a32.31,32.31,0,0,0,.41,3.59,32.15,32.15,0,0,1,.4,4.29c0,1-.13,2.68-.4,5.1-.24,2-.38,3.55-.4,4.22a391.4,391.4,0,0,1-62.18,31.83,387.89,387.89,0,0,1-62.29,18.9,479,479,0,0,1-64.72,9.06c-22,1.56-45.17,2.36-68.79,2.36-3.7,0-8.72-.26-15.36-.79-6.41-.52-12.68-.79-18.64-.79s-11.14-.13-15.77-.39c-3.86-.23-6.78-.38-7.6-.39l-16-17.11A36.39,36.39,0,0,1,14,511.15a93.71,93.71,0,0,1,17-6.29,145.21,145.21,0,0,1,17.78-3.54,91.38,91.38,0,0,0,16.21-3.55,40.44,40.44,0,0,0,17.11-8.72,117.21,117.21,0,0,0,13.79-14.22c4.31-5.24,8.53-10.55,12.55-15.77a71.71,71.71,0,0,1,13.32-13.36c5.88-5.19,14.83-9.55,26.62-12.95s23.9-7.1,36-11a177.84,177.84,0,0,0,32.83-14.21c9.73-5.53,15.76-13.4,17.92-23.39.54-1.59,4.22-14.19,10.93-37.44q5.78-20,14.33-49.69l14.41-50c12.34-41.79,21-65.35,25.81-70,4.9-3.7,7.39-9.87,7.39-18.33,0-5.36-2-8.36-5.88-8.91a73.74,73.74,0,0,0-9.75-.79,524,524,0,0,0-94.76,8.67,526.47,526.47,0,0,1-95.47,8.67H81.07c-4.21,0-8.49-3.68-12.73-10.91s-.44-15.57,11.28-24.91C91.41,120.56,103,113.69,113.94,110s19.1-7.93,23.93-12.64a95.94,95.94,0,0,0,17.86-15c5.18-5.56,10.61-11.23,16.59-17.33a204.81,204.81,0,0,1,17.79-16.14,68.69,68.69,0,0,1,20.57-11.39c5.37-2.08,15.44-5,29.92-8.66s30.21-7.24,46.54-10.63,31.94-6.56,46.54-9.46,24.81-4.85,30.71-5.91a63.69,63.69,0,0,0,8.14-1.18A60.18,60.18,0,0,1,381.39.5m0-.25a59.28,59.28,0,0,0-8.9,1.18,64.73,64.73,0,0,1-8.1,1.18q-8.91,1.59-30.76,5.92T287.09,18q-24.7,5.15-46.55,10.64t-29.95,8.67A68.64,68.64,0,0,0,190,48.72a206.65,206.65,0,0,0-17.81,16.15q-8.5,8.68-16.59,17.34a94.66,94.66,0,0,1-17.81,15q-7.29,7.09-23.88,12.61T79.45,130.28Q61.65,144.47,68.12,155.5t12.95,11h21.05a525,525,0,0,0,95.52-8.67,520.3,520.3,0,0,1,94.71-8.67,73.12,73.12,0,0,1,9.71.79c3.77.52,5.67,3.42,5.67,8.66q0,12.61-7.29,18.13-7.28,7.09-25.9,70.14L245.8,346.61Q235.68,381.7,234.88,384q-3.25,15-17.81,23.25a176.44,176.44,0,0,1-32.79,14.19q-18.21,5.91-36,11t-26.71,13a71.47,71.47,0,0,0-13.36,13.39q-6.07,7.89-12.55,15.76a115.89,115.89,0,0,1-13.76,14.19,39.94,39.94,0,0,1-17,8.67,92,92,0,0,1-16.19,3.55,139.72,139.72,0,0,0-17.8,3.54,92.89,92.89,0,0,0-17,6.31A36.47,36.47,0,0,0,.12,522.75l16.19,17.33q.81,0,7.69.4t15.79.39q8.9,0,18.62.79t15.38.79q35.61,0,68.8-2.37A473.57,473.57,0,0,0,207.35,531a386.15,386.15,0,0,0,62.33-18.91A388.84,388.84,0,0,0,332,480.19c0-.52.13-2,.41-4.33s.4-4.07.4-5.13a33.52,33.52,0,0,0-.4-4.33,30.72,30.72,0,0,1-.41-3.55q0-.77-2.42-4.73t-5.27-8.66c-1.89-3.16-3.64-6-5.26-8.67a33.64,33.64,0,0,0-3.24-4.73v-3.94q0-11.82,6.48-31.53a361.13,361.13,0,0,1,37.24-78.41q11.32-17.73,21-24.82,1.62-.78,8.5-3.55c4.58-1.83,7.15-3.28,7.69-4.33a92.2,92.2,0,0,0,10.53-38.62q.79-19.7,0-39.8a321.43,321.43,0,0,1,.81-39.8q1.61-19.68,12.95-39.4a50,50,0,0,1,14.57-15.76q9.71-7.09,19-14.58a134.56,134.56,0,0,0,16.6-15.76,29.4,29.4,0,0,0,7.28-20.1q0-15-10.93-26.79a110,110,0,0,0-25.9-20.49A138.82,138.82,0,0,0,410.13,5Q393.53.25,381.39.25Z"/>
</svg>
