<svg id="Layer_1" data-name="Layer 1" xmlns="http://www.w3.org/2000/svg" viewBox="0 0 315.95 410.05">
  <defs>
    <style>
      .cls-1 {
        fill: #ec008c;
      }
    </style>
  </defs>
  <title>Right_Parenthesis</title>
  <path class="cls-1" d="M178.28.5a160.07,160.07,0,0,1,51.65,10.23,144.35,144.35,0,0,1,44,26A126.34,126.34,0,0,1,304.27,76c7.5,15.14,11.3,32.08,11.3,50.32,0,20.36-4.89,41.8-14.55,63.74a304.33,304.33,0,0,1-39.22,64.57,440.22,440.22,0,0,1-56.64,59.46,489.36,489.36,0,0,1-66.74,49.23,387,387,0,0,1-69.57,33.87C45.79,405.56,24,409.8,4.17,409.8H.49a180.63,180.63,0,0,1,27.35-46.09,424.15,424.15,0,0,1,39.64-42.53C82.1,307.48,96.94,294,111.59,281a528.64,528.64,0,0,0,40.9-40.21,206.94,206.94,0,0,0,30.4-43A102.4,102.4,0,0,0,194.65,150c0-6.83-1.78-14.15-5.28-21.78A109.17,109.17,0,0,0,176,106.49a97.12,97.12,0,0,0-18.26-17.78c-6.67-4.93-13.28-8.23-19.66-9.83,1.61-4.72,3.63-10.86,6-18.27a224,224,0,0,1,8.89-23.22,172.55,172.55,0,0,1,11.72-22C168.92,8.62,173.5,3.62,178.28.5m-.07-.25q-7.29,4.72-13.76,15a172,172,0,0,0-11.74,22.07,226.59,226.59,0,0,0-8.9,23.25Q140.17,72,137.74,79.06q9.7,2.35,19.83,9.85a96.59,96.59,0,0,1,18.21,17.73,108.32,108.32,0,0,1,13.36,21.67q5.25,11.43,5.26,21.68a101.49,101.49,0,0,1-11.74,47.67,205.26,205.26,0,0,1-30.35,43,526.57,526.57,0,0,1-40.88,40.2Q89.16,300.52,67.31,321a420.51,420.51,0,0,0-39.66,42.55A179.84,179.84,0,0,0,.12,410.05H4.17q29.94,0,64.76-12.61a385,385,0,0,0,69.62-33.89,488.15,488.15,0,0,0,66.78-49.25A437.5,437.5,0,0,0,262,254.8a302.81,302.81,0,0,0,39.26-64.62q14.58-33.1,14.57-63.84,0-27.57-11.33-50.43A126,126,0,0,0,274.14,36.5,143.93,143.93,0,0,0,230,10.5,159.24,159.24,0,0,0,178.21.25Z"/>
</svg>
