<svg id="Layer_1" data-name="Layer 1" xmlns="http://www.w3.org/2000/svg" viewBox="0 0 536.13 481.77">
  <defs>
    <style>
      .cls-1 {
        fill: #ec008c;
      }
    </style>
  </defs>
  <title>S</title>
  <path class="cls-1" d="M401.63.5a156,156,0,0,1,42,5.9,158.49,158.49,0,0,1,39.19,16.92,131.18,131.18,0,0,1,31.92,27.14A104.76,104.76,0,0,1,534.94,87v8.63c0,4.33.14,8.71.41,13,.27,4.52.4,8.89.4,13v37.83c0,13.54-3,24.76-8.86,33.35s-18.32,12.9-37,12.9c-10.11,0-17.79-5-22.84-14.84s-10.11-21-15-33.08a194.17,194.17,0,0,0-17-33.14c-6.5-10-16.11-15.09-28.54-15.09-9.19,0-15.92,1.75-20,5.19s-6.16,9.75-6.16,18.71a93.88,93.88,0,0,0,13,48.2c8.57,14.61,18.1,29.33,28.34,43.75A523.27,523.27,0,0,1,450,269.9c8.57,15.15,12.92,32.34,12.92,51.1a150.38,150.38,0,0,1-12.53,59.79,169.92,169.92,0,0,1-84.87,87.35,143.12,143.12,0,0,1-61,13.38,616.21,616.21,0,0,1-81.72-5.12,273.83,273.83,0,0,1-71.17-19.29A223.54,223.54,0,0,1,91,418.53c-18.24-16.17-34.83-37.63-49.32-63.76a90.27,90.27,0,0,1-3.22-8.63c-1.62-4.74-3.26-9.77-4.86-15s-3.27-10.35-4.86-15-2.69-7.58-3.25-8.7a.18.18,0,0,0-.05-.07L1.16,283.83A19.86,19.86,0,0,1,.38,280a20.3,20.3,0,0,1,.79-3.85,323.91,323.91,0,0,1,44.06-59c16.33-17.2,34.14-34.41,52.94-51.14a7.41,7.41,0,0,0,2-.41,6.63,6.63,0,0,1,2-.38c3.17,0,8.44,2.11,15.66,6.27s15.37,9.15,23.87,14.57c9.35,6,17.69,11.27,25.5,16.16a161.55,161.55,0,0,0,19.72,11V217c0,10.88-4.18,18.36-12.41,22.24a56.51,56.51,0,0,1-24.23,5.19c-1.17,0-2.38,0-3.58-.1h0a.28.28,0,0,0-.17.07.27.27,0,0,0-.08.18,33.3,33.3,0,0,1-.4,3.51,31.12,31.12,0,0,0-.41,4.38c0,16.25,4.1,32.59,12.17,48.58a167.45,167.45,0,0,0,31.62,43.4,163.09,163.09,0,0,0,43.78,31.18,112.51,112.51,0,0,0,49.48,11.85A143.87,143.87,0,0,0,311,384.68a71.66,71.66,0,0,0,24-9.09,51.17,51.17,0,0,0,16.67-17c4.33-7.1,6.52-16.3,6.52-27.32,0-11.54-4.38-23.65-13-36S327,269.29,316.84,254.66a355.66,355.66,0,0,1-28.31-48.83C280,188.1,275.6,168,275.6,146c0-19.29,3.93-34.89,11.69-46.35S307.71,76,324.88,63.5a.28.28,0,0,0,.1-.21.24.24,0,0,0-.12-.2L300.79,47.46A78.42,78.42,0,0,1,319.62,28a143.5,143.5,0,0,1,25.45-14.94,138.19,138.19,0,0,1,28.28-9.44A134.68,134.68,0,0,1,401.63.5m0-.25A134.49,134.49,0,0,0,373.3,3.4,138.29,138.29,0,0,0,345,12.86a143,143,0,0,0-25.5,15,78.09,78.09,0,0,0-19,19.71L324.73,63.3q-25.92,18.92-37.64,36.25T275.35,146q0,33.11,12.95,59.9a355.76,355.76,0,0,0,28.33,48.86Q332,276.87,345,295.39t12.95,35.85q0,16.56-6.48,27.19a50.59,50.59,0,0,1-16.59,16.95A71.27,71.27,0,0,1,311,384.44a143.14,143.14,0,0,1-28.34,2.76q-25.1,0-49.37-11.82a162.58,162.58,0,0,1-43.72-31.13A166.74,166.74,0,0,1,158,300.9q-12.14-24-12.14-48.46a30.54,30.54,0,0,1,.41-4.34,34.84,34.84,0,0,0,.4-3.55c1.21.07,2.41.1,3.59.1a56.37,56.37,0,0,0,24.34-5.22q12.54-5.91,12.55-22.46V213q-7.29-3.14-19.84-11t-25.49-16.16q-13-8.26-23.88-14.58T102.12,165a6.86,6.86,0,0,0-2,.39,6.72,6.72,0,0,1-2,.4Q69.74,191,45.05,217A322.39,322.39,0,0,0,.93,276.08,23.2,23.2,0,0,0,.12,280,22.82,22.82,0,0,0,.93,284L25.22,307.6c.53,1.06,1.62,3.94,3.24,8.67s3.23,9.73,4.85,15,3.24,10.25,4.86,15,2.7,7.62,3.24,8.67q21.86,39.41,49.38,63.83a222.64,222.64,0,0,0,60.71,38.62,273,273,0,0,0,71.23,19.3,611.25,611.25,0,0,0,81.76,5.13,142.81,142.81,0,0,0,61.12-13.4,170.25,170.25,0,0,0,85-87.48A150.15,150.15,0,0,0,463.15,321q0-28.38-12.95-51.23a525.15,525.15,0,0,0-28.33-44.52q-15.39-21.67-28.34-43.74a93.31,93.31,0,0,1-12.95-48.07q0-13.39,6.07-18.52t19.84-5.13q18.6,0,28.33,15a193.33,193.33,0,0,1,17,33.1q7.28,18.13,15,33.1t23.07,15q28.33,0,37.24-13t8.9-33.5V121.61q0-6.28-.4-13t-.41-13V86.94A104.67,104.67,0,0,0,515,50.29,131.55,131.55,0,0,0,483,23.1,157.8,157.8,0,0,0,443.72,6.16,155.1,155.1,0,0,0,401.63.25Z"/>
</svg>
