<svg id="Layer_1" data-name="Layer 1" xmlns="http://www.w3.org/2000/svg" viewBox="0 0 224.48 555.06">
  <defs>
    <style>
      .cls-1 {
        fill: #ec008c;
      }
    </style>
  </defs>
  <title>Semicolon</title>
  <path class="cls-1" d="M124.79.5c11.22,0,22.9,2.91,34.69,8.64a128.08,128.08,0,0,1,31.92,22,124.08,124.08,0,0,1,23.42,30.28C221,72.68,224.1,83.9,224.1,94.82s-2.3,20-6.84,27.05a55.16,55.16,0,0,1-17.73,17.26,74.85,74.85,0,0,1-25,9.43,149.69,149.69,0,0,1-28.69,2.75c-12.84,0-25.59-4.36-37.9-13s-22.34-17.69-29.84-27.07c0-2.07-.14-6.44-.41-13.71-.26-6.65-.4-11.54-.4-13.78,0-7.83.4-16.71,1.21-26.38a108.47,108.47,0,0,1,5.65-27.13A50.53,50.53,0,0,1,98.24,9.11C104.64,3.4,113.57.5,124.79.5M220.86,244c0,20.78-3.42,40.15-10.1,57.58A264.34,264.34,0,0,1,184.88,352a477.48,477.48,0,0,1-34.79,46.47c-12.76,15.06-25.15,30.31-36.84,45.33-5.92,7.85-11.92,18.07-17.83,30.38s-12.35,24.67-19,36.63a150.23,150.23,0,0,1-22.62,31.08c-8.29,8.58-18.17,12.93-29.37,12.93-4.24,0-9.26-.26-15.36-.79C3.21,553.5.38,549.71.38,542.45v-3.89c1.67-4.35,3.84-10.31,6.46-17.7s5.16-14.8,7.69-22.47S19.18,484.14,21,478.3c1.88-6,3.1-9.58,3.63-10.62,1.09-2.63,3.81-8.06,8.09-16.14s9.59-17.65,15.78-28.36c6.31-11,13-22.64,19.83-34.68s13.5-23.69,19.83-34.67c6.17-10.72,11.62-20.13,16.19-28,4.21-7.24,7.51-12.84,9.31-15.77,9.15-17.29,14.06-29.52,14.6-36.35s1.33-11.09,2.4-12.89c.78-1.34,3.38-2,7.71-2,1.25,0,2.66.06,4.2.17,1,.08,2.18.11,3.49.11,7.82,0,21.37-1.36,40.24-4.05.25,0,.93,0,4.24-4,2.84-3.48,3.64-3.85,3.85-3.85h.06c2.2-.53,6.68-1.19,13.33-2,6.45-.76,10.85-1.15,13.07-1.18M124.79.25q-17,0-26.72,8.67A50.67,50.67,0,0,0,83.91,30.2a107.91,107.91,0,0,0-5.67,27.19Q77,72,77,83.79c0,2.1.12,6.7.4,13.79s.41,11.7.41,13.79q11.32,14.19,30,27.19t38,13a149.15,149.15,0,0,0,28.74-2.76,74.76,74.76,0,0,0,25.09-9.45A55.37,55.37,0,0,0,217.47,122q6.87-10.64,6.88-27.19T215,61.33A123.64,123.64,0,0,0,191.57,31a127.86,127.86,0,0,0-32-22.07Q141.79.25,124.79.25Zm96.32,243.52q-3.24,0-13.35,1.18t-13.36,2c-.54,0-1.9,1.32-4.05,3.94s-3.51,3.94-4,3.94q-28.44,4.05-40.24,4.05c-1.31,0-2.47,0-3.48-.11-1.55-.11-3-.17-4.21-.17q-6.67,0-7.93,2.14-1.63,2.78-2.43,13T113.45,310q-2.43,3.94-9.31,15.76T88,353.7q-9.32,16.17-19.83,34.68T48.29,423.05Q39,439.21,32.5,451.43t-8.09,16.15a112.06,112.06,0,0,0-3.64,10.64q-2.84,9-6.48,20.1T6.6,520.78q-4,11.41-6.47,17.73v3.94q0,11,8.9,11.82t15.38.79q17,0,29.55-13a149.46,149.46,0,0,0,22.66-31.12q10.11-18.15,19-36.65t17.81-30.34q17.8-22.87,36.83-45.32a476,476,0,0,0,34.81-46.49A263.47,263.47,0,0,0,211,301.69q10.11-26.4,10.11-57.92Z"/>
</svg>
