<svg id="Layer_1" data-name="Layer 1" xmlns="http://www.w3.org/2000/svg" viewBox="0 0 445.47 592.89">
  <defs>
    <style>
      .cls-1 {
        fill: #ec008c;
      }
    </style>
  </defs>
  <title>Slash</title>
  <path class="cls-1" d="M445.09.5V9.71c0,.46-1.49,3.87-4.43,10.14s-6.68,13.79-10.92,22S421,58.74,416.38,67.51s-8.52,15.68-11.73,20.89c-10.72,19.81-22.43,42.35-34.81,67a711.65,711.65,0,0,1-38,67c-4.58,6.67-11.72,17-20.64,29.94-9.38,13.57-20,29.08-31.57,46.11-12.34,18.14-24.73,36.3-36.84,54l-12.41,18.13-24.82,36.25L174,452.86q-13.77,20.1-20.23,29.55c-2.71,3.67-6.82,10.12-12.56,19.72S129.62,522,123.76,532.87c-5.73,10.63-11.32,21.24-16.6,31.53-5,9.7-8.38,16.56-10.07,20.38-17.66,2.61-32,4.59-42.76,5.89a321.61,321.61,0,0,1-38,2H.4a261.51,261.51,0,0,1,15.34-69A459.62,459.62,0,0,1,44.86,461c11.32-20.19,23.85-40.33,37.23-59.87,13.53-19.77,26.87-40.05,39.67-60.29a510.38,510.38,0,0,0,26.32-44.55c7.55-14.47,15.58-29.58,23.88-44.92,8-14.81,16.58-30.05,25.49-45.31s18.86-30.9,29.53-46.47c2.66-3.62,5.49-6.12,8.4-7.41a52.4,52.4,0,0,1,9.67-3.13,67.69,67.69,0,0,0,11-3.56c3.79-1.59,7.64-4.8,11.43-9.53L372.66,9.89c1.06-1,2.52-2.59,4.47-4.74,2.4-2.67,3.19-3.07,3.45-3.07,1,0,3.71,1.18,8,3.51,4.67,2.56,7.1,3.86,8.11,4.34a.19.19,0,0,0,.1,0h4.05a53.33,53.33,0,0,0,22-4.75A54.5,54.5,0,0,1,445.09.5m.25-.25A54.63,54.63,0,0,0,422.68,5a52.85,52.85,0,0,1-21.86,4.73h-4.05q-1.63-.78-8.09-4.34c-4.33-2.36-7-3.54-8.1-3.54-.54,0-1.76,1.06-3.64,3.15s-3.38,3.68-4.45,4.73L267.25,135.8q-5.67,7.09-11.33,9.46A66.83,66.83,0,0,1,245,148.8a52.38,52.38,0,0,0-9.71,3.16q-4.46,2-8.5,7.48-16.2,23.64-29.55,46.5t-25.49,45.31q-12.15,22.47-23.88,44.92a506.64,506.64,0,0,1-26.31,44.53Q102.13,371.44,81.88,401T44.65,460.88A456.78,456.78,0,0,0,15.5,523.54,260.64,260.64,0,0,0,.13,592.89H16.31a320.38,320.38,0,0,0,38.05-2q16.19-2,42.9-5.92,2.43-5.49,10.12-20.49T124,533q8.89-16.54,17.4-30.73t12.55-19.71L174.16,453l31.57-46.1L243,352.52q19.42-28.36,36.83-54t31.57-46.1Q325.53,232,332,222.49a703.48,703.48,0,0,0,38.05-67q18.62-37,34.81-67,4.86-7.86,11.73-20.88T430,42q6.46-12.6,10.93-22.07t4.45-10.24V.25Z"/>
</svg>
