<svg id="Layer_1" data-name="Layer 1" xmlns="http://www.w3.org/2000/svg" viewBox="0 0 520.75 568.46">
  <defs>
    <style>
      .cls-1 {
        fill: #ec008c;
      }
    </style>
  </defs>
  <title>T</title>
  <path class="cls-1" d="M300.44.5c4.76,0,12,.13,22.26.39,10,.28,21.57.67,34.4,1.19,14.13.57,27.37,1.09,40.47,1.57,12.85.49,26,1,40.07,1.58,12.19.51,23.76,1,34.4,1.57,10.14.53,17.76,1.06,22.65,1.58h0l.09,0c4.58-1.85,8.45-2.79,11.52-2.79a11.54,11.54,0,0,1,3.29.44,12.76,12.76,0,0,1,7.55,5.4,20.77,20.77,0,0,1,2.8,9.35c.27,3.71.4,7.15.4,10.22A46.92,46.92,0,0,1,506.68,64.7c-9.13,9.4-20.82,17.87-34.74,25.17a286.05,286.05,0,0,1-45.7,18.9c-17.16,5.47-32.38,10.24-46.54,14.57-14.54,4.46-27.08,8.84-37.26,13s-16.32,8.77-17.95,13.54L275.92,291.75c-3.2,8.85-8.64,22-16.18,39-7.62,17.22-16.34,36.17-25.9,56.34s-20.07,41.29-31.16,62.64c-11,21.15-21.76,40.77-32,58.31a485.31,485.31,0,0,1-27.91,43.32c-8.29,11.18-14.62,16.85-18.82,16.85a78.44,78.44,0,0,1-19-2c-5-1.27-7.51-6.1-7.51-14.33a30,30,0,0,1,.41-4.3,33.41,33.41,0,0,0,.4-3.56l89-378.25a.25.25,0,0,0-.07-.23l-8.09-7.88a.24.24,0,0,0-.18-.07h0a204.11,204.11,0,0,1-26.68,2c-1.9,0-3.87.06-5.83.06-9.61,0-20-.55-31-1.64a324.76,324.76,0,0,1-40.44-6.69,166.66,166.66,0,0,1-37.18-13,82.65,82.65,0,0,1-27-20.82C3.9,109.21.38,98.92.38,86.94a29.91,29.91,0,0,1,.4-4.3c.25-1.78.38-2.88.4-3.45,2.08-1.52,5.65-4,11.23-7.81,5.36-3.65,11.08-7.63,17-11.82s11.62-8.15,17-11.82c5.17-3.52,9.09-6.25,11.33-7.88,8.55-5.72,22.4-9.69,41.17-11.78s39.76-4.07,62.32-5.91,45.86-4.21,69.22-7.09S274.64,7.31,292.4.5h8m0-.25h-8.09Q265.64,10.5,230.42,14.83t-69.21,7.09q-34,2.77-62.33,5.91T57.6,39.65c-2.16,1.58-6,4.22-11.33,7.88s-11.07,7.63-17,11.83-11.61,8.15-17,11.82S3.08,77.48.93,79.06a31.93,31.93,0,0,1-.4,3.54,30.54,30.54,0,0,0-.41,4.34q0,18.14,10.53,30.73a82.76,82.76,0,0,0,27.12,20.89,166.46,166.46,0,0,0,37.23,13,324.86,324.86,0,0,0,40.48,6.7q16.47,1.63,31,1.64c2,0,3.92,0,5.84-.06a205.38,205.38,0,0,0,26.71-2l8.1,7.88L98.07,544a34.84,34.84,0,0,1-.4,3.55,30.42,30.42,0,0,0-.41,4.34c0,8.39,2.56,13.26,7.69,14.57a78.11,78.11,0,0,0,19,2q6.46,0,19-17a481.4,481.4,0,0,0,27.93-43.34q15.36-26.4,32-58.32t31.17-62.65q14.56-30.74,25.9-56.35t16.19-39L324.73,150q2.43-7.08,17.81-13.39t37.23-13q21.86-6.67,46.55-14.58a283.83,283.83,0,0,0,45.73-18.91q21-11,34.81-25.22A47,47,0,0,0,520.62,31c0-3.15-.14-6.56-.4-10.24a21,21,0,0,0-2.83-9.46,13,13,0,0,0-7.69-5.51,11.8,11.8,0,0,0-3.37-.45c-3.12,0-7,.94-11.61,2.81q-7.29-.78-22.67-1.58T437.65,5q-19-.78-40.07-1.58T357.11,1.83Q337.69,1.05,322.7.64T300.44.25Z"/>
</svg>
