<svg id="Layer_1" data-name="Layer 1" xmlns="http://www.w3.org/2000/svg" viewBox="0 0 390.42 159.27">
  <defs>
    <style>
      .cls-1 {
        fill: #ec008c;
      }
    </style>
  </defs>
  <title>Tilde</title>
  <path class="cls-1" d="M118.43.5c25.12,0,42.46,3.18,51.54,9.41,4.27,3.12,10.79,9.21,19.39,18.1s19.57,20.92,32.38,35.45a.13.13,0,0,0,.07.06l25.91,12.61a.2.2,0,0,0,.11,0,.28.28,0,0,0,.12,0c32.85-19.39,58.86-34.37,77.3-44.52s30.62-16.41,36-18.51A28.61,28.61,0,0,1,371.58,11c6.56,0,12.76,2.76,18.41,8.2C381.38,36,374.06,50.5,368.22,62.4s-10.49,21.71-13.77,29.17C348,106.14,336.11,115.63,319,119.8H319L306,126.12s0,0,0,0c-10.83,8.43-20.09,15.32-27.52,20.48a147.27,147.27,0,0,1-17.76,11,17.52,17.52,0,0,1-7,1.38c-8.95,0-20.67-5.76-34.82-17.11-19.36-14.65-34.63-24.21-45.4-28.41-5.41-2.1-11.68-4.22-18.63-6.31s-15-4.23-23.49-6.31h-.06a.19.19,0,0,0-.12,0c-35.49,20-58.72,30.07-69,30.07a12.45,12.45,0,0,1-2-.15,66,66,0,0,1-13.31-4.32c-4.06-1.84-8-3.83-11.7-5.89A66.68,66.68,0,0,1,16.52,101,215.5,215.5,0,0,1,.44,69.7C16.5,59.83,35.75,51.93,57.66,46.2S100.16,25.07,118.43.5m-.12-.25Q90.79,37.3,57.6,46T.12,69.6a215.09,215.09,0,0,0,16.19,31.52,66.6,66.6,0,0,0,18.62,19.71q5.66,3.15,11.74,5.91A65.8,65.8,0,0,0,60,131.07a12,12,0,0,0,2.08.16q15.58,0,69.15-30.11,12.94,3.16,23.48,6.31t18.61,6.3q16.18,6.31,45.34,28.37,21.39,17.18,35,17.17a17.84,17.84,0,0,0,7.12-1.4,147.54,147.54,0,0,0,17.81-11q11.32-7.86,27.52-20.49l12.95-6.3q25.9-6.3,35.62-28.37,4.86-11,13.76-29.16T390.3,19.16q-8.66-8.4-18.72-8.4a28.69,28.69,0,0,0-10.43,2.1q-8.1,3.15-36,18.52t-77.3,44.53L221.92,63.3Q202.5,41.24,189.54,27.83T170.12,9.71Q156.34.25,118.31.25Z"/>
</svg>
