<svg id="Layer_1" data-name="Layer 1" xmlns="http://www.w3.org/2000/svg" viewBox="0 0 464.08 559.79">
  <defs>
    <style>
      .cls-1 {
        fill: #ec008c;
      }
    </style>
  </defs>
  <title>U</title>
  <path class="cls-1" d="M455,.5A20.83,20.83,0,0,1,459.33,4a20.47,20.47,0,0,1,3.57,4.22c0,2.83.14,8.26.4,15.71.28,8.19.41,13.2.41,15.75A466.94,466.94,0,0,1,456,123.93c-5.11,27.71-11.64,55.55-19.42,82.73s-16,54.82-24.28,82-15.79,54.65-22.26,81.95c-.54,1.58-1.36,4.9-2.44,9.88s-2,10.33-2.83,16.18c-.85,6.05-1.51,11.59-2,16.95s-.81,9.58-.81,12.21c-.54,4.7-1.35,13.19-2.43,25.23-1,11.77-2,24.63-2.83,38.23-.85,14.08-1.51,26.45-2,37.83s-.81,19.83-.81,24.65c-1.68.52-4.33,1.16-7.9,1.91-3.76.78-7.84,1.58-12.14,2.36s-8.39,1.58-12.14,2.37a46.15,46.15,0,0,1-8.05,1.18h-4.05c-17.11,0-29.43-4.09-36.64-12.14s-12-18.12-14.11-29.82a147.68,147.68,0,0,1-1.61-38.16c1.07-13.65,1.62-26.39,1.62-37.85a.25.25,0,0,0-.25-.25h-9.72a.28.28,0,0,0-.17.07l-80.89,78.76c-11.23,1.56-20.87,2.75-28.65,3.53s-15.94,1.59-23.88,2.36l-7.93.78L115.07,528H101.31c-16.09,0-29.8-3-40.76-9a82.61,82.61,0,0,1-27.44-24,151.73,151.73,0,0,1-18.18-33C10.06,449.86,5.71,437.68,2,425.77c0-2.55-.13-6.93-.4-13.37-.27-6.16-.41-12.6-.41-19.69s-.13-14.12-.4-20.5c-.27-6-.4-10.62-.4-13.38,0-4.4.13-10.23.4-17.33.27-7.44.4-14.6.4-21.29,0-7.58.14-13.76.41-18.9.28-5.54.4-8.46.4-9.47,0-.29.27-1.8,2-8.61,1.44-5.62,2.93-11.72,4.45-18.12a93.41,93.41,0,0,0,2.44-10.27,59.24,59.24,0,0,1,2.41-9.42,72.59,72.59,0,0,0,2.44-8.7c.51-2.51,1.19-5.15,2-7.85S19.68,223,21,219.42c1.21-3.3,2.78-7.55,5.26-14.19,4.85-14.15,11.66-31.91,20.24-52.79S64.2,111,73.61,91.38s18.6-36.88,27.51-51.6,16.26-22.48,22.12-23.53a252.37,252.37,0,0,1,33.15-6.69A249.69,249.69,0,0,1,190.1,6.8,331.21,331.21,0,0,1,182,79.4c-5.37,23.81-11.77,47.8-19,71.3s-14.72,47.17-22.26,70.53a551.12,551.12,0,0,0-17.82,70.57c-.54,3.15-.55,8.35,0,15.42s1.34,14.77,2.43,22.87c1.08,8.25,2.17,15.94,3.24,22.86a117.48,117.48,0,0,1,1.61,15.33.25.25,0,0,0,.25.25c2.8,0,8.43-4.79,17.19-14.66,8.6-9.69,19-22.15,30.77-37.05,12-15.09,24.76-31.93,38.05-50.05s26.36-36.15,38.86-53.59,23.6-33.3,33.19-47.29,16.66-24.61,21-31.51c1.65-1.62,4.92-7.07,9.74-16.2s9.81-18.83,15.39-29.95c5.36-10.72,10.4-20.93,15-30.34,4.65-9.6,7.43-15.53,8.5-18.12,9.09-16.67,22.39-27.5,39.51-32.19A202,202,0,0,1,451,.5h4m.06-.25H451a201.34,201.34,0,0,0-53.43,7.09q-25.92,7.1-39.66,32.31-1.64,4-8.5,18.13t-15,30.34q-8.1,16.16-15.38,29.95t-9.71,16.15q-6.5,10.26-21.05,31.53T255.11,213q-18.63,26-38.85,53.59t-38,50q-17.82,22.47-30.76,37t-17,14.58a116.13,116.13,0,0,0-1.62-15.37q-1.62-10.64-3.23-22.85t-2.43-22.85q-.83-10.65,0-15.37A547.63,547.63,0,0,1,141,221.31q11.33-35.07,22.26-70.54t19-71.32a330.28,330.28,0,0,0,8.09-72.9,247.14,247.14,0,0,0-34,2.76A252.67,252.67,0,0,0,123.17,16q-8.92,1.59-22.26,23.64T73.38,91.27q-14.16,29.55-27.11,61.08T26,205.15q-3.24,8.68-5.26,14.19c-1.36,3.68-2.43,6.83-3.24,9.45s-1.49,5.26-2,7.88a74.3,74.3,0,0,1-2.43,8.67,58.72,58.72,0,0,0-2.43,9.46A95.56,95.56,0,0,1,8.22,265Q5.79,275.3,3.77,283.17c-1.36,5.26-2,8.15-2,8.67,0,1.06-.14,4.21-.4,9.46S.93,312.86.93,320.21q0,10.25-.4,21.28T.12,358.83q0,3.94.41,13.39t.4,20.49q0,10.26.41,19.7t.4,13.4q5.65,18.13,13,36.25a150.9,150.9,0,0,0,18.21,33.1,82.31,82.31,0,0,0,27.52,24q16.59,9.07,40.88,9.06h13.76c5.39-.51,12.14-1.18,20.24-2s16.05-1.57,23.88-2.36,17.4-2,28.74-3.55l80.94-78.81h9.72q0,17.35-1.62,37.83a146.71,146.71,0,0,0,1.62,38.22q3.23,17.75,14.16,30t36.83,12.22h4.05a45.84,45.84,0,0,0,8.1-1.19q5.65-1.17,12.14-2.36T366,553.87c3.77-.78,6.48-1.45,8.1-2q0-7.1.81-24.83t2-37.83q1.21-20.08,2.83-38.22t2.43-25.22c0-2.62.27-6.7.81-12.21s1.22-11.16,2-17,1.75-11.15,2.84-16.15,1.88-8.28,2.43-9.85q9.7-41,22.26-82t24.28-82q11.73-41,19.43-82.75A465.36,465.36,0,0,0,464,39.65q0-3.93-.41-15.76c-.27-7.88-.4-13.12-.4-15.76a19.94,19.94,0,0,0-3.64-4.33A20.63,20.63,0,0,0,455.06.25Z"/>
</svg>
