<svg id="Layer_1" data-name="Layer 1" xmlns="http://www.w3.org/2000/svg" viewBox="0 0 682.65 157.87">
  <defs>
    <style>
      .cls-1 {
        fill: #ec008c;
      }
    </style>
  </defs>
  <title>Underscore</title>
  <path class="cls-1" d="M682.05.5c-11.18,16.49-23.59,28.93-36.89,37a158.27,158.27,0,0,1-44.86,18.1,356.46,356.46,0,0,1-53.39,8.26c-19.09,1.57-39.65,4-61.13,7.1-69.31,10.46-137.68,23.19-203.2,37.83s-132.67,31-199.92,48.86H72.17c-2.13,0-6.75-.4-13.73-1.18s-14.56-1.58-22.67-2.37-15.49-1.57-22.26-2.36A101.24,101.24,0,0,1,1.18,149.8a7.07,7.07,0,0,0-.41-1.86A6.32,6.32,0,0,1,.38,146a23.22,23.22,0,0,1,.78-3.81C22.62,119.78,43.42,102.71,63,91.49A248.89,248.89,0,0,1,124.44,66.3a391.76,391.76,0,0,1,69.17-11c25-1.86,53.61-4.38,85-7.49,34.45-3.67,68.09-8.31,100-13.79,32.2-5.53,64.47-10.84,95.92-15.76,31.6-5,64-9.21,96.32-12.61A966.56,966.56,0,0,1,672,.5h10m.47-.25H672A963.54,963.54,0,0,0,570.81,5.37Q522.24,10.49,474.48,18T378.56,33.74Q330.4,42,278.59,47.53q-47.77,4.74-85,7.49a392.25,392.25,0,0,0-69.21,11A248.4,248.4,0,0,0,62.86,91.27Q33.33,108.21.93,142.1A24.12,24.12,0,0,0,.12,146a6.34,6.34,0,0,0,.41,2,6.06,6.06,0,0,1,.4,2c1.62.51,5.81,1.18,12.55,2s14.17,1.57,22.26,2.36,15.66,1.58,22.67,2.36,11.61,1.19,13.76,1.19H82.69q101.19-26.81,200-48.87T485.82,71.18q32.35-4.74,61.11-7.1a354.22,354.22,0,0,0,53.43-8.27,157.24,157.24,0,0,0,44.92-18.13Q665.52,25.46,682.52.25Z"/>
</svg>
