<svg id="Layer_1" data-name="Layer 1" xmlns="http://www.w3.org/2000/svg" viewBox="0 0 462.47 702.43">
  <defs>
    <style>
      .cls-1 {
        fill: #ec008c;
      }
    </style>
  </defs>
  <title>V</title>
  <path class="cls-1" d="M86.74.37a27.78,27.78,0,0,1,18.05,6.25c5,4.15,8.15,10.2,9.22,18l32.38,338.85a42.45,42.45,0,0,0,1.22,7.93c.81,3.67,1.63,7.65,2.43,11.82s1.62,8.17,2.43,11.83a80.31,80.31,0,0,0,2,7.94,28.59,28.59,0,0,0,8.21,8,.23.23,0,0,0,.11,0,.24.24,0,0,0,.18-.07L171.1,403s0,0,.05-.06c30.7-55.59,63.52-112.46,97.53-169A1452.23,1452.23,0,0,1,381.58,72c4.25-4.67,7.63-7.56,10-8.61s7-1.54,13.82-1.55V87.6a.24.24,0,0,0,.15.23.16.16,0,0,0,.1,0,.23.23,0,0,0,.16-.06,236.8,236.8,0,0,1,25.88-20.08,65.86,65.86,0,0,1,30.37-11.35V71.79L413.54,197.84a.23.23,0,0,0,0,.14c2.67,15.12,1.31,31-4,47.16a78.62,78.62,0,0,1-28.25,39.28.24.24,0,0,0-.06.08c-2.68,4.67-7.18,13.16-13.37,25.23C362,321.06,355.5,333.56,348,348c-7,13.34-13.53,26.07-19.43,37.83s-10,20.11-12.14,24.82c-8.58,17.22-17.7,33.52-27.11,48.45s-19.23,29.79-29.13,44.12c-10.47,15.14-21,30.26-31.17,44.92-10.78,15.48-22.22,32.85-34,51.62-1.08,1.55-2.53,3.88-4.47,7.11-1.84,3.06-3.61,6.38-5.27,9.87-1.49,3.15-3.07,6.47-4.45,9.46-2,4.36-2,5-2,5.23V655c-2.14,7.77-7.69,14.73-16.48,20.71a132.66,132.66,0,0,1-29.9,14.94,195.3,195.3,0,0,1-33.14,8.66c-11,1.83-19.86,2.75-26.27,2.75-9.62,0-17.59-2.76-23.72-8.21a53.35,53.35,0,0,1-14.1-20.39,116.7,116.7,0,0,1-6.86-25.56C27,638.94,26,630.73,25.47,623.5V465.85L1.18,292.5V282.26c0-6.23-.13-13.45-.4-22.08C.51,252.08.38,243.6.38,235v-19.7c0-19.56.13-36.44.4-51.61.27-15.49,1-31,2-46.09S5.5,86.65,7.66,70.69s5.39-34,9.69-53.87A71.88,71.88,0,0,1,50.75,3.13a252.7,252.7,0,0,1,36-2.76m0-.25a252.67,252.67,0,0,0-36,2.76,71.89,71.89,0,0,0-33.6,13.79q-6.48,30-9.71,54T2.55,117.55q-1.62,22.86-2,46.1T.12,215.27V235q0,12.61.41,25.22t.4,22.07V292.5L25.22,465.88V623.5q.8,11,2.83,24.43a115.58,115.58,0,0,0,6.88,25.61A53.33,53.33,0,0,0,49.1,694q9.3,8.28,23.88,8.27,9.7,0,26.31-2.75a194.81,194.81,0,0,0,33.19-8.67,132.3,132.3,0,0,0,30-15Q175.78,666.84,179,655V631.38q0-.79,2-5.13t4.46-9.45c1.62-3.41,3.36-6.7,5.26-9.85s3.36-5.52,4.45-7.1q17.79-28.36,34-51.62t31.16-44.92q15-21.66,29.15-44.13t27.11-48.47q3.22-7.08,12.15-24.82t19.42-37.83Q358.72,328,368,309.84t13.35-25.22a78.45,78.45,0,0,0,28.33-39.4q8.08-24.42,4-47.29L462.34,71.84V56.08a65.75,65.75,0,0,0-30.76,11.43,235.39,235.39,0,0,0-25.9,20.09v-26q-10.53,0-14.17,1.57t-10.12,8.67a1446.28,1446.28,0,0,0-112.92,162q-51.42,85.52-97.54,169l-8.1,7.88a28.3,28.3,0,0,1-8.09-7.88,77.4,77.4,0,0,1-2-7.88q-1.22-5.51-2.43-11.82t-2.42-11.82a42.32,42.32,0,0,1-1.22-7.88L114.26,24.56Q112.63,12.73,105,6.43A27.86,27.86,0,0,0,86.74.12Z"/>
</svg>
