<svg id="Layer_1" data-name="Layer 1" xmlns="http://www.w3.org/2000/svg" viewBox="0 0 300.12 772.57">
  <defs>
    <style>
      .cls-1 {
        fill: #ec008c;
      }
    </style>
  </defs>
  <title>Vertical_Bar	</title>
  <path class="cls-1" d="M219.05.5c3.75,0,10.28.4,19.41,1.18A158.46,158.46,0,0,1,265.53,6.4a85,85,0,0,1,23.81,10.22c6.91,4.4,10.41,10.3,10.41,17.52,0,14.08-3,30.5-8.89,48.78s-11.07,35.21-15.38,50.43q-3.25,9.47-10.12,29.56c-4.76,13.88-10.07,29.26-15.79,45.71-6.69,19.21-12.78,36.61-18.61,53.19-6.9,19.59-13,37-18.62,53.2-6.1,17.51-11.26,32.47-15.79,45.7l-.86,2.52q-6.23,18.15-9.25,27c-2.08,3-4.73,7.16-8.08,12.59s-6.7,11.19-10.12,17.34a200.9,200.9,0,0,0-9.32,18.94,60.13,60.13,0,0,0-4.88,17.4c-.54,3.14-1.2,11.14-2,24.45s-1.51,27.46-2,41.78c-.54,14.82-1.23,28.87-2,41.76s-1.48,21.19-2,24.43c-.54,6.76-2.31,16-5.26,27.54s-6.91,24.26-11.73,37.8-10.38,27.42-16.59,41.36a347,347,0,0,1-19.81,38.19c-7,11.51-14.2,20.91-21.42,27.93s-14.36,10.57-21.27,10.57c-3.72,0-8.48-.26-14.55-.79a61.71,61.71,0,0,1-16.93-3.92A49,49,0,0,1,4.7,759.77c-3.7-3.08-5-7.51-4-13.17L41.21,514.08v-7.85a1080.6,1080.6,0,0,1,38.85-186,1596.56,1596.56,0,0,1,66.36-178.86c10.72-24.53,22.3-48,34.4-69.73A382.87,382.87,0,0,0,211.14.5h7.91m0-.25H211A380.31,380.31,0,0,1,180.6,71.57q-18.21,32.72-34.4,69.75A1589.19,1589.19,0,0,0,79.82,320.21,1075,1075,0,0,0,41,506.2v7.88L.49,746.56q-1.63,8.67,4.05,13.4a49.17,49.17,0,0,0,13.76,7.88,62,62,0,0,0,17,3.94q8.89.78,14.57.79,10.5,0,21.45-10.64t21.45-28a344.82,344.82,0,0,0,19.83-38.22q9.3-20.87,16.6-41.37t11.73-37.83q4.44-17.32,5.27-27.58.8-4.74,2-24.44t2-41.76q.8-22.06,2-41.77t2-24.43a59.61,59.61,0,0,1,4.86-17.34,199,199,0,0,1,9.31-18.91q5.25-9.46,10.12-17.34t8.09-12.61q3.22-9.47,10.12-29.55t15.78-45.71q8.91-25.6,18.62-53.2t18.62-53.19q8.9-25.6,15.78-45.71t10.12-29.55q6.48-22.86,15.38-50.44T300,34.14q0-11-10.53-17.73A84.59,84.59,0,0,0,265.59,6.16a158.76,158.76,0,0,0-27.11-4.73Q224.7.25,219.05.25Z"/>
</svg>
