<svg id="Layer_1" data-name="Layer 1" xmlns="http://www.w3.org/2000/svg" viewBox="0 0 664.03 536.93">
  <defs>
    <style>
      .cls-1 {
        fill: #ec008c;
      }
    </style>
  </defs>
  <title>W</title>
  <path class="cls-1" d="M129.64.5a54.89,54.89,0,0,1,10.07,1.18c3.95.77,5.87,3.13,5.87,7.24V245.34a.25.25,0,0,0,.25.25h8.1a.23.23,0,0,0,.17-.07L259.24,143.17a84.27,84.27,0,0,0,32.33,0c.25,0,1-.1,4.56-2.4,2.41-1.57,5-3.43,7.71-5.53,3-2.3,5.26-4.05,7.27-5.51s3.69-2.32,4.71-2.32,3.57,1.05,7.58,3.13,6.87,3.67,8.45,4.69c14.5,12.54,25.93,23.28,34,31.9a125.49,125.49,0,0,1,19.39,26.74,200.28,200.28,0,0,1,12.93,31.09c3.79,11.62,8.69,26.47,14.58,44.13a.23.23,0,0,0,.23.17h8.1a.23.23,0,0,0,.2-.1c5.49-7.49,9.86-13.55,13.36-18.52s6.93-10,10.52-15.37c3.47-5.2,6.34-9.71,8.51-13.41a294.72,294.72,0,0,1,21.84-30.71,116,116,0,0,0,18.64-32.33l97-94.47c9.09-1.57,16.69-2.75,22.58-3.53s12-1.58,18.21-2.37c5.43-.69,10.74-1.35,15.75-2,1.17,0,4-.14,8.11-.39s6.67-.38,7.83-.39v8.41c-.06.58-3.18,6.91-9.28,18.8L648.13,95l-16,31.2c-8.45,16.45-17.43,33.81-26.71,51.62-8.85,17-16.48,31.68-22.67,43.73a599.26,599.26,0,0,1-35.6,59.08C534.29,299.41,521,318.37,507.47,337S480.48,374.32,467,393s-26.26,37.82-38.06,57.16a45.05,45.05,0,0,1-18.52,17.24,130.46,130.46,0,0,0-21.87,14.19c-2.71,1.58-7.09,4.94-13.39,10.27s-12.83,10.91-19.83,16.95c-6.78,5.83-13.32,11.53-19.43,16.94-5.53,4.88-9.47,8.46-11.73,10.63V513.29a.24.24,0,0,0-.12-.21.2.2,0,0,0-.13,0l-.11,0-32.38,15.77s-.05,0-.06,0a.34.34,0,0,1-.24.09c-.39,0-1.24-.42-3.05-2.44a52.64,52.64,0,0,1-4.4-5.46,19.66,19.66,0,0,1-.79-3.83,35.73,35.73,0,0,1,4-16.44l2.81-5.46,6.1-11.87a184.41,184.41,0,0,0,8.92-20.52c2.69-7.36,4.06-16.14,4.06-26.09,0-8.83-1.09-23.16-3.24-42.59s-5-39.24-8.5-59.12a513.94,513.94,0,0,0-11.75-52.43c-4.4-15.24-9-22.64-14-22.64a24.69,24.69,0,0,0-4.1.79l-.06,0A125.87,125.87,0,0,0,229,290.49a330.79,330.79,0,0,0-29.57,39.44c-9,14.06-17.84,28.38-26.31,42.56a259.61,259.61,0,0,1-28.3,39,136.83,136.83,0,0,1-34.75,28.32c-12.84,7.3-28.59,11-46.82,11a176.27,176.27,0,0,1-18.19-1.18,93.68,93.68,0,0,1-21-4.72,48.12,48.12,0,0,1-16.92-9.8A20.28,20.28,0,0,1,.38,419.51v-8.63L16.56,300.54c1.62-12.56,2.84-29,3.65-48.88s2-41.2,3.64-63.43,4.34-44.79,8.09-67S41.54,78.81,49.33,61s18.22-32.41,31.1-43.65S109.83.5,129.64.5m0-.25q-30,0-49.38,16.94T49.1,60.93Q37.36,87.74,31.7,121.22t-8.1,67Q21.17,221.71,20,251.65t-3.65,48.86L.13,410.84v8.67A20.44,20.44,0,0,0,7,435.27a48.17,48.17,0,0,0,17,9.85,94.46,94.46,0,0,0,21,4.73A174.32,174.32,0,0,0,63.27,451q27.49,0,46.94-11A136,136,0,0,0,145,411.63a257.43,257.43,0,0,0,28.33-39q12.94-21.67,26.31-42.56a330.74,330.74,0,0,1,29.55-39.4,125.07,125.07,0,0,1,38-29.56,26.46,26.46,0,0,1,4.05-.78q7.29,0,13.76,22.46a509.07,509.07,0,0,1,11.74,52.4q5.26,30,8.5,59.11t3.24,42.56q0,15-4.05,26a184.22,184.22,0,0,1-8.9,20.49l-8.91,17.34a35.74,35.74,0,0,0-4,16.55,22.38,22.38,0,0,0,.8,3.94,53.52,53.52,0,0,0,4.46,5.52c1.5,1.68,2.58,2.52,3.23,2.52a.56.56,0,0,0,.41-.16l32.38-15.76v23.64q3.22-3.13,12.14-11T355.49,509Q366,499.9,375.32,492c6.2-5.24,10.65-8.67,13.36-10.24a129.22,129.22,0,0,1,21.85-14.19,45,45,0,0,0,18.62-17.34Q447,421.1,467.2,393.11t40.47-56q20.22-28,39.67-56.34A599.09,599.09,0,0,0,583,221.7q8.91-17.32,22.67-43.74t26.71-51.62L654.59,83q9.3-18.12,9.31-18.92V55.42c-1.09,0-3.78.13-8.09.39s-7,.39-8.1.39l-15.78,2q-9.31,1.19-18.22,2.37t-22.66,3.54l-97.14,94.57A114.53,114.53,0,0,1,475.29,191a293.68,293.68,0,0,0-21.85,30.74q-3.26,5.52-8.5,13.4t-10.53,15.36Q429.15,258,421.06,269H413q-8.91-26.78-14.57-44.13a199.51,199.51,0,0,0-12.95-31.13A125.34,125.34,0,0,0,366,166.93q-12.13-13-34-31.92-2.43-1.57-8.5-4.73c-4-2.09-6.61-3.15-7.69-3.15s-2.7.79-4.85,2.36-4.59,3.43-7.29,5.52-5.26,3.94-7.69,5.52-3.92,2.36-4.45,2.36a69.42,69.42,0,0,1-16.19,1.58,69.3,69.3,0,0,1-16.19-1.58L153.93,245.34h-8.1V8.92q0-6.3-6.07-7.49A54.58,54.58,0,0,0,129.64.25Z"/>
</svg>
