<svg id="Layer_1" data-name="Layer 1" xmlns="http://www.w3.org/2000/svg" viewBox="0 0 505.37 541.66">
  <defs>
    <style>
      .cls-1 {
        fill: #ec008c;
      }
    </style>
  </defs>
  <title>X</title>
  <path class="cls-1" d="M170.93.5c10.1,0,19,5.4,26.5,16.05s14.59,24.62,21,41.32c3.2,7.77,6.33,16.12,9.31,24.81s6,18.07,8.9,28c3,10.17,6.15,21.57,9.31,33.88,3.34,13,7.15,27.33,11.33,42.56a.25.25,0,0,0,.22.18h0a.26.26,0,0,0,.23-.13l32.33-65.33A176.58,176.58,0,0,0,334.19,97,177.4,177.4,0,0,1,375,73c14.54-6.29,29.12-12.92,43.31-19.7a272.79,272.79,0,0,1,43.81-16.46l9.67,52.53a.26.26,0,0,0,.12.17l31.52,18.1c1.34,2,1.54,2.7,1.54,3,0,5.67-4.32,12.1-12.86,19.12a320.16,320.16,0,0,1-32.35,22.83c-12.64,8-26.8,16.57-42.09,25.61-15.08,8.92-29.25,18.2-42.11,27.6a204.67,204.67,0,0,0-32.42,28.8c-8.64,9.72-13,19.46-13,28.93a30.87,30.87,0,0,0,.41,4.37,35.64,35.64,0,0,1,.4,5.08.29.29,0,0,0,0,.09c2.59,7,6.86,18.59,11.74,31.92,5.51,15.08,11.5,31.79,17.8,49.64,6.7,19,12.4,35.28,17.41,49.65,5.56,16,9.2,26.49,11.32,32.67.52,3.1,1.45,7.87,2.84,14.58,1.32,6.51,3,13.41,4.86,20.51,1.92,7.26,3.69,14.15,5.26,20.49s2.67,11,3.23,13.75c0,.63.15,2.83.4,5.91.27,3.5.41,6.2.41,8.25,0,1-.13,3-.41,6.28-.25,2.85-.39,5-.4,6.13-2.21.52-6.38,1.15-12.74,1.92s-13.17,1.71-20.24,2.76c-6.65,1-13.32,1.93-19.83,2.76a124.17,124.17,0,0,1-12.51,1.18h-5.67c-10.13,0-19.05-5.27-26.51-15.66s-14.57-23.92-21-40.13c-3.23-8.37-6.22-17-8.9-25.6-2.9-9.27-5.89-18.69-8.91-28-3.23-9.94-7.31-20.69-12.15-31.94s-11.08-23.79-18.63-37.45a.23.23,0,0,0-.19-.13h0a.25.25,0,0,0-.19.09c-31.66,38.66-55,60.64-69.49,65.33-7.54,2.09-14.9,4.48-21.88,7.1s-14.19,5.22-21.85,7.88c-13.93,5.21-28.49,10.25-43.3,15A158.68,158.68,0,0,1,33.56,465V453.4a.23.23,0,0,0-.12-.22L1.14,435.1a12.67,12.67,0,0,1-.76-3C.38,426.44,4.7,420,13.24,413a320,320,0,0,1,32.35-22.83c12.85-8.08,27-16.7,42.09-25.61s29.22-18.19,42.11-27.6a205.56,205.56,0,0,0,32.42-28.8c8.63-9.73,13-19.46,13-28.93,0-1-.13-2.72-.4-5.15-.26-2.18-.41-3.75-.41-4.31a.28.28,0,0,0,0-.09c-2.05-5.47-5.67-15.32-11.74-31.91-5.88-16.07-11.87-32.77-17.81-49.65-6.55-18.56-12.24-34.8-17.4-49.64-5.56-15.94-9.26-26.64-11.32-32.67-.52-3-1.42-7.66-2.84-14.59-1.35-6.55-3-13.45-4.86-20.5-1.8-6.74-3.57-13.63-5.26-20.49s-2.73-11.3-3.23-13.73c0-.5-.12-2.27-.4-5.93-.27-3.29-.41-6.07-.41-8.25,0-1.1.15-3.33.41-6.29s.39-5,.4-6.13c2.18-.51,6.33-1.29,12.34-2.31s12.65-2,20.23-3.15,14.25-2,20.23-2.76A124,124,0,0,1,165.26.5h5.67M140.82,85.14c1.88,0,2.83-1.78,2.83-5.29,0-2.52-.85-3.8-2.53-3.8a5.23,5.23,0,0,0-1.85.41c-2.84,1.11-4.21,2.47-4.21,4.17s1.41,3.1,4.21,4.18a4.32,4.32,0,0,0,1.55.33m-1.46,31.21h8.09a.25.25,0,0,0,.25-.25v-7.88a.25.25,0,0,0-.15-.23.18.18,0,0,0-.1,0,.22.22,0,0,0-.17.07l-8.1,7.88a.27.27,0,0,0-.06.27.25.25,0,0,0,.24.16m24.28,31.52.1,0a.25.25,0,0,0,.15-.23v-7.88a.25.25,0,0,0-.25-.25h-8.09a.25.25,0,0,0-.24.16.27.27,0,0,0,.06.27l8.1,7.88a.22.22,0,0,0,.17.07M196,234.56c4.46,0,6.73-2.74,6.73-8.13s-2.27-8.13-6.73-8.13-6.73,2.73-6.73,8.13,2.27,8.13,6.73,8.13M170.93.25h-5.67a122.09,122.09,0,0,0-12.55,1.18q-9.32,1.19-20.23,2.76T112.24,7.34q-9.31,1.59-12.55,2.37c0,1.06-.14,3.15-.4,6.3s-.41,5.26-.41,6.31c0,2.1.13,4.86.41,8.27s.4,5.39.4,5.91c.53,2.64,1.62,7.23,3.24,13.79s3.36,13.4,5.26,20.49,3.51,13.93,4.86,20.49,2.29,11.43,2.83,14.58q3.23,9.47,11.33,32.71t17.41,49.65q9.3,26.41,17.81,49.65t11.73,31.91c0,.53.13,2,.41,4.34s.4,4.07.4,5.12Q175,293.42,162,308a204.55,204.55,0,0,1-32.38,28.76Q110.22,351,87.55,364.34T45.46,390a318.28,318.28,0,0,0-32.38,22.85q-13,10.63-13,19.31a13.07,13.07,0,0,0,.81,3.15L33.31,453.4v11.82a157.87,157.87,0,0,0,48.17-7.1q22.24-7.08,43.31-15,11.33-3.93,21.85-7.88t21.86-7.09q21.85-7.1,69.61-65.41,11.32,20.49,18.62,37.43t12.14,31.92q4.86,15,8.91,28t8.9,25.62q9.72,24.44,21.05,40.19t26.71,15.76h5.67a122.58,122.58,0,0,0,12.55-1.18q9.29-1.18,19.83-2.76T392.72,535c6.48-.79,10.79-1.44,13-2,0-1,.12-3.15.4-6.3s.41-5.25.41-6.31q0-3.14-.41-8.27c-.28-3.41-.4-5.38-.4-5.91-.55-2.63-1.62-7.22-3.24-13.79s-3.38-13.4-5.26-20.49-3.52-13.92-4.86-20.5S390,440,389.49,436.85q-3.25-9.47-11.34-32.71t-17.4-49.65q-9.31-26.4-17.81-49.65T331.2,272.92a35.52,35.52,0,0,0-.4-5.12,30.05,30.05,0,0,1-.41-4.33q0-14.19,13-28.77a203.71,203.71,0,0,1,32.38-28.76q19.42-14.19,42.09-27.58t42.09-25.62a320.09,320.09,0,0,0,32.38-22.85q12.94-10.63,12.95-19.31a8,8,0,0,0-1.62-3.15L472.05,89.3l-9.71-52.8a271.81,271.81,0,0,0-44.12,16.55q-21.45,10.25-43.3,19.7a176.46,176.46,0,0,0-40.88,24,175.75,175.75,0,0,1-44.12,24.82L257.54,187q-6.48-23.64-11.33-42.55t-9.31-33.89q-4.46-15-8.9-28t-9.31-24.82Q209,32.57,197.64,16.41T170.93.25ZM140.82,84.89a3.86,3.86,0,0,1-1.46-.32c-2.71-1-4.05-2.36-4.05-3.94s1.34-2.88,4.05-3.94a5,5,0,0,1,1.76-.39c1.52,0,2.28,1.18,2.28,3.55q0,5-2.58,5Zm-1.46,31.21,8.09-7.88v7.88Zm24.28,31.52-8.09-7.88h8.09v7.88ZM196,234.31c-4.33,0-6.48-2.62-6.48-7.88s2.15-7.88,6.48-7.88,6.48,2.63,6.48,7.88-2.17,7.88-6.48,7.88Z"/>
</svg>
