<svg id="Layer_1" data-name="Layer 1" xmlns="http://www.w3.org/2000/svg" viewBox="0 0 454.37 772.57">
  <defs>
    <style>
      .cls-1 {
        fill: #ec008c;
      }
    </style>
  </defs>
  <title>Y</title>
  <path class="cls-1" d="M114.23.5c1.59.56,5.49,3.84,11.6,9.78S136.21,20.93,138.34,24a312.54,312.54,0,0,1,21.44,34.65c6.71,12.54,13.24,25.66,19.42,39s12,26.73,17.4,39.79,10.31,25.39,14.58,36.27a18.61,18.61,0,0,0,3.69,4.4,19,19,0,0,0,4.52,3.59l.05,0a24.06,24.06,0,0,0,4.1.8,24.66,24.66,0,0,0,4.11-.8l.08,0a268.9,268.9,0,0,0,41.32-35.1c12.81-13.24,25.61-27.16,38.06-41.38C318.06,92.71,331,77.91,343.94,63.07a533.25,533.25,0,0,1,37.58-39,193,193,0,0,1,35.92-7.46,348.08,348.08,0,0,1,36.56-2V31.77c0,.47-1.49,3.88-4.43,10.14S442.89,55.7,438.64,64s-8.71,16.83-13.35,25.61-8.53,15.68-11.73,20.87C378.14,170.54,340,231,300.24,290.12c-39.65,58.95-77.79,117.81-113.34,175a829.65,829.65,0,0,0-57.08,109.19A297.4,297.4,0,0,0,105.11,693c0,18.88,3,34,8.93,45s16.57,22.41,31.87,34.31h-7.36c-48.82,0-84.44-10.19-105.87-30.28S.37,688.48.37,642.53a293.23,293.23,0,0,1,8.9-72A512,512,0,0,1,31.93,502a673.9,673.9,0,0,1,31.56-66.18c12.07-22.17,23.78-44,34.8-65,2.65-4.65,6.32-10.34,10.92-16.92s9.2-13.46,13.76-20.5A170.37,170.37,0,0,0,134.73,312a49.1,49.1,0,0,0,4.88-20.2,33.33,33.33,0,0,0-.41-4.37,30.72,30.72,0,0,1-.4-3.51.29.29,0,0,0,0-.09,565,565,0,0,0-27.94-60.32c-11-20.72-21.81-41.8-32-62.64A541,541,0,0,1,52.57,97.1,203.65,203.65,0,0,1,41.66,31.77V24.13A45.8,45.8,0,0,0,50,21.76c5-1.73,10.36-3.59,15.79-5.51,5.68-2,11.64-4.2,18.22-6.7,6.11-2.34,11.69-4.32,16.56-5.9C103.72,2.88,113.25.57,114.23.5m0-.25c-.54,0-5.13,1.06-13.76,3.15Q93.21,5.77,83.91,9.31T65.69,16q-8.91,3.16-15.78,5.52c-4.59,1.57-7.43,2.36-8.5,2.36v7.88A202.74,202.74,0,0,0,52.34,97.18,537.27,537.27,0,0,0,78.65,161q15.36,31.53,32,62.65A566.31,566.31,0,0,1,138.55,284a29.53,29.53,0,0,0,.4,3.54,32.11,32.11,0,0,1,.41,4.34q0,9.45-4.86,20.09a167.28,167.28,0,0,1-11.74,21.28Q115.88,343.86,109,353.7T98.07,370.65q-17,32.33-34.8,65a673.12,673.12,0,0,0-31.57,66.2A508.62,508.62,0,0,0,9,570.42,292.13,292.13,0,0,0,.12,642.53q0,69.35,32.38,99.7t106.05,30.34h8.09q-23.49-18.14-32.38-34.68T105.36,693a295.79,295.79,0,0,1,24.69-118.6,824.17,824.17,0,0,1,57.07-109.15q53.41-85.89,113.32-175T413.77,110.58q4.86-7.87,11.74-20.88t13.36-25.62Q445.34,51.5,449.79,42c3-6.31,4.46-9.72,4.46-10.25V14.43a343.28,343.28,0,0,0-36.84,2,191.14,191.14,0,0,0-36,7.48,530.72,530.72,0,0,0-37.64,39q-18.21,20.9-36.83,42.16t-38.05,41.38a268.19,268.19,0,0,1-41.28,35.07,24.71,24.71,0,0,1-4.05.79,24.28,24.28,0,0,1-4-.79A19.35,19.35,0,0,1,215,178a18.92,18.92,0,0,1-3.64-4.33q-6.48-16.56-14.57-36.25t-17.4-39.8q-9.31-20.1-19.43-39a313.06,313.06,0,0,0-21.45-34.68Q135.29,19.17,126,10.1T114.26.25Z"/>
</svg>
