<svg id="Layer_1" data-name="Layer 1" xmlns="http://www.w3.org/2000/svg" viewBox="0 0 511.04 474.67">
  <defs>
    <style>
      .cls-1 {
        fill: #ec008c;
      }
    </style>
  </defs>
  <title>Z</title>
  <path class="cls-1" d="M103.74.38C130,.38,157.1,1.7,184.26,4.31a766.61,766.61,0,0,1,80.92,12.22,566.26,566.26,0,0,1,78.08,22A450.45,450.45,0,0,1,415.14,72V87.57l-8.09,31.49v4c0,17.22-1.63,41.82-4.85,73.13l-26.41,13.32-85.17,43c-29.65,15-52.25,26.49-67.19,34.28-29.61,14.68-49.26,37.53-58.41,67.93a.25.25,0,0,0,0,.22.26.26,0,0,0,.2.1,716.22,716.22,0,0,0,71.66-3.55c23.33-2.35,47.16-5.13,70.84-8.27s47.43-5.92,70.82-8.28,47.46-3.54,71.62-3.54h11.33c5.8,0,12.06.13,18.61.39,6.25.26,12.52.4,18.63.4h11.71a22.5,22.5,0,0,1-3.39,3.9,19.62,19.62,0,0,1-4.4,3.51,900.19,900.19,0,0,1-195.43,80.75A1105.38,1105.38,0,0,1,98.05,457.75a.21.21,0,0,0-.13.05C87.2,466.15,74.44,471,60,472.33s-28,2-40.45,2c-9.53,0-15.17-3.52-16.75-10.45A97.07,97.07,0,0,1,.38,442.24c0-14.08,18.5-50.36,55-107.83,18.52-29,38.87-54.05,60.47-74.43s45.07-36.67,69.76-48.43c48.85-24,86.13-36.22,110.79-36.22,2.66,0,5.7.13,9.29.39.88.07,1.77.1,2.63.1a32.24,32.24,0,0,0,7.56-.89,23.08,23.08,0,0,0,8.19-3.59c2.21-1.62,3.34-4.61,3.34-8.87a12.91,12.91,0,0,0-.83-4,.21.21,0,0,0-.06-.1C319,151,309,144.88,296.89,140.17a267,267,0,0,0-37.27-11.44,342.85,342.85,0,0,0-36.05-6.31c-11.24-1.29-20.2-2.48-26.62-3.53L181,103.36l7.91-7.7a.24.24,0,0,0,.07-.23c-1.11-5.35-4.73-8.2-10.76-8.47s-10.6-.4-13.77-.4c-7.55,0-14,1.47-19.14,4.37A34.73,34.73,0,0,1,128,95.23c-3.19,0-8.59-2.5-16.05-7.44A252.79,252.79,0,0,1,88.52,70.07a253,253,0,0,1-21-19.68c-5.86-6.22-8.83-10.93-8.83-14a20.17,20.17,0,0,1,.78-3.81c.55-.53,2-1.77,4.39-3.88,3.31-2.85,3.73-3.71,3.73-4.13,0-2.13-1.06-6.15-3.25-12.3-2-5.68-3.56-9.32-4.64-11.1h8.45c4.44,0,8.94-.13,13.37-.39C86.12.51,90.61.38,94.83.38h8.91m0-.26H94.83q-6.48,0-13.35.4c-4.59.27-9,.39-13.36.39h-8.9c1.07,1.58,2.69,5.4,4.85,11.43s3.24,10.12,3.24,12.22c0,.52-1.21,1.84-3.64,3.94s-3.92,3.42-4.45,3.94a22.16,22.16,0,0,0-.81,3.94q0,4.73,8.9,14.18a249.09,249.09,0,0,0,21,19.7A249.36,249.36,0,0,0,111.83,88c7.55,5,13,7.48,16.19,7.48a34.86,34.86,0,0,0,17.41-4.33c5.12-2.88,11.46-4.34,19-4.34q4.86,0,13.76.4t10.53,8.27l-8.1,7.88,16.19,15.76q9.72,1.59,26.71,3.55a338.8,338.8,0,0,1,36,6.31A264.12,264.12,0,0,1,296.8,140.4q18.21,7.09,29.55,18.13a13,13,0,0,1,.81,3.94c0,4.21-1.09,7.09-3.24,8.67a22.67,22.67,0,0,1-8.1,3.54,31.55,31.55,0,0,1-7.5.89c-.86,0-1.73,0-2.62-.1q-5.26-.39-9.3-.39-37.25,0-110.9,36.25Q111,246.79,55.17,334.27.11,421,.13,442.24a96.94,96.94,0,0,0,2.42,21.67q2.43,10.63,17,10.64,18.62,0,40.48-2t38-14.58a1100.91,1100.91,0,0,0,209.25-37.43,896.85,896.85,0,0,0,195.49-80.78,19.78,19.78,0,0,0,4.46-3.55,19.48,19.48,0,0,0,3.64-4.33H498.77q-8.92,0-18.62-.4t-18.62-.39H450.2a712.7,712.7,0,0,0-71.64,3.55q-35.22,3.54-70.83,8.27t-70.83,8.27a713,713,0,0,1-71.64,3.55Q179,309.07,223.54,287q22.65-11.82,67.19-34.28t111.71-56.35q4.86-47.3,4.86-73.29v-3.95l8.09-31.52V71.84a448.69,448.69,0,0,0-72-33.49,564.92,564.92,0,0,0-78.12-22.07,760.87,760.87,0,0,0-81-12.21Q143.41.13,103.74.12Z"/>
</svg>
