<svg id="Layer_1" data-name="Layer 1" xmlns="http://www.w3.org/2000/svg" viewBox="0 0 410.33 576">
  <defs>
    <style>
      .cls-1 {
        fill: none;
        stroke: #ec008c;
        stroke-miterlimit: 10;
        stroke-width: 0.25px;
      }
    </style>
  </defs>
  <title>Ampersand</title>
  <path class="cls-1" d="M346.74,298.62l-55.48,69.15-69.38-93.31c33.51-28.23,57.25-53.36,70.59-74.7a129.33,129.33,0,0,0,20.2-69.5c0-23.59-5.7-45.48-17-65.06S268.25,30,247.6,18.72s-44.43-17-70.69-17c-25.73,0-49.23,5.58-69.88,16.57a124.42,124.42,0,0,0-48.9,46.07c-11.8,19.58-17.79,42-17.79,66.68a129.38,129.38,0,0,0,12.94,56.18c8.52,17.85,23.88,42.26,45.66,72.56-35.66,29.31-61.31,57.43-76.25,83.57A170.46,170.46,0,0,0,.08,429c0,43.94,13.06,79.81,38.79,106.62S101.31,576,147.93,576c27.32,0,52-4.89,73.47-14.53s42.08-25.73,61.77-48L286,517c14.46,19.29,27.5,32.6,38.78,39.57s26.56,10.54,45.35,10.54h39.14V480H391.08c-11.06,0-22-7-32.61-20.73L343.4,438.64l66.89-83.81Zm-154,180.24a70.84,70.84,0,0,1-36.78,10c-18.55,0-33.33-6.05-43.91-17.95s-16-28.48-16-49.19c0-14.33,4.18-28.6,12.41-42.42s22.52-29.56,42.56-47l80.77,110.35C217,460.07,203.87,472.25,192.76,478.86ZM208,93.15c7.92,8.73,12,20.13,12,33.89a67.34,67.34,0,0,1-10,35.56c-6.61,10.84-19.83,24.63-39.34,41-14.76-20.59-24.52-36.12-29-46.17a74.07,74.07,0,0,1-6.8-30.39c0-14.3,4-25.83,11.94-34.29S165,80,177.72,80C189.86,80,200,84.45,208,93.15Z"/>
</svg>
