<svg id="Layer_1" data-name="Layer 1" xmlns="http://www.w3.org/2000/svg" viewBox="0 0 305.38 576">
  <defs>
    <style>
      .cls-1 {
        fill: none;
        stroke: #ec008c;
        stroke-miterlimit: 10;
        stroke-width: 0.25px;
      }
    </style>
  </defs>
  <title>Dollar_Sign</title>
  <path class="cls-1" d="M197,245.09l-40.9-7.9c-20.38-3.79-35.25-10-44.23-18.53s-13.47-20.41-13.47-35.51c0-17,4.78-30.26,14.19-39.46s23.07-13.85,40.55-13.85c18.91,0,33.28,4.67,42.7,13.85s15.18,24.19,17.07,44.54l0,.45h85.65l0-.53c-2.4-35.33-12.81-64.53-31-86.74s-42.91-36.76-73.78-43.49V.42h-74.9V57.2c-33.25,6.73-59.76,21.72-78.8,44.56s-28.82,52.5-28.82,87.85c0,35.84,9.83,64.33,29.19,84.65s49.51,34.24,89.6,41.4l35.15,6.46c18,3.3,31.17,9.41,39.19,18.14s12.07,21.51,12.07,38c0,18.42-5.14,32.42-15.27,41.6s-25.59,13.86-45.94,13.86c-22.25,0-39.15-4.9-50.24-14.57s-18.16-26.6-21-50.27l0-.44H.48l0,.52C2.41,408.62,13.8,441,34.35,465.08s48.9,38.92,84.53,44.23v66.07h74.9V507.86c34.68-6.73,62.15-21.73,81.67-44.57s29.53-54,29.53-92.16c0-35.83-9.09-64.42-27-85S232.78,251.77,197,245.09Z"/>
</svg>
