<svg id="Layer_1" data-name="Layer 1" xmlns="http://www.w3.org/2000/svg" viewBox="0 0 155 576">
  <defs>
    <style>
      .cls-1 {
        fill: none;
        stroke: #ec008c;
        stroke-miterlimit: 10;
        stroke-width: 0.25px;
      }
    </style>
  </defs>
  <title>Right_Parenthesis</title>
  <path class="cls-1" d="M63.94.81,63.79.59H0l.37.73A621.67,621.67,0,0,1,50.85,140.87,651.49,651.49,0,0,1,67.9,288.07,640.77,640.77,0,0,1,50.5,434.93,654.77,654.77,0,0,1,.39,574.83l-.36.72H64.48l.15-.22c29.84-44.18,52.54-90.74,67.46-138.39a497.6,497.6,0,0,0,22.49-148.87,498.66,498.66,0,0,0-22.67-150.26C116.88,90.16,94,44.07,63.94.81Z"/>
</svg>
