<svg id="Layer_1" data-name="Layer 1" xmlns="http://www.w3.org/2000/svg" viewBox="0 0 378.72 576">
  <defs>
    <style>
      .cls-1 {
        fill: none;
        stroke: #ec008c;
        stroke-miterlimit: 10;
        stroke-width: 0.25px;
      }
    </style>
  </defs>
  <title>Tilde</title>
  <path class="cls-1" d="M310.78,280.4C302.53,296.9,294,308.89,285.53,316s-18.86,10.7-30.89,10.7a60.38,60.38,0,0,1-23.93-5c-7.72-3.31-17.78-8.34-29.91-15-15.48-8.84-29.22-15.57-40.84-20s-24.87-6.69-39.28-6.69c-25,0-48,7.88-68.54,23.4S14.52,341.78,1.23,371.11l-.18.4L68.44,412.8l.25-.47c8.8-16.5,17.58-28.5,26.09-35.64A45.51,45.51,0,0,1,124.83,366a56.66,56.66,0,0,1,22.27,4.55c7.18,3,17.51,8.2,30.74,15.36,14.93,8.84,28.53,15.72,40.42,20.42a107.78,107.78,0,0,0,39.71,7.1c25.51,0,49-8,69.79-23.81s37.76-38.67,50.49-68l.18-.4L311,279.91Z"/>
</svg>
