<svg id="Layer_1" data-name="Layer 1" xmlns="http://www.w3.org/2000/svg" viewBox="0 0 334.13 576">
  <defs>
    <style>
      .cls-1 {
        fill: none;
        stroke: #ec008c;
        stroke-miterlimit: 10;
        stroke-width: 0.25px;
      }
    </style>
  </defs>
  <title>0</title>
  <path class="cls-1" d="M292.73,47.73C265.71,16.69,223.55,1,167.4,1c-54,0-95.63,15.88-123.73,47.17S1.35,125.89,1.35,186.28V382.37c0,63.57,13.69,112,40.71,143.76s69.2,48,125.34,48,98.31-16.28,125.34-48.39,40.7-80.32,40.7-143.36V186.28C333.44,125.37,319.75,78.75,292.73,47.73ZM108.42,373.53v-172c0-39.38,4-67.42,12-83.34s23.71-23.84,47-23.84,39.2,8,47.38,23.84,12.39,44,12.39,83.34v172c0,39.38-4.17,67.56-12.4,83.75s-24.11,24.24-47.37,24.24c-22.73,0-38.4-8.16-46.57-24.24S108.42,412.91,108.42,373.53Z"/>
</svg>
