<svg id="Layer_1" data-name="Layer 1" xmlns="http://www.w3.org/2000/svg" viewBox="0 0 329.15 576">
  <defs>
    <style>
      .cls-1 {
        fill: none;
        stroke: #ec008c;
        stroke-miterlimit: 10;
        stroke-width: 0.25px;
      }
    </style>
  </defs>
  <title>2</title>
  <path class="cls-1" d="M251.3,26.45C226.81,13,198,6.19,165.77,6.19c-33.33,0-62.78,6.54-87.53,19.45s-44,30.93-57.18,53.54S1.19,128,1.19,157v19.9H104.83V163.5c0-20.81,5.13-37.29,15.24-49s24.11-17.62,41.66-17.62,31.72,5.66,42.08,16.83,15.63,26.55,15.63,45.73v11.32c0,24.57-10.3,50.85-30.61,78.11L3.61,489.1v84.72H327.94V479.88H138.48L276.91,300.41c16.65-21.48,29.46-42.73,38.06-63.17s13-43.08,13-67.27V156.22c0-27.44-6.69-52.82-19.87-75.42S275.78,39.9,251.3,26.45Z"/>
</svg>
