<svg id="Layer_1" data-name="Layer 1" xmlns="http://www.w3.org/2000/svg" viewBox="0 0 331.38 576">
  <defs>
    <style>
      .cls-1 {
        fill: none;
        stroke: #ec008c;
        stroke-miterlimit: 10;
        stroke-width: 0.25px;
      }
    </style>
  </defs>
  <title>3</title>
  <path class="cls-1" d="M257.6,270.28C278.14,259,294.18,243.8,305.31,225c11.29-19.09,17-41,17-65.22v-12.1c0-44.59-14.17-80.68-42.11-107.29S213.33.3,164.46.3C114.54.3,74.92,13.51,46.71,39.57s-42.52,63-42.52,109.71V163.5H102V149.28c0-18.07,5.12-32.48,15.19-42.82s24.62-15.59,43.23-15.59c18.05,0,32.45,5.79,42.79,17.19s15.61,27.46,15.61,47.67v12.11c0,20.75-5.65,37.2-16.81,48.88s-27,17.6-47.25,17.6H126.84v90.57h28.75c23.42,0,41.49,6.47,53.71,19.21s18.42,31.38,18.42,55.34V414c0,21.82-5.8,39.36-17.22,52.11s-27.18,19.2-46.84,19.2c-20.76,0-36.8-5-47.68-14.8S99.6,446,99.6,426.88V414.27H.16v17.44c0,45.67,14.58,81.5,43.34,106.5s69.71,37.64,121.77,37.64c31.68,0,60.54-6.67,85.77-19.82a143.85,143.85,0,0,0,59.11-56.28c14-24.17,21.05-53,21.05-85.78V398.63c0-31.14-6.4-58.11-19-80.14C299.7,296.74,281.34,280.51,257.6,270.28Z"/>
</svg>
