<svg id="Layer_1" data-name="Layer 1" xmlns="http://www.w3.org/2000/svg" viewBox="0 0 326.94 576">
  <defs>
    <style>
      .cls-1 {
        fill: none;
        stroke: #ec008c;
        stroke-miterlimit: 10;
        stroke-width: 0.25px;
      }
    </style>
  </defs>
  <title>5</title>
  <path class="cls-1" d="M182,193.73c-31.22,0-58,8.63-79.69,25.64V93.27H315V.63H8.86V323.18h93.28l.13-.3c11.31-25.31,30.7-38.16,57.63-38.16,21,0,36.71,6.41,46.65,19s15,32.52,15,59v42.54c0,25.41-5.06,45-15,58.21s-25.36,19.84-45.83,19.84c-18.87,0-33.9-4.91-44.67-14.6s-16.2-23.31-16.2-40.53v-5.41H.67v12.77c0,43.58,14.52,78.12,43.14,102.65s67.92,36.94,116.91,36.94c51.71,0,92.71-14.65,121.85-43.51s43.92-69.73,43.92-121.45V357.05c0-52.25-12.29-93-36.53-121S229.38,193.73,182,193.73Z"/>
</svg>
