<svg id="Layer_1" data-name="Layer 1" xmlns="http://www.w3.org/2000/svg" viewBox="0 0 350.79 576">
  <defs>
    <style>
      .cls-1 {
        fill: none;
        stroke: #ec008c;
        stroke-miterlimit: 10;
        stroke-width: 0.25px;
      }
    </style>
  </defs>
  <title>6</title>
  <path class="cls-1" d="M204.05,220.79c-14.77,0-28.18,2.58-39.91,7.67L281.12.23H166.84l-129.69,252c-12,24-21.23,46.34-27.5,66.5A215.71,215.71,0,0,0,.2,382.81v25.42c0,52.37,15.64,93.88,46.49,123.36S120.81,576,175.35,576c52.36,0,95.09-15.21,127-45.23S350.49,458.41,350.49,405V378.71c0-48.55-13.42-87.42-39.9-115.53S248.26,220.79,204.05,220.79Zm-94.62,189.9V383.63c0-22.72,5.89-40.67,17.5-53.36s27.88-19.11,48.42-19.11,37,6.43,48.83,19.11,17.9,30.92,17.9,54.18v25.42c0,23.27-6,41.64-17.9,54.6S195.88,484,175.35,484s-36.82-6.55-48.41-19.51S109.43,433.41,109.43,410.69Z"/>
</svg>
