<svg id="Layer_1" data-name="Layer 1" xmlns="http://www.w3.org/2000/svg" viewBox="0 0 344.67 576">
  <defs>
    <style>
      .cls-1 {
        fill: none;
        stroke: #ec008c;
        stroke-miterlimit: 10;
        stroke-width: 0.25px;
      }
    </style>
  </defs>
  <title>8</title>
  <path class="cls-1" d="M277.77,274.05c16.35-10.2,30-24.77,40.61-43.31,10.75-18.81,16.19-40.32,16.19-64V152.27c0-27.38-6.53-53-19.42-76.06s-31.82-41.76-56.24-55.44S205.5.13,172.76.13,111.19,7.07,87,20.77,43.94,53.11,30.78,76.2A151.74,151.74,0,0,0,11,152.27v14.51c0,24.18,5.31,45.82,15.79,64.36,10.34,18.28,24.12,32.71,41,42.9a131.63,131.63,0,0,0-49.46,50.17,142.21,142.21,0,0,0-17.8,70v18.55C.48,445,8,473.82,22.72,498.52a149,149,0,0,0,61.1,57.05c25.76,13.15,55.41,19.81,88.14,19.81s62.52-6.66,88.54-19.8A148.51,148.51,0,0,0,322,498.52c14.77-24.7,22.25-53.82,22.25-86.55V393.42a141.52,141.52,0,0,0-17.4-68.4A134.24,134.24,0,0,0,277.77,274.05ZM232,152.27v15.32c0,18.6-5.38,34.09-16,46s-25.14,18-43.19,18S140.19,225.7,129.58,214s-16-27.3-16-46.44V152.27c0-17.53,5.51-32.35,16.39-44s25.27-17.58,42.78-17.58,31.92,5.92,42.79,17.58S232,134.74,232,152.27Zm-128,258.89V391.8c0-21.27,6.46-38.8,19.22-52.07s29.44-20,49.63-20c20.73,0,37.57,6.72,50.05,20s18.82,30.8,18.82,52.08v19.36c0,22.35-6.33,40.42-18.82,53.69s-29.32,20-50.05,20c-21.25,0-38.23-6.86-50.43-20.4S103.91,433,103.91,411.16Z"/>
</svg>
