<svg id="Layer_1" data-name="Layer 1" xmlns="http://www.w3.org/2000/svg" viewBox="0 0 350.83 576">
  <defs>
    <style>
      .cls-1 {
        fill: none;
        stroke: #ec008c;
        stroke-miterlimit: 10;
        stroke-width: 0.25px;
      }
    </style>
  </defs>
  <title>9</title>
  <path class="cls-1" d="M303.9,44.76C273.12,15.35,229.93.45,175.51.45,123.26.45,80.62,15.63,48.77,45.57s-48,72.2-48,125.54v26.18c0,48.45,13.39,87.24,39.82,115.29s62.19,42.29,106.3,42.29c14.73,0,28.12-2.57,39.83-7.65L70,575H184L313.4,323.51c12-23.91,21.19-46.37,27.44-66.76a216.39,216.39,0,0,0,9.43-63.55V167.84C350.27,115.58,334.67,74.17,303.9,44.76Zm-195,146.8V166.21c0-23.23,6-41.55,17.87-54.49S155,92.25,175.51,92.25s36.73,6.55,48.3,19.47,17.47,31,17.47,53.67v27c0,22.68-5.87,40.59-17.46,53.25S196,264.7,175.51,264.7s-36.88-6.42-48.73-19.07S108.92,214.78,108.92,191.56Z"/>
</svg>
