<svg id="Layer_1" data-name="Layer 1" xmlns="http://www.w3.org/2000/svg" viewBox="0 0 344.21 576">
  <defs>
    <style>
      .cls-1 {
        fill: none;
        stroke: #ec008c;
        stroke-miterlimit: 10;
        stroke-width: 0.25px;
      }
    </style>
  </defs>
  <title>_a</title>
  <path class="cls-1" d="M299.67,170c-29.39-25.78-72.12-38.86-127-38.86-48.77,0-88.12,12-117,35.52S12.21,222.8,12.21,263.32v3.83H109v-3c0-15.89,5.69-28.8,16.9-38.38s26.7-14.46,45.92-14.46c22.81,0,40.15,5.77,51.52,17.14s17.14,28.71,17.14,51.52v33.67H149.36C102.8,313.65,66,325,39.88,347.51S.54,401.1.54,440c0,42.17,12.39,75.64,36.82,99.51s59.3,36,103.67,36c23.29,0,42.84-3.38,58.1-10.05,15-6.52,29.73-17.19,43.89-31.72v36.76H344V285C344,234.52,329.09,195.85,299.67,170ZM240.51,385.47V415.8c0,25.3-6,44.38-17.77,56.73s-31.43,18.6-58.38,18.6c-20.89,0-36.76-4.52-47.18-13.42s-15.65-22.43-15.65-40.25c0-17.26,5.41-30.37,16.06-39s27-13,48.44-13Z"/>
</svg>
