<svg id="Layer_1" data-name="Layer 1" xmlns="http://www.w3.org/2000/svg" viewBox="0 0 344.81 576">
  <defs>
    <style>
      .cls-1 {
        fill: none;
        stroke: #ec008c;
        stroke-miterlimit: 10;
        stroke-width: 0.25px;
      }
    </style>
  </defs>
  <title>_b</title>
  <path class="cls-1" d="M198.65,136.49c-39.45,0-71.32,16-94.76,47.44V1.82H1.06V569.44H101.42V530.92c24,28.83,57.83,43.45,100.51,43.45,40.47,0,74.57-14.84,101.37-44.1s40.37-74,40.37-132.95V312.73c0-59-13.58-103.58-40.37-132.56S241.29,136.49,198.65,136.49ZM122.24,460.23c-12.72-15.16-19.18-37.44-19.18-66.2V316.84c0-28.77,6.32-51,18.78-66.21s29.71-22.81,51.35-22.81c20.56,0,37.14,7,49.31,20.77s18.35,36.76,18.35,68.25V394c0,29.59-5.49,52.08-16.33,66.84S197.29,483,175.65,483C152.92,483,135,475.36,122.24,460.23Z"/>
</svg>
