<svg id="Layer_1" data-name="Layer 1" xmlns="http://www.w3.org/2000/svg" viewBox="0 0 347.55 576">
  <defs>
    <style>
      .cls-1 {
        fill: none;
        stroke: #ec008c;
        stroke-miterlimit: 10;
        stroke-width: 0.25px;
      }
    </style>
  </defs>
  <title>_c</title>
  <path class="cls-1" d="M302.1,171.73c-30-27.2-72.16-41-125.4-41-54.36,0-97.82,14.92-129.17,44.33S.25,250.63.25,312.19v80.88c0,62.12,15.91,108.53,47.28,138s74.81,44.33,129.17,44.33c53.24,0,95.44-13.94,125.41-41.4s45.19-65.63,45.19-113.36v-6.34H247.9v5.5c0,19.77-6.25,35.36-18.59,46.32s-29.5,16.56-50.95,16.56c-23.64,0-42.18-7-55.09-20.69-6.44-6.86-11.35-16.19-14.57-27.73s-4.89-25.69-4.89-42V313.86c0-30,6.28-52.87,18.66-67.85s31.15-22.54,55.89-22.54c21.45,0,38.59,5.84,50.94,17.37s18.6,27.67,18.6,48v5.51h99.4v-8.84C347.3,237.22,332.1,198.94,302.1,171.73Z"/>
</svg>
