<svg id="Layer_1" data-name="Layer 1" xmlns="http://www.w3.org/2000/svg" viewBox="0 0 344 576">
  <defs>
    <style>
      .cls-1 {
        fill: none;
        stroke: #ec008c;
        stroke-miterlimit: 10;
        stroke-width: 0.25px;
      }
    </style>
  </defs>
  <title>_d</title>
  <path class="cls-1" d="M240.51,184.33C217.08,152.9,183.88,137,141.83,137c-41.49,0-75.68,14.67-101.61,43.6S1.15,254,1.15,312.9v84.43C1.15,456.2,14.57,500.86,41,530.05s60.66,44,101.6,44c42.6,0,76.07-14.59,99.51-43.35v38.43H342.33V2.54H240.51ZM168.88,482.9c-21.6,0-38-7.44-48.78-22.13s-16.3-37.18-16.3-66.72V317c0-29.53,5.68-52,16.9-66.71s28.22-22.14,50.64-22.14c21.59,0,38.7,7.66,50.85,22.77s18.32,37.36,18.32,66.08v77.06c0,28.71-6.3,50.95-18.73,66.08S191.56,482.9,168.88,482.9Z"/>
</svg>
