<svg id="Layer_1" data-name="Layer 1" xmlns="http://www.w3.org/2000/svg" viewBox="0 0 357.57 576">
  <defs>
    <style>
      .cls-1 {
        fill: none;
        stroke: #ec008c;
        stroke-miterlimit: 10;
        stroke-width: 0.25px;
      }
    </style>
  </defs>
  <title>_e</title>
  <path class="cls-1" d="M179.06,131.59c-55.34,0-99.4,16.43-131,48.82S.54,262,.54,326.75v52.41c0,66.38,16.56,116.18,49.23,148s77.29,48,132.61,48c52.56,0,94.65-12.65,125.11-37.56s45.93-58.38,45.93-99.38v-4.65h-99l-1,2.84,0,.12c-1.09,15.3-7.46,27.35-18.94,35.82s-27.63,12.79-47.94,12.79c-26.37,0-47-6.94-61.22-20.65s-21.48-36.82-21.48-68.69V384.65h252.9v-57.9c0-64.17-16.14-113.26-48-145.93S233.29,131.59,179.06,131.59Zm73.54,171v10.31H103.85v-2c0-16.24,1.64-30.33,4.88-41.88s8.1-20.82,14.54-27.66c12.87-13.7,31.64-20.64,55.79-20.64,24.41,0,43,6.86,55.16,20.42S252.6,275.43,252.6,302.63Z"/>
</svg>
