<svg id="Layer_1" data-name="Layer 1" xmlns="http://www.w3.org/2000/svg" viewBox="0 0 347.55 706.27">
  <defs>
    <style>
      .cls-1 {
        fill: none;
        stroke: #ec008c;
        stroke-miterlimit: 10;
        stroke-width: 0.25px;
      }
    </style>
  </defs>
  <title>_g</title>
  <path class="cls-1" d="M244,178.39c-23.77-31.89-57.45-48-100.13-48-42.08,0-76.76,14.89-103.07,44.24S1.19,249.08,1.19,308.8v47.4c0,59.73,13.61,105,40.46,134.65s61.54,44.65,103.08,44.65c43.21,0,77.17-14.8,101-44v51.81c0,26.36-5.89,46.4-17.55,59.55s-29.33,19.79-52.64,19.79c-19.21,0-34.92-4-46.7-12S109.7,592.09,107,579l-.08-.4H7l0,.54c2.77,39.32,18.37,70.5,46.35,92.67s67.65,33.37,118,33.37c54.76,0,98.25-15.3,129.24-45.47s46.73-71.56,46.73-123V135.33H244ZM171.34,443c-21.91,0-38.56-7.56-49.49-22.46s-16.55-37.73-16.55-67.69V313c0-30,5.78-52.73,17.16-67.68s28.63-22.46,51.37-22.46c21.92,0,39.28,7.76,51.6,23.09S244,283.83,244,313v39.92c0,29.13-6.39,51.68-19,67.05S194.35,443,171.34,443Z"/>
</svg>
