<svg id="Layer_1" data-name="Layer 1" xmlns="http://www.w3.org/2000/svg" viewBox="0 0 585.55 576">
  <defs>
    <style>
      .cls-1 {
        fill: none;
        stroke: #ec008c;
        stroke-miterlimit: 10;
        stroke-width: 0.25px;
      }
    </style>
  </defs>
  <title>_m</title>
  <path class="cls-1" d="M437.17,136.47c-48,0-89.13,18.11-122.3,53.82-25.5-35.71-62.76-53.82-110.75-53.82a141.59,141.59,0,0,0-56.38,11.71,135.3,135.3,0,0,0-45.5,31.64V141.47H.53V575.28H104.74V305.11c0-24.17,6.39-43.1,19-56.26S153,229,173.32,229c19.75,0,36,6.53,48.33,19.4s18.59,32,18.59,56.68V575.28H344.45V302.61c0-22,6.26-39.91,18.6-53.35S392.19,229,413,229c19.75,0,36,6.53,48.33,19.4s18.59,32,18.59,56.68V575.28H584.16V292.62c0-48.18-13.07-86.66-38.84-114.36S483.15,136.47,437.17,136.47Z"/>
</svg>
