<svg id="Layer_1" data-name="Layer 1" xmlns="http://www.w3.org/2000/svg" viewBox="0 0 351.73 576">
  <defs>
    <style>
      .cls-1 {
        fill: none;
        stroke: #ec008c;
        stroke-miterlimit: 10;
        stroke-width: 0.25px;
      }
    </style>
  </defs>
  <title>_o</title>
  <path class="cls-1" d="M304.47,175.57c-31-29.39-74.05-44.29-127.8-44.29-54.29,0-97.71,14.9-129,44.29S.4,251.05.4,312.55v80.81c0,62.05,15.89,108.42,47.23,137.82s74.75,44.28,129,44.28c53.75,0,96.76-14.91,127.8-44.29s46.81-75.76,46.81-137.81V312.55C351.28,251.05,335.54,205,304.47,175.57Zm-200.6,217v-78.3c0-30,6.13-52.82,18.22-67.79s30.42-22.51,54.58-22.51c23.61,0,41.56,7.57,53.34,22.51s17.81,37.78,17.81,67.79v78.3c0,30-6,52.83-17.81,67.8s-29.73,22.5-53.34,22.5c-24.16,0-42.52-7.57-54.58-22.51S103.87,422.53,103.87,392.52Z"/>
</svg>
