<svg id="Layer_1" data-name="Layer 1" xmlns="http://www.w3.org/2000/svg" viewBox="0 0 348.39 706.97">
  <defs>
    <style>
      .cls-1 {
        fill: none;
        stroke: #ec008c;
        stroke-miterlimit: 10;
        stroke-width: 0.25px;
      }
    </style>
  </defs>
  <title>_p</title>
  <path class="cls-1" d="M200.92,138.45c-40,0-73.13,16.14-98.51,48v-43H.74V705H104.9V537.53c23.79,28.57,57.2,43.06,99.35,43.06,41,0,75.55-15,102.69-44.53s40.9-74.7,40.9-134.25V316.4c0-59.56-13.76-104.58-40.9-133.85S244.12,138.45,200.92,138.45ZM123.51,465.34c-12.9-15.31-19.43-37.8-19.43-66.85V320.54c0-29,6.39-51.54,19-66.85s30.09-23,52-23c20.84,0,37.64,7.06,50,21s18.59,37.11,18.59,68.9v77.95c0,29.88-5.56,52.59-16.54,67.49s-27.61,22.4-49.52,22.4C154.59,488.38,136.39,480.63,123.51,465.34Z"/>
</svg>
