<svg id="Layer_1" data-name="Layer 1" xmlns="http://www.w3.org/2000/svg" viewBox="0 0 347.55 715.32">
  <defs>
    <style>
      .cls-1 {
        fill: none;
        stroke: #ec008c;
        stroke-miterlimit: 10;
        stroke-width: 0.25px;
      }
    </style>
  </defs>
  <title>_q</title>
  <path class="cls-1" d="M245,194.11C220.68,162.21,187.56,146,146.53,146,103.35,146,67.85,160.93,41,190.27S.53,264.76.53,324.47v85.64c0,59.7,13.61,105,40.46,134.61s61.53,44.64,103,44.64c42.12,0,75.51-14.53,99.28-43.17V714.07H346.58V151H245Zm-74.32,302.8c-21.91,0-38.55-7.55-49.48-22.46s-16.54-37.71-16.54-67.67V328.62c0-29.95,5.77-52.72,17.15-67.66s28.63-22.46,51.36-22.46c21.91,0,39.27,7.77,51.57,23.1s18.6,37.9,18.6,67v78.16c0,29.12-6.39,51.67-19,67S193.66,496.91,170.65,496.91Z"/>
</svg>
