<svg id="Layer_1" data-name="Layer 1" xmlns="http://www.w3.org/2000/svg" viewBox="0 0 340.04 576">
  <defs>
    <style>
      .cls-1 {
        fill: none;
        stroke: #ec008c;
        stroke-miterlimit: 10;
        stroke-width: 0.25px;
      }
    </style>
  </defs>
  <title>_s</title>
  <path class="cls-1" d="M306,350.41c-21.45-20.35-54.08-33.74-97-39.79l-50.41-7.44c-19.1-2.72-33.06-7.69-41.48-14.76s-12.64-16.92-12.64-29.37c0-13.54,5.49-24.54,16.33-32.66s26.91-12.29,47.64-12.29,37.18,4.14,48.88,12.3,17.56,19.67,17.56,34.3v3h96v-5.46a108.93,108.93,0,0,0-20.34-64.33c-13.49-19-32.74-34.06-57.22-44.79s-53-16.16-84.9-16.16c-46.73,0-85.62,12.13-115.6,36.06S7.66,225.76,7.66,266.49c0,35.78,10.34,63.71,30.74,83s52.42,32.65,95.28,39.8l45.47,7.44C201,400,216.77,405.25,226,412.32s13.86,17.18,13.86,30.19c0,15.72-6.33,27.67-18.78,35.52s-30.24,11.91-52.62,11.91c-20.73,0-37.74-4.56-50.54-13.54s-19.21-21.47-19.21-37.2v-2.15H1.88v3.8C1.88,481,17,513.56,46.69,537.51s69.56,36.06,118.48,36.06c51.11,0,93.19-12.14,125.08-36.05s48.13-58.42,48.13-102.46C338.38,399.28,327.49,370.8,306,350.41Z"/>
</svg>
