<svg id="Layer_1" data-name="Layer 1" xmlns="http://www.w3.org/2000/svg" viewBox="0 0 540.98 576">
  <defs>
    <style>
      .cls-1 {
        fill: none;
        stroke: #ec008c;
        stroke-miterlimit: 10;
        stroke-width: 0.25px;
      }
    </style>
  </defs>
  <title>At_Sign	</title>
  <path class="cls-1" d="M410.36,33.18C369.62,11.43,322.74.41,271,.41c-52.63,0-100,11.14-140.74,33.11S57.36,86.74,34.7,126.35.54,212.26.54,264V312.2a304.45,304.45,0,0,0,8.58,73.37A249.49,249.49,0,0,0,34.7,449.84c22.66,39.61,54.82,70.85,95.57,92.83S218.38,575.79,271,575.79c33.4,0,64.26-3.72,91.73-11a328.94,328.94,0,0,0,81.39-34.49l.41-.24-30.75-59.4-.44.23c-23.27,11.86-46.19,20.77-68.09,26.47s-46.87,8.59-74.25,8.59c-39.67,0-74.35-8.09-103.06-24a162.79,162.79,0,0,1-66.26-68c-15.27-29.18-23-63.63-23-102.39v-48.9c0-59.27,17.21-106.65,51.15-140.83S211.28,70.28,271,70.28c39.67,0,74.24,7.86,102.73,23.35a160.69,160.69,0,0,1,65.91,66.26c15.27,28.48,23,62.58,23,101.34v48.21c0,25.05-3.22,43.39-9.57,54.51s-15.89,16.63-28.5,16.63c-9.9,0-18-3.54-24.07-10.51s-9.18-17.89-9.18-32.39V140.9H315.28v26.22c-6-9.88-15.15-18-27.17-24.09-12.63-6.45-27.43-9.7-44-9.7-33.53,0-58.8,11.19-75.12,33.26s-24.55,53.17-24.55,92.59v60.6c0,41.47,8.78,73,26.11,93.81s43.72,31.34,78.38,31.34c43.66,0,73.32-14.86,88.18-44.2a81.6,81.6,0,0,0,33.49,32.43c14.69,7.81,32.62,11.77,53.26,11.77,33.5,0,61.67-11.75,83.7-34.93s33.19-57.24,33.19-101.24V260.54c0-50.35-11.6-95.85-34.5-135.23S451.12,54.93,410.36,33.18ZM222.61,315.65V259.18c0-18.64,3.8-33.49,11.28-44.14s19.23-16,35.05-16c14.92,0,26.25,5.09,33.69,15.13s11.27,25.44,11.27,45.67v57.85c0,20.46-3.79,36-11.27,46.2s-18.77,15.29-33.69,15.29c-16.27,0-28.18-5.49-35.39-16.31S222.61,336.11,222.61,315.65Z"/>
</svg>
