<svg id="Layer_1" data-name="Layer 1" xmlns="http://www.w3.org/2000/svg" viewBox="0 0 409.35 576">
  <defs>
    <style>
      .cls-1 {
        fill: none;
        stroke: #ec008c;
        stroke-miterlimit: 10;
        stroke-width: 0.25px;
      }
    </style>
  </defs>
  <title>B</title>
  <path class="cls-1" d="M329.3,279.84a125.08,125.08,0,0,0,52.56-48.44,135.81,135.81,0,0,0,19.22-70.63c0-51-15.88-90.9-47.22-118.64S278.29.37,222.36.37H.33V576H231.52c55.39,0,99.22-14.61,130.26-43.44s46.8-69.86,46.8-122c0-31.05-6.89-58-20.47-80.21C374.68,308.49,354.89,291.48,329.3,279.84ZM290.15,167.43c0,21.4-6.53,38.24-19.41,50s-32,17.77-56.71,17.77H110.43V96.31H214c24.74,0,43.82,6.12,56.71,18.18S290.15,144.37,290.15,167.43ZM110.43,331.17H220.69c25.84,0,45.48,6.39,58.36,19s19.43,30.42,19.43,52.94c0,24.18-6.54,43.27-19.44,56.7s-32.52,20.26-58.35,20.26H110.43Z"/>
</svg>
