<svg id="Layer_1" data-name="Layer 1" xmlns="http://www.w3.org/2000/svg" viewBox="0 0 405.5 576">
  <defs>
    <style>
      .cls-1 {
        fill: none;
        stroke: #ec008c;
        stroke-miterlimit: 10;
        stroke-width: 0.25px;
      }
    </style>
  </defs>
  <title>C</title>
  <path class="cls-1" d="M351.15,50C315.11,17.68,266,1.32,205.27,1.32c-68,0-119.77,18.75-153.81,55.75S.19,150.28.19,224.19V352c0,73.91,17.11,130.14,50.87,167.12s85.1,55.76,152.59,55.76c61.83,0,111.19-16.23,146.7-48.24s53.54-78.54,53.54-138.25v-6.16H298.57v7c0,27.77-8,50-23.71,66S236,479.22,206.08,479.22c-33.65,0-58.68-10.27-74.41-30.53s-23.75-53.39-23.75-98.35V229.85c0-47.65,7.73-82.37,23-103.22S170.82,95.3,204.46,95.3c29.91,0,53.32,8.39,69.59,24.92s24.52,39.28,24.52,67.58v5.35H405.5V187C405.5,128.36,387.21,82.26,351.15,50Z"/>
</svg>
