<svg id="Layer_1" data-name="Layer 1" xmlns="http://www.w3.org/2000/svg" viewBox="0 0 407.25 576">
  <defs>
    <style>
      .cls-1 {
        fill: none;
        stroke: #ec008c;
        stroke-miterlimit: 10;
        stroke-width: 0.25px;
      }
    </style>
  </defs>
  <title>G</title>
  <path class="cls-1" d="M352,49C315.91,16.88,266.71.61,205.82.61c-68.17,0-120,18.8-154.15,55.88S.28,149.91.28,224V352c0,74.08,17.16,130.43,51,167.49s85.29,55.89,152.93,55.89c67.09,0,118.13-18.12,151.71-53.86s50.59-90,50.59-161.41V264H202.89v88.53h98.88v26.25c0,33.76-7.47,59.27-22.17,75.85s-38.42,25-70.54,25c-34.26,0-59.9-10.17-76.19-30.21s-24.61-53.37-24.61-99V229.66c0-47.76,7.73-82.56,23-103.44s40-31.41,73.75-31.41c30,0,53.45,8.41,69.74,25s24.58,37.73,24.58,62.87v6.17H406.5v-6.17C406.5,126,388.18,81.05,352,49Z"/>
</svg>
