<svg id="Layer_1" data-name="Layer 1" xmlns="http://www.w3.org/2000/svg" viewBox="0 0 189.33 576">
  <defs>
    <style>
      .cls-1 {
        fill: none;
        stroke: #ec008c;
        stroke-miterlimit: 10;
        stroke-width: 0.25px;
      }
    </style>
  </defs>
  <title>Left_Brace</title>
  <path class="cls-1" d="M75.2,24.64C60.43,39.17,52.94,60.33,52.94,87.53V194.64c0,19.14-3.91,33.21-11.62,41.83s-21.29,13-40.41,13H.42v74.24H.91c19.12,0,32.72,4.37,40.41,13s11.62,22.69,11.62,41.83V487.67c0,27.64,7.49,49,22.26,63.58s36.28,21.91,63.94,21.91H188V503.07H163.33c-19.2,0-28.54-9.79-28.54-29.92V374.33c0-26.22-3.62-46.07-10.77-59-7-12.62-19.53-22.3-37.27-28.76,17.74-6,30.28-15.61,37.27-28.47,7.15-13.14,10.77-33.1,10.77-59.32V102.73c0-20.13,9.34-29.91,28.54-29.91H188V2.72H139.14C111.48,2.72,90,10.09,75.2,24.64Z"/>
</svg>
