<svg id="Layer_1" data-name="Layer 1" xmlns="http://www.w3.org/2000/svg" viewBox="0 0 407.24 576">
  <defs>
    <style>
      .cls-1 {
        fill: none;
        stroke: #ec008c;
        stroke-miterlimit: 10;
        stroke-width: 0.25px;
      }
    </style>
  </defs>
  <title>O</title>
  <path class="cls-1" d="M352.43,52.89c-36.17-34.81-86-52.46-148-52.46-67.7,0-119.2,18.82-153.09,55.93S.31,149.88.31,224V352.2c0,74.14,16.89,130.54,50.23,167.65s84,55.94,150.65,55.94c62.57,0,113-17.65,150-52.46s55.73-92.4,55.73-171.13V224C406.93,145.29,388.59,87.72,352.43,52.89Zm-244,297.68V229.7c0-48.34,7.61-83.31,22.63-103.95s39.67-31,73.41-31c32.13,0,56.29,10.72,71.8,31.84s23.43,55.88,23.43,103.14V350.57c0,44.57-7.89,77.63-23.43,98.27s-39.66,31-71.8,31c-33.75,0-58.45-10.16-73.43-30.22S108.39,396.22,108.39,350.57Z"/>
</svg>
