<svg id="Layer_1" data-name="Layer 1" xmlns="http://www.w3.org/2000/svg" viewBox="0 0 675.92 576">
  <defs>
    <style>
      .cls-1 {
        fill: none;
        stroke: #ec008c;
        stroke-miterlimit: 10;
        stroke-width: 0.25px;
      }
    </style>
  </defs>
  <title>Percent</title>
  <g>
    <path class="cls-1" d="M564.08,221.29c-35.91,0-63.64,9.81-82.42,29.15s-28.32,48.43-28.32,86.5v116c0,40.23,9,71,26.66,91.38s46,30.79,84.08,30.79c37.53,0,65.55-10.35,83.25-30.79S674,493.12,674,452.89V336.94c0-38.61-9-67.84-26.68-86.9S601.6,221.29,564.08,221.29ZM538.44,448.81V347.55c0-20.52,1.64-34.75,4.86-42.27s10.15-11.12,20.78-11.12,17.46,3.73,20.36,11.11c2.95,7.53,4.45,21.76,4.45,42.28V448.81c0,21.07-1.36,35.3-4,42.28s-9.61,10.3-20.76,10.3-18.28-3.74-21.18-11.11C540,482.75,538.44,468.79,538.44,448.81Z"/>
    <polygon class="cls-1" points="536.34 1.64 454.36 1.64 139.83 569.43 139.42 570.16 220.58 570.16 535.93 2.37 536.34 1.64"/>
    <path class="cls-1" d="M194.94,323.79c17.69-20.41,26.67-51.16,26.67-91.38V116.46c0-38.6-9-67.84-26.68-86.9S149.22.82,111.69.82C75.78.82,48.05,10.62,29.26,30S.94,78.39.94,116.46v116c0,40.22,9,71,26.67,91.38s46,30.79,84.08,30.79C149.22,354.58,177.24,344.22,194.94,323.79ZM86.05,228.33V127.07c0-20.52,1.63-34.74,4.86-42.26s10.16-11.14,20.78-11.14,17.46,3.75,20.36,11.12c3,7.53,4.45,21.75,4.45,42.28V228.33c0,21.07-1.36,35.3-4.05,42.28-2.62,6.83-9.62,10.3-20.76,10.3s-18.28-3.74-21.18-11.12C87.55,262.26,86.05,248.32,86.05,228.33Z"/>
  </g>
</svg>
