<svg id="Layer_1" data-name="Layer 1" xmlns="http://www.w3.org/2000/svg" viewBox="0 0 418.53 714.33">
  <defs>
    <style>
      .cls-1 {
        fill: none;
        stroke: #ec008c;
        stroke-miterlimit: 10;
        stroke-width: 0.25px;
      }
    </style>
  </defs>
  <title>Q</title>
  <path class="cls-1" d="M362.23,54.46C325.06,18.69,273.89.55,210.14.55,140.56.55,87.62,19.89,52.8,58S.35,154.14.35,230.34V362.08C.35,438.27,17.72,496.24,52,534.37s86.35,57.5,154.83,57.5a344.84,344.84,0,0,0,42.25-2.47l67.37,123.94.24.44,84.26-46.34L340,555.66c25.91-18.29,45.62-43.8,58.6-75.83s19.63-71.77,19.63-117.75V230.34C418.25,149.42,399.4,90.25,362.23,54.46Zm-250.82,306V236.17c0-49.68,7.83-85.62,23.26-106.84s40.77-31.89,75.47-31.89c33,0,57.85,11,73.8,32.73S308,187.6,308,236.17V360.41c0,45.81-8.1,79.79-24.07,101s-40.78,31.9-73.81,31.9c-34.7,0-60.09-10.46-75.48-31.07S111.41,407.33,111.41,360.41Z"/>
</svg>
