<svg id="Layer_1" data-name="Layer 1" xmlns="http://www.w3.org/2000/svg" viewBox="0 0 326.69 576">
  <defs>
    <style>
      .cls-1 {
        fill: none;
        stroke: #ec008c;
        stroke-miterlimit: 10;
        stroke-width: 0.25px;
      }
    </style>
  </defs>
  <title>Question_Mark</title>
  <g>
    <rect class="cls-1" x="106.2" y="471.39" width="108.55" height="104.44"/>
    <path class="cls-1" d="M247.72,19.12C223.41,6.55,195,.17,163.35.17c-50.8,0-90.41,13.59-117.74,40.37S3.86,106.94,2.76,158.28v.51H103.08l0-.49c.54-21.67,5.33-38,14.25-48.53s23.26-15.83,42.72-15.83,34.12,5.06,43.55,15,14.23,23.81,14.23,41.12a80.6,80.6,0,0,1-6.53,32.23c-4.34,10-12,22.29-22.92,36.42L143.25,277a259.2,259.2,0,0,0-17.57,25.71,110.6,110.6,0,0,0-10,21.23c-4.1,12.58-6.18,29.76-6.18,51v42.37H212.28v-35c0-13.56,1.51-24.69,4.49-33.08s8.9-18.44,17.58-29.83l47.61-64c14.74-19.1,25.53-37.23,32.08-53.9s9.89-35.1,9.89-54.77c0-27.87-6.65-53.24-19.78-75.37S272.05,31.68,247.72,19.12Z"/>
  </g>
</svg>
