<svg id="Layer_1" data-name="Layer 1" xmlns="http://www.w3.org/2000/svg" viewBox="0 0 428.03 576">
  <defs>
    <style>
      .cls-1 {
        fill: none;
        stroke: #ec008c;
        stroke-miterlimit: 10;
        stroke-width: 0.25px;
      }
    </style>
  </defs>
  <title>R</title>
  <path class="cls-1" d="M376.9,268.4c17.4-26,26.22-58.16,26.22-95.7,0-52.45-16.81-94.58-49.95-125.23S275,1.28,219.25,1.28H1.37v573.5H111.06V342.46h80.5l108.56,232,.12.29H426.65L302.09,325.64C334.42,313.48,359.59,294.22,376.9,268.4ZM111.06,96.87H213.45c24.64,0,44.34,6.93,58.56,20.6s21.42,32.25,21.42,55.23c0,25.18-7.07,44.74-21,58.14S238.64,251,213.45,251H111.06Z"/>
</svg>
