<svg id="Layer_1" data-name="Layer 1" xmlns="http://www.w3.org/2000/svg" viewBox="0 0 190.03 576">
  <defs>
    <style>
      .cls-1 {
        fill: none;
        stroke: #ec008c;
        stroke-miterlimit: 10;
        stroke-width: 0.25px;
      }
    </style>
  </defs>
  <title>Right_Brace</title>
  <path class="cls-1" d="M148.31,236c-8-8.7-12.06-22.88-12.06-42.17v-108c0-27.42-7.43-48.76-22.09-63.42S77.93.28,50,.28H.07V71H25c19.82,0,29.46,9.87,29.46,30.17V198c0,26.44,3.66,46.57,10.87,59.82,7,13,19.69,22.61,37.58,28.7C85,293,72.34,302.77,65.29,315.5c-7.21,13-10.87,33-10.87,59.48v99.65c0,20.29-9.64,30.16-29.46,30.16H.07v70.68H50c27.89,0,49.45-7.43,64.12-22.1s22.09-36.23,22.09-64.11V379.16c0-19.29,4.07-33.48,12.06-42.17s21.59-13.08,40.41-13.08h.5V249.05h-.5C169.9,249.05,156.31,244.65,148.31,236Z"/>
</svg>
