<svg id="Layer_1" data-name="Layer 1" xmlns="http://www.w3.org/2000/svg" viewBox="0 0 399 576">
  <defs>
    <style>
      .cls-1 {
        fill: none;
        stroke: #ec008c;
        stroke-miterlimit: 10;
        stroke-width: 0.25px;
      }
    </style>
  </defs>
  <title>S</title>
  <path class="cls-1" d="M253.24,242.8,193.8,232.21c-26.38-4.84-46-13-58.38-24.3s-18.56-26.74-18.56-46c0-22,7.06-39.55,21-52.15s34.94-19,62.37-19c26.88,0,47.59,6.26,61.55,18.6s21.83,32.22,23.44,59.1l0,.47H388.86l-.05-.54c-4.33-53.08-22.88-94.83-55.12-124.1S257.09.15,201.85.15C145,.15,98.72,15.53,64.32,45.87S12.45,118,12.45,170c0,43.63,12.85,79,38.21,105s63.85,43.45,114.47,51.85l52.93,9c25.83,4.31,44.91,12.34,56.73,23.89s17.76,28.52,17.76,50.53c0,24.42-7.54,43-22.41,55.18s-37.6,18.41-67.47,18.41c-31.22,0-55.09-6.4-70.94-19S106,430.23,102.2,399.56l-.06-.44H.2l0,.54C4,456.52,23,500.61,56.58,530.68S137.68,576,197.78,576c61.17,0,110.46-15.11,146.48-44.9s54.33-73.5,54.33-129.85c0-43.89-12.24-79.48-36.37-105.78S301.44,251.46,253.24,242.8Z"/>
</svg>
