<?xml version="1.0" encoding="utf-8"?>
<!-- Generator: Adobe Illustrator 22.1.0, SVG Export Plug-In . SVG Version: 6.00 Build 0)  -->
<svg version="1.1" id="Layer_1" xmlns="http://www.w3.org/2000/svg" xmlns:xlink="http://www.w3.org/1999/xlink" x="0px" y="0px"
	 viewBox="0 0 72 72" style="enable-background:new 0 0 72 72;" xml:space="preserve">
<style type="text/css">
	.st0{fill:#EC008C;}
</style>
<g>
	<path class="st0" d="M28.5,17.7c0.6-0.1,1.4-0.2,2.2-0.2c1.5,0,2.6,0.3,3.3,1s1.1,1.6,1.1,2.9s-0.4,2.4-1.2,3.1
		c-0.8,0.8-2,1.2-3.6,1.2c-0.7,0-1.4,0-1.9-0.1v-7.9H28.5z M29.6,24.8c0.3,0,0.6,0.1,1.1,0.1c2.2,0,3.4-1.2,3.4-3.4
		c0-1.9-1.1-3.1-3.3-3.1c-0.5,0-0.9,0-1.2,0.1C29.6,18.5,29.6,24.8,29.6,24.8z"/>
	<path class="st0" d="M43.4,21.5c0,2.8-1.7,4.3-3.8,4.3S36,24.1,36,21.7c0-2.6,1.6-4.2,3.8-4.2S43.4,19.1,43.4,21.5z M37.2,21.7
		c0,1.7,0.9,3.3,2.6,3.3c1.7,0,2.6-1.5,2.6-3.4c0-1.6-0.8-3.3-2.6-3.3C38,18.3,37.2,19.9,37.2,21.7z"/>
	<path class="st0" d="M25.8,40.1V32h1.1l2.6,4.1c0.6,0.9,1.1,1.8,1.5,2.6l0,0c-0.1-1.1-0.1-2.1-0.1-3.3V32h1v8.1h-1.1L28.2,36
		c-0.6-0.9-1.1-1.8-1.5-2.7l0,0c0.1,1,0.1,2,0.1,3.3v3.5H25.8z"/>
	<path class="st0" d="M40.6,35.9c0,2.8-1.7,4.3-3.8,4.3s-3.6-1.7-3.6-4.1c0-2.6,1.6-4.2,3.8-4.2C39.1,31.9,40.6,33.5,40.6,35.9z
		 M34.3,36.1c0,1.7,0.9,3.3,2.6,3.3c1.7,0,2.6-1.5,2.6-3.4c0-1.6-0.8-3.3-2.6-3.3C35.2,32.7,34.3,34.3,34.3,36.1z"/>
	<path class="st0" d="M43.2,32.9h-2.5V32h6v0.9h-2.5v7.2h-1.1L43.2,32.9L43.2,32.9z"/>
	<path class="st0" d="M17.9,46.5c0.6-0.1,1.4-0.2,2.2-0.2c1.5,0,2.6,0.3,3.3,1c0.7,0.7,1.1,1.6,1.1,2.9c0,1.3-0.4,2.4-1.2,3.1
		c-0.8,0.8-2,1.2-3.6,1.2c-0.7,0-1.4,0-1.9-0.1v-7.9H17.9z M19,53.6c0.3,0,0.6,0.1,1.1,0.1c2.2,0,3.4-1.2,3.4-3.4
		c0-1.9-1.1-3.1-3.3-3.1c-0.5,0-0.9,0-1.2,0.1V53.6z"/>
	<path class="st0" d="M30.1,50.7H27v2.9h3.5v0.9H26v-8.1h4.4v0.9H27v2.6h3.1V50.7z"/>
	<path class="st0" d="M31.8,46.4h1v7.2h3.5v0.9h-4.5V46.4z"/>
	<path class="st0" d="M41.7,50.7h-3.1v2.9H42v0.9h-4.5v-8.1h4.4v0.9h-3.3v2.6h3.1V50.7z"/>
	<path class="st0" d="M45.1,47.3h-2.5v-0.9h6v0.9h-2.5v7.2H45L45.1,47.3L45.1,47.3z"/>
	<path class="st0" d="M53.7,50.7h-3.1v2.9h3.5v0.9h-4.5v-8.1H54v0.9h-3.3v2.6h3.1L53.7,50.7L53.7,50.7z"/>
</g>
</svg>
