<?xml version="1.0" encoding="utf-8"?>
<!-- Generator: Adobe Illustrator 22.1.0, SVG Export Plug-In . SVG Version: 6.00 Build 0)  -->
<svg version="1.1" id="Layer_1" xmlns="http://www.w3.org/2000/svg" xmlns:xlink="http://www.w3.org/1999/xlink" x="0px" y="0px"
	 viewBox="0 0 648 244.2" style="enable-background:new 0 0 648 244.2;" xml:space="preserve">
<style type="text/css">
	.st0{fill:none;stroke:#EC008C;stroke-width:0.25;stroke-miterlimit:10;}
</style>
<g transform="translate(10.399859993176335, 10) scale(0.2641955686662373) ">
	<title>E</title>
	<path class="st0" d="M271.6,575.9H0.1V12.5h269.3v104H104.1V242h142.4v104.4H104.1v125.5h167.5V575.9z"/>
</g>
<g transform="translate(101.01894004569573, 10) scale(0.2641955686662373) ">
	<title>_r</title>
	<path class="st0" d="M335.4,575.9H223.9l-88.6-229.5h-30.8v229.5H0.1V12.5h249.9l66.3,59.2v206.9l-71,66.3L335.4,575.9z M104.5,242
		h107.9V116.2H104.5V242z"/>
</g>
<g transform="translate(208.5465364928543, 10) scale(0.2641955686662373) ">
	<title>_i</title>
	<path class="st0" d="M104.5,575.9H0.1V12.5h104.4V575.9z"/>
</g>
<g transform="translate(255.04495657811208, 10) scale(0.2641955686662373) ">
	<title>_k</title>
	<path class="st0" d="M331.8,12.5L192.7,294.4l139.1,281.5H216L104.1,346.4v229.5H0.1V12.5h104V242L216,12.5H331.8z"/>
</g>
<g transform="translate(361.7799663192719, 10) scale(0.2641955686662373) ">
	<title>_a</title>
	<path class="st0" d="M265.5,575.9l-25.1-125.5h-109l-25.1,125.5H0.2L112.7,12.5h146.3l112.6,563.3H265.5z M219.6,346.4l-33.7-168.5
		l-33.7,168.5H219.6z"/>
</g>
<g transform="translate(554.9069270142913, 10) scale(0.2641955686662373) ">
	<title>S</title>
	<path class="st0" d="M313.2,517.1l-66.3,58.8H67.2L0.1,517.1v-90.7h104v45.5h105.1V346.4h-142L0.1,287.2V71.7l67.1-59.2h179.7
		l66.3,58.8v87.5h-104v-42.3H104.1V242h142.7l66.3,59.2V517.1z"/>
</g>
</svg>
